<?xml version="1.0" encoding="UTF-8" standalone="no"?>
<!DOCTYPE svg PUBLIC "-//W3C//DTD SVG 1.1//EN"
 "http://www.w3.org/Graphics/SVG/1.1/DTD/svg11.dtd">
<!-- Generated by graphviz version 2.40.1 (20161225.0304)
 -->
<!-- Title: Perl Pages: 1 -->
<svg width="927pt" height="1494pt"
 viewBox="0.00 0.00 927.00 1494.00" xmlns="http://www.w3.org/2000/svg" xmlns:xlink="http://www.w3.org/1999/xlink">
<g id="graph0" class="graph" transform="scale(1 1) rotate(0) translate(4 1490)">
<title>Perl</title>
<polygon fill="#ffffff" stroke="transparent" points="-4,4 -4,-1490 923,-1490 923,4 -4,4"/>
<!-- term -->
<g id="node1" class="node">
<title>term</title>
<path fill="none" stroke="#000000" d="M235.5,-403.5C235.5,-403.5 438.5,-403.5 438.5,-403.5 444.5,-403.5 450.5,-409.5 450.5,-415.5 450.5,-415.5 450.5,-552.5 450.5,-552.5 450.5,-558.5 444.5,-564.5 438.5,-564.5 438.5,-564.5 235.5,-564.5 235.5,-564.5 229.5,-564.5 223.5,-558.5 223.5,-552.5 223.5,-552.5 223.5,-415.5 223.5,-415.5 223.5,-409.5 229.5,-403.5 235.5,-403.5"/>
<text text-anchor="middle" x="249" y="-480.3" font-family="Times,serif" font-size="14.00" fill="#000000">term</text>
<polyline fill="none" stroke="#000000" points="274.5,-403.5 274.5,-564.5 "/>
<text text-anchor="middle" x="285" y="-480.3" font-family="Times,serif" font-size="14.00" fill="#000000"> </text>
<polyline fill="none" stroke="#000000" points="295.5,-403.5 295.5,-564.5 "/>
<text text-anchor="middle" x="362.5" y="-549.3" font-family="Times,serif" font-size="14.00" fill="#000000">desc</text>
<polyline fill="none" stroke="#000000" points="295.5,-541.5 429.5,-541.5 "/>
<text text-anchor="middle" x="362.5" y="-526.3" font-family="Times,serif" font-size="14.00" fill="#000000">id</text>
<polyline fill="none" stroke="#000000" points="295.5,-518.5 429.5,-518.5 "/>
<text text-anchor="middle" x="362.5" y="-503.3" font-family="Times,serif" font-size="14.00" fill="#000000">nanoid6</text>
<polyline fill="none" stroke="#000000" points="295.5,-495.5 429.5,-495.5 "/>
<text text-anchor="middle" x="362.5" y="-480.3" font-family="Times,serif" font-size="14.00" fill="#000000">nanoid8</text>
<polyline fill="none" stroke="#000000" points="295.5,-472.5 429.5,-472.5 "/>
<text text-anchor="middle" x="362.5" y="-457.3" font-family="Times,serif" font-size="14.00" fill="#000000">origin_definition</text>
<polyline fill="none" stroke="#000000" points="295.5,-449.5 429.5,-449.5 "/>
<text text-anchor="middle" x="362.5" y="-434.3" font-family="Times,serif" font-size="14.00" fill="#000000">origin_id</text>
<polyline fill="none" stroke="#000000" points="295.5,-426.5 429.5,-426.5 "/>
<text text-anchor="middle" x="362.5" y="-411.3" font-family="Times,serif" font-size="14.00" fill="#000000">value</text>
<polyline fill="none" stroke="#000000" points="429.5,-403.5 429.5,-564.5 "/>
<text text-anchor="middle" x="440" y="-480.3" font-family="Times,serif" font-size="14.00" fill="#000000"> </text>
</g>
<!-- origin -->
<g id="node2" class="node">
<title>origin</title>
<path fill="none" stroke="#000000" d="M128,-190.5C128,-190.5 300,-190.5 300,-190.5 306,-190.5 312,-196.5 312,-202.5 312,-202.5 312,-339.5 312,-339.5 312,-345.5 306,-351.5 300,-351.5 300,-351.5 128,-351.5 128,-351.5 122,-351.5 116,-345.5 116,-339.5 116,-339.5 116,-202.5 116,-202.5 116,-196.5 122,-190.5 128,-190.5"/>
<text text-anchor="middle" x="145.5" y="-267.3" font-family="Times,serif" font-size="14.00" fill="#000000">origin</text>
<polyline fill="none" stroke="#000000" points="175,-190.5 175,-351.5 "/>
<text text-anchor="middle" x="185.5" y="-267.3" font-family="Times,serif" font-size="14.00" fill="#000000"> </text>
<polyline fill="none" stroke="#000000" points="196,-190.5 196,-351.5 "/>
<text text-anchor="middle" x="243.5" y="-336.3" font-family="Times,serif" font-size="14.00" fill="#000000">desc</text>
<polyline fill="none" stroke="#000000" points="196,-328.5 291,-328.5 "/>
<text text-anchor="middle" x="243.5" y="-313.3" font-family="Times,serif" font-size="14.00" fill="#000000">id</text>
<polyline fill="none" stroke="#000000" points="196,-305.5 291,-305.5 "/>
<text text-anchor="middle" x="243.5" y="-290.3" font-family="Times,serif" font-size="14.00" fill="#000000">is_external</text>
<polyline fill="none" stroke="#000000" points="196,-282.5 291,-282.5 "/>
<text text-anchor="middle" x="243.5" y="-267.3" font-family="Times,serif" font-size="14.00" fill="#000000">name</text>
<polyline fill="none" stroke="#000000" points="196,-259.5 291,-259.5 "/>
<text text-anchor="middle" x="243.5" y="-244.3" font-family="Times,serif" font-size="14.00" fill="#000000">nanoid6</text>
<polyline fill="none" stroke="#000000" points="196,-236.5 291,-236.5 "/>
<text text-anchor="middle" x="243.5" y="-221.3" font-family="Times,serif" font-size="14.00" fill="#000000">nanoid8</text>
<polyline fill="none" stroke="#000000" points="196,-213.5 291,-213.5 "/>
<text text-anchor="middle" x="243.5" y="-198.3" font-family="Times,serif" font-size="14.00" fill="#000000">url</text>
<polyline fill="none" stroke="#000000" points="291,-190.5 291,-351.5 "/>
<text text-anchor="middle" x="301.5" y="-267.3" font-family="Times,serif" font-size="14.00" fill="#000000"> </text>
</g>
<!-- term&#45;&gt;origin -->
<g id="edge11" class="edge">
<title>term&#45;&gt;origin</title>
<path fill="none" stroke="#000000" d="M270.5551,-403.4802C266.4446,-397.3613 262.5436,-391.1656 259,-385 254.6475,-377.427 250.5338,-369.3513 246.6942,-361.129"/>
<polygon fill="#000000" stroke="#000000" points="249.7864,-359.4724 242.4775,-351.8023 243.408,-362.3562 249.7864,-359.4724"/>
<text text-anchor="middle" x="296.5" y="-373.8" font-family="Times,serif" font-size="14.00" fill="#000000">has_origin</text>
</g>
<!-- concept -->
<g id="node5" class="node">
<title>concept</title>
<path fill="none" stroke="#000000" d="M461,-225C461,-225 627,-225 627,-225 633,-225 639,-231 639,-237 639,-237 639,-305 639,-305 639,-311 633,-317 627,-317 627,-317 461,-317 461,-317 455,-317 449,-311 449,-305 449,-305 449,-237 449,-237 449,-231 455,-225 461,-225"/>
<text text-anchor="middle" x="486" y="-267.3" font-family="Times,serif" font-size="14.00" fill="#000000">concept</text>
<polyline fill="none" stroke="#000000" points="523,-225 523,-317 "/>
<text text-anchor="middle" x="533.5" y="-267.3" font-family="Times,serif" font-size="14.00" fill="#000000"> </text>
<polyline fill="none" stroke="#000000" points="544,-225 544,-317 "/>
<text text-anchor="middle" x="581" y="-301.8" font-family="Times,serif" font-size="14.00" fill="#000000">desc</text>
<polyline fill="none" stroke="#000000" points="544,-294 618,-294 "/>
<text text-anchor="middle" x="581" y="-278.8" font-family="Times,serif" font-size="14.00" fill="#000000">id</text>
<polyline fill="none" stroke="#000000" points="544,-271 618,-271 "/>
<text text-anchor="middle" x="581" y="-255.8" font-family="Times,serif" font-size="14.00" fill="#000000">nanoid6</text>
<polyline fill="none" stroke="#000000" points="544,-248 618,-248 "/>
<text text-anchor="middle" x="581" y="-232.8" font-family="Times,serif" font-size="14.00" fill="#000000">nanoid8</text>
<polyline fill="none" stroke="#000000" points="618,-225 618,-317 "/>
<text text-anchor="middle" x="628.5" y="-267.3" font-family="Times,serif" font-size="14.00" fill="#000000"> </text>
</g>
<!-- term&#45;&gt;concept -->
<g id="edge5" class="edge">
<title>term&#45;&gt;concept</title>
<path fill="none" stroke="#000000" d="M371.3544,-403.3498C378.2469,-391.4991 386.1398,-379.9506 395,-370 410.7222,-352.3427 430.2694,-336.4326 449.9764,-322.792"/>
<polygon fill="#000000" stroke="#000000" points="452.0946,-325.5849 458.4213,-317.0865 448.1758,-319.7846 452.0946,-325.5849"/>
<text text-anchor="middle" x="434" y="-373.8" font-family="Times,serif" font-size="14.00" fill="#000000">represents</text>
</g>
<!-- tag -->
<g id="node6" class="node">
<title>tag</title>
<path fill="none" stroke="#000000" d="M282,-.5C282,-.5 414,-.5 414,-.5 420,-.5 426,-6.5 426,-12.5 426,-12.5 426,-126.5 426,-126.5 426,-132.5 420,-138.5 414,-138.5 414,-138.5 282,-138.5 282,-138.5 276,-138.5 270,-132.5 270,-126.5 270,-126.5 270,-12.5 270,-12.5 270,-6.5 276,-.5 282,-.5"/>
<text text-anchor="middle" x="290" y="-65.8" font-family="Times,serif" font-size="14.00" fill="#000000">tag</text>
<polyline fill="none" stroke="#000000" points="310,-.5 310,-138.5 "/>
<text text-anchor="middle" x="320.5" y="-65.8" font-family="Times,serif" font-size="14.00" fill="#000000"> </text>
<polyline fill="none" stroke="#000000" points="331,-.5 331,-138.5 "/>
<text text-anchor="middle" x="368" y="-123.3" font-family="Times,serif" font-size="14.00" fill="#000000">desc</text>
<polyline fill="none" stroke="#000000" points="331,-115.5 405,-115.5 "/>
<text text-anchor="middle" x="368" y="-100.3" font-family="Times,serif" font-size="14.00" fill="#000000">id</text>
<polyline fill="none" stroke="#000000" points="331,-92.5 405,-92.5 "/>
<text text-anchor="middle" x="368" y="-77.3" font-family="Times,serif" font-size="14.00" fill="#000000">key</text>
<polyline fill="none" stroke="#000000" points="331,-69.5 405,-69.5 "/>
<text text-anchor="middle" x="368" y="-54.3" font-family="Times,serif" font-size="14.00" fill="#000000">nanoid6</text>
<polyline fill="none" stroke="#000000" points="331,-46.5 405,-46.5 "/>
<text text-anchor="middle" x="368" y="-31.3" font-family="Times,serif" font-size="14.00" fill="#000000">nanoid8</text>
<polyline fill="none" stroke="#000000" points="331,-23.5 405,-23.5 "/>
<text text-anchor="middle" x="368" y="-8.3" font-family="Times,serif" font-size="14.00" fill="#000000">value</text>
<polyline fill="none" stroke="#000000" points="405,-.5 405,-138.5 "/>
<text text-anchor="middle" x="415.5" y="-65.8" font-family="Times,serif" font-size="14.00" fill="#000000"> </text>
</g>
<!-- term&#45;&gt;tag -->
<g id="edge13" class="edge">
<title>term&#45;&gt;tag</title>
<path fill="none" stroke="#000000" d="M339.147,-403.0962C341.0997,-329.516 343.9642,-221.5773 345.9015,-148.5737"/>
<polygon fill="#000000" stroke="#000000" points="349.402,-148.601 346.1686,-138.5117 342.4044,-148.4153 349.402,-148.601"/>
<text text-anchor="middle" x="372" y="-267.3" font-family="Times,serif" font-size="14.00" fill="#000000">has_tag</text>
</g>
<!-- origin&#45;&gt;tag -->
<g id="edge12" class="edge">
<title>origin&#45;&gt;tag</title>
<path fill="none" stroke="#000000" d="M257.143,-190.2767C263.8362,-178.9228 270.8952,-167.5393 278,-157 280.2003,-153.736 282.4902,-150.4413 284.8416,-147.1413"/>
<polygon fill="#000000" stroke="#000000" points="287.7525,-149.0892 290.7975,-138.9413 282.0889,-144.9754 287.7525,-149.0892"/>
<text text-anchor="middle" x="306" y="-160.8" font-family="Times,serif" font-size="14.00" fill="#000000">has_tag</text>
</g>
<!-- node -->
<g id="node3" class="node">
<title>node</title>
<path fill="none" stroke="#000000" d="M561.5,-1088.5C561.5,-1088.5 710.5,-1088.5 710.5,-1088.5 716.5,-1088.5 722.5,-1094.5 722.5,-1100.5 722.5,-1100.5 722.5,-1237.5 722.5,-1237.5 722.5,-1243.5 716.5,-1249.5 710.5,-1249.5 710.5,-1249.5 561.5,-1249.5 561.5,-1249.5 555.5,-1249.5 549.5,-1243.5 549.5,-1237.5 549.5,-1237.5 549.5,-1100.5 549.5,-1100.5 549.5,-1094.5 555.5,-1088.5 561.5,-1088.5"/>
<text text-anchor="middle" x="575" y="-1165.3" font-family="Times,serif" font-size="14.00" fill="#000000">node</text>
<polyline fill="none" stroke="#000000" points="600.5,-1088.5 600.5,-1249.5 "/>
<text text-anchor="middle" x="611" y="-1165.3" font-family="Times,serif" font-size="14.00" fill="#000000"> </text>
<polyline fill="none" stroke="#000000" points="621.5,-1088.5 621.5,-1249.5 "/>
<text text-anchor="middle" x="661.5" y="-1234.3" font-family="Times,serif" font-size="14.00" fill="#000000">category</text>
<polyline fill="none" stroke="#000000" points="621.5,-1226.5 701.5,-1226.5 "/>
<text text-anchor="middle" x="661.5" y="-1211.3" font-family="Times,serif" font-size="14.00" fill="#000000">desc</text>
<polyline fill="none" stroke="#000000" points="621.5,-1203.5 701.5,-1203.5 "/>
<text text-anchor="middle" x="661.5" y="-1188.3" font-family="Times,serif" font-size="14.00" fill="#000000">handle</text>
<polyline fill="none" stroke="#000000" points="621.5,-1180.5 701.5,-1180.5 "/>
<text text-anchor="middle" x="661.5" y="-1165.3" font-family="Times,serif" font-size="14.00" fill="#000000">id</text>
<polyline fill="none" stroke="#000000" points="621.5,-1157.5 701.5,-1157.5 "/>
<text text-anchor="middle" x="661.5" y="-1142.3" font-family="Times,serif" font-size="14.00" fill="#000000">model</text>
<polyline fill="none" stroke="#000000" points="621.5,-1134.5 701.5,-1134.5 "/>
<text text-anchor="middle" x="661.5" y="-1119.3" font-family="Times,serif" font-size="14.00" fill="#000000">nanoid6</text>
<polyline fill="none" stroke="#000000" points="621.5,-1111.5 701.5,-1111.5 "/>
<text text-anchor="middle" x="661.5" y="-1096.3" font-family="Times,serif" font-size="14.00" fill="#000000">nanoid8</text>
<polyline fill="none" stroke="#000000" points="701.5,-1088.5 701.5,-1249.5 "/>
<text text-anchor="middle" x="712" y="-1165.3" font-family="Times,serif" font-size="14.00" fill="#000000"> </text>
</g>
<!-- property -->
<g id="node4" class="node">
<title>property</title>
<path fill="none" stroke="#000000" d="M330,-806.5C330,-806.5 542,-806.5 542,-806.5 548,-806.5 554,-812.5 554,-818.5 554,-818.5 554,-1024.5 554,-1024.5 554,-1030.5 548,-1036.5 542,-1036.5 542,-1036.5 330,-1036.5 330,-1036.5 324,-1036.5 318,-1030.5 318,-1024.5 318,-1024.5 318,-818.5 318,-818.5 318,-812.5 324,-806.5 330,-806.5"/>
<text text-anchor="middle" x="357.5" y="-917.8" font-family="Times,serif" font-size="14.00" fill="#000000">property</text>
<polyline fill="none" stroke="#000000" points="397,-806.5 397,-1036.5 "/>
<text text-anchor="middle" x="407.5" y="-917.8" font-family="Times,serif" font-size="14.00" fill="#000000"> </text>
<polyline fill="none" stroke="#000000" points="418,-806.5 418,-1036.5 "/>
<text text-anchor="middle" x="475.5" y="-1021.3" font-family="Times,serif" font-size="14.00" fill="#000000">desc</text>
<polyline fill="none" stroke="#000000" points="418,-1013.5 533,-1013.5 "/>
<text text-anchor="middle" x="475.5" y="-998.3" font-family="Times,serif" font-size="14.00" fill="#000000">handle</text>
<polyline fill="none" stroke="#000000" points="418,-990.5 533,-990.5 "/>
<text text-anchor="middle" x="475.5" y="-975.3" font-family="Times,serif" font-size="14.00" fill="#000000">id</text>
<polyline fill="none" stroke="#000000" points="418,-967.5 533,-967.5 "/>
<text text-anchor="middle" x="475.5" y="-952.3" font-family="Times,serif" font-size="14.00" fill="#000000">is_required</text>
<polyline fill="none" stroke="#000000" points="418,-944.5 533,-944.5 "/>
<text text-anchor="middle" x="475.5" y="-929.3" font-family="Times,serif" font-size="14.00" fill="#000000">model</text>
<polyline fill="none" stroke="#000000" points="418,-921.5 533,-921.5 "/>
<text text-anchor="middle" x="475.5" y="-906.3" font-family="Times,serif" font-size="14.00" fill="#000000">nanoid6</text>
<polyline fill="none" stroke="#000000" points="418,-898.5 533,-898.5 "/>
<text text-anchor="middle" x="475.5" y="-883.3" font-family="Times,serif" font-size="14.00" fill="#000000">nanoid8</text>
<polyline fill="none" stroke="#000000" points="418,-875.5 533,-875.5 "/>
<text text-anchor="middle" x="475.5" y="-860.3" font-family="Times,serif" font-size="14.00" fill="#000000">pattern</text>
<polyline fill="none" stroke="#000000" points="418,-852.5 533,-852.5 "/>
<text text-anchor="middle" x="475.5" y="-837.3" font-family="Times,serif" font-size="14.00" fill="#000000">units</text>
<polyline fill="none" stroke="#000000" points="418,-829.5 533,-829.5 "/>
<text text-anchor="middle" x="475.5" y="-814.3" font-family="Times,serif" font-size="14.00" fill="#000000">value_domain</text>
<polyline fill="none" stroke="#000000" points="533,-806.5 533,-1036.5 "/>
<text text-anchor="middle" x="543.5" y="-917.8" font-family="Times,serif" font-size="14.00" fill="#000000"> </text>
</g>
<!-- node&#45;&gt;property -->
<g id="edge2" class="edge">
<title>node&#45;&gt;property</title>
<path fill="none" stroke="#000000" d="M549.4616,-1096.547C544.671,-1093.5068 539.8358,-1090.6346 535,-1088 512.7848,-1075.897 498.6407,-1088.133 481,-1070 474.0261,-1062.8315 468.1286,-1054.6192 463.1418,-1045.8164"/>
<polygon fill="#000000" stroke="#000000" points="466.183,-1044.0787 458.4525,-1036.8336 459.9776,-1047.3181 466.183,-1044.0787"/>
<text text-anchor="middle" x="528.5" y="-1058.8" font-family="Times,serif" font-size="14.00" fill="#000000">has_property</text>
</g>
<!-- node&#45;&gt;concept -->
<g id="edge9" class="edge">
<title>node&#45;&gt;concept</title>
<path fill="none" stroke="#000000" d="M627.8994,-1088.1912C619.9784,-1004.8237 608.4756,-870.9776 604,-755 601.6178,-693.2682 575.8353,-670.984 604,-616 610.242,-603.8142 622.758,-610.1858 629,-598 632.0394,-592.0665 629.2219,-589.663 629,-583 626.3319,-502.8668 628.0132,-482.4176 617,-403 614.9406,-388.1491 615.818,-383.8181 610,-370 603.6274,-354.8647 594.8478,-339.5823 585.7707,-325.7039"/>
<polygon fill="#000000" stroke="#000000" points="588.5798,-323.6088 580.0994,-317.2579 582.7684,-327.5111 588.5798,-323.6088"/>
<text text-anchor="middle" x="649" y="-681.8" font-family="Times,serif" font-size="14.00" fill="#000000">has_concept</text>
</g>
<!-- node&#45;&gt;tag -->
<g id="edge17" class="edge">
<title>node&#45;&gt;tag</title>
<path fill="none" stroke="#000000" d="M650.6767,-1088.4343C665.029,-1005.2604 685.8744,-871.566 694,-755 698.296,-693.3718 703.8957,-676.9801 694,-616 692.6492,-607.6761 689.7557,-606.2479 688,-598 650.0646,-419.7902 757.2909,-335.7852 648,-190 598.1015,-123.4395 505.4258,-93.5598 436.2296,-80.1982"/>
<polygon fill="#000000" stroke="#000000" points="436.6682,-76.7201 426.1986,-78.3443 435.3959,-83.6035 436.6682,-76.7201"/>
<text text-anchor="middle" x="716" y="-586.8" font-family="Times,serif" font-size="14.00" fill="#000000">has_tag</text>
</g>
<!-- property&#45;&gt;concept -->
<g id="edge8" class="edge">
<title>property&#45;&gt;concept</title>
<path fill="none" stroke="#000000" d="M475.2607,-806.1993C477.2299,-800.0528 479.1544,-793.9576 481,-788 509.02,-697.5533 473.999,-651.852 539,-583 555.7889,-565.2164 576.8143,-584.922 591,-565 641.3664,-494.267 605.3931,-389.767 574.7051,-326.274"/>
<polygon fill="#000000" stroke="#000000" points="577.7951,-324.6267 570.2266,-317.2127 571.5197,-327.7283 577.7951,-324.6267"/>
<text text-anchor="middle" x="584" y="-586.8" font-family="Times,serif" font-size="14.00" fill="#000000">has_concept</text>
</g>
<!-- property&#45;&gt;tag -->
<g id="edge16" class="edge">
<title>property&#45;&gt;tag</title>
<path fill="none" stroke="#000000" d="M317.7247,-908.4168C188.6087,-886.8013 0,-830.4236 0,-685.5 0,-685.5 0,-685.5 0,-271 0,-151.0741 156.6908,-101.3647 259.7887,-81.6372"/>
<polygon fill="#000000" stroke="#000000" points="260.7064,-85.0269 269.902,-79.7647 259.4319,-78.1438 260.7064,-85.0269"/>
<text text-anchor="middle" x="28" y="-480.3" font-family="Times,serif" font-size="14.00" fill="#000000">has_tag</text>
</g>
<!-- value_set -->
<g id="node7" class="node">
<title>value_set</title>
<path fill="none" stroke="#000000" d="M249,-616.5C249,-616.5 425,-616.5 425,-616.5 431,-616.5 437,-622.5 437,-628.5 437,-628.5 437,-742.5 437,-742.5 437,-748.5 431,-754.5 425,-754.5 425,-754.5 249,-754.5 249,-754.5 243,-754.5 237,-748.5 237,-742.5 237,-742.5 237,-628.5 237,-628.5 237,-622.5 243,-616.5 249,-616.5"/>
<text text-anchor="middle" x="279" y="-681.8" font-family="Times,serif" font-size="14.00" fill="#000000">value_set</text>
<polyline fill="none" stroke="#000000" points="321,-616.5 321,-754.5 "/>
<text text-anchor="middle" x="331.5" y="-681.8" font-family="Times,serif" font-size="14.00" fill="#000000"> </text>
<polyline fill="none" stroke="#000000" points="342,-616.5 342,-754.5 "/>
<text text-anchor="middle" x="379" y="-739.3" font-family="Times,serif" font-size="14.00" fill="#000000">desc</text>
<polyline fill="none" stroke="#000000" points="342,-731.5 416,-731.5 "/>
<text text-anchor="middle" x="379" y="-716.3" font-family="Times,serif" font-size="14.00" fill="#000000">handle</text>
<polyline fill="none" stroke="#000000" points="342,-708.5 416,-708.5 "/>
<text text-anchor="middle" x="379" y="-693.3" font-family="Times,serif" font-size="14.00" fill="#000000">id</text>
<polyline fill="none" stroke="#000000" points="342,-685.5 416,-685.5 "/>
<text text-anchor="middle" x="379" y="-670.3" font-family="Times,serif" font-size="14.00" fill="#000000">nanoid6</text>
<polyline fill="none" stroke="#000000" points="342,-662.5 416,-662.5 "/>
<text text-anchor="middle" x="379" y="-647.3" font-family="Times,serif" font-size="14.00" fill="#000000">nanoid8</text>
<polyline fill="none" stroke="#000000" points="342,-639.5 416,-639.5 "/>
<text text-anchor="middle" x="379" y="-624.3" font-family="Times,serif" font-size="14.00" fill="#000000">url</text>
<polyline fill="none" stroke="#000000" points="416,-616.5 416,-754.5 "/>
<text text-anchor="middle" x="426.5" y="-681.8" font-family="Times,serif" font-size="14.00" fill="#000000"> </text>
</g>
<!-- property&#45;&gt;value_set -->
<g id="edge19" class="edge">
<title>property&#45;&gt;value_set</title>
<path fill="none" stroke="#000000" d="M387.6601,-806.2654C381.6382,-791.9102 375.5934,-777.5004 369.8824,-763.8864"/>
<polygon fill="#000000" stroke="#000000" points="373.0823,-762.4665 365.9864,-754.5989 366.6273,-765.1744 373.0823,-762.4665"/>
<text text-anchor="middle" x="427" y="-776.8" font-family="Times,serif" font-size="14.00" fill="#000000">has_value_set</text>
</g>
<!-- concept&#45;&gt;tag -->
<g id="edge18" class="edge">
<title>concept&#45;&gt;tag</title>
<path fill="none" stroke="#000000" d="M499.0336,-224.7718C476.4095,-201.5128 448.389,-172.706 422.6502,-146.245"/>
<polygon fill="#000000" stroke="#000000" points="424.9389,-143.5782 415.4574,-138.8504 419.9211,-148.459 424.9389,-143.5782"/>
<text text-anchor="middle" x="474" y="-160.8" font-family="Times,serif" font-size="14.00" fill="#000000">has_tag</text>
</g>
<!-- value_set&#45;&gt;term -->
<g id="edge20" class="edge">
<title>value_set&#45;&gt;term</title>
<path fill="none" stroke="#000000" d="M337,-616.437C337,-603.0525 337,-588.8373 337,-574.8773"/>
<polygon fill="#000000" stroke="#000000" points="340.5001,-574.7729 337,-564.7729 333.5001,-574.773 340.5001,-574.7729"/>
<text text-anchor="middle" x="370.5" y="-586.8" font-family="Times,serif" font-size="14.00" fill="#000000">has_term</text>
</g>
<!-- value_set&#45;&gt;origin -->
<g id="edge10" class="edge">
<title>value_set&#45;&gt;origin</title>
<path fill="none" stroke="#000000" d="M236.8568,-649.4944C199.2178,-630.505 160.3921,-603.0611 139,-565 103.7229,-502.2344 120.6052,-472.6106 139,-403 142.7478,-388.8173 148.411,-374.5623 154.9795,-360.9368"/>
<polygon fill="#000000" stroke="#000000" points="158.3015,-362.1205 159.6592,-351.613 152.0453,-358.9804 158.3015,-362.1205"/>
<text text-anchor="middle" x="176.5" y="-480.3" font-family="Times,serif" font-size="14.00" fill="#000000">has_origin</text>
</g>
<!-- value_set&#45;&gt;concept -->
<g id="edge7" class="edge">
<title>value_set&#45;&gt;concept</title>
<path fill="none" stroke="#000000" d="M420.2909,-616.4932C435.2492,-600.8633 449.4212,-583.4005 460,-565 497.0176,-500.6125 480.3752,-474.3489 501,-403 508.262,-377.8779 517.0925,-350.3396 524.8573,-326.9457"/>
<polygon fill="#000000" stroke="#000000" points="528.2665,-327.7864 528.1122,-317.1927 521.6265,-325.5704 528.2665,-327.7864"/>
<text text-anchor="middle" x="546" y="-480.3" font-family="Times,serif" font-size="14.00" fill="#000000">has_concept</text>
</g>
<!-- value_set&#45;&gt;tag -->
<g id="edge14" class="edge">
<title>value_set&#45;&gt;tag</title>
<path fill="none" stroke="#000000" d="M236.7655,-659.3541C190.0199,-641.3154 139.4033,-611.8709 115,-565 74.5366,-487.2829 80.9147,-457.4721 86,-370 90.6745,-289.5932 60.7512,-255.9406 107,-190 142.9079,-138.8033 207.0301,-108.2172 260.109,-90.6769"/>
<polygon fill="#000000" stroke="#000000" points="261.4235,-93.9312 269.8822,-87.5515 259.2913,-87.2639 261.4235,-93.9312"/>
<text text-anchor="middle" x="114" y="-373.8" font-family="Times,serif" font-size="14.00" fill="#000000">has_tag</text>
</g>
<!-- relationship -->
<g id="node8" class="node">
<title>relationship</title>
<path fill="none" stroke="#000000" d="M578.5,-1301.5C578.5,-1301.5 797.5,-1301.5 797.5,-1301.5 803.5,-1301.5 809.5,-1307.5 809.5,-1313.5 809.5,-1313.5 809.5,-1473.5 809.5,-1473.5 809.5,-1479.5 803.5,-1485.5 797.5,-1485.5 797.5,-1485.5 578.5,-1485.5 578.5,-1485.5 572.5,-1485.5 566.5,-1479.5 566.5,-1473.5 566.5,-1473.5 566.5,-1313.5 566.5,-1313.5 566.5,-1307.5 572.5,-1301.5 578.5,-1301.5"/>
<text text-anchor="middle" x="617.5" y="-1389.8" font-family="Times,serif" font-size="14.00" fill="#000000">relationship</text>
<polyline fill="none" stroke="#000000" points="668.5,-1301.5 668.5,-1485.5 "/>
<text text-anchor="middle" x="679" y="-1389.8" font-family="Times,serif" font-size="14.00" fill="#000000"> </text>
<polyline fill="none" stroke="#000000" points="689.5,-1301.5 689.5,-1485.5 "/>
<text text-anchor="middle" x="739" y="-1470.3" font-family="Times,serif" font-size="14.00" fill="#000000">desc</text>
<polyline fill="none" stroke="#000000" points="689.5,-1462.5 788.5,-1462.5 "/>
<text text-anchor="middle" x="739" y="-1447.3" font-family="Times,serif" font-size="14.00" fill="#000000">handle</text>
<polyline fill="none" stroke="#000000" points="689.5,-1439.5 788.5,-1439.5 "/>
<text text-anchor="middle" x="739" y="-1424.3" font-family="Times,serif" font-size="14.00" fill="#000000">id</text>
<polyline fill="none" stroke="#000000" points="689.5,-1416.5 788.5,-1416.5 "/>
<text text-anchor="middle" x="739" y="-1401.3" font-family="Times,serif" font-size="14.00" fill="#000000">is_required</text>
<polyline fill="none" stroke="#000000" points="689.5,-1393.5 788.5,-1393.5 "/>
<text text-anchor="middle" x="739" y="-1378.3" font-family="Times,serif" font-size="14.00" fill="#000000">model</text>
<polyline fill="none" stroke="#000000" points="689.5,-1370.5 788.5,-1370.5 "/>
<text text-anchor="middle" x="739" y="-1355.3" font-family="Times,serif" font-size="14.00" fill="#000000">multiplicity</text>
<polyline fill="none" stroke="#000000" points="689.5,-1347.5 788.5,-1347.5 "/>
<text text-anchor="middle" x="739" y="-1332.3" font-family="Times,serif" font-size="14.00" fill="#000000">nanoid6</text>
<polyline fill="none" stroke="#000000" points="689.5,-1324.5 788.5,-1324.5 "/>
<text text-anchor="middle" x="739" y="-1309.3" font-family="Times,serif" font-size="14.00" fill="#000000">nanoid8</text>
<polyline fill="none" stroke="#000000" points="788.5,-1301.5 788.5,-1485.5 "/>
<text text-anchor="middle" x="799" y="-1389.8" font-family="Times,serif" font-size="14.00" fill="#000000"> </text>
</g>
<!-- relationship&#45;&gt;node -->
<g id="edge3" class="edge">
<title>relationship&#45;&gt;node</title>
<path fill="none" stroke="#000000" d="M673.1693,-1301.3925C670.9645,-1290.1028 668.5633,-1278.7591 666,-1268 665.3269,-1265.1747 664.6191,-1262.3113 663.8837,-1259.4259"/>
<polygon fill="#000000" stroke="#000000" points="667.2158,-1258.3348 661.2873,-1249.554 660.4461,-1260.1154 667.2158,-1258.3348"/>
<text text-anchor="middle" x="696.5" y="-1271.8" font-family="Times,serif" font-size="14.00" fill="#000000">has_dst</text>
</g>
<!-- relationship&#45;&gt;node -->
<g id="edge4" class="edge">
<title>relationship&#45;&gt;node</title>
<path fill="none" stroke="#000000" d="M614.4659,-1301.41C611.5666,-1295.373 609.0345,-1289.2167 607,-1283 604.5436,-1275.4941 603.4911,-1267.6545 603.4745,-1259.7533"/>
<polygon fill="#000000" stroke="#000000" points="606.9716,-1259.8961 603.9796,-1249.7326 599.9805,-1259.5437 606.9716,-1259.8961"/>
<text text-anchor="middle" x="634.5" y="-1271.8" font-family="Times,serif" font-size="14.00" fill="#000000">has_src</text>
</g>
<!-- relationship&#45;&gt;property -->
<g id="edge1" class="edge">
<title>relationship&#45;&gt;property</title>
<path fill="none" stroke="#000000" d="M566.3822,-1350.9403C520.5014,-1328.3764 472.9285,-1295.6456 446,-1250 410.4309,-1189.708 406.6576,-1111.7569 412.3736,-1046.9204"/>
<polygon fill="#000000" stroke="#000000" points="415.8896,-1046.9224 413.369,-1036.6318 408.9222,-1046.2483 415.8896,-1046.9224"/>
<text text-anchor="middle" x="493.5" y="-1165.3" font-family="Times,serif" font-size="14.00" fill="#000000">has_property</text>
</g>
<!-- relationship&#45;&gt;concept -->
<g id="edge6" class="edge">
<title>relationship&#45;&gt;concept</title>
<path fill="none" stroke="#000000" d="M730.4346,-1301.2772C745.1345,-1261.457 758,-1213.807 758,-1169 758,-1169 758,-1169 758,-484 758,-414.0716 699.8891,-359.1834 644.2306,-322.6492"/>
<polygon fill="#000000" stroke="#000000" points="645.9934,-319.6218 635.6865,-317.1684 642.2138,-325.5138 645.9934,-319.6218"/>
<text text-anchor="middle" x="803" y="-776.8" font-family="Times,serif" font-size="14.00" fill="#000000">has_concept</text>
</g>
<!-- relationship&#45;&gt;tag -->
<g id="edge15" class="edge">
<title>relationship&#45;&gt;tag</title>
<path fill="none" stroke="#000000" d="M802.5299,-1301.4256C835.6254,-1264.6105 863,-1219.036 863,-1169 863,-1169 863,-1169 863,-271 863,-180.4315 583.2886,-113.9156 436.1452,-85.1904"/>
<polygon fill="#000000" stroke="#000000" points="436.7001,-81.7329 426.2174,-83.2704 435.3709,-88.6056 436.7001,-81.7329"/>
<text text-anchor="middle" x="891" y="-681.8" font-family="Times,serif" font-size="14.00" fill="#000000">has_tag</text>
</g>
</g>
</svg>
