<?xml version="1.0" encoding="UTF-8" standalone="no"?>
<!DOCTYPE svg PUBLIC "-//W3C//DTD SVG 1.1//EN"
 "http://www.w3.org/Graphics/SVG/1.1/DTD/svg11.dtd">
<!-- Generated by graphviz version 2.40.1 (20161225.0304)
 -->
<!-- Title: Perl Pages: 1 -->
<svg width="561pt" height="682pt"
 viewBox="0.00 0.00 561.12 682.00" xmlns="http://www.w3.org/2000/svg" xmlns:xlink="http://www.w3.org/1999/xlink">
<g id="graph0" class="graph" transform="scale(1 1) rotate(0) translate(4 678)">
<title>Perl</title>
<polygon fill="#ffffff" stroke="transparent" points="-4,4 -4,-678 557.1245,-678 557.1245,4 -4,4"/>
<!-- relationship -->
<g id="node1" class="node">
<title>relationship</title>
<path fill="none" stroke="#000000" d="M284.7173,-585.5C284.7173,-585.5 463.145,-585.5 463.145,-585.5 469.145,-585.5 475.145,-591.5 475.145,-597.5 475.145,-597.5 475.145,-661.5 475.145,-661.5 475.145,-667.5 469.145,-673.5 463.145,-673.5 463.145,-673.5 284.7173,-673.5 284.7173,-673.5 278.7173,-673.5 272.7173,-667.5 272.7173,-661.5 272.7173,-661.5 272.7173,-597.5 272.7173,-597.5 272.7173,-591.5 278.7173,-585.5 284.7173,-585.5"/>
<text text-anchor="middle" x="313.7656" y="-625.3" font-family="Times,serif" font-size="14.00" fill="#000000">relationship</text>
<polyline fill="none" stroke="#000000" points="354.814,-585.5 354.814,-673.5 "/>
<text text-anchor="middle" x="364.564" y="-625.3" font-family="Times,serif" font-size="14.00" fill="#000000"> </text>
<polyline fill="none" stroke="#000000" points="374.314,-585.5 374.314,-673.5 "/>
<text text-anchor="middle" x="414.9795" y="-658.3" font-family="Times,serif" font-size="14.00" fill="#000000">model</text>
<polyline fill="none" stroke="#000000" points="374.314,-651.5 455.645,-651.5 "/>
<text text-anchor="middle" x="414.9795" y="-636.3" font-family="Times,serif" font-size="14.00" fill="#000000">neo_type</text>
<polyline fill="none" stroke="#000000" points="374.314,-629.5 455.645,-629.5 "/>
<text text-anchor="middle" x="414.9795" y="-614.3" font-family="Times,serif" font-size="14.00" fill="#000000">multiplicity</text>
<polyline fill="none" stroke="#000000" points="374.314,-607.5 455.645,-607.5 "/>
<text text-anchor="middle" x="414.9795" y="-592.3" font-family="Times,serif" font-size="14.00" fill="#000000">handle</text>
<polyline fill="none" stroke="#000000" points="455.645,-585.5 455.645,-673.5 "/>
<text text-anchor="middle" x="465.395" y="-625.3" font-family="Times,serif" font-size="14.00" fill="#000000"> </text>
</g>
<!-- property -->
<g id="node3" class="node">
<title>property</title>
<path fill="none" stroke="#000000" d="M157.062,-351.5C157.062,-351.5 330.8003,-351.5 330.8003,-351.5 336.8003,-351.5 342.8003,-357.5 342.8003,-363.5 342.8003,-363.5 342.8003,-427.5 342.8003,-427.5 342.8003,-433.5 336.8003,-439.5 330.8003,-439.5 330.8003,-439.5 157.062,-439.5 157.062,-439.5 151.062,-439.5 145.062,-433.5 145.062,-427.5 145.062,-427.5 145.062,-363.5 145.062,-363.5 145.062,-357.5 151.062,-351.5 157.062,-351.5"/>
<text text-anchor="middle" x="176.7759" y="-391.3" font-family="Times,serif" font-size="14.00" fill="#000000">property</text>
<polyline fill="none" stroke="#000000" points="208.4897,-351.5 208.4897,-439.5 "/>
<text text-anchor="middle" x="218.2397" y="-391.3" font-family="Times,serif" font-size="14.00" fill="#000000"> </text>
<polyline fill="none" stroke="#000000" points="227.9897,-351.5 227.9897,-439.5 "/>
<text text-anchor="middle" x="275.645" y="-424.3" font-family="Times,serif" font-size="14.00" fill="#000000">handle</text>
<polyline fill="none" stroke="#000000" points="227.9897,-417.5 323.3003,-417.5 "/>
<text text-anchor="middle" x="275.645" y="-402.3" font-family="Times,serif" font-size="14.00" fill="#000000">value_domain</text>
<polyline fill="none" stroke="#000000" points="227.9897,-395.5 323.3003,-395.5 "/>
<text text-anchor="middle" x="275.645" y="-380.3" font-family="Times,serif" font-size="14.00" fill="#000000">model</text>
<polyline fill="none" stroke="#000000" points="227.9897,-373.5 323.3003,-373.5 "/>
<text text-anchor="middle" x="275.645" y="-358.3" font-family="Times,serif" font-size="14.00" fill="#000000">is_required</text>
<polyline fill="none" stroke="#000000" points="323.3003,-351.5 323.3003,-439.5 "/>
<text text-anchor="middle" x="333.0503" y="-391.3" font-family="Times,serif" font-size="14.00" fill="#000000"> </text>
</g>
<!-- relationship&#45;&gt;property -->
<g id="edge2" class="edge">
<title>relationship&#45;&gt;property</title>
<path fill="none" stroke="#000000" d="M283.1781,-585.438C264.5805,-571.9563 247.4603,-555.2175 236.8413,-535 223.2929,-509.2052 224.0237,-476.8946 228.6147,-449.8664"/>
<polygon fill="#000000" stroke="#000000" points="232.1008,-450.2703 230.5415,-439.7908 225.2254,-448.9554 232.1008,-450.2703"/>
<text text-anchor="middle" x="273.4761" y="-508.3" font-family="Times,serif" font-size="14.00" fill="#000000">has_property</text>
</g>
<!-- node -->
<g id="node5" class="node">
<title>node</title>
<path fill="none" stroke="#000000" d="M331.1655,-490.5C331.1655,-490.5 442.6968,-490.5 442.6968,-490.5 448.6968,-490.5 454.6968,-496.5 454.6968,-502.5 454.6968,-502.5 454.6968,-522.5 454.6968,-522.5 454.6968,-528.5 448.6968,-534.5 442.6968,-534.5 442.6968,-534.5 331.1655,-534.5 331.1655,-534.5 325.1655,-534.5 319.1655,-528.5 319.1655,-522.5 319.1655,-522.5 319.1655,-502.5 319.1655,-502.5 319.1655,-496.5 325.1655,-490.5 331.1655,-490.5"/>
<text text-anchor="middle" x="340.7725" y="-508.3" font-family="Times,serif" font-size="14.00" fill="#000000">node</text>
<polyline fill="none" stroke="#000000" points="362.3794,-490.5 362.3794,-534.5 "/>
<text text-anchor="middle" x="372.1294" y="-508.3" font-family="Times,serif" font-size="14.00" fill="#000000"> </text>
<polyline fill="none" stroke="#000000" points="381.8794,-490.5 381.8794,-534.5 "/>
<text text-anchor="middle" x="408.5381" y="-519.3" font-family="Times,serif" font-size="14.00" fill="#000000">model</text>
<polyline fill="none" stroke="#000000" points="381.8794,-512.5 435.1968,-512.5 "/>
<text text-anchor="middle" x="408.5381" y="-497.3" font-family="Times,serif" font-size="14.00" fill="#000000">handle</text>
<polyline fill="none" stroke="#000000" points="435.1968,-490.5 435.1968,-534.5 "/>
<text text-anchor="middle" x="444.9468" y="-508.3" font-family="Times,serif" font-size="14.00" fill="#000000"> </text>
</g>
<!-- relationship&#45;&gt;node -->
<g id="edge1" class="edge">
<title>relationship&#45;&gt;node</title>
<path fill="none" stroke="#000000" d="M343.4433,-585.227C339.5944,-574.6211 338.3833,-563.3673 342.9312,-553 344.5734,-549.2564 346.7514,-545.7062 349.2614,-542.3786"/>
<polygon fill="#000000" stroke="#000000" points="352.1282,-544.4168 356.0688,-534.582 346.8553,-539.8128 352.1282,-544.4168"/>
<text text-anchor="middle" x="363.9312" y="-555.8" font-family="Times,serif" font-size="14.00" fill="#000000">has_dst</text>
</g>
<!-- relationship&#45;&gt;node -->
<g id="edge10" class="edge">
<title>relationship&#45;&gt;node</title>
<path fill="none" stroke="#000000" d="M382.4997,-585.2205C383.4535,-579.1177 384.305,-572.9164 384.9312,-567 385.6966,-559.7684 386.1827,-551.9704 386.4883,-544.5968"/>
<polygon fill="#000000" stroke="#000000" points="389.9878,-544.6657 386.8103,-534.5586 382.9914,-544.4412 389.9878,-544.6657"/>
<text text-anchor="middle" x="406.9243" y="-555.8" font-family="Times,serif" font-size="14.00" fill="#000000">has_src</text>
</g>
<!-- concept -->
<g id="node7" class="node">
<title>concept</title>
<path fill="none" stroke="#000000" d="M261.2207,-15.5C261.2207,-15.5 362.6416,-15.5 362.6416,-15.5 368.6416,-15.5 374.6416,-21.5 374.6416,-27.5 374.6416,-27.5 374.6416,-39.5 374.6416,-39.5 374.6416,-45.5 368.6416,-51.5 362.6416,-51.5 362.6416,-51.5 261.2207,-51.5 261.2207,-51.5 255.2207,-51.5 249.2207,-45.5 249.2207,-39.5 249.2207,-39.5 249.2207,-27.5 249.2207,-27.5 249.2207,-21.5 255.2207,-15.5 261.2207,-15.5"/>
<text text-anchor="middle" x="278.9863" y="-29.3" font-family="Times,serif" font-size="14.00" fill="#000000">concept</text>
<polyline fill="none" stroke="#000000" points="308.752,-15.5 308.752,-51.5 "/>
<text text-anchor="middle" x="318.502" y="-29.3" font-family="Times,serif" font-size="14.00" fill="#000000"> </text>
<polyline fill="none" stroke="#000000" points="328.252,-15.5 328.252,-51.5 "/>
<text text-anchor="middle" x="341.6968" y="-29.3" font-family="Times,serif" font-size="14.00" fill="#000000">id</text>
<polyline fill="none" stroke="#000000" points="355.1416,-15.5 355.1416,-51.5 "/>
<text text-anchor="middle" x="364.8916" y="-29.3" font-family="Times,serif" font-size="14.00" fill="#000000"> </text>
</g>
<!-- relationship&#45;&gt;concept -->
<g id="edge6" class="edge">
<title>relationship&#45;&gt;concept</title>
<path fill="none" stroke="#000000" d="M444.2186,-585.4056C465.7769,-566.2415 483.9312,-541.4953 483.9312,-512.5 483.9312,-512.5 483.9312,-512.5 483.9312,-161.5 483.9312,-108.2835 430.286,-74.5848 382.9142,-55.2014"/>
<polygon fill="#000000" stroke="#000000" points="384.1284,-51.918 373.5413,-51.514 381.5657,-58.432 384.1284,-51.918"/>
<text text-anchor="middle" x="518.5278" y="-321.8" font-family="Times,serif" font-size="14.00" fill="#000000">has_concept</text>
</g>
<!-- value_set -->
<g id="node2" class="node">
<title>value_set</title>
<path fill="none" stroke="#000000" d="M122.2207,-256.5C122.2207,-256.5 237.6416,-256.5 237.6416,-256.5 243.6416,-256.5 249.6416,-262.5 249.6416,-268.5 249.6416,-268.5 249.6416,-288.5 249.6416,-288.5 249.6416,-294.5 243.6416,-300.5 237.6416,-300.5 237.6416,-300.5 122.2207,-300.5 122.2207,-300.5 116.2207,-300.5 110.2207,-294.5 110.2207,-288.5 110.2207,-288.5 110.2207,-268.5 110.2207,-268.5 110.2207,-262.5 116.2207,-256.5 122.2207,-256.5"/>
<text text-anchor="middle" x="144.6553" y="-274.3" font-family="Times,serif" font-size="14.00" fill="#000000">value_set</text>
<polyline fill="none" stroke="#000000" points="179.0898,-256.5 179.0898,-300.5 "/>
<text text-anchor="middle" x="188.8398" y="-274.3" font-family="Times,serif" font-size="14.00" fill="#000000"> </text>
<polyline fill="none" stroke="#000000" points="198.5898,-256.5 198.5898,-300.5 "/>
<text text-anchor="middle" x="214.3657" y="-285.3" font-family="Times,serif" font-size="14.00" fill="#000000">id</text>
<polyline fill="none" stroke="#000000" points="198.5898,-278.5 230.1416,-278.5 "/>
<text text-anchor="middle" x="214.3657" y="-263.3" font-family="Times,serif" font-size="14.00" fill="#000000">url</text>
<polyline fill="none" stroke="#000000" points="230.1416,-256.5 230.1416,-300.5 "/>
<text text-anchor="middle" x="239.8916" y="-274.3" font-family="Times,serif" font-size="14.00" fill="#000000"> </text>
</g>
<!-- term -->
<g id="node4" class="node">
<title>term</title>
<path fill="none" stroke="#000000" d="M96.5483,-117.5C96.5483,-117.5 263.314,-117.5 263.314,-117.5 269.314,-117.5 275.314,-123.5 275.314,-129.5 275.314,-129.5 275.314,-193.5 275.314,-193.5 275.314,-199.5 269.314,-205.5 263.314,-205.5 263.314,-205.5 96.5483,-205.5 96.5483,-205.5 90.5483,-205.5 84.5483,-199.5 84.5483,-193.5 84.5483,-193.5 84.5483,-129.5 84.5483,-129.5 84.5483,-123.5 90.5483,-117.5 96.5483,-117.5"/>
<text text-anchor="middle" x="105.376" y="-157.3" font-family="Times,serif" font-size="14.00" fill="#000000">term</text>
<polyline fill="none" stroke="#000000" points="126.2036,-117.5 126.2036,-205.5 "/>
<text text-anchor="middle" x="135.9536" y="-157.3" font-family="Times,serif" font-size="14.00" fill="#000000"> </text>
<polyline fill="none" stroke="#000000" points="145.7036,-117.5 145.7036,-205.5 "/>
<text text-anchor="middle" x="200.7588" y="-190.3" font-family="Times,serif" font-size="14.00" fill="#000000">id</text>
<polyline fill="none" stroke="#000000" points="145.7036,-183.5 255.814,-183.5 "/>
<text text-anchor="middle" x="200.7588" y="-168.3" font-family="Times,serif" font-size="14.00" fill="#000000">value</text>
<polyline fill="none" stroke="#000000" points="145.7036,-161.5 255.814,-161.5 "/>
<text text-anchor="middle" x="200.7588" y="-146.3" font-family="Times,serif" font-size="14.00" fill="#000000">origin_definition</text>
<polyline fill="none" stroke="#000000" points="145.7036,-139.5 255.814,-139.5 "/>
<text text-anchor="middle" x="200.7588" y="-124.3" font-family="Times,serif" font-size="14.00" fill="#000000">origin_id</text>
<polyline fill="none" stroke="#000000" points="255.814,-117.5 255.814,-205.5 "/>
<text text-anchor="middle" x="265.564" y="-157.3" font-family="Times,serif" font-size="14.00" fill="#000000"> </text>
</g>
<!-- value_set&#45;&gt;term -->
<g id="edge8" class="edge">
<title>value_set&#45;&gt;term</title>
<path fill="none" stroke="#000000" d="M179.9312,-256.4932C179.9312,-244.9876 179.9312,-230.3463 179.9312,-216.0243"/>
<polygon fill="#000000" stroke="#000000" points="183.4312,-215.7014 179.9312,-205.7014 176.4312,-215.7014 183.4312,-215.7014"/>
<text text-anchor="middle" x="205.5898" y="-226.8" font-family="Times,serif" font-size="14.00" fill="#000000">has_term</text>
</g>
<!-- origin -->
<g id="node6" class="node">
<title>origin</title>
<path fill="none" stroke="#000000" d="M12,-.5C12,-.5 153.8623,-.5 153.8623,-.5 159.8623,-.5 165.8623,-6.5 165.8623,-12.5 165.8623,-12.5 165.8623,-54.5 165.8623,-54.5 165.8623,-60.5 159.8623,-66.5 153.8623,-66.5 153.8623,-66.5 12,-66.5 12,-66.5 6,-66.5 0,-60.5 0,-54.5 0,-54.5 0,-12.5 0,-12.5 0,-6.5 6,-.5 12,-.5"/>
<text text-anchor="middle" x="24.7207" y="-29.3" font-family="Times,serif" font-size="14.00" fill="#000000">origin</text>
<polyline fill="none" stroke="#000000" points="49.4414,-.5 49.4414,-66.5 "/>
<text text-anchor="middle" x="59.1914" y="-29.3" font-family="Times,serif" font-size="14.00" fill="#000000"> </text>
<polyline fill="none" stroke="#000000" points="68.9414,-.5 68.9414,-66.5 "/>
<text text-anchor="middle" x="107.6519" y="-51.3" font-family="Times,serif" font-size="14.00" fill="#000000">name</text>
<polyline fill="none" stroke="#000000" points="68.9414,-44.5 146.3623,-44.5 "/>
<text text-anchor="middle" x="107.6519" y="-29.3" font-family="Times,serif" font-size="14.00" fill="#000000">is_external</text>
<polyline fill="none" stroke="#000000" points="68.9414,-22.5 146.3623,-22.5 "/>
<text text-anchor="middle" x="107.6519" y="-7.3" font-family="Times,serif" font-size="14.00" fill="#000000">url</text>
<polyline fill="none" stroke="#000000" points="146.3623,-.5 146.3623,-66.5 "/>
<text text-anchor="middle" x="156.1123" y="-29.3" font-family="Times,serif" font-size="14.00" fill="#000000"> </text>
</g>
<!-- value_set&#45;&gt;origin -->
<g id="edge11" class="edge">
<title>value_set&#45;&gt;origin</title>
<path fill="none" stroke="#000000" d="M110.0014,-265.8831C75.7477,-255.7985 37.5119,-237.8299 16.8276,-206 -4.7259,-172.8324 3.8298,-154.3591 16.8276,-117 22.1105,-101.8157 31.4309,-87.3131 41.4366,-74.7809"/>
<polygon fill="#000000" stroke="#000000" points="44.3449,-76.759 48.0752,-66.8426 38.9751,-72.2684 44.3449,-76.759"/>
<text text-anchor="middle" x="46.4829" y="-157.3" font-family="Times,serif" font-size="14.00" fill="#000000">has_origin</text>
</g>
<!-- property&#45;&gt;value_set -->
<g id="edge9" class="edge">
<title>property&#45;&gt;value_set</title>
<path fill="none" stroke="#000000" d="M219.7355,-351.2673C212.1017,-337.3119 203.8369,-322.2027 196.827,-309.3877"/>
<polygon fill="#000000" stroke="#000000" points="199.8411,-307.6047 191.9714,-300.5111 193.6999,-310.964 199.8411,-307.6047"/>
<text text-anchor="middle" x="248.1968" y="-321.8" font-family="Times,serif" font-size="14.00" fill="#000000">has_value_set</text>
</g>
<!-- property&#45;&gt;concept -->
<g id="edge5" class="edge">
<title>property&#45;&gt;concept</title>
<path fill="none" stroke="#000000" d="M279.9947,-351.419C283.5219,-345.4898 286.6367,-339.2792 288.9312,-333 298.0842,-307.951 307.2948,-131.7081 310.627,-61.8873"/>
<polygon fill="#000000" stroke="#000000" points="314.1354,-61.7885 311.1104,-51.6347 307.1432,-61.4587 314.1354,-61.7885"/>
<text text-anchor="middle" x="336.5278" y="-226.8" font-family="Times,serif" font-size="14.00" fill="#000000">has_concept</text>
</g>
<!-- term&#45;&gt;origin -->
<g id="edge12" class="edge">
<title>term&#45;&gt;origin</title>
<path fill="none" stroke="#000000" d="M144.8687,-117.2609C140.1165,-111.1518 135.3292,-104.938 130.8276,-99 124.9534,-91.2513 118.7649,-82.9194 112.8586,-74.8821"/>
<polygon fill="#000000" stroke="#000000" points="115.5626,-72.6506 106.8309,-66.6499 109.9148,-76.786 115.5626,-72.6506"/>
<text text-anchor="middle" x="160.4829" y="-87.8" font-family="Times,serif" font-size="14.00" fill="#000000">has_origin</text>
</g>
<!-- term&#45;&gt;concept -->
<g id="edge7" class="edge">
<title>term&#45;&gt;concept</title>
<path fill="none" stroke="#000000" d="M205.6187,-117.4718C213.3393,-106.18 222.3885,-94.5411 232.1792,-85 243.0166,-74.4389 256.3386,-64.829 268.969,-56.8464"/>
<polygon fill="#000000" stroke="#000000" points="270.86,-59.7926 277.5636,-51.5882 267.2068,-53.8214 270.86,-59.7926"/>
<text text-anchor="middle" x="261.3071" y="-87.8" font-family="Times,serif" font-size="14.00" fill="#000000">represents</text>
</g>
<!-- node&#45;&gt;property -->
<g id="edge3" class="edge">
<title>node&#45;&gt;property</title>
<path fill="none" stroke="#000000" d="M328.7336,-490.4631C318.5558,-485.2424 308.4756,-479.0897 299.8413,-472 291.3729,-465.0466 283.5262,-456.5325 276.5509,-447.7407"/>
<polygon fill="#000000" stroke="#000000" points="279.2283,-445.4789 270.3973,-439.6254 273.6505,-449.7084 279.2283,-445.4789"/>
<text text-anchor="middle" x="336.4761" y="-460.8" font-family="Times,serif" font-size="14.00" fill="#000000">has_property</text>
</g>
<!-- node&#45;&gt;concept -->
<g id="edge4" class="edge">
<title>node&#45;&gt;concept</title>
<path fill="none" stroke="#000000" d="M386.9312,-490.0703C386.9312,-466.5184 386.9312,-428.4063 386.9312,-395.5 386.9312,-395.5 386.9312,-395.5 386.9312,-161.5 386.9312,-121.9304 359.9196,-83.7548 338.3173,-59.5511"/>
<polygon fill="#000000" stroke="#000000" points="340.6023,-56.8667 331.2455,-51.8968 335.4608,-61.617 340.6023,-56.8667"/>
<text text-anchor="middle" x="421.5278" y="-274.3" font-family="Times,serif" font-size="14.00" fill="#000000">has_concept</text>
</g>
</g>
</svg>
