<?xml version="1.0" encoding="UTF-8" standalone="no"?>
<!DOCTYPE svg PUBLIC "-//W3C//DTD SVG 1.1//EN"
 "http://www.w3.org/Graphics/SVG/1.1/DTD/svg11.dtd">
<!-- Generated by graphviz version 2.40.1 (20161225.0304)
 -->
<!-- Title: Perl Pages: 1 -->
<svg width="899pt" height="1494pt"
 viewBox="0.00 0.00 899.00 1494.00" xmlns="http://www.w3.org/2000/svg" xmlns:xlink="http://www.w3.org/1999/xlink">
<g id="graph0" class="graph" transform="scale(1 1) rotate(0) translate(4 1490)">
<title>Perl</title>
<polygon fill="#ffffff" stroke="transparent" points="-4,4 -4,-1490 895,-1490 895,4 -4,4"/>
<!-- origin -->
<g id="node1" class="node">
<title>origin</title>
<path fill="none" stroke="#000000" d="M422,-190.5C422,-190.5 594,-190.5 594,-190.5 600,-190.5 606,-196.5 606,-202.5 606,-202.5 606,-339.5 606,-339.5 606,-345.5 600,-351.5 594,-351.5 594,-351.5 422,-351.5 422,-351.5 416,-351.5 410,-345.5 410,-339.5 410,-339.5 410,-202.5 410,-202.5 410,-196.5 416,-190.5 422,-190.5"/>
<text text-anchor="middle" x="439.5" y="-267.3" font-family="Times,serif" font-size="14.00" fill="#000000">origin</text>
<polyline fill="none" stroke="#000000" points="469,-190.5 469,-351.5 "/>
<text text-anchor="middle" x="479.5" y="-267.3" font-family="Times,serif" font-size="14.00" fill="#000000"> </text>
<polyline fill="none" stroke="#000000" points="490,-190.5 490,-351.5 "/>
<text text-anchor="middle" x="537.5" y="-336.3" font-family="Times,serif" font-size="14.00" fill="#000000">desc</text>
<polyline fill="none" stroke="#000000" points="490,-328.5 585,-328.5 "/>
<text text-anchor="middle" x="537.5" y="-313.3" font-family="Times,serif" font-size="14.00" fill="#000000">id</text>
<polyline fill="none" stroke="#000000" points="490,-305.5 585,-305.5 "/>
<text text-anchor="middle" x="537.5" y="-290.3" font-family="Times,serif" font-size="14.00" fill="#000000">is_external</text>
<polyline fill="none" stroke="#000000" points="490,-282.5 585,-282.5 "/>
<text text-anchor="middle" x="537.5" y="-267.3" font-family="Times,serif" font-size="14.00" fill="#000000">name</text>
<polyline fill="none" stroke="#000000" points="490,-259.5 585,-259.5 "/>
<text text-anchor="middle" x="537.5" y="-244.3" font-family="Times,serif" font-size="14.00" fill="#000000">nanoid6</text>
<polyline fill="none" stroke="#000000" points="490,-236.5 585,-236.5 "/>
<text text-anchor="middle" x="537.5" y="-221.3" font-family="Times,serif" font-size="14.00" fill="#000000">nanoid8</text>
<polyline fill="none" stroke="#000000" points="490,-213.5 585,-213.5 "/>
<text text-anchor="middle" x="537.5" y="-198.3" font-family="Times,serif" font-size="14.00" fill="#000000">url</text>
<polyline fill="none" stroke="#000000" points="585,-190.5 585,-351.5 "/>
<text text-anchor="middle" x="595.5" y="-267.3" font-family="Times,serif" font-size="14.00" fill="#000000"> </text>
</g>
<!-- tag -->
<g id="node4" class="node">
<title>tag</title>
<path fill="none" stroke="#000000" d="M568,-.5C568,-.5 700,-.5 700,-.5 706,-.5 712,-6.5 712,-12.5 712,-12.5 712,-126.5 712,-126.5 712,-132.5 706,-138.5 700,-138.5 700,-138.5 568,-138.5 568,-138.5 562,-138.5 556,-132.5 556,-126.5 556,-126.5 556,-12.5 556,-12.5 556,-6.5 562,-.5 568,-.5"/>
<text text-anchor="middle" x="576" y="-65.8" font-family="Times,serif" font-size="14.00" fill="#000000">tag</text>
<polyline fill="none" stroke="#000000" points="596,-.5 596,-138.5 "/>
<text text-anchor="middle" x="606.5" y="-65.8" font-family="Times,serif" font-size="14.00" fill="#000000"> </text>
<polyline fill="none" stroke="#000000" points="617,-.5 617,-138.5 "/>
<text text-anchor="middle" x="654" y="-123.3" font-family="Times,serif" font-size="14.00" fill="#000000">desc</text>
<polyline fill="none" stroke="#000000" points="617,-115.5 691,-115.5 "/>
<text text-anchor="middle" x="654" y="-100.3" font-family="Times,serif" font-size="14.00" fill="#000000">id</text>
<polyline fill="none" stroke="#000000" points="617,-92.5 691,-92.5 "/>
<text text-anchor="middle" x="654" y="-77.3" font-family="Times,serif" font-size="14.00" fill="#000000">key</text>
<polyline fill="none" stroke="#000000" points="617,-69.5 691,-69.5 "/>
<text text-anchor="middle" x="654" y="-54.3" font-family="Times,serif" font-size="14.00" fill="#000000">nanoid6</text>
<polyline fill="none" stroke="#000000" points="617,-46.5 691,-46.5 "/>
<text text-anchor="middle" x="654" y="-31.3" font-family="Times,serif" font-size="14.00" fill="#000000">nanoid8</text>
<polyline fill="none" stroke="#000000" points="617,-23.5 691,-23.5 "/>
<text text-anchor="middle" x="654" y="-8.3" font-family="Times,serif" font-size="14.00" fill="#000000">value</text>
<polyline fill="none" stroke="#000000" points="691,-.5 691,-138.5 "/>
<text text-anchor="middle" x="701.5" y="-65.8" font-family="Times,serif" font-size="14.00" fill="#000000"> </text>
</g>
<!-- origin&#45;&gt;tag -->
<g id="edge13" class="edge">
<title>origin&#45;&gt;tag</title>
<path fill="none" stroke="#000000" d="M544.8547,-190.3704C550.8645,-178.9461 557.3224,-167.5179 564,-157 566.1098,-153.6768 568.3235,-150.3323 570.6113,-146.9906"/>
<polygon fill="#000000" stroke="#000000" points="573.5487,-148.898 576.4342,-138.7036 567.8212,-144.8735 573.5487,-148.898"/>
<text text-anchor="middle" x="592" y="-160.8" font-family="Times,serif" font-size="14.00" fill="#000000">has_tag</text>
</g>
<!-- property -->
<g id="node2" class="node">
<title>property</title>
<path fill="none" stroke="#000000" d="M174,-806.5C174,-806.5 386,-806.5 386,-806.5 392,-806.5 398,-812.5 398,-818.5 398,-818.5 398,-1024.5 398,-1024.5 398,-1030.5 392,-1036.5 386,-1036.5 386,-1036.5 174,-1036.5 174,-1036.5 168,-1036.5 162,-1030.5 162,-1024.5 162,-1024.5 162,-818.5 162,-818.5 162,-812.5 168,-806.5 174,-806.5"/>
<text text-anchor="middle" x="201.5" y="-917.8" font-family="Times,serif" font-size="14.00" fill="#000000">property</text>
<polyline fill="none" stroke="#000000" points="241,-806.5 241,-1036.5 "/>
<text text-anchor="middle" x="251.5" y="-917.8" font-family="Times,serif" font-size="14.00" fill="#000000"> </text>
<polyline fill="none" stroke="#000000" points="262,-806.5 262,-1036.5 "/>
<text text-anchor="middle" x="319.5" y="-1021.3" font-family="Times,serif" font-size="14.00" fill="#000000">desc</text>
<polyline fill="none" stroke="#000000" points="262,-1013.5 377,-1013.5 "/>
<text text-anchor="middle" x="319.5" y="-998.3" font-family="Times,serif" font-size="14.00" fill="#000000">handle</text>
<polyline fill="none" stroke="#000000" points="262,-990.5 377,-990.5 "/>
<text text-anchor="middle" x="319.5" y="-975.3" font-family="Times,serif" font-size="14.00" fill="#000000">id</text>
<polyline fill="none" stroke="#000000" points="262,-967.5 377,-967.5 "/>
<text text-anchor="middle" x="319.5" y="-952.3" font-family="Times,serif" font-size="14.00" fill="#000000">is_required</text>
<polyline fill="none" stroke="#000000" points="262,-944.5 377,-944.5 "/>
<text text-anchor="middle" x="319.5" y="-929.3" font-family="Times,serif" font-size="14.00" fill="#000000">model</text>
<polyline fill="none" stroke="#000000" points="262,-921.5 377,-921.5 "/>
<text text-anchor="middle" x="319.5" y="-906.3" font-family="Times,serif" font-size="14.00" fill="#000000">nanoid6</text>
<polyline fill="none" stroke="#000000" points="262,-898.5 377,-898.5 "/>
<text text-anchor="middle" x="319.5" y="-883.3" font-family="Times,serif" font-size="14.00" fill="#000000">nanoid8</text>
<polyline fill="none" stroke="#000000" points="262,-875.5 377,-875.5 "/>
<text text-anchor="middle" x="319.5" y="-860.3" font-family="Times,serif" font-size="14.00" fill="#000000">pattern</text>
<polyline fill="none" stroke="#000000" points="262,-852.5 377,-852.5 "/>
<text text-anchor="middle" x="319.5" y="-837.3" font-family="Times,serif" font-size="14.00" fill="#000000">units</text>
<polyline fill="none" stroke="#000000" points="262,-829.5 377,-829.5 "/>
<text text-anchor="middle" x="319.5" y="-814.3" font-family="Times,serif" font-size="14.00" fill="#000000">value_domain</text>
<polyline fill="none" stroke="#000000" points="377,-806.5 377,-1036.5 "/>
<text text-anchor="middle" x="387.5" y="-917.8" font-family="Times,serif" font-size="14.00" fill="#000000"> </text>
</g>
<!-- property&#45;&gt;tag -->
<g id="edge11" class="edge">
<title>property&#45;&gt;tag</title>
<path fill="none" stroke="#000000" d="M398.2056,-836.4909C429.4543,-811.7365 462.1942,-783.6114 490,-755 563.473,-679.3984 583.857,-658.7877 632,-565 670.3214,-490.3458 676.1829,-467.9307 689,-385 701.5001,-304.1199 681.4429,-211.9446 662.1351,-148.2017"/>
<polygon fill="#000000" stroke="#000000" points="665.4691,-147.1357 659.1721,-138.6152 658.7812,-149.2028 665.4691,-147.1357"/>
<text text-anchor="middle" x="714" y="-480.3" font-family="Times,serif" font-size="14.00" fill="#000000">has_tag</text>
</g>
<!-- concept -->
<g id="node7" class="node">
<title>concept</title>
<path fill="none" stroke="#000000" d="M53,-225C53,-225 219,-225 219,-225 225,-225 231,-231 231,-237 231,-237 231,-305 231,-305 231,-311 225,-317 219,-317 219,-317 53,-317 53,-317 47,-317 41,-311 41,-305 41,-305 41,-237 41,-237 41,-231 47,-225 53,-225"/>
<text text-anchor="middle" x="78" y="-267.3" font-family="Times,serif" font-size="14.00" fill="#000000">concept</text>
<polyline fill="none" stroke="#000000" points="115,-225 115,-317 "/>
<text text-anchor="middle" x="125.5" y="-267.3" font-family="Times,serif" font-size="14.00" fill="#000000"> </text>
<polyline fill="none" stroke="#000000" points="136,-225 136,-317 "/>
<text text-anchor="middle" x="173" y="-301.8" font-family="Times,serif" font-size="14.00" fill="#000000">desc</text>
<polyline fill="none" stroke="#000000" points="136,-294 210,-294 "/>
<text text-anchor="middle" x="173" y="-278.8" font-family="Times,serif" font-size="14.00" fill="#000000">id</text>
<polyline fill="none" stroke="#000000" points="136,-271 210,-271 "/>
<text text-anchor="middle" x="173" y="-255.8" font-family="Times,serif" font-size="14.00" fill="#000000">nanoid6</text>
<polyline fill="none" stroke="#000000" points="136,-248 210,-248 "/>
<text text-anchor="middle" x="173" y="-232.8" font-family="Times,serif" font-size="14.00" fill="#000000">nanoid8</text>
<polyline fill="none" stroke="#000000" points="210,-225 210,-317 "/>
<text text-anchor="middle" x="220.5" y="-267.3" font-family="Times,serif" font-size="14.00" fill="#000000"> </text>
</g>
<!-- property&#45;&gt;concept -->
<g id="edge6" class="edge">
<title>property&#45;&gt;concept</title>
<path fill="none" stroke="#000000" d="M263.8823,-806.4144C249.2538,-742.3932 221.4978,-665.8169 169,-616 149.1132,-597.1288 126.3138,-620.0333 110,-598 79.2168,-556.4246 105.2187,-409.1756 122.9126,-327.1755"/>
<polygon fill="#000000" stroke="#000000" points="126.3619,-327.7847 125.0785,-317.2679 119.5234,-326.2897 126.3619,-327.7847"/>
<text text-anchor="middle" x="155" y="-586.8" font-family="Times,serif" font-size="14.00" fill="#000000">has_concept</text>
</g>
<!-- value_set -->
<g id="node8" class="node">
<title>value_set</title>
<path fill="none" stroke="#000000" d="M293,-616.5C293,-616.5 469,-616.5 469,-616.5 475,-616.5 481,-622.5 481,-628.5 481,-628.5 481,-742.5 481,-742.5 481,-748.5 475,-754.5 469,-754.5 469,-754.5 293,-754.5 293,-754.5 287,-754.5 281,-748.5 281,-742.5 281,-742.5 281,-628.5 281,-628.5 281,-622.5 287,-616.5 293,-616.5"/>
<text text-anchor="middle" x="323" y="-681.8" font-family="Times,serif" font-size="14.00" fill="#000000">value_set</text>
<polyline fill="none" stroke="#000000" points="365,-616.5 365,-754.5 "/>
<text text-anchor="middle" x="375.5" y="-681.8" font-family="Times,serif" font-size="14.00" fill="#000000"> </text>
<polyline fill="none" stroke="#000000" points="386,-616.5 386,-754.5 "/>
<text text-anchor="middle" x="423" y="-739.3" font-family="Times,serif" font-size="14.00" fill="#000000">desc</text>
<polyline fill="none" stroke="#000000" points="386,-731.5 460,-731.5 "/>
<text text-anchor="middle" x="423" y="-716.3" font-family="Times,serif" font-size="14.00" fill="#000000">handle</text>
<polyline fill="none" stroke="#000000" points="386,-708.5 460,-708.5 "/>
<text text-anchor="middle" x="423" y="-693.3" font-family="Times,serif" font-size="14.00" fill="#000000">id</text>
<polyline fill="none" stroke="#000000" points="386,-685.5 460,-685.5 "/>
<text text-anchor="middle" x="423" y="-670.3" font-family="Times,serif" font-size="14.00" fill="#000000">nanoid6</text>
<polyline fill="none" stroke="#000000" points="386,-662.5 460,-662.5 "/>
<text text-anchor="middle" x="423" y="-647.3" font-family="Times,serif" font-size="14.00" fill="#000000">nanoid8</text>
<polyline fill="none" stroke="#000000" points="386,-639.5 460,-639.5 "/>
<text text-anchor="middle" x="423" y="-624.3" font-family="Times,serif" font-size="14.00" fill="#000000">url</text>
<polyline fill="none" stroke="#000000" points="460,-616.5 460,-754.5 "/>
<text text-anchor="middle" x="470.5" y="-681.8" font-family="Times,serif" font-size="14.00" fill="#000000"> </text>
</g>
<!-- property&#45;&gt;value_set -->
<g id="edge19" class="edge">
<title>property&#45;&gt;value_set</title>
<path fill="none" stroke="#000000" d="M329.3165,-806.2654C335.46,-791.9102 341.627,-777.5004 347.4533,-763.8864"/>
<polygon fill="#000000" stroke="#000000" points="350.7112,-765.1695 351.428,-754.5989 344.2757,-762.4153 350.7112,-765.1695"/>
<text text-anchor="middle" x="392" y="-776.8" font-family="Times,serif" font-size="14.00" fill="#000000">has_value_set</text>
</g>
<!-- term -->
<g id="node3" class="node">
<title>term</title>
<path fill="none" stroke="#000000" d="M279.5,-403.5C279.5,-403.5 482.5,-403.5 482.5,-403.5 488.5,-403.5 494.5,-409.5 494.5,-415.5 494.5,-415.5 494.5,-552.5 494.5,-552.5 494.5,-558.5 488.5,-564.5 482.5,-564.5 482.5,-564.5 279.5,-564.5 279.5,-564.5 273.5,-564.5 267.5,-558.5 267.5,-552.5 267.5,-552.5 267.5,-415.5 267.5,-415.5 267.5,-409.5 273.5,-403.5 279.5,-403.5"/>
<text text-anchor="middle" x="293" y="-480.3" font-family="Times,serif" font-size="14.00" fill="#000000">term</text>
<polyline fill="none" stroke="#000000" points="318.5,-403.5 318.5,-564.5 "/>
<text text-anchor="middle" x="329" y="-480.3" font-family="Times,serif" font-size="14.00" fill="#000000"> </text>
<polyline fill="none" stroke="#000000" points="339.5,-403.5 339.5,-564.5 "/>
<text text-anchor="middle" x="406.5" y="-549.3" font-family="Times,serif" font-size="14.00" fill="#000000">desc</text>
<polyline fill="none" stroke="#000000" points="339.5,-541.5 473.5,-541.5 "/>
<text text-anchor="middle" x="406.5" y="-526.3" font-family="Times,serif" font-size="14.00" fill="#000000">id</text>
<polyline fill="none" stroke="#000000" points="339.5,-518.5 473.5,-518.5 "/>
<text text-anchor="middle" x="406.5" y="-503.3" font-family="Times,serif" font-size="14.00" fill="#000000">nanoid6</text>
<polyline fill="none" stroke="#000000" points="339.5,-495.5 473.5,-495.5 "/>
<text text-anchor="middle" x="406.5" y="-480.3" font-family="Times,serif" font-size="14.00" fill="#000000">nanoid8</text>
<polyline fill="none" stroke="#000000" points="339.5,-472.5 473.5,-472.5 "/>
<text text-anchor="middle" x="406.5" y="-457.3" font-family="Times,serif" font-size="14.00" fill="#000000">origin_definition</text>
<polyline fill="none" stroke="#000000" points="339.5,-449.5 473.5,-449.5 "/>
<text text-anchor="middle" x="406.5" y="-434.3" font-family="Times,serif" font-size="14.00" fill="#000000">origin_id</text>
<polyline fill="none" stroke="#000000" points="339.5,-426.5 473.5,-426.5 "/>
<text text-anchor="middle" x="406.5" y="-411.3" font-family="Times,serif" font-size="14.00" fill="#000000">value</text>
<polyline fill="none" stroke="#000000" points="473.5,-403.5 473.5,-564.5 "/>
<text text-anchor="middle" x="484" y="-480.3" font-family="Times,serif" font-size="14.00" fill="#000000"> </text>
</g>
<!-- term&#45;&gt;origin -->
<g id="edge4" class="edge">
<title>term&#45;&gt;origin</title>
<path fill="none" stroke="#000000" d="M422.8618,-403.4185C429.1056,-392.0991 435.5985,-380.6875 442,-370 443.9172,-366.7991 445.8925,-363.5571 447.908,-360.2956"/>
<polygon fill="#000000" stroke="#000000" points="450.9911,-361.9665 453.3252,-351.632 445.0558,-358.2553 450.9911,-361.9665"/>
<text text-anchor="middle" x="479.5" y="-373.8" font-family="Times,serif" font-size="14.00" fill="#000000">has_origin</text>
</g>
<!-- term&#45;&gt;tag -->
<g id="edge14" class="edge">
<title>term&#45;&gt;tag</title>
<path fill="none" stroke="#000000" d="M344.0604,-403.3775C321.1088,-340.2062 303.1483,-252.7942 345,-190 389.3045,-123.5256 477.9774,-93.6617 545.48,-80.2813"/>
<polygon fill="#000000" stroke="#000000" points="546.5242,-83.6459 555.6995,-78.3483 545.2232,-76.7679 546.5242,-83.6459"/>
<text text-anchor="middle" x="373" y="-267.3" font-family="Times,serif" font-size="14.00" fill="#000000">has_tag</text>
</g>
<!-- term&#45;&gt;concept -->
<g id="edge20" class="edge">
<title>term&#45;&gt;concept</title>
<path fill="none" stroke="#000000" d="M267.1863,-404.3167C259.2034,-397.9513 251.3966,-391.4753 244,-385 222.8096,-366.4488 201.1349,-344.3064 182.8173,-324.4918"/>
<polygon fill="#000000" stroke="#000000" points="185.3076,-322.0288 175.9693,-317.024 180.1483,-326.7599 185.3076,-322.0288"/>
<text text-anchor="middle" x="283" y="-373.8" font-family="Times,serif" font-size="14.00" fill="#000000">represents</text>
</g>
<!-- node -->
<g id="node5" class="node">
<title>node</title>
<path fill="none" stroke="#000000" d="M205.5,-1088.5C205.5,-1088.5 354.5,-1088.5 354.5,-1088.5 360.5,-1088.5 366.5,-1094.5 366.5,-1100.5 366.5,-1100.5 366.5,-1237.5 366.5,-1237.5 366.5,-1243.5 360.5,-1249.5 354.5,-1249.5 354.5,-1249.5 205.5,-1249.5 205.5,-1249.5 199.5,-1249.5 193.5,-1243.5 193.5,-1237.5 193.5,-1237.5 193.5,-1100.5 193.5,-1100.5 193.5,-1094.5 199.5,-1088.5 205.5,-1088.5"/>
<text text-anchor="middle" x="219" y="-1165.3" font-family="Times,serif" font-size="14.00" fill="#000000">node</text>
<polyline fill="none" stroke="#000000" points="244.5,-1088.5 244.5,-1249.5 "/>
<text text-anchor="middle" x="255" y="-1165.3" font-family="Times,serif" font-size="14.00" fill="#000000"> </text>
<polyline fill="none" stroke="#000000" points="265.5,-1088.5 265.5,-1249.5 "/>
<text text-anchor="middle" x="305.5" y="-1234.3" font-family="Times,serif" font-size="14.00" fill="#000000">category</text>
<polyline fill="none" stroke="#000000" points="265.5,-1226.5 345.5,-1226.5 "/>
<text text-anchor="middle" x="305.5" y="-1211.3" font-family="Times,serif" font-size="14.00" fill="#000000">desc</text>
<polyline fill="none" stroke="#000000" points="265.5,-1203.5 345.5,-1203.5 "/>
<text text-anchor="middle" x="305.5" y="-1188.3" font-family="Times,serif" font-size="14.00" fill="#000000">handle</text>
<polyline fill="none" stroke="#000000" points="265.5,-1180.5 345.5,-1180.5 "/>
<text text-anchor="middle" x="305.5" y="-1165.3" font-family="Times,serif" font-size="14.00" fill="#000000">id</text>
<polyline fill="none" stroke="#000000" points="265.5,-1157.5 345.5,-1157.5 "/>
<text text-anchor="middle" x="305.5" y="-1142.3" font-family="Times,serif" font-size="14.00" fill="#000000">model</text>
<polyline fill="none" stroke="#000000" points="265.5,-1134.5 345.5,-1134.5 "/>
<text text-anchor="middle" x="305.5" y="-1119.3" font-family="Times,serif" font-size="14.00" fill="#000000">nanoid6</text>
<polyline fill="none" stroke="#000000" points="265.5,-1111.5 345.5,-1111.5 "/>
<text text-anchor="middle" x="305.5" y="-1096.3" font-family="Times,serif" font-size="14.00" fill="#000000">nanoid8</text>
<polyline fill="none" stroke="#000000" points="345.5,-1088.5 345.5,-1249.5 "/>
<text text-anchor="middle" x="356" y="-1165.3" font-family="Times,serif" font-size="14.00" fill="#000000"> </text>
</g>
<!-- node&#45;&gt;property -->
<g id="edge2" class="edge">
<title>node&#45;&gt;property</title>
<path fill="none" stroke="#000000" d="M280,-1088.3017C280,-1075.0207 280,-1060.9838 280,-1046.9183"/>
<polygon fill="#000000" stroke="#000000" points="283.5001,-1046.6816 280,-1036.6817 276.5001,-1046.6817 283.5001,-1046.6816"/>
<text text-anchor="middle" x="327.5" y="-1058.8" font-family="Times,serif" font-size="14.00" fill="#000000">has_property</text>
</g>
<!-- node&#45;&gt;tag -->
<g id="edge12" class="edge">
<title>node&#45;&gt;tag</title>
<path fill="none" stroke="#000000" d="M366.5295,-1163.2152C505.7451,-1148.6984 764,-1097.9846 764,-921.5 764,-921.5 764,-921.5 764,-271 764,-225.3284 740.1265,-181.7966 712.8407,-146.9579"/>
<polygon fill="#000000" stroke="#000000" points="715.2244,-144.338 706.223,-138.7499 709.7749,-148.7317 715.2244,-144.338"/>
<text text-anchor="middle" x="792" y="-586.8" font-family="Times,serif" font-size="14.00" fill="#000000">has_tag</text>
</g>
<!-- node&#45;&gt;concept -->
<g id="edge7" class="edge">
<title>node&#45;&gt;concept</title>
<path fill="none" stroke="#000000" d="M193.4709,-1092.5382C178.1627,-1075.5498 163.7168,-1056.6926 153,-1037 95.3882,-931.1355 146.5124,-879.9803 91,-773 86.0701,-763.4993 78.8039,-765.0049 75,-755 18.9689,-607.627 76.6864,-418.6466 112.3476,-326.5048"/>
<polygon fill="#000000" stroke="#000000" points="115.6464,-327.6797 116.0448,-317.0923 109.131,-325.1204 115.6464,-327.6797"/>
<text text-anchor="middle" x="120" y="-681.8" font-family="Times,serif" font-size="14.00" fill="#000000">has_concept</text>
</g>
<!-- relationship -->
<g id="node6" class="node">
<title>relationship</title>
<path fill="none" stroke="#000000" d="M92.5,-1301.5C92.5,-1301.5 311.5,-1301.5 311.5,-1301.5 317.5,-1301.5 323.5,-1307.5 323.5,-1313.5 323.5,-1313.5 323.5,-1473.5 323.5,-1473.5 323.5,-1479.5 317.5,-1485.5 311.5,-1485.5 311.5,-1485.5 92.5,-1485.5 92.5,-1485.5 86.5,-1485.5 80.5,-1479.5 80.5,-1473.5 80.5,-1473.5 80.5,-1313.5 80.5,-1313.5 80.5,-1307.5 86.5,-1301.5 92.5,-1301.5"/>
<text text-anchor="middle" x="131.5" y="-1389.8" font-family="Times,serif" font-size="14.00" fill="#000000">relationship</text>
<polyline fill="none" stroke="#000000" points="182.5,-1301.5 182.5,-1485.5 "/>
<text text-anchor="middle" x="193" y="-1389.8" font-family="Times,serif" font-size="14.00" fill="#000000"> </text>
<polyline fill="none" stroke="#000000" points="203.5,-1301.5 203.5,-1485.5 "/>
<text text-anchor="middle" x="253" y="-1470.3" font-family="Times,serif" font-size="14.00" fill="#000000">desc</text>
<polyline fill="none" stroke="#000000" points="203.5,-1462.5 302.5,-1462.5 "/>
<text text-anchor="middle" x="253" y="-1447.3" font-family="Times,serif" font-size="14.00" fill="#000000">handle</text>
<polyline fill="none" stroke="#000000" points="203.5,-1439.5 302.5,-1439.5 "/>
<text text-anchor="middle" x="253" y="-1424.3" font-family="Times,serif" font-size="14.00" fill="#000000">id</text>
<polyline fill="none" stroke="#000000" points="203.5,-1416.5 302.5,-1416.5 "/>
<text text-anchor="middle" x="253" y="-1401.3" font-family="Times,serif" font-size="14.00" fill="#000000">is_required</text>
<polyline fill="none" stroke="#000000" points="203.5,-1393.5 302.5,-1393.5 "/>
<text text-anchor="middle" x="253" y="-1378.3" font-family="Times,serif" font-size="14.00" fill="#000000">model</text>
<polyline fill="none" stroke="#000000" points="203.5,-1370.5 302.5,-1370.5 "/>
<text text-anchor="middle" x="253" y="-1355.3" font-family="Times,serif" font-size="14.00" fill="#000000">multiplicity</text>
<polyline fill="none" stroke="#000000" points="203.5,-1347.5 302.5,-1347.5 "/>
<text text-anchor="middle" x="253" y="-1332.3" font-family="Times,serif" font-size="14.00" fill="#000000">nanoid6</text>
<polyline fill="none" stroke="#000000" points="203.5,-1324.5 302.5,-1324.5 "/>
<text text-anchor="middle" x="253" y="-1309.3" font-family="Times,serif" font-size="14.00" fill="#000000">nanoid8</text>
<polyline fill="none" stroke="#000000" points="302.5,-1301.5 302.5,-1485.5 "/>
<text text-anchor="middle" x="313" y="-1389.8" font-family="Times,serif" font-size="14.00" fill="#000000"> </text>
</g>
<!-- relationship&#45;&gt;property -->
<g id="edge1" class="edge">
<title>relationship&#45;&gt;property</title>
<path fill="none" stroke="#000000" d="M116.4215,-1301.4843C105.5985,-1285.3385 96.1689,-1267.9303 90,-1250 66.576,-1181.9169 60.2728,-1153.5766 90,-1088 104.339,-1056.3688 127.9855,-1028.3758 153.8098,-1004.7965"/>
<polygon fill="#000000" stroke="#000000" points="156.3685,-1007.2049 161.5142,-997.9436 151.7161,-1001.9746 156.3685,-1007.2049"/>
<text text-anchor="middle" x="137.5" y="-1165.3" font-family="Times,serif" font-size="14.00" fill="#000000">has_property</text>
</g>
<!-- relationship&#45;&gt;tag -->
<g id="edge17" class="edge">
<title>relationship&#45;&gt;tag</title>
<path fill="none" stroke="#000000" d="M323.6741,-1375.7327C507.5468,-1345.4128 835,-1276.3474 835,-1169 835,-1169 835,-1169 835,-271 835,-202.0535 775.285,-148.4033 720.9514,-113.8579"/>
<polygon fill="#000000" stroke="#000000" points="722.6292,-110.7799 712.2874,-108.4782 718.9366,-116.7267 722.6292,-110.7799"/>
<text text-anchor="middle" x="863" y="-681.8" font-family="Times,serif" font-size="14.00" fill="#000000">has_tag</text>
</g>
<!-- relationship&#45;&gt;node -->
<g id="edge10" class="edge">
<title>relationship&#45;&gt;node</title>
<path fill="none" stroke="#000000" d="M250.9869,-1301.469C253.5411,-1295.2953 255.9102,-1289.1043 258,-1283 260.5761,-1275.4755 262.8807,-1267.5623 264.9363,-1259.559"/>
<polygon fill="#000000" stroke="#000000" points="268.3541,-1260.3165 267.3218,-1249.7721 261.5532,-1258.6588 268.3541,-1260.3165"/>
<text text-anchor="middle" x="288.5" y="-1271.8" font-family="Times,serif" font-size="14.00" fill="#000000">has_src</text>
</g>
<!-- relationship&#45;&gt;node -->
<g id="edge18" class="edge">
<title>relationship&#45;&gt;node</title>
<path fill="none" stroke="#000000" d="M192.0917,-1301.4301C193.0928,-1289.9676 195.2266,-1278.5708 199,-1268 200.1199,-1264.8628 201.3866,-1261.7533 202.7791,-1258.6791"/>
<polygon fill="#000000" stroke="#000000" points="205.9905,-1260.0819 207.3131,-1249.5699 199.7238,-1256.9627 205.9905,-1260.0819"/>
<text text-anchor="middle" x="226.5" y="-1271.8" font-family="Times,serif" font-size="14.00" fill="#000000">has_dst</text>
</g>
<!-- relationship&#45;&gt;concept -->
<g id="edge8" class="edge">
<title>relationship&#45;&gt;concept</title>
<path fill="none" stroke="#000000" d="M80.4162,-1314.5189C37.6354,-1276.6842 0,-1226.9358 0,-1169 0,-1169 0,-1169 0,-484 0,-422.7133 40.4925,-364.8909 77.2876,-324.9997"/>
<polygon fill="#000000" stroke="#000000" points="80.2682,-326.9407 84.5842,-317.2648 75.1762,-322.1373 80.2682,-326.9407"/>
<text text-anchor="middle" x="45" y="-776.8" font-family="Times,serif" font-size="14.00" fill="#000000">has_concept</text>
</g>
<!-- concept&#45;&gt;tag -->
<g id="edge15" class="edge">
<title>concept&#45;&gt;tag</title>
<path fill="none" stroke="#000000" d="M177.6665,-224.9512C201.3929,-201.3591 232.9269,-174.0788 266,-157 354.9288,-111.0776 468.4021,-88.8215 545.6763,-78.3289"/>
<polygon fill="#000000" stroke="#000000" points="546.4038,-81.7634 555.8602,-76.9857 545.4884,-74.8235 546.4038,-81.7634"/>
<text text-anchor="middle" x="294" y="-160.8" font-family="Times,serif" font-size="14.00" fill="#000000">has_tag</text>
</g>
<!-- value_set&#45;&gt;origin -->
<g id="edge3" class="edge">
<title>value_set&#45;&gt;origin</title>
<path fill="none" stroke="#000000" d="M468.4392,-616.1669C482.5832,-600.8444 495.3914,-583.58 504,-565 533.3134,-501.7328 532.4833,-422.2769 525.332,-361.9214"/>
<polygon fill="#000000" stroke="#000000" points="528.7595,-361.1267 524.032,-351.6451 521.8148,-362.0053 528.7595,-361.1267"/>
<text text-anchor="middle" x="566.5" y="-480.3" font-family="Times,serif" font-size="14.00" fill="#000000">has_origin</text>
</g>
<!-- value_set&#45;&gt;term -->
<g id="edge5" class="edge">
<title>value_set&#45;&gt;term</title>
<path fill="none" stroke="#000000" d="M381,-616.437C381,-603.0525 381,-588.8373 381,-574.8773"/>
<polygon fill="#000000" stroke="#000000" points="384.5001,-574.7729 381,-564.7729 377.5001,-574.773 384.5001,-574.7729"/>
<text text-anchor="middle" x="414.5" y="-586.8" font-family="Times,serif" font-size="14.00" fill="#000000">has_term</text>
</g>
<!-- value_set&#45;&gt;tag -->
<g id="edge16" class="edge">
<title>value_set&#45;&gt;tag</title>
<path fill="none" stroke="#000000" d="M481.0477,-657.718C527.7535,-639.3225 579.2752,-610.0519 608,-565 629.7279,-530.922 633.5718,-280.5249 634.0758,-149.2795"/>
<polygon fill="#000000" stroke="#000000" points="637.577,-148.8968 634.1097,-138.8854 630.577,-148.8739 637.577,-148.8968"/>
<text text-anchor="middle" x="657" y="-373.8" font-family="Times,serif" font-size="14.00" fill="#000000">has_tag</text>
</g>
<!-- value_set&#45;&gt;concept -->
<g id="edge9" class="edge">
<title>value_set&#45;&gt;concept</title>
<path fill="none" stroke="#000000" d="M280.8689,-626.3527C255.898,-611.9241 229.0866,-596.7036 204,-583 188.6488,-574.6144 178.9313,-579.3994 169,-565 143.2375,-527.6469 137.3171,-401.8037 136.1214,-327.4147"/>
<polygon fill="#000000" stroke="#000000" points="139.6193,-327.2253 135.9825,-317.2742 132.6199,-327.3212 139.6193,-327.2253"/>
<text text-anchor="middle" x="214" y="-480.3" font-family="Times,serif" font-size="14.00" fill="#000000">has_concept</text>
</g>
</g>
</svg>
