<?xml version="1.0" encoding="UTF-8" standalone="no"?>
<!DOCTYPE svg PUBLIC "-//W3C//DTD SVG 1.1//EN"
 "http://www.w3.org/Graphics/SVG/1.1/DTD/svg11.dtd">
<!-- Generated by graphviz version 2.40.1 (20161225.0304)
 -->
<!-- Title: Perl Pages: 1 -->
<svg width="917pt" height="1494pt"
 viewBox="0.00 0.00 917.00 1494.00" xmlns="http://www.w3.org/2000/svg" xmlns:xlink="http://www.w3.org/1999/xlink">
<g id="graph0" class="graph" transform="scale(1 1) rotate(0) translate(4 1490)">
<title>Perl</title>
<polygon fill="#ffffff" stroke="transparent" points="-4,4 -4,-1490 913,-1490 913,4 -4,4"/>
<!-- property -->
<g id="node1" class="node">
<title>property</title>
<path fill="none" stroke="#000000" d="M139,-806.5C139,-806.5 351,-806.5 351,-806.5 357,-806.5 363,-812.5 363,-818.5 363,-818.5 363,-1024.5 363,-1024.5 363,-1030.5 357,-1036.5 351,-1036.5 351,-1036.5 139,-1036.5 139,-1036.5 133,-1036.5 127,-1030.5 127,-1024.5 127,-1024.5 127,-818.5 127,-818.5 127,-812.5 133,-806.5 139,-806.5"/>
<text text-anchor="middle" x="166.5" y="-917.8" font-family="Times,serif" font-size="14.00" fill="#000000">property</text>
<polyline fill="none" stroke="#000000" points="206,-806.5 206,-1036.5 "/>
<text text-anchor="middle" x="216.5" y="-917.8" font-family="Times,serif" font-size="14.00" fill="#000000"> </text>
<polyline fill="none" stroke="#000000" points="227,-806.5 227,-1036.5 "/>
<text text-anchor="middle" x="284.5" y="-1021.3" font-family="Times,serif" font-size="14.00" fill="#000000">desc</text>
<polyline fill="none" stroke="#000000" points="227,-1013.5 342,-1013.5 "/>
<text text-anchor="middle" x="284.5" y="-998.3" font-family="Times,serif" font-size="14.00" fill="#000000">handle</text>
<polyline fill="none" stroke="#000000" points="227,-990.5 342,-990.5 "/>
<text text-anchor="middle" x="284.5" y="-975.3" font-family="Times,serif" font-size="14.00" fill="#000000">id</text>
<polyline fill="none" stroke="#000000" points="227,-967.5 342,-967.5 "/>
<text text-anchor="middle" x="284.5" y="-952.3" font-family="Times,serif" font-size="14.00" fill="#000000">is_required</text>
<polyline fill="none" stroke="#000000" points="227,-944.5 342,-944.5 "/>
<text text-anchor="middle" x="284.5" y="-929.3" font-family="Times,serif" font-size="14.00" fill="#000000">model</text>
<polyline fill="none" stroke="#000000" points="227,-921.5 342,-921.5 "/>
<text text-anchor="middle" x="284.5" y="-906.3" font-family="Times,serif" font-size="14.00" fill="#000000">nanoid6</text>
<polyline fill="none" stroke="#000000" points="227,-898.5 342,-898.5 "/>
<text text-anchor="middle" x="284.5" y="-883.3" font-family="Times,serif" font-size="14.00" fill="#000000">nanoid8</text>
<polyline fill="none" stroke="#000000" points="227,-875.5 342,-875.5 "/>
<text text-anchor="middle" x="284.5" y="-860.3" font-family="Times,serif" font-size="14.00" fill="#000000">pattern</text>
<polyline fill="none" stroke="#000000" points="227,-852.5 342,-852.5 "/>
<text text-anchor="middle" x="284.5" y="-837.3" font-family="Times,serif" font-size="14.00" fill="#000000">units</text>
<polyline fill="none" stroke="#000000" points="227,-829.5 342,-829.5 "/>
<text text-anchor="middle" x="284.5" y="-814.3" font-family="Times,serif" font-size="14.00" fill="#000000">value_domain</text>
<polyline fill="none" stroke="#000000" points="342,-806.5 342,-1036.5 "/>
<text text-anchor="middle" x="352.5" y="-917.8" font-family="Times,serif" font-size="14.00" fill="#000000"> </text>
</g>
<!-- concept -->
<g id="node2" class="node">
<title>concept</title>
<path fill="none" stroke="#000000" d="M519,-225C519,-225 685,-225 685,-225 691,-225 697,-231 697,-237 697,-237 697,-305 697,-305 697,-311 691,-317 685,-317 685,-317 519,-317 519,-317 513,-317 507,-311 507,-305 507,-305 507,-237 507,-237 507,-231 513,-225 519,-225"/>
<text text-anchor="middle" x="544" y="-267.3" font-family="Times,serif" font-size="14.00" fill="#000000">concept</text>
<polyline fill="none" stroke="#000000" points="581,-225 581,-317 "/>
<text text-anchor="middle" x="591.5" y="-267.3" font-family="Times,serif" font-size="14.00" fill="#000000"> </text>
<polyline fill="none" stroke="#000000" points="602,-225 602,-317 "/>
<text text-anchor="middle" x="639" y="-301.8" font-family="Times,serif" font-size="14.00" fill="#000000">desc</text>
<polyline fill="none" stroke="#000000" points="602,-294 676,-294 "/>
<text text-anchor="middle" x="639" y="-278.8" font-family="Times,serif" font-size="14.00" fill="#000000">id</text>
<polyline fill="none" stroke="#000000" points="602,-271 676,-271 "/>
<text text-anchor="middle" x="639" y="-255.8" font-family="Times,serif" font-size="14.00" fill="#000000">nanoid6</text>
<polyline fill="none" stroke="#000000" points="602,-248 676,-248 "/>
<text text-anchor="middle" x="639" y="-232.8" font-family="Times,serif" font-size="14.00" fill="#000000">nanoid8</text>
<polyline fill="none" stroke="#000000" points="676,-225 676,-317 "/>
<text text-anchor="middle" x="686.5" y="-267.3" font-family="Times,serif" font-size="14.00" fill="#000000"> </text>
</g>
<!-- property&#45;&gt;concept -->
<g id="edge16" class="edge">
<title>property&#45;&gt;concept</title>
<path fill="none" stroke="#000000" d="M336.7949,-806.441C399.9565,-733.7736 489.4458,-642.6704 585,-583 605.7441,-570.046 622.8143,-584.922 637,-565 687.0543,-494.7052 656.4065,-390.1703 629.3773,-326.5346"/>
<polygon fill="#000000" stroke="#000000" points="632.4564,-324.8389 625.2547,-317.068 626.0385,-327.6338 632.4564,-324.8389"/>
<text text-anchor="middle" x="630" y="-586.8" font-family="Times,serif" font-size="14.00" fill="#000000">has_concept</text>
</g>
<!-- tag -->
<g id="node6" class="node">
<title>tag</title>
<path fill="none" stroke="#000000" d="M186,-.5C186,-.5 318,-.5 318,-.5 324,-.5 330,-6.5 330,-12.5 330,-12.5 330,-126.5 330,-126.5 330,-132.5 324,-138.5 318,-138.5 318,-138.5 186,-138.5 186,-138.5 180,-138.5 174,-132.5 174,-126.5 174,-126.5 174,-12.5 174,-12.5 174,-6.5 180,-.5 186,-.5"/>
<text text-anchor="middle" x="194" y="-65.8" font-family="Times,serif" font-size="14.00" fill="#000000">tag</text>
<polyline fill="none" stroke="#000000" points="214,-.5 214,-138.5 "/>
<text text-anchor="middle" x="224.5" y="-65.8" font-family="Times,serif" font-size="14.00" fill="#000000"> </text>
<polyline fill="none" stroke="#000000" points="235,-.5 235,-138.5 "/>
<text text-anchor="middle" x="272" y="-123.3" font-family="Times,serif" font-size="14.00" fill="#000000">desc</text>
<polyline fill="none" stroke="#000000" points="235,-115.5 309,-115.5 "/>
<text text-anchor="middle" x="272" y="-100.3" font-family="Times,serif" font-size="14.00" fill="#000000">id</text>
<polyline fill="none" stroke="#000000" points="235,-92.5 309,-92.5 "/>
<text text-anchor="middle" x="272" y="-77.3" font-family="Times,serif" font-size="14.00" fill="#000000">key</text>
<polyline fill="none" stroke="#000000" points="235,-69.5 309,-69.5 "/>
<text text-anchor="middle" x="272" y="-54.3" font-family="Times,serif" font-size="14.00" fill="#000000">nanoid6</text>
<polyline fill="none" stroke="#000000" points="235,-46.5 309,-46.5 "/>
<text text-anchor="middle" x="272" y="-31.3" font-family="Times,serif" font-size="14.00" fill="#000000">nanoid8</text>
<polyline fill="none" stroke="#000000" points="235,-23.5 309,-23.5 "/>
<text text-anchor="middle" x="272" y="-8.3" font-family="Times,serif" font-size="14.00" fill="#000000">value</text>
<polyline fill="none" stroke="#000000" points="309,-.5 309,-138.5 "/>
<text text-anchor="middle" x="319.5" y="-65.8" font-family="Times,serif" font-size="14.00" fill="#000000"> </text>
</g>
<!-- property&#45;&gt;tag -->
<g id="edge9" class="edge">
<title>property&#45;&gt;tag</title>
<path fill="none" stroke="#000000" d="M164.2148,-806.3994C154.0078,-789.5554 144.2637,-772.1113 136,-755 97.3106,-674.8876 87.1813,-652.828 73,-565 46.3302,-399.8285 23.2662,-335.4235 106,-190 120.6103,-164.319 142.9642,-141.8146 165.8213,-123.4228"/>
<polygon fill="#000000" stroke="#000000" points="168.1959,-126.0089 173.9152,-117.0904 163.8825,-120.4957 168.1959,-126.0089"/>
<text text-anchor="middle" x="101" y="-480.3" font-family="Times,serif" font-size="14.00" fill="#000000">has_tag</text>
</g>
<!-- value_set -->
<g id="node8" class="node">
<title>value_set</title>
<path fill="none" stroke="#000000" d="M157,-616.5C157,-616.5 333,-616.5 333,-616.5 339,-616.5 345,-622.5 345,-628.5 345,-628.5 345,-742.5 345,-742.5 345,-748.5 339,-754.5 333,-754.5 333,-754.5 157,-754.5 157,-754.5 151,-754.5 145,-748.5 145,-742.5 145,-742.5 145,-628.5 145,-628.5 145,-622.5 151,-616.5 157,-616.5"/>
<text text-anchor="middle" x="187" y="-681.8" font-family="Times,serif" font-size="14.00" fill="#000000">value_set</text>
<polyline fill="none" stroke="#000000" points="229,-616.5 229,-754.5 "/>
<text text-anchor="middle" x="239.5" y="-681.8" font-family="Times,serif" font-size="14.00" fill="#000000"> </text>
<polyline fill="none" stroke="#000000" points="250,-616.5 250,-754.5 "/>
<text text-anchor="middle" x="287" y="-739.3" font-family="Times,serif" font-size="14.00" fill="#000000">desc</text>
<polyline fill="none" stroke="#000000" points="250,-731.5 324,-731.5 "/>
<text text-anchor="middle" x="287" y="-716.3" font-family="Times,serif" font-size="14.00" fill="#000000">handle</text>
<polyline fill="none" stroke="#000000" points="250,-708.5 324,-708.5 "/>
<text text-anchor="middle" x="287" y="-693.3" font-family="Times,serif" font-size="14.00" fill="#000000">id</text>
<polyline fill="none" stroke="#000000" points="250,-685.5 324,-685.5 "/>
<text text-anchor="middle" x="287" y="-670.3" font-family="Times,serif" font-size="14.00" fill="#000000">nanoid6</text>
<polyline fill="none" stroke="#000000" points="250,-662.5 324,-662.5 "/>
<text text-anchor="middle" x="287" y="-647.3" font-family="Times,serif" font-size="14.00" fill="#000000">nanoid8</text>
<polyline fill="none" stroke="#000000" points="250,-639.5 324,-639.5 "/>
<text text-anchor="middle" x="287" y="-624.3" font-family="Times,serif" font-size="14.00" fill="#000000">url</text>
<polyline fill="none" stroke="#000000" points="324,-616.5 324,-754.5 "/>
<text text-anchor="middle" x="334.5" y="-681.8" font-family="Times,serif" font-size="14.00" fill="#000000"> </text>
</g>
<!-- property&#45;&gt;value_set -->
<g id="edge1" class="edge">
<title>property&#45;&gt;value_set</title>
<path fill="none" stroke="#000000" d="M245,-806.2654C245,-792.1862 245,-778.0546 245,-764.6727"/>
<polygon fill="#000000" stroke="#000000" points="248.5001,-764.5989 245,-754.5989 241.5001,-764.599 248.5001,-764.5989"/>
<text text-anchor="middle" x="295" y="-776.8" font-family="Times,serif" font-size="14.00" fill="#000000">has_value_set</text>
</g>
<!-- concept&#45;&gt;tag -->
<g id="edge7" class="edge">
<title>concept&#45;&gt;tag</title>
<path fill="none" stroke="#000000" d="M521.7029,-224.7718C467.105,-193.339 394.908,-151.7742 338.9522,-119.5596"/>
<polygon fill="#000000" stroke="#000000" points="340.529,-116.4288 330.1163,-114.4727 337.0364,-122.4953 340.529,-116.4288"/>
<text text-anchor="middle" x="455" y="-160.8" font-family="Times,serif" font-size="14.00" fill="#000000">has_tag</text>
</g>
<!-- origin -->
<g id="node3" class="node">
<title>origin</title>
<path fill="none" stroke="#000000" d="M166,-190.5C166,-190.5 338,-190.5 338,-190.5 344,-190.5 350,-196.5 350,-202.5 350,-202.5 350,-339.5 350,-339.5 350,-345.5 344,-351.5 338,-351.5 338,-351.5 166,-351.5 166,-351.5 160,-351.5 154,-345.5 154,-339.5 154,-339.5 154,-202.5 154,-202.5 154,-196.5 160,-190.5 166,-190.5"/>
<text text-anchor="middle" x="183.5" y="-267.3" font-family="Times,serif" font-size="14.00" fill="#000000">origin</text>
<polyline fill="none" stroke="#000000" points="213,-190.5 213,-351.5 "/>
<text text-anchor="middle" x="223.5" y="-267.3" font-family="Times,serif" font-size="14.00" fill="#000000"> </text>
<polyline fill="none" stroke="#000000" points="234,-190.5 234,-351.5 "/>
<text text-anchor="middle" x="281.5" y="-336.3" font-family="Times,serif" font-size="14.00" fill="#000000">desc</text>
<polyline fill="none" stroke="#000000" points="234,-328.5 329,-328.5 "/>
<text text-anchor="middle" x="281.5" y="-313.3" font-family="Times,serif" font-size="14.00" fill="#000000">id</text>
<polyline fill="none" stroke="#000000" points="234,-305.5 329,-305.5 "/>
<text text-anchor="middle" x="281.5" y="-290.3" font-family="Times,serif" font-size="14.00" fill="#000000">is_external</text>
<polyline fill="none" stroke="#000000" points="234,-282.5 329,-282.5 "/>
<text text-anchor="middle" x="281.5" y="-267.3" font-family="Times,serif" font-size="14.00" fill="#000000">name</text>
<polyline fill="none" stroke="#000000" points="234,-259.5 329,-259.5 "/>
<text text-anchor="middle" x="281.5" y="-244.3" font-family="Times,serif" font-size="14.00" fill="#000000">nanoid6</text>
<polyline fill="none" stroke="#000000" points="234,-236.5 329,-236.5 "/>
<text text-anchor="middle" x="281.5" y="-221.3" font-family="Times,serif" font-size="14.00" fill="#000000">nanoid8</text>
<polyline fill="none" stroke="#000000" points="234,-213.5 329,-213.5 "/>
<text text-anchor="middle" x="281.5" y="-198.3" font-family="Times,serif" font-size="14.00" fill="#000000">url</text>
<polyline fill="none" stroke="#000000" points="329,-190.5 329,-351.5 "/>
<text text-anchor="middle" x="339.5" y="-267.3" font-family="Times,serif" font-size="14.00" fill="#000000"> </text>
</g>
<!-- origin&#45;&gt;tag -->
<g id="edge6" class="edge">
<title>origin&#45;&gt;tag</title>
<path fill="none" stroke="#000000" d="M252,-190.4932C252,-176.7786 252,-162.5421 252,-148.8576"/>
<polygon fill="#000000" stroke="#000000" points="255.5001,-148.5183 252,-138.5184 248.5001,-148.5184 255.5001,-148.5183"/>
<text text-anchor="middle" x="280" y="-160.8" font-family="Times,serif" font-size="14.00" fill="#000000">has_tag</text>
</g>
<!-- node -->
<g id="node4" class="node">
<title>node</title>
<path fill="none" stroke="#000000" d="M428.5,-1088.5C428.5,-1088.5 577.5,-1088.5 577.5,-1088.5 583.5,-1088.5 589.5,-1094.5 589.5,-1100.5 589.5,-1100.5 589.5,-1237.5 589.5,-1237.5 589.5,-1243.5 583.5,-1249.5 577.5,-1249.5 577.5,-1249.5 428.5,-1249.5 428.5,-1249.5 422.5,-1249.5 416.5,-1243.5 416.5,-1237.5 416.5,-1237.5 416.5,-1100.5 416.5,-1100.5 416.5,-1094.5 422.5,-1088.5 428.5,-1088.5"/>
<text text-anchor="middle" x="442" y="-1165.3" font-family="Times,serif" font-size="14.00" fill="#000000">node</text>
<polyline fill="none" stroke="#000000" points="467.5,-1088.5 467.5,-1249.5 "/>
<text text-anchor="middle" x="478" y="-1165.3" font-family="Times,serif" font-size="14.00" fill="#000000"> </text>
<polyline fill="none" stroke="#000000" points="488.5,-1088.5 488.5,-1249.5 "/>
<text text-anchor="middle" x="528.5" y="-1234.3" font-family="Times,serif" font-size="14.00" fill="#000000">category</text>
<polyline fill="none" stroke="#000000" points="488.5,-1226.5 568.5,-1226.5 "/>
<text text-anchor="middle" x="528.5" y="-1211.3" font-family="Times,serif" font-size="14.00" fill="#000000">desc</text>
<polyline fill="none" stroke="#000000" points="488.5,-1203.5 568.5,-1203.5 "/>
<text text-anchor="middle" x="528.5" y="-1188.3" font-family="Times,serif" font-size="14.00" fill="#000000">handle</text>
<polyline fill="none" stroke="#000000" points="488.5,-1180.5 568.5,-1180.5 "/>
<text text-anchor="middle" x="528.5" y="-1165.3" font-family="Times,serif" font-size="14.00" fill="#000000">id</text>
<polyline fill="none" stroke="#000000" points="488.5,-1157.5 568.5,-1157.5 "/>
<text text-anchor="middle" x="528.5" y="-1142.3" font-family="Times,serif" font-size="14.00" fill="#000000">model</text>
<polyline fill="none" stroke="#000000" points="488.5,-1134.5 568.5,-1134.5 "/>
<text text-anchor="middle" x="528.5" y="-1119.3" font-family="Times,serif" font-size="14.00" fill="#000000">nanoid6</text>
<polyline fill="none" stroke="#000000" points="488.5,-1111.5 568.5,-1111.5 "/>
<text text-anchor="middle" x="528.5" y="-1096.3" font-family="Times,serif" font-size="14.00" fill="#000000">nanoid8</text>
<polyline fill="none" stroke="#000000" points="568.5,-1088.5 568.5,-1249.5 "/>
<text text-anchor="middle" x="579" y="-1165.3" font-family="Times,serif" font-size="14.00" fill="#000000"> </text>
</g>
<!-- node&#45;&gt;property -->
<g id="edge18" class="edge">
<title>node&#45;&gt;property</title>
<path fill="none" stroke="#000000" d="M418.8781,-1088.3017C403.4483,-1073.4998 387.0398,-1057.7591 370.7019,-1042.0862"/>
<polygon fill="#000000" stroke="#000000" points="372.8434,-1039.2904 363.2041,-1034.8934 367.9975,-1044.3419 372.8434,-1039.2904"/>
<text text-anchor="middle" x="445.5" y="-1058.8" font-family="Times,serif" font-size="14.00" fill="#000000">has_property</text>
</g>
<!-- node&#45;&gt;concept -->
<g id="edge13" class="edge">
<title>node&#45;&gt;concept</title>
<path fill="none" stroke="#000000" d="M504.5212,-1088.3771C510.5906,-972.6747 536.768,-757.882 644,-616 653.6061,-603.2898 667.0511,-611.8073 675,-598 678.3262,-592.2224 675.2032,-589.6636 675,-583 672.1098,-488.2012 690.2916,-460.5248 662,-370 657.2788,-354.8936 649.7846,-339.713 641.6701,-325.9333"/>
<polygon fill="#000000" stroke="#000000" points="644.471,-323.8044 636.2711,-317.0953 638.4974,-327.4536 644.471,-323.8044"/>
<text text-anchor="middle" x="689" y="-681.8" font-family="Times,serif" font-size="14.00" fill="#000000">has_concept</text>
</g>
<!-- node&#45;&gt;tag -->
<g id="edge5" class="edge">
<title>node&#45;&gt;tag</title>
<path fill="none" stroke="#000000" d="M416.4411,-1090.7576C414.6373,-1089.7949 412.8229,-1088.8741 411,-1088 233.2876,-1002.7861 0,-1118.5866 0,-921.5 0,-921.5 0,-921.5 0,-271 0,-184.5546 91.574,-129.1079 164.3172,-98.7001"/>
<polygon fill="#000000" stroke="#000000" points="166.0532,-101.7721 173.9914,-94.7553 163.4101,-95.2903 166.0532,-101.7721"/>
<text text-anchor="middle" x="28" y="-586.8" font-family="Times,serif" font-size="14.00" fill="#000000">has_tag</text>
</g>
<!-- term -->
<g id="node5" class="node">
<title>term</title>
<path fill="none" stroke="#000000" d="M281.5,-403.5C281.5,-403.5 484.5,-403.5 484.5,-403.5 490.5,-403.5 496.5,-409.5 496.5,-415.5 496.5,-415.5 496.5,-552.5 496.5,-552.5 496.5,-558.5 490.5,-564.5 484.5,-564.5 484.5,-564.5 281.5,-564.5 281.5,-564.5 275.5,-564.5 269.5,-558.5 269.5,-552.5 269.5,-552.5 269.5,-415.5 269.5,-415.5 269.5,-409.5 275.5,-403.5 281.5,-403.5"/>
<text text-anchor="middle" x="295" y="-480.3" font-family="Times,serif" font-size="14.00" fill="#000000">term</text>
<polyline fill="none" stroke="#000000" points="320.5,-403.5 320.5,-564.5 "/>
<text text-anchor="middle" x="331" y="-480.3" font-family="Times,serif" font-size="14.00" fill="#000000"> </text>
<polyline fill="none" stroke="#000000" points="341.5,-403.5 341.5,-564.5 "/>
<text text-anchor="middle" x="408.5" y="-549.3" font-family="Times,serif" font-size="14.00" fill="#000000">desc</text>
<polyline fill="none" stroke="#000000" points="341.5,-541.5 475.5,-541.5 "/>
<text text-anchor="middle" x="408.5" y="-526.3" font-family="Times,serif" font-size="14.00" fill="#000000">id</text>
<polyline fill="none" stroke="#000000" points="341.5,-518.5 475.5,-518.5 "/>
<text text-anchor="middle" x="408.5" y="-503.3" font-family="Times,serif" font-size="14.00" fill="#000000">nanoid6</text>
<polyline fill="none" stroke="#000000" points="341.5,-495.5 475.5,-495.5 "/>
<text text-anchor="middle" x="408.5" y="-480.3" font-family="Times,serif" font-size="14.00" fill="#000000">nanoid8</text>
<polyline fill="none" stroke="#000000" points="341.5,-472.5 475.5,-472.5 "/>
<text text-anchor="middle" x="408.5" y="-457.3" font-family="Times,serif" font-size="14.00" fill="#000000">origin_definition</text>
<polyline fill="none" stroke="#000000" points="341.5,-449.5 475.5,-449.5 "/>
<text text-anchor="middle" x="408.5" y="-434.3" font-family="Times,serif" font-size="14.00" fill="#000000">origin_id</text>
<polyline fill="none" stroke="#000000" points="341.5,-426.5 475.5,-426.5 "/>
<text text-anchor="middle" x="408.5" y="-411.3" font-family="Times,serif" font-size="14.00" fill="#000000">value</text>
<polyline fill="none" stroke="#000000" points="475.5,-403.5 475.5,-564.5 "/>
<text text-anchor="middle" x="486" y="-480.3" font-family="Times,serif" font-size="14.00" fill="#000000"> </text>
</g>
<!-- term&#45;&gt;concept -->
<g id="edge20" class="edge">
<title>term&#45;&gt;concept</title>
<path fill="none" stroke="#000000" d="M416.8762,-403.3688C423.8482,-391.4496 431.8911,-379.875 441,-370 457.6207,-351.9814 478.2517,-336.0484 499.137,-322.5181"/>
<polygon fill="#000000" stroke="#000000" points="501.1882,-325.3624 507.7743,-317.0633 497.4503,-319.4438 501.1882,-325.3624"/>
<text text-anchor="middle" x="480" y="-373.8" font-family="Times,serif" font-size="14.00" fill="#000000">represents</text>
</g>
<!-- term&#45;&gt;origin -->
<g id="edge11" class="edge">
<title>term&#45;&gt;origin</title>
<path fill="none" stroke="#000000" d="M309.172,-403.2715C304.8294,-397.251 300.7216,-391.1304 297,-385 292.378,-377.3864 288.0644,-369.2146 284.0818,-360.8709"/>
<polygon fill="#000000" stroke="#000000" points="287.2523,-359.3879 279.8914,-351.7677 280.8936,-362.3151 287.2523,-359.3879"/>
<text text-anchor="middle" x="334.5" y="-373.8" font-family="Times,serif" font-size="14.00" fill="#000000">has_origin</text>
</g>
<!-- term&#45;&gt;tag -->
<g id="edge8" class="edge">
<title>term&#45;&gt;tag</title>
<path fill="none" stroke="#000000" d="M389.8761,-403.3589C391.9466,-342.3606 387.9746,-257.8139 359,-190 352.5368,-174.8731 343.3981,-160.3383 333.1539,-146.9215"/>
<polygon fill="#000000" stroke="#000000" points="335.6029,-144.3769 326.6466,-138.7169 330.1184,-148.7267 335.6029,-144.3769"/>
<text text-anchor="middle" x="418" y="-267.3" font-family="Times,serif" font-size="14.00" fill="#000000">has_tag</text>
</g>
<!-- relationship -->
<g id="node7" class="node">
<title>relationship</title>
<path fill="none" stroke="#000000" d="M471.5,-1301.5C471.5,-1301.5 690.5,-1301.5 690.5,-1301.5 696.5,-1301.5 702.5,-1307.5 702.5,-1313.5 702.5,-1313.5 702.5,-1473.5 702.5,-1473.5 702.5,-1479.5 696.5,-1485.5 690.5,-1485.5 690.5,-1485.5 471.5,-1485.5 471.5,-1485.5 465.5,-1485.5 459.5,-1479.5 459.5,-1473.5 459.5,-1473.5 459.5,-1313.5 459.5,-1313.5 459.5,-1307.5 465.5,-1301.5 471.5,-1301.5"/>
<text text-anchor="middle" x="510.5" y="-1389.8" font-family="Times,serif" font-size="14.00" fill="#000000">relationship</text>
<polyline fill="none" stroke="#000000" points="561.5,-1301.5 561.5,-1485.5 "/>
<text text-anchor="middle" x="572" y="-1389.8" font-family="Times,serif" font-size="14.00" fill="#000000"> </text>
<polyline fill="none" stroke="#000000" points="582.5,-1301.5 582.5,-1485.5 "/>
<text text-anchor="middle" x="632" y="-1470.3" font-family="Times,serif" font-size="14.00" fill="#000000">desc</text>
<polyline fill="none" stroke="#000000" points="582.5,-1462.5 681.5,-1462.5 "/>
<text text-anchor="middle" x="632" y="-1447.3" font-family="Times,serif" font-size="14.00" fill="#000000">handle</text>
<polyline fill="none" stroke="#000000" points="582.5,-1439.5 681.5,-1439.5 "/>
<text text-anchor="middle" x="632" y="-1424.3" font-family="Times,serif" font-size="14.00" fill="#000000">id</text>
<polyline fill="none" stroke="#000000" points="582.5,-1416.5 681.5,-1416.5 "/>
<text text-anchor="middle" x="632" y="-1401.3" font-family="Times,serif" font-size="14.00" fill="#000000">is_required</text>
<polyline fill="none" stroke="#000000" points="582.5,-1393.5 681.5,-1393.5 "/>
<text text-anchor="middle" x="632" y="-1378.3" font-family="Times,serif" font-size="14.00" fill="#000000">model</text>
<polyline fill="none" stroke="#000000" points="582.5,-1370.5 681.5,-1370.5 "/>
<text text-anchor="middle" x="632" y="-1355.3" font-family="Times,serif" font-size="14.00" fill="#000000">multiplicity</text>
<polyline fill="none" stroke="#000000" points="582.5,-1347.5 681.5,-1347.5 "/>
<text text-anchor="middle" x="632" y="-1332.3" font-family="Times,serif" font-size="14.00" fill="#000000">nanoid6</text>
<polyline fill="none" stroke="#000000" points="582.5,-1324.5 681.5,-1324.5 "/>
<text text-anchor="middle" x="632" y="-1309.3" font-family="Times,serif" font-size="14.00" fill="#000000">nanoid8</text>
<polyline fill="none" stroke="#000000" points="681.5,-1301.5 681.5,-1485.5 "/>
<text text-anchor="middle" x="692" y="-1389.8" font-family="Times,serif" font-size="14.00" fill="#000000"> </text>
</g>
<!-- relationship&#45;&gt;property -->
<g id="edge17" class="edge">
<title>relationship&#45;&gt;property</title>
<path fill="none" stroke="#000000" d="M459.2062,-1355.2586C406.3793,-1332.7018 348.399,-1298.7888 312,-1250 268.7142,-1191.9802 251.6728,-1112.8052 245.5923,-1046.7225"/>
<polygon fill="#000000" stroke="#000000" points="249.0711,-1046.3229 244.7405,-1036.6536 242.096,-1046.9131 249.0711,-1046.3229"/>
<text text-anchor="middle" x="359.5" y="-1165.3" font-family="Times,serif" font-size="14.00" fill="#000000">has_property</text>
</g>
<!-- relationship&#45;&gt;concept -->
<g id="edge14" class="edge">
<title>relationship&#45;&gt;concept</title>
<path fill="none" stroke="#000000" d="M689.5915,-1301.3104C721.4883,-1264.2527 748,-1218.5483 748,-1169 748,-1169 748,-1169 748,-484 748,-421.5359 704.7535,-363.9716 665.3344,-324.4761"/>
<polygon fill="#000000" stroke="#000000" points="667.6208,-321.8162 658.0299,-317.3146 662.7202,-326.8146 667.6208,-321.8162"/>
<text text-anchor="middle" x="793" y="-776.8" font-family="Times,serif" font-size="14.00" fill="#000000">has_concept</text>
</g>
<!-- relationship&#45;&gt;node -->
<g id="edge2" class="edge">
<title>relationship&#45;&gt;node</title>
<path fill="none" stroke="#000000" d="M568.5941,-1301.388C565.9694,-1289.9892 562.8064,-1278.6199 559,-1268 557.9007,-1264.9329 556.7104,-1261.8498 555.4455,-1258.7657"/>
<polygon fill="#000000" stroke="#000000" points="558.6293,-1257.31 551.4432,-1249.5248 552.2059,-1260.0921 558.6293,-1257.31"/>
<text text-anchor="middle" x="590.5" y="-1271.8" font-family="Times,serif" font-size="14.00" fill="#000000">has_src</text>
</g>
<!-- relationship&#45;&gt;node -->
<g id="edge19" class="edge">
<title>relationship&#45;&gt;node</title>
<path fill="none" stroke="#000000" d="M507.4659,-1301.41C504.5666,-1295.373 502.0345,-1289.2167 500,-1283 497.5753,-1275.591 495.9675,-1267.7642 494.9826,-1259.8235"/>
<polygon fill="#000000" stroke="#000000" points="498.4552,-1259.3643 494.0536,-1249.7271 491.4846,-1260.0057 498.4552,-1259.3643"/>
<text text-anchor="middle" x="527.5" y="-1271.8" font-family="Times,serif" font-size="14.00" fill="#000000">has_dst</text>
</g>
<!-- relationship&#45;&gt;tag -->
<g id="edge4" class="edge">
<title>relationship&#45;&gt;tag</title>
<path fill="none" stroke="#000000" d="M702.6799,-1347.4465C775.1013,-1311.2813 853,-1252.8843 853,-1169 853,-1169 853,-1169 853,-271 853,-164.1656 507.2932,-103.4778 340.2699,-80.3917"/>
<polygon fill="#000000" stroke="#000000" points="340.6438,-76.9103 330.262,-79.0238 339.6959,-83.8459 340.6438,-76.9103"/>
<text text-anchor="middle" x="881" y="-681.8" font-family="Times,serif" font-size="14.00" fill="#000000">has_tag</text>
</g>
<!-- value_set&#45;&gt;concept -->
<g id="edge15" class="edge">
<title>value_set&#45;&gt;concept</title>
<path fill="none" stroke="#000000" d="M345.0484,-661.7154C399.7151,-643.7903 464.367,-613.71 505,-565 552.6458,-507.8833 523.3038,-473.5048 547,-403 555.5851,-377.4563 566.7778,-349.843 576.8234,-326.5074"/>
<polygon fill="#000000" stroke="#000000" points="580.1262,-327.6887 580.9005,-317.1222 573.7058,-324.8996 580.1262,-327.6887"/>
<text text-anchor="middle" x="592" y="-480.3" font-family="Times,serif" font-size="14.00" fill="#000000">has_concept</text>
</g>
<!-- value_set&#45;&gt;origin -->
<g id="edge12" class="edge">
<title>value_set&#45;&gt;origin</title>
<path fill="none" stroke="#000000" d="M203.7555,-616.1979C196.0064,-599.9336 189.0663,-582.2895 185,-565 168.516,-494.9124 168.2462,-473.0236 185,-403 188.3526,-388.9876 193.45,-374.7819 199.3673,-361.1397"/>
<polygon fill="#000000" stroke="#000000" points="202.6613,-362.349 203.5834,-351.7944 196.2806,-359.4703 202.6613,-362.349"/>
<text text-anchor="middle" x="222.5" y="-480.3" font-family="Times,serif" font-size="14.00" fill="#000000">has_origin</text>
</g>
<!-- value_set&#45;&gt;term -->
<g id="edge10" class="edge">
<title>value_set&#45;&gt;term</title>
<path fill="none" stroke="#000000" d="M292.2987,-616.437C301.8213,-602.5327 311.9578,-587.7319 321.8745,-573.2521"/>
<polygon fill="#000000" stroke="#000000" points="324.9187,-575.0012 327.6816,-564.7729 319.1433,-571.0458 324.9187,-575.0012"/>
<text text-anchor="middle" x="347.5" y="-586.8" font-family="Times,serif" font-size="14.00" fill="#000000">has_term</text>
</g>
<!-- value_set&#45;&gt;tag -->
<g id="edge3" class="edge">
<title>value_set&#45;&gt;tag</title>
<path fill="none" stroke="#000000" d="M198.2311,-616.1158C194.3661,-610.0304 190.5747,-603.9317 187,-598 136.477,-514.1629 141.1643,-482.3546 131,-385 124.0014,-317.9673 79.9474,-343.0634 145,-190 151.4343,-174.8607 160.5573,-160.3192 170.7945,-146.8995"/>
<polygon fill="#000000" stroke="#000000" points="173.83,-148.7045 177.2986,-138.6935 168.3441,-144.3564 173.83,-148.7045"/>
<text text-anchor="middle" x="159" y="-373.8" font-family="Times,serif" font-size="14.00" fill="#000000">has_tag</text>
</g>
</g>
</svg>
