<?xml version="1.0" encoding="UTF-8" standalone="no"?>
<!DOCTYPE svg PUBLIC "-//W3C//DTD SVG 1.1//EN"
 "http://www.w3.org/Graphics/SVG/1.1/DTD/svg11.dtd">
<!-- Generated by graphviz version 2.40.1 (20161225.0304)
 -->
<!-- Title: Perl Pages: 1 -->
<svg width="963pt" height="1494pt"
 viewBox="0.00 0.00 963.00 1494.00" xmlns="http://www.w3.org/2000/svg" xmlns:xlink="http://www.w3.org/1999/xlink">
<g id="graph0" class="graph" transform="scale(1 1) rotate(0) translate(4 1490)">
<title>Perl</title>
<polygon fill="#ffffff" stroke="transparent" points="-4,4 -4,-1490 959,-1490 959,4 -4,4"/>
<!-- origin -->
<g id="node1" class="node">
<title>origin</title>
<path fill="none" stroke="#000000" d="M87,-190.5C87,-190.5 259,-190.5 259,-190.5 265,-190.5 271,-196.5 271,-202.5 271,-202.5 271,-339.5 271,-339.5 271,-345.5 265,-351.5 259,-351.5 259,-351.5 87,-351.5 87,-351.5 81,-351.5 75,-345.5 75,-339.5 75,-339.5 75,-202.5 75,-202.5 75,-196.5 81,-190.5 87,-190.5"/>
<text text-anchor="middle" x="104.5" y="-267.3" font-family="Times,serif" font-size="14.00" fill="#000000">origin</text>
<polyline fill="none" stroke="#000000" points="134,-190.5 134,-351.5 "/>
<text text-anchor="middle" x="144.5" y="-267.3" font-family="Times,serif" font-size="14.00" fill="#000000"> </text>
<polyline fill="none" stroke="#000000" points="155,-190.5 155,-351.5 "/>
<text text-anchor="middle" x="202.5" y="-336.3" font-family="Times,serif" font-size="14.00" fill="#000000">desc</text>
<polyline fill="none" stroke="#000000" points="155,-328.5 250,-328.5 "/>
<text text-anchor="middle" x="202.5" y="-313.3" font-family="Times,serif" font-size="14.00" fill="#000000">id</text>
<polyline fill="none" stroke="#000000" points="155,-305.5 250,-305.5 "/>
<text text-anchor="middle" x="202.5" y="-290.3" font-family="Times,serif" font-size="14.00" fill="#000000">is_external</text>
<polyline fill="none" stroke="#000000" points="155,-282.5 250,-282.5 "/>
<text text-anchor="middle" x="202.5" y="-267.3" font-family="Times,serif" font-size="14.00" fill="#000000">name</text>
<polyline fill="none" stroke="#000000" points="155,-259.5 250,-259.5 "/>
<text text-anchor="middle" x="202.5" y="-244.3" font-family="Times,serif" font-size="14.00" fill="#000000">nanoid6</text>
<polyline fill="none" stroke="#000000" points="155,-236.5 250,-236.5 "/>
<text text-anchor="middle" x="202.5" y="-221.3" font-family="Times,serif" font-size="14.00" fill="#000000">nanoid8</text>
<polyline fill="none" stroke="#000000" points="155,-213.5 250,-213.5 "/>
<text text-anchor="middle" x="202.5" y="-198.3" font-family="Times,serif" font-size="14.00" fill="#000000">url</text>
<polyline fill="none" stroke="#000000" points="250,-190.5 250,-351.5 "/>
<text text-anchor="middle" x="260.5" y="-267.3" font-family="Times,serif" font-size="14.00" fill="#000000"> </text>
</g>
<!-- tag -->
<g id="node6" class="node">
<title>tag</title>
<path fill="none" stroke="#000000" d="M375,-.5C375,-.5 507,-.5 507,-.5 513,-.5 519,-6.5 519,-12.5 519,-12.5 519,-126.5 519,-126.5 519,-132.5 513,-138.5 507,-138.5 507,-138.5 375,-138.5 375,-138.5 369,-138.5 363,-132.5 363,-126.5 363,-126.5 363,-12.5 363,-12.5 363,-6.5 369,-.5 375,-.5"/>
<text text-anchor="middle" x="383" y="-65.8" font-family="Times,serif" font-size="14.00" fill="#000000">tag</text>
<polyline fill="none" stroke="#000000" points="403,-.5 403,-138.5 "/>
<text text-anchor="middle" x="413.5" y="-65.8" font-family="Times,serif" font-size="14.00" fill="#000000"> </text>
<polyline fill="none" stroke="#000000" points="424,-.5 424,-138.5 "/>
<text text-anchor="middle" x="461" y="-123.3" font-family="Times,serif" font-size="14.00" fill="#000000">desc</text>
<polyline fill="none" stroke="#000000" points="424,-115.5 498,-115.5 "/>
<text text-anchor="middle" x="461" y="-100.3" font-family="Times,serif" font-size="14.00" fill="#000000">id</text>
<polyline fill="none" stroke="#000000" points="424,-92.5 498,-92.5 "/>
<text text-anchor="middle" x="461" y="-77.3" font-family="Times,serif" font-size="14.00" fill="#000000">key</text>
<polyline fill="none" stroke="#000000" points="424,-69.5 498,-69.5 "/>
<text text-anchor="middle" x="461" y="-54.3" font-family="Times,serif" font-size="14.00" fill="#000000">nanoid6</text>
<polyline fill="none" stroke="#000000" points="424,-46.5 498,-46.5 "/>
<text text-anchor="middle" x="461" y="-31.3" font-family="Times,serif" font-size="14.00" fill="#000000">nanoid8</text>
<polyline fill="none" stroke="#000000" points="424,-23.5 498,-23.5 "/>
<text text-anchor="middle" x="461" y="-8.3" font-family="Times,serif" font-size="14.00" fill="#000000">value</text>
<polyline fill="none" stroke="#000000" points="498,-.5 498,-138.5 "/>
<text text-anchor="middle" x="508.5" y="-65.8" font-family="Times,serif" font-size="14.00" fill="#000000"> </text>
</g>
<!-- origin&#45;&gt;tag -->
<g id="edge7" class="edge">
<title>origin&#45;&gt;tag</title>
<path fill="none" stroke="#000000" d="M209.3363,-190.3213C217.2368,-178.1313 226.4501,-166.4835 237,-157 269.7618,-127.55 313.9411,-106.954 352.8089,-93.1769"/>
<polygon fill="#000000" stroke="#000000" points="354.2486,-96.383 362.5659,-89.8199 351.9712,-89.7638 354.2486,-96.383"/>
<text text-anchor="middle" x="265" y="-160.8" font-family="Times,serif" font-size="14.00" fill="#000000">has_tag</text>
</g>
<!-- node -->
<g id="node2" class="node">
<title>node</title>
<path fill="none" stroke="#000000" d="M602.5,-1088.5C602.5,-1088.5 751.5,-1088.5 751.5,-1088.5 757.5,-1088.5 763.5,-1094.5 763.5,-1100.5 763.5,-1100.5 763.5,-1237.5 763.5,-1237.5 763.5,-1243.5 757.5,-1249.5 751.5,-1249.5 751.5,-1249.5 602.5,-1249.5 602.5,-1249.5 596.5,-1249.5 590.5,-1243.5 590.5,-1237.5 590.5,-1237.5 590.5,-1100.5 590.5,-1100.5 590.5,-1094.5 596.5,-1088.5 602.5,-1088.5"/>
<text text-anchor="middle" x="616" y="-1165.3" font-family="Times,serif" font-size="14.00" fill="#000000">node</text>
<polyline fill="none" stroke="#000000" points="641.5,-1088.5 641.5,-1249.5 "/>
<text text-anchor="middle" x="652" y="-1165.3" font-family="Times,serif" font-size="14.00" fill="#000000"> </text>
<polyline fill="none" stroke="#000000" points="662.5,-1088.5 662.5,-1249.5 "/>
<text text-anchor="middle" x="702.5" y="-1234.3" font-family="Times,serif" font-size="14.00" fill="#000000">category</text>
<polyline fill="none" stroke="#000000" points="662.5,-1226.5 742.5,-1226.5 "/>
<text text-anchor="middle" x="702.5" y="-1211.3" font-family="Times,serif" font-size="14.00" fill="#000000">desc</text>
<polyline fill="none" stroke="#000000" points="662.5,-1203.5 742.5,-1203.5 "/>
<text text-anchor="middle" x="702.5" y="-1188.3" font-family="Times,serif" font-size="14.00" fill="#000000">handle</text>
<polyline fill="none" stroke="#000000" points="662.5,-1180.5 742.5,-1180.5 "/>
<text text-anchor="middle" x="702.5" y="-1165.3" font-family="Times,serif" font-size="14.00" fill="#000000">id</text>
<polyline fill="none" stroke="#000000" points="662.5,-1157.5 742.5,-1157.5 "/>
<text text-anchor="middle" x="702.5" y="-1142.3" font-family="Times,serif" font-size="14.00" fill="#000000">model</text>
<polyline fill="none" stroke="#000000" points="662.5,-1134.5 742.5,-1134.5 "/>
<text text-anchor="middle" x="702.5" y="-1119.3" font-family="Times,serif" font-size="14.00" fill="#000000">nanoid6</text>
<polyline fill="none" stroke="#000000" points="662.5,-1111.5 742.5,-1111.5 "/>
<text text-anchor="middle" x="702.5" y="-1096.3" font-family="Times,serif" font-size="14.00" fill="#000000">nanoid8</text>
<polyline fill="none" stroke="#000000" points="742.5,-1088.5 742.5,-1249.5 "/>
<text text-anchor="middle" x="753" y="-1165.3" font-family="Times,serif" font-size="14.00" fill="#000000"> </text>
</g>
<!-- property -->
<g id="node5" class="node">
<title>property</title>
<path fill="none" stroke="#000000" d="M371,-806.5C371,-806.5 583,-806.5 583,-806.5 589,-806.5 595,-812.5 595,-818.5 595,-818.5 595,-1024.5 595,-1024.5 595,-1030.5 589,-1036.5 583,-1036.5 583,-1036.5 371,-1036.5 371,-1036.5 365,-1036.5 359,-1030.5 359,-1024.5 359,-1024.5 359,-818.5 359,-818.5 359,-812.5 365,-806.5 371,-806.5"/>
<text text-anchor="middle" x="398.5" y="-917.8" font-family="Times,serif" font-size="14.00" fill="#000000">property</text>
<polyline fill="none" stroke="#000000" points="438,-806.5 438,-1036.5 "/>
<text text-anchor="middle" x="448.5" y="-917.8" font-family="Times,serif" font-size="14.00" fill="#000000"> </text>
<polyline fill="none" stroke="#000000" points="459,-806.5 459,-1036.5 "/>
<text text-anchor="middle" x="516.5" y="-1021.3" font-family="Times,serif" font-size="14.00" fill="#000000">desc</text>
<polyline fill="none" stroke="#000000" points="459,-1013.5 574,-1013.5 "/>
<text text-anchor="middle" x="516.5" y="-998.3" font-family="Times,serif" font-size="14.00" fill="#000000">handle</text>
<polyline fill="none" stroke="#000000" points="459,-990.5 574,-990.5 "/>
<text text-anchor="middle" x="516.5" y="-975.3" font-family="Times,serif" font-size="14.00" fill="#000000">id</text>
<polyline fill="none" stroke="#000000" points="459,-967.5 574,-967.5 "/>
<text text-anchor="middle" x="516.5" y="-952.3" font-family="Times,serif" font-size="14.00" fill="#000000">is_required</text>
<polyline fill="none" stroke="#000000" points="459,-944.5 574,-944.5 "/>
<text text-anchor="middle" x="516.5" y="-929.3" font-family="Times,serif" font-size="14.00" fill="#000000">model</text>
<polyline fill="none" stroke="#000000" points="459,-921.5 574,-921.5 "/>
<text text-anchor="middle" x="516.5" y="-906.3" font-family="Times,serif" font-size="14.00" fill="#000000">nanoid6</text>
<polyline fill="none" stroke="#000000" points="459,-898.5 574,-898.5 "/>
<text text-anchor="middle" x="516.5" y="-883.3" font-family="Times,serif" font-size="14.00" fill="#000000">nanoid8</text>
<polyline fill="none" stroke="#000000" points="459,-875.5 574,-875.5 "/>
<text text-anchor="middle" x="516.5" y="-860.3" font-family="Times,serif" font-size="14.00" fill="#000000">pattern</text>
<polyline fill="none" stroke="#000000" points="459,-852.5 574,-852.5 "/>
<text text-anchor="middle" x="516.5" y="-837.3" font-family="Times,serif" font-size="14.00" fill="#000000">units</text>
<polyline fill="none" stroke="#000000" points="459,-829.5 574,-829.5 "/>
<text text-anchor="middle" x="516.5" y="-814.3" font-family="Times,serif" font-size="14.00" fill="#000000">value_domain</text>
<polyline fill="none" stroke="#000000" points="574,-806.5 574,-1036.5 "/>
<text text-anchor="middle" x="584.5" y="-917.8" font-family="Times,serif" font-size="14.00" fill="#000000"> </text>
</g>
<!-- node&#45;&gt;property -->
<g id="edge13" class="edge">
<title>node&#45;&gt;property</title>
<path fill="none" stroke="#000000" d="M590.4792,-1096.5145C585.684,-1093.4829 580.843,-1090.6214 576,-1088 553.3806,-1075.7568 538.9284,-1088.4419 521,-1070 514.0416,-1062.8423 508.176,-1054.6376 503.2327,-1045.84"/>
<polygon fill="#000000" stroke="#000000" points="506.2924,-1044.137 498.5905,-1036.8617 500.0744,-1047.3521 506.2924,-1044.137"/>
<text text-anchor="middle" x="568.5" y="-1058.8" font-family="Times,serif" font-size="14.00" fill="#000000">has_property</text>
</g>
<!-- node&#45;&gt;tag -->
<g id="edge5" class="edge">
<title>node&#45;&gt;tag</title>
<path fill="none" stroke="#000000" d="M691.4239,-1088.4224C705.5289,-1005.239 726.0152,-871.5372 734,-755 738.223,-693.3667 749.4964,-675.8026 734,-616 731.7044,-607.1409 726.7679,-606.7231 724,-598 668.8375,-424.1573 783.8261,-339.9478 680,-190 644.762,-139.1086 581.484,-108.5529 528.8882,-90.949"/>
<polygon fill="#000000" stroke="#000000" points="529.7928,-87.5631 519.2009,-87.8107 527.6354,-94.2223 529.7928,-87.5631"/>
<text text-anchor="middle" x="752" y="-586.8" font-family="Times,serif" font-size="14.00" fill="#000000">has_tag</text>
</g>
<!-- concept -->
<g id="node8" class="node">
<title>concept</title>
<path fill="none" stroke="#000000" d="M493,-225C493,-225 659,-225 659,-225 665,-225 671,-231 671,-237 671,-237 671,-305 671,-305 671,-311 665,-317 659,-317 659,-317 493,-317 493,-317 487,-317 481,-311 481,-305 481,-305 481,-237 481,-237 481,-231 487,-225 493,-225"/>
<text text-anchor="middle" x="518" y="-267.3" font-family="Times,serif" font-size="14.00" fill="#000000">concept</text>
<polyline fill="none" stroke="#000000" points="555,-225 555,-317 "/>
<text text-anchor="middle" x="565.5" y="-267.3" font-family="Times,serif" font-size="14.00" fill="#000000"> </text>
<polyline fill="none" stroke="#000000" points="576,-225 576,-317 "/>
<text text-anchor="middle" x="613" y="-301.8" font-family="Times,serif" font-size="14.00" fill="#000000">desc</text>
<polyline fill="none" stroke="#000000" points="576,-294 650,-294 "/>
<text text-anchor="middle" x="613" y="-278.8" font-family="Times,serif" font-size="14.00" fill="#000000">id</text>
<polyline fill="none" stroke="#000000" points="576,-271 650,-271 "/>
<text text-anchor="middle" x="613" y="-255.8" font-family="Times,serif" font-size="14.00" fill="#000000">nanoid6</text>
<polyline fill="none" stroke="#000000" points="576,-248 650,-248 "/>
<text text-anchor="middle" x="613" y="-232.8" font-family="Times,serif" font-size="14.00" fill="#000000">nanoid8</text>
<polyline fill="none" stroke="#000000" points="650,-225 650,-317 "/>
<text text-anchor="middle" x="660.5" y="-267.3" font-family="Times,serif" font-size="14.00" fill="#000000"> </text>
</g>
<!-- node&#45;&gt;concept -->
<g id="edge15" class="edge">
<title>node&#45;&gt;concept</title>
<path fill="none" stroke="#000000" d="M670.5818,-1088.3854C655.1612,-895.048 617.0709,-419.7123 614,-403 609.3428,-377.6543 601.8464,-350.186 594.7375,-326.9034"/>
<polygon fill="#000000" stroke="#000000" points="598.0324,-325.7118 591.724,-317.1997 591.3474,-327.7879 598.0324,-325.7118"/>
<text text-anchor="middle" x="688" y="-681.8" font-family="Times,serif" font-size="14.00" fill="#000000">has_concept</text>
</g>
<!-- term -->
<g id="node3" class="node">
<title>term</title>
<path fill="none" stroke="#000000" d="M197.5,-403.5C197.5,-403.5 400.5,-403.5 400.5,-403.5 406.5,-403.5 412.5,-409.5 412.5,-415.5 412.5,-415.5 412.5,-552.5 412.5,-552.5 412.5,-558.5 406.5,-564.5 400.5,-564.5 400.5,-564.5 197.5,-564.5 197.5,-564.5 191.5,-564.5 185.5,-558.5 185.5,-552.5 185.5,-552.5 185.5,-415.5 185.5,-415.5 185.5,-409.5 191.5,-403.5 197.5,-403.5"/>
<text text-anchor="middle" x="211" y="-480.3" font-family="Times,serif" font-size="14.00" fill="#000000">term</text>
<polyline fill="none" stroke="#000000" points="236.5,-403.5 236.5,-564.5 "/>
<text text-anchor="middle" x="247" y="-480.3" font-family="Times,serif" font-size="14.00" fill="#000000"> </text>
<polyline fill="none" stroke="#000000" points="257.5,-403.5 257.5,-564.5 "/>
<text text-anchor="middle" x="324.5" y="-549.3" font-family="Times,serif" font-size="14.00" fill="#000000">desc</text>
<polyline fill="none" stroke="#000000" points="257.5,-541.5 391.5,-541.5 "/>
<text text-anchor="middle" x="324.5" y="-526.3" font-family="Times,serif" font-size="14.00" fill="#000000">id</text>
<polyline fill="none" stroke="#000000" points="257.5,-518.5 391.5,-518.5 "/>
<text text-anchor="middle" x="324.5" y="-503.3" font-family="Times,serif" font-size="14.00" fill="#000000">nanoid6</text>
<polyline fill="none" stroke="#000000" points="257.5,-495.5 391.5,-495.5 "/>
<text text-anchor="middle" x="324.5" y="-480.3" font-family="Times,serif" font-size="14.00" fill="#000000">nanoid8</text>
<polyline fill="none" stroke="#000000" points="257.5,-472.5 391.5,-472.5 "/>
<text text-anchor="middle" x="324.5" y="-457.3" font-family="Times,serif" font-size="14.00" fill="#000000">origin_definition</text>
<polyline fill="none" stroke="#000000" points="257.5,-449.5 391.5,-449.5 "/>
<text text-anchor="middle" x="324.5" y="-434.3" font-family="Times,serif" font-size="14.00" fill="#000000">origin_id</text>
<polyline fill="none" stroke="#000000" points="257.5,-426.5 391.5,-426.5 "/>
<text text-anchor="middle" x="324.5" y="-411.3" font-family="Times,serif" font-size="14.00" fill="#000000">value</text>
<polyline fill="none" stroke="#000000" points="391.5,-403.5 391.5,-564.5 "/>
<text text-anchor="middle" x="402" y="-480.3" font-family="Times,serif" font-size="14.00" fill="#000000"> </text>
</g>
<!-- term&#45;&gt;origin -->
<g id="edge20" class="edge">
<title>term&#45;&gt;origin</title>
<path fill="none" stroke="#000000" d="M229.7439,-403.33C225.5615,-397.2715 221.5977,-391.1284 218,-385 213.4908,-377.319 209.2532,-369.1019 205.3187,-360.7294"/>
<polygon fill="#000000" stroke="#000000" points="208.4941,-359.257 201.17,-351.6014 202.1214,-362.1534 208.4941,-359.257"/>
<text text-anchor="middle" x="255.5" y="-373.8" font-family="Times,serif" font-size="14.00" fill="#000000">has_origin</text>
</g>
<!-- term&#45;&gt;tag -->
<g id="edge9" class="edge">
<title>term&#45;&gt;tag</title>
<path fill="none" stroke="#000000" d="M312.2771,-403.46C323.7289,-343.2643 342.9021,-259.6958 371,-190 376.714,-175.8266 383.8698,-161.3116 391.408,-147.4863"/>
<polygon fill="#000000" stroke="#000000" points="394.5985,-148.9509 396.4056,-138.5113 388.4827,-145.5454 394.5985,-148.9509"/>
<text text-anchor="middle" x="399" y="-267.3" font-family="Times,serif" font-size="14.00" fill="#000000">has_tag</text>
</g>
<!-- term&#45;&gt;concept -->
<g id="edge1" class="edge">
<title>term&#45;&gt;concept</title>
<path fill="none" stroke="#000000" d="M319.1048,-403.4048C324.7309,-391.2049 331.894,-379.5321 341,-370 351.1026,-359.4246 413.3908,-333.3886 471.2978,-310.6709"/>
<polygon fill="#000000" stroke="#000000" points="472.8785,-313.811 480.9184,-306.9109 470.3304,-307.2912 472.8785,-313.811"/>
<text text-anchor="middle" x="380" y="-373.8" font-family="Times,serif" font-size="14.00" fill="#000000">represents</text>
</g>
<!-- relationship -->
<g id="node4" class="node">
<title>relationship</title>
<path fill="none" stroke="#000000" d="M614.5,-1301.5C614.5,-1301.5 833.5,-1301.5 833.5,-1301.5 839.5,-1301.5 845.5,-1307.5 845.5,-1313.5 845.5,-1313.5 845.5,-1473.5 845.5,-1473.5 845.5,-1479.5 839.5,-1485.5 833.5,-1485.5 833.5,-1485.5 614.5,-1485.5 614.5,-1485.5 608.5,-1485.5 602.5,-1479.5 602.5,-1473.5 602.5,-1473.5 602.5,-1313.5 602.5,-1313.5 602.5,-1307.5 608.5,-1301.5 614.5,-1301.5"/>
<text text-anchor="middle" x="653.5" y="-1389.8" font-family="Times,serif" font-size="14.00" fill="#000000">relationship</text>
<polyline fill="none" stroke="#000000" points="704.5,-1301.5 704.5,-1485.5 "/>
<text text-anchor="middle" x="715" y="-1389.8" font-family="Times,serif" font-size="14.00" fill="#000000"> </text>
<polyline fill="none" stroke="#000000" points="725.5,-1301.5 725.5,-1485.5 "/>
<text text-anchor="middle" x="775" y="-1470.3" font-family="Times,serif" font-size="14.00" fill="#000000">desc</text>
<polyline fill="none" stroke="#000000" points="725.5,-1462.5 824.5,-1462.5 "/>
<text text-anchor="middle" x="775" y="-1447.3" font-family="Times,serif" font-size="14.00" fill="#000000">handle</text>
<polyline fill="none" stroke="#000000" points="725.5,-1439.5 824.5,-1439.5 "/>
<text text-anchor="middle" x="775" y="-1424.3" font-family="Times,serif" font-size="14.00" fill="#000000">id</text>
<polyline fill="none" stroke="#000000" points="725.5,-1416.5 824.5,-1416.5 "/>
<text text-anchor="middle" x="775" y="-1401.3" font-family="Times,serif" font-size="14.00" fill="#000000">is_required</text>
<polyline fill="none" stroke="#000000" points="725.5,-1393.5 824.5,-1393.5 "/>
<text text-anchor="middle" x="775" y="-1378.3" font-family="Times,serif" font-size="14.00" fill="#000000">model</text>
<polyline fill="none" stroke="#000000" points="725.5,-1370.5 824.5,-1370.5 "/>
<text text-anchor="middle" x="775" y="-1355.3" font-family="Times,serif" font-size="14.00" fill="#000000">multiplicity</text>
<polyline fill="none" stroke="#000000" points="725.5,-1347.5 824.5,-1347.5 "/>
<text text-anchor="middle" x="775" y="-1332.3" font-family="Times,serif" font-size="14.00" fill="#000000">nanoid6</text>
<polyline fill="none" stroke="#000000" points="725.5,-1324.5 824.5,-1324.5 "/>
<text text-anchor="middle" x="775" y="-1309.3" font-family="Times,serif" font-size="14.00" fill="#000000">nanoid8</text>
<polyline fill="none" stroke="#000000" points="824.5,-1301.5 824.5,-1485.5 "/>
<text text-anchor="middle" x="835" y="-1389.8" font-family="Times,serif" font-size="14.00" fill="#000000"> </text>
</g>
<!-- relationship&#45;&gt;node -->
<g id="edge10" class="edge">
<title>relationship&#45;&gt;node</title>
<path fill="none" stroke="#000000" d="M654.0795,-1301.2139C651.3279,-1295.2265 648.9266,-1289.1347 647,-1283 644.6287,-1275.4492 643.6583,-1267.5783 643.7199,-1259.6562"/>
<polygon fill="#000000" stroke="#000000" points="647.2171,-1259.806 644.3219,-1249.6144 640.2297,-1259.387 647.2171,-1259.806"/>
<text text-anchor="middle" x="674.5" y="-1271.8" font-family="Times,serif" font-size="14.00" fill="#000000">has_dst</text>
</g>
<!-- relationship&#45;&gt;node -->
<g id="edge11" class="edge">
<title>relationship&#45;&gt;node</title>
<path fill="none" stroke="#000000" d="M708.6144,-1301.1642C706.5126,-1289.9673 704.2873,-1278.708 702,-1268 701.4011,-1265.1965 700.7782,-1262.352 700.1365,-1259.4831"/>
<polygon fill="#000000" stroke="#000000" points="703.5312,-1258.6269 697.891,-1249.6581 696.7071,-1260.1866 703.5312,-1258.6269"/>
<text text-anchor="middle" x="731.5" y="-1271.8" font-family="Times,serif" font-size="14.00" fill="#000000">has_src</text>
</g>
<!-- relationship&#45;&gt;property -->
<g id="edge14" class="edge">
<title>relationship&#45;&gt;property</title>
<path fill="none" stroke="#000000" d="M602.3471,-1349.1054C558.1811,-1326.5069 512.8258,-1294.2405 487,-1250 451.7087,-1189.5449 447.947,-1111.5871 453.5996,-1046.7877"/>
<polygon fill="#000000" stroke="#000000" points="457.115,-1046.7936 454.5843,-1036.5055 450.1469,-1046.1263 457.115,-1046.7936"/>
<text text-anchor="middle" x="534.5" y="-1165.3" font-family="Times,serif" font-size="14.00" fill="#000000">has_property</text>
</g>
<!-- relationship&#45;&gt;tag -->
<g id="edge8" class="edge">
<title>relationship&#45;&gt;tag</title>
<path fill="none" stroke="#000000" d="M838.5299,-1301.4256C871.6254,-1264.6105 899,-1219.036 899,-1169 899,-1169 899,-1169 899,-271 899,-191.0188 662.0315,-121.8434 528.9994,-89.3107"/>
<polygon fill="#000000" stroke="#000000" points="529.7558,-85.8927 519.2126,-86.9375 528.1062,-92.6956 529.7558,-85.8927"/>
<text text-anchor="middle" x="927" y="-681.8" font-family="Times,serif" font-size="14.00" fill="#000000">has_tag</text>
</g>
<!-- relationship&#45;&gt;concept -->
<g id="edge17" class="edge">
<title>relationship&#45;&gt;concept</title>
<path fill="none" stroke="#000000" d="M766.4346,-1301.2772C781.1345,-1261.457 794,-1213.807 794,-1169 794,-1169 794,-1169 794,-484 794,-413.6636 735.2242,-358.943 678.7106,-322.5849"/>
<polygon fill="#000000" stroke="#000000" points="680.3625,-319.4893 670.0334,-317.1312 676.6375,-325.4159 680.3625,-319.4893"/>
<text text-anchor="middle" x="839" y="-776.8" font-family="Times,serif" font-size="14.00" fill="#000000">has_concept</text>
</g>
<!-- property&#45;&gt;tag -->
<g id="edge6" class="edge">
<title>property&#45;&gt;tag</title>
<path fill="none" stroke="#000000" d="M358.7836,-888.2723C217.5218,-844.985 0,-765.363 0,-685.5 0,-685.5 0,-685.5 0,-271 0,-224.5625 27.6472,-216.1822 66,-190 153.4698,-130.287 272.3562,-98.7212 352.6315,-83.1006"/>
<polygon fill="#000000" stroke="#000000" points="353.5444,-86.4898 362.7143,-81.1829 352.2364,-79.6131 353.5444,-86.4898"/>
<text text-anchor="middle" x="28" y="-480.3" font-family="Times,serif" font-size="14.00" fill="#000000">has_tag</text>
</g>
<!-- value_set -->
<g id="node7" class="node">
<title>value_set</title>
<path fill="none" stroke="#000000" d="M322,-616.5C322,-616.5 498,-616.5 498,-616.5 504,-616.5 510,-622.5 510,-628.5 510,-628.5 510,-742.5 510,-742.5 510,-748.5 504,-754.5 498,-754.5 498,-754.5 322,-754.5 322,-754.5 316,-754.5 310,-748.5 310,-742.5 310,-742.5 310,-628.5 310,-628.5 310,-622.5 316,-616.5 322,-616.5"/>
<text text-anchor="middle" x="352" y="-681.8" font-family="Times,serif" font-size="14.00" fill="#000000">value_set</text>
<polyline fill="none" stroke="#000000" points="394,-616.5 394,-754.5 "/>
<text text-anchor="middle" x="404.5" y="-681.8" font-family="Times,serif" font-size="14.00" fill="#000000"> </text>
<polyline fill="none" stroke="#000000" points="415,-616.5 415,-754.5 "/>
<text text-anchor="middle" x="452" y="-739.3" font-family="Times,serif" font-size="14.00" fill="#000000">desc</text>
<polyline fill="none" stroke="#000000" points="415,-731.5 489,-731.5 "/>
<text text-anchor="middle" x="452" y="-716.3" font-family="Times,serif" font-size="14.00" fill="#000000">handle</text>
<polyline fill="none" stroke="#000000" points="415,-708.5 489,-708.5 "/>
<text text-anchor="middle" x="452" y="-693.3" font-family="Times,serif" font-size="14.00" fill="#000000">id</text>
<polyline fill="none" stroke="#000000" points="415,-685.5 489,-685.5 "/>
<text text-anchor="middle" x="452" y="-670.3" font-family="Times,serif" font-size="14.00" fill="#000000">nanoid6</text>
<polyline fill="none" stroke="#000000" points="415,-662.5 489,-662.5 "/>
<text text-anchor="middle" x="452" y="-647.3" font-family="Times,serif" font-size="14.00" fill="#000000">nanoid8</text>
<polyline fill="none" stroke="#000000" points="415,-639.5 489,-639.5 "/>
<text text-anchor="middle" x="452" y="-624.3" font-family="Times,serif" font-size="14.00" fill="#000000">url</text>
<polyline fill="none" stroke="#000000" points="489,-616.5 489,-754.5 "/>
<text text-anchor="middle" x="499.5" y="-681.8" font-family="Times,serif" font-size="14.00" fill="#000000"> </text>
</g>
<!-- property&#45;&gt;value_set -->
<g id="edge12" class="edge">
<title>property&#45;&gt;value_set</title>
<path fill="none" stroke="#000000" d="M429.2858,-806.2994C427.3634,-800.1549 425.5836,-794.0297 424,-788 422.0272,-780.4883 420.3214,-772.5897 418.8487,-764.6493"/>
<polygon fill="#000000" stroke="#000000" points="422.2624,-763.85 417.1054,-754.595 415.3653,-765.0459 422.2624,-763.85"/>
<text text-anchor="middle" x="474" y="-776.8" font-family="Times,serif" font-size="14.00" fill="#000000">has_value_set</text>
</g>
<!-- property&#45;&gt;concept -->
<g id="edge18" class="edge">
<title>property&#45;&gt;concept</title>
<path fill="none" stroke="#000000" d="M519.677,-806.2593C521.2866,-800.1252 522.7449,-794.0133 524,-788 533.333,-743.2863 511.1645,-619.2161 539,-583 553.9037,-563.6092 576.8143,-584.922 591,-565 632.7628,-506.3496 595.0713,-474.8848 591,-403 589.5856,-378.0267 586.6776,-350.5228 583.7952,-327.1143"/>
<polygon fill="#000000" stroke="#000000" points="587.2452,-326.4966 582.5223,-317.0127 580.3001,-327.3719 587.2452,-326.4966"/>
<text text-anchor="middle" x="584" y="-586.8" font-family="Times,serif" font-size="14.00" fill="#000000">has_concept</text>
</g>
<!-- value_set&#45;&gt;origin -->
<g id="edge19" class="edge">
<title>value_set&#45;&gt;origin</title>
<path fill="none" stroke="#000000" d="M309.8719,-659.6577C229.3105,-636.6021 125.6096,-601.0116 101,-565 59.6701,-504.5213 84.6966,-422.7368 116.0701,-360.7802"/>
<polygon fill="#000000" stroke="#000000" points="119.2371,-362.2759 120.7379,-351.7879 113.0243,-359.0509 119.2371,-362.2759"/>
<text text-anchor="middle" x="138.5" y="-480.3" font-family="Times,serif" font-size="14.00" fill="#000000">has_origin</text>
</g>
<!-- value_set&#45;&gt;term -->
<g id="edge2" class="edge">
<title>value_set&#45;&gt;term</title>
<path fill="none" stroke="#000000" d="M370.2468,-616.3444C366.7595,-610.1535 363.3027,-603.971 360,-598 355.6516,-590.1384 351.1719,-581.9486 346.7082,-573.7252"/>
<polygon fill="#000000" stroke="#000000" points="349.7167,-571.9306 341.8779,-564.8029 343.5608,-575.2632 349.7167,-571.9306"/>
<text text-anchor="middle" x="393.5" y="-586.8" font-family="Times,serif" font-size="14.00" fill="#000000">has_term</text>
</g>
<!-- value_set&#45;&gt;tag -->
<g id="edge4" class="edge">
<title>value_set&#45;&gt;tag</title>
<path fill="none" stroke="#000000" d="M424.5189,-616.4054C425.4905,-610.2015 426.3423,-603.9993 427,-598 444.3994,-439.283 444.6168,-252.235 442.9691,-148.6463"/>
<polygon fill="#000000" stroke="#000000" points="446.4675,-148.519 442.7988,-138.5796 439.4685,-148.6374 446.4675,-148.519"/>
<text text-anchor="middle" x="470" y="-373.8" font-family="Times,serif" font-size="14.00" fill="#000000">has_tag</text>
</g>
<!-- value_set&#45;&gt;concept -->
<g id="edge16" class="edge">
<title>value_set&#45;&gt;concept</title>
<path fill="none" stroke="#000000" d="M447.4333,-616.4606C450.183,-610.3004 452.7538,-604.0902 455,-598 485.8124,-514.4555 468.4532,-485.8842 501,-403 511.4219,-376.4595 526.4285,-348.7784 540.284,-325.66"/>
<polygon fill="#000000" stroke="#000000" points="543.3232,-327.3983 545.526,-317.035 537.3414,-323.7628 543.3232,-327.3983"/>
<text text-anchor="middle" x="546" y="-480.3" font-family="Times,serif" font-size="14.00" fill="#000000">has_concept</text>
</g>
<!-- concept&#45;&gt;tag -->
<g id="edge3" class="edge">
<title>concept&#45;&gt;tag</title>
<path fill="none" stroke="#000000" d="M545.0283,-224.7718C529.6451,-201.811 510.6397,-173.4437 493.0999,-147.2639"/>
<polygon fill="#000000" stroke="#000000" points="495.9368,-145.2101 487.463,-138.8504 490.1214,-149.1063 495.9368,-145.2101"/>
<text text-anchor="middle" x="537" y="-160.8" font-family="Times,serif" font-size="14.00" fill="#000000">has_tag</text>
</g>
</g>
</svg>
