<?xml version="1.0" encoding="UTF-8" standalone="no"?>
<!DOCTYPE svg PUBLIC "-//W3C//DTD SVG 1.1//EN"
 "http://www.w3.org/Graphics/SVG/1.1/DTD/svg11.dtd">
<!-- Generated by graphviz version 2.40.1 (20161225.0304)
 -->
<!-- Title: Perl Pages: 1 -->
<svg width="960pt" height="1494pt"
 viewBox="0.00 0.00 960.00 1494.00" xmlns="http://www.w3.org/2000/svg" xmlns:xlink="http://www.w3.org/1999/xlink">
<g id="graph0" class="graph" transform="scale(1 1) rotate(0) translate(4 1490)">
<title>Perl</title>
<polygon fill="#ffffff" stroke="transparent" points="-4,4 -4,-1490 956,-1490 956,4 -4,4"/>
<!-- concept -->
<g id="node1" class="node">
<title>concept</title>
<path fill="none" stroke="#000000" d="M598,-225C598,-225 764,-225 764,-225 770,-225 776,-231 776,-237 776,-237 776,-305 776,-305 776,-311 770,-317 764,-317 764,-317 598,-317 598,-317 592,-317 586,-311 586,-305 586,-305 586,-237 586,-237 586,-231 592,-225 598,-225"/>
<text text-anchor="middle" x="623" y="-267.3" font-family="Times,serif" font-size="14.00" fill="#000000">concept</text>
<polyline fill="none" stroke="#000000" points="660,-225 660,-317 "/>
<text text-anchor="middle" x="670.5" y="-267.3" font-family="Times,serif" font-size="14.00" fill="#000000"> </text>
<polyline fill="none" stroke="#000000" points="681,-225 681,-317 "/>
<text text-anchor="middle" x="718" y="-301.8" font-family="Times,serif" font-size="14.00" fill="#000000">desc</text>
<polyline fill="none" stroke="#000000" points="681,-294 755,-294 "/>
<text text-anchor="middle" x="718" y="-278.8" font-family="Times,serif" font-size="14.00" fill="#000000">id</text>
<polyline fill="none" stroke="#000000" points="681,-271 755,-271 "/>
<text text-anchor="middle" x="718" y="-255.8" font-family="Times,serif" font-size="14.00" fill="#000000">nanoid6</text>
<polyline fill="none" stroke="#000000" points="681,-248 755,-248 "/>
<text text-anchor="middle" x="718" y="-232.8" font-family="Times,serif" font-size="14.00" fill="#000000">nanoid8</text>
<polyline fill="none" stroke="#000000" points="755,-225 755,-317 "/>
<text text-anchor="middle" x="765.5" y="-267.3" font-family="Times,serif" font-size="14.00" fill="#000000"> </text>
</g>
<!-- tag -->
<g id="node3" class="node">
<title>tag</title>
<path fill="none" stroke="#000000" d="M127,-.5C127,-.5 259,-.5 259,-.5 265,-.5 271,-6.5 271,-12.5 271,-12.5 271,-126.5 271,-126.5 271,-132.5 265,-138.5 259,-138.5 259,-138.5 127,-138.5 127,-138.5 121,-138.5 115,-132.5 115,-126.5 115,-126.5 115,-12.5 115,-12.5 115,-6.5 121,-.5 127,-.5"/>
<text text-anchor="middle" x="135" y="-65.8" font-family="Times,serif" font-size="14.00" fill="#000000">tag</text>
<polyline fill="none" stroke="#000000" points="155,-.5 155,-138.5 "/>
<text text-anchor="middle" x="165.5" y="-65.8" font-family="Times,serif" font-size="14.00" fill="#000000"> </text>
<polyline fill="none" stroke="#000000" points="176,-.5 176,-138.5 "/>
<text text-anchor="middle" x="213" y="-123.3" font-family="Times,serif" font-size="14.00" fill="#000000">desc</text>
<polyline fill="none" stroke="#000000" points="176,-115.5 250,-115.5 "/>
<text text-anchor="middle" x="213" y="-100.3" font-family="Times,serif" font-size="14.00" fill="#000000">id</text>
<polyline fill="none" stroke="#000000" points="176,-92.5 250,-92.5 "/>
<text text-anchor="middle" x="213" y="-77.3" font-family="Times,serif" font-size="14.00" fill="#000000">key</text>
<polyline fill="none" stroke="#000000" points="176,-69.5 250,-69.5 "/>
<text text-anchor="middle" x="213" y="-54.3" font-family="Times,serif" font-size="14.00" fill="#000000">nanoid6</text>
<polyline fill="none" stroke="#000000" points="176,-46.5 250,-46.5 "/>
<text text-anchor="middle" x="213" y="-31.3" font-family="Times,serif" font-size="14.00" fill="#000000">nanoid8</text>
<polyline fill="none" stroke="#000000" points="176,-23.5 250,-23.5 "/>
<text text-anchor="middle" x="213" y="-8.3" font-family="Times,serif" font-size="14.00" fill="#000000">value</text>
<polyline fill="none" stroke="#000000" points="250,-.5 250,-138.5 "/>
<text text-anchor="middle" x="260.5" y="-65.8" font-family="Times,serif" font-size="14.00" fill="#000000"> </text>
</g>
<!-- concept&#45;&gt;tag -->
<g id="edge11" class="edge">
<title>concept&#45;&gt;tag</title>
<path fill="none" stroke="#000000" d="M606.9527,-224.916C568.7924,-202.4445 520.9398,-176.1959 476,-157 412.4048,-129.8354 337.5357,-107.0661 280.7834,-91.5697"/>
<polygon fill="#000000" stroke="#000000" points="281.6886,-88.1888 271.1214,-88.9538 279.8592,-94.9456 281.6886,-88.1888"/>
<text text-anchor="middle" x="533" y="-160.8" font-family="Times,serif" font-size="14.00" fill="#000000">has_tag</text>
</g>
<!-- node -->
<g id="node2" class="node">
<title>node</title>
<path fill="none" stroke="#000000" d="M516.5,-1088.5C516.5,-1088.5 665.5,-1088.5 665.5,-1088.5 671.5,-1088.5 677.5,-1094.5 677.5,-1100.5 677.5,-1100.5 677.5,-1237.5 677.5,-1237.5 677.5,-1243.5 671.5,-1249.5 665.5,-1249.5 665.5,-1249.5 516.5,-1249.5 516.5,-1249.5 510.5,-1249.5 504.5,-1243.5 504.5,-1237.5 504.5,-1237.5 504.5,-1100.5 504.5,-1100.5 504.5,-1094.5 510.5,-1088.5 516.5,-1088.5"/>
<text text-anchor="middle" x="530" y="-1165.3" font-family="Times,serif" font-size="14.00" fill="#000000">node</text>
<polyline fill="none" stroke="#000000" points="555.5,-1088.5 555.5,-1249.5 "/>
<text text-anchor="middle" x="566" y="-1165.3" font-family="Times,serif" font-size="14.00" fill="#000000"> </text>
<polyline fill="none" stroke="#000000" points="576.5,-1088.5 576.5,-1249.5 "/>
<text text-anchor="middle" x="616.5" y="-1234.3" font-family="Times,serif" font-size="14.00" fill="#000000">category</text>
<polyline fill="none" stroke="#000000" points="576.5,-1226.5 656.5,-1226.5 "/>
<text text-anchor="middle" x="616.5" y="-1211.3" font-family="Times,serif" font-size="14.00" fill="#000000">desc</text>
<polyline fill="none" stroke="#000000" points="576.5,-1203.5 656.5,-1203.5 "/>
<text text-anchor="middle" x="616.5" y="-1188.3" font-family="Times,serif" font-size="14.00" fill="#000000">handle</text>
<polyline fill="none" stroke="#000000" points="576.5,-1180.5 656.5,-1180.5 "/>
<text text-anchor="middle" x="616.5" y="-1165.3" font-family="Times,serif" font-size="14.00" fill="#000000">id</text>
<polyline fill="none" stroke="#000000" points="576.5,-1157.5 656.5,-1157.5 "/>
<text text-anchor="middle" x="616.5" y="-1142.3" font-family="Times,serif" font-size="14.00" fill="#000000">model</text>
<polyline fill="none" stroke="#000000" points="576.5,-1134.5 656.5,-1134.5 "/>
<text text-anchor="middle" x="616.5" y="-1119.3" font-family="Times,serif" font-size="14.00" fill="#000000">nanoid6</text>
<polyline fill="none" stroke="#000000" points="576.5,-1111.5 656.5,-1111.5 "/>
<text text-anchor="middle" x="616.5" y="-1096.3" font-family="Times,serif" font-size="14.00" fill="#000000">nanoid8</text>
<polyline fill="none" stroke="#000000" points="656.5,-1088.5 656.5,-1249.5 "/>
<text text-anchor="middle" x="667" y="-1165.3" font-family="Times,serif" font-size="14.00" fill="#000000"> </text>
</g>
<!-- node&#45;&gt;concept -->
<g id="edge1" class="edge">
<title>node&#45;&gt;concept</title>
<path fill="none" stroke="#000000" d="M677.8103,-1097.3183C694.0164,-1079.4153 708.7479,-1058.9832 718,-1037 727.502,-1014.4231 757.8599,-622.4685 759,-598 759.3103,-591.3406 759.2034,-589.6636 759,-583 756.5544,-502.8881 756.4563,-482.7019 748,-403 746.4349,-388.2487 748.1553,-383.9094 743,-370 737.4498,-355.0251 729.4473,-339.8951 721.0264,-326.1224"/>
<polygon fill="#000000" stroke="#000000" points="723.7477,-323.8758 715.4539,-317.2831 717.8261,-327.6089 723.7477,-323.8758"/>
<text text-anchor="middle" x="802" y="-681.8" font-family="Times,serif" font-size="14.00" fill="#000000">has_concept</text>
</g>
<!-- node&#45;&gt;tag -->
<g id="edge12" class="edge">
<title>node&#45;&gt;tag</title>
<path fill="none" stroke="#000000" d="M504.4197,-1145.8718C359.6144,-1104.6122 84,-1013.9392 84,-921.5 84,-921.5 84,-921.5 84,-271 84,-234.0229 87.3855,-223.5186 103,-190 109.8026,-175.3974 118.5535,-160.8346 127.9187,-147.1404"/>
<polygon fill="#000000" stroke="#000000" points="130.9387,-148.9299 133.8172,-138.7336 125.2085,-144.9093 130.9387,-148.9299"/>
<text text-anchor="middle" x="112" y="-586.8" font-family="Times,serif" font-size="14.00" fill="#000000">has_tag</text>
</g>
<!-- property -->
<g id="node5" class="node">
<title>property</title>
<path fill="none" stroke="#000000" d="M485,-806.5C485,-806.5 697,-806.5 697,-806.5 703,-806.5 709,-812.5 709,-818.5 709,-818.5 709,-1024.5 709,-1024.5 709,-1030.5 703,-1036.5 697,-1036.5 697,-1036.5 485,-1036.5 485,-1036.5 479,-1036.5 473,-1030.5 473,-1024.5 473,-1024.5 473,-818.5 473,-818.5 473,-812.5 479,-806.5 485,-806.5"/>
<text text-anchor="middle" x="512.5" y="-917.8" font-family="Times,serif" font-size="14.00" fill="#000000">property</text>
<polyline fill="none" stroke="#000000" points="552,-806.5 552,-1036.5 "/>
<text text-anchor="middle" x="562.5" y="-917.8" font-family="Times,serif" font-size="14.00" fill="#000000"> </text>
<polyline fill="none" stroke="#000000" points="573,-806.5 573,-1036.5 "/>
<text text-anchor="middle" x="630.5" y="-1021.3" font-family="Times,serif" font-size="14.00" fill="#000000">desc</text>
<polyline fill="none" stroke="#000000" points="573,-1013.5 688,-1013.5 "/>
<text text-anchor="middle" x="630.5" y="-998.3" font-family="Times,serif" font-size="14.00" fill="#000000">handle</text>
<polyline fill="none" stroke="#000000" points="573,-990.5 688,-990.5 "/>
<text text-anchor="middle" x="630.5" y="-975.3" font-family="Times,serif" font-size="14.00" fill="#000000">id</text>
<polyline fill="none" stroke="#000000" points="573,-967.5 688,-967.5 "/>
<text text-anchor="middle" x="630.5" y="-952.3" font-family="Times,serif" font-size="14.00" fill="#000000">is_required</text>
<polyline fill="none" stroke="#000000" points="573,-944.5 688,-944.5 "/>
<text text-anchor="middle" x="630.5" y="-929.3" font-family="Times,serif" font-size="14.00" fill="#000000">model</text>
<polyline fill="none" stroke="#000000" points="573,-921.5 688,-921.5 "/>
<text text-anchor="middle" x="630.5" y="-906.3" font-family="Times,serif" font-size="14.00" fill="#000000">nanoid6</text>
<polyline fill="none" stroke="#000000" points="573,-898.5 688,-898.5 "/>
<text text-anchor="middle" x="630.5" y="-883.3" font-family="Times,serif" font-size="14.00" fill="#000000">nanoid8</text>
<polyline fill="none" stroke="#000000" points="573,-875.5 688,-875.5 "/>
<text text-anchor="middle" x="630.5" y="-860.3" font-family="Times,serif" font-size="14.00" fill="#000000">pattern</text>
<polyline fill="none" stroke="#000000" points="573,-852.5 688,-852.5 "/>
<text text-anchor="middle" x="630.5" y="-837.3" font-family="Times,serif" font-size="14.00" fill="#000000">units</text>
<polyline fill="none" stroke="#000000" points="573,-829.5 688,-829.5 "/>
<text text-anchor="middle" x="630.5" y="-814.3" font-family="Times,serif" font-size="14.00" fill="#000000">value_domain</text>
<polyline fill="none" stroke="#000000" points="688,-806.5 688,-1036.5 "/>
<text text-anchor="middle" x="698.5" y="-917.8" font-family="Times,serif" font-size="14.00" fill="#000000"> </text>
</g>
<!-- node&#45;&gt;property -->
<g id="edge15" class="edge">
<title>node&#45;&gt;property</title>
<path fill="none" stroke="#000000" d="M591,-1088.3017C591,-1075.0207 591,-1060.9838 591,-1046.9183"/>
<polygon fill="#000000" stroke="#000000" points="594.5001,-1046.6816 591,-1036.6817 587.5001,-1046.6817 594.5001,-1046.6816"/>
<text text-anchor="middle" x="638.5" y="-1058.8" font-family="Times,serif" font-size="14.00" fill="#000000">has_property</text>
</g>
<!-- origin -->
<g id="node4" class="node">
<title>origin</title>
<path fill="none" stroke="#000000" d="M233,-190.5C233,-190.5 405,-190.5 405,-190.5 411,-190.5 417,-196.5 417,-202.5 417,-202.5 417,-339.5 417,-339.5 417,-345.5 411,-351.5 405,-351.5 405,-351.5 233,-351.5 233,-351.5 227,-351.5 221,-345.5 221,-339.5 221,-339.5 221,-202.5 221,-202.5 221,-196.5 227,-190.5 233,-190.5"/>
<text text-anchor="middle" x="250.5" y="-267.3" font-family="Times,serif" font-size="14.00" fill="#000000">origin</text>
<polyline fill="none" stroke="#000000" points="280,-190.5 280,-351.5 "/>
<text text-anchor="middle" x="290.5" y="-267.3" font-family="Times,serif" font-size="14.00" fill="#000000"> </text>
<polyline fill="none" stroke="#000000" points="301,-190.5 301,-351.5 "/>
<text text-anchor="middle" x="348.5" y="-336.3" font-family="Times,serif" font-size="14.00" fill="#000000">desc</text>
<polyline fill="none" stroke="#000000" points="301,-328.5 396,-328.5 "/>
<text text-anchor="middle" x="348.5" y="-313.3" font-family="Times,serif" font-size="14.00" fill="#000000">id</text>
<polyline fill="none" stroke="#000000" points="301,-305.5 396,-305.5 "/>
<text text-anchor="middle" x="348.5" y="-290.3" font-family="Times,serif" font-size="14.00" fill="#000000">is_external</text>
<polyline fill="none" stroke="#000000" points="301,-282.5 396,-282.5 "/>
<text text-anchor="middle" x="348.5" y="-267.3" font-family="Times,serif" font-size="14.00" fill="#000000">name</text>
<polyline fill="none" stroke="#000000" points="301,-259.5 396,-259.5 "/>
<text text-anchor="middle" x="348.5" y="-244.3" font-family="Times,serif" font-size="14.00" fill="#000000">nanoid6</text>
<polyline fill="none" stroke="#000000" points="301,-236.5 396,-236.5 "/>
<text text-anchor="middle" x="348.5" y="-221.3" font-family="Times,serif" font-size="14.00" fill="#000000">nanoid8</text>
<polyline fill="none" stroke="#000000" points="301,-213.5 396,-213.5 "/>
<text text-anchor="middle" x="348.5" y="-198.3" font-family="Times,serif" font-size="14.00" fill="#000000">url</text>
<polyline fill="none" stroke="#000000" points="396,-190.5 396,-351.5 "/>
<text text-anchor="middle" x="406.5" y="-267.3" font-family="Times,serif" font-size="14.00" fill="#000000"> </text>
</g>
<!-- origin&#45;&gt;tag -->
<g id="edge10" class="edge">
<title>origin&#45;&gt;tag</title>
<path fill="none" stroke="#000000" d="M268.6583,-190.4932C259.7461,-176.2408 250.4815,-161.4247 241.618,-147.2503"/>
<polygon fill="#000000" stroke="#000000" points="244.4274,-145.1415 236.1579,-138.5184 238.4922,-148.8529 244.4274,-145.1415"/>
<text text-anchor="middle" x="284" y="-160.8" font-family="Times,serif" font-size="14.00" fill="#000000">has_tag</text>
</g>
<!-- property&#45;&gt;concept -->
<g id="edge4" class="edge">
<title>property&#45;&gt;concept</title>
<path fill="none" stroke="#000000" d="M616.8254,-806.4923C638.7742,-709.2052 667.0445,-585.1763 669,-583 685.346,-564.8085 706.8143,-584.922 721,-565 771.1612,-494.555 738.3298,-390.0669 709.7847,-326.4812"/>
<polygon fill="#000000" stroke="#000000" points="712.7927,-324.645 705.4344,-317.0223 706.4331,-327.57 712.7927,-324.645"/>
<text text-anchor="middle" x="714" y="-586.8" font-family="Times,serif" font-size="14.00" fill="#000000">has_concept</text>
</g>
<!-- property&#45;&gt;tag -->
<g id="edge9" class="edge">
<title>property&#45;&gt;tag</title>
<path fill="none" stroke="#000000" d="M472.8935,-869.4579C361.0675,-812.7994 200.5347,-710.422 133,-565 69.71,-428.718 119.6909,-249.7131 158.5297,-148.3935"/>
<polygon fill="#000000" stroke="#000000" points="161.8845,-149.4235 162.2494,-138.8349 155.361,-146.8849 161.8845,-149.4235"/>
<text text-anchor="middle" x="161" y="-480.3" font-family="Times,serif" font-size="14.00" fill="#000000">has_tag</text>
</g>
<!-- value_set -->
<g id="node6" class="node">
<title>value_set</title>
<path fill="none" stroke="#000000" d="M379,-616.5C379,-616.5 555,-616.5 555,-616.5 561,-616.5 567,-622.5 567,-628.5 567,-628.5 567,-742.5 567,-742.5 567,-748.5 561,-754.5 555,-754.5 555,-754.5 379,-754.5 379,-754.5 373,-754.5 367,-748.5 367,-742.5 367,-742.5 367,-628.5 367,-628.5 367,-622.5 373,-616.5 379,-616.5"/>
<text text-anchor="middle" x="409" y="-681.8" font-family="Times,serif" font-size="14.00" fill="#000000">value_set</text>
<polyline fill="none" stroke="#000000" points="451,-616.5 451,-754.5 "/>
<text text-anchor="middle" x="461.5" y="-681.8" font-family="Times,serif" font-size="14.00" fill="#000000"> </text>
<polyline fill="none" stroke="#000000" points="472,-616.5 472,-754.5 "/>
<text text-anchor="middle" x="509" y="-739.3" font-family="Times,serif" font-size="14.00" fill="#000000">desc</text>
<polyline fill="none" stroke="#000000" points="472,-731.5 546,-731.5 "/>
<text text-anchor="middle" x="509" y="-716.3" font-family="Times,serif" font-size="14.00" fill="#000000">handle</text>
<polyline fill="none" stroke="#000000" points="472,-708.5 546,-708.5 "/>
<text text-anchor="middle" x="509" y="-693.3" font-family="Times,serif" font-size="14.00" fill="#000000">id</text>
<polyline fill="none" stroke="#000000" points="472,-685.5 546,-685.5 "/>
<text text-anchor="middle" x="509" y="-670.3" font-family="Times,serif" font-size="14.00" fill="#000000">nanoid6</text>
<polyline fill="none" stroke="#000000" points="472,-662.5 546,-662.5 "/>
<text text-anchor="middle" x="509" y="-647.3" font-family="Times,serif" font-size="14.00" fill="#000000">nanoid8</text>
<polyline fill="none" stroke="#000000" points="472,-639.5 546,-639.5 "/>
<text text-anchor="middle" x="509" y="-624.3" font-family="Times,serif" font-size="14.00" fill="#000000">url</text>
<polyline fill="none" stroke="#000000" points="546,-616.5 546,-754.5 "/>
<text text-anchor="middle" x="556.5" y="-681.8" font-family="Times,serif" font-size="14.00" fill="#000000"> </text>
</g>
<!-- property&#45;&gt;value_set -->
<g id="edge16" class="edge">
<title>property&#45;&gt;value_set</title>
<path fill="none" stroke="#000000" d="M530.453,-806.2654C522.8379,-791.7722 515.1936,-777.2233 507.9798,-763.4939"/>
<polygon fill="#000000" stroke="#000000" points="511.0559,-761.8234 503.3062,-754.5989 504.8592,-765.0793 511.0559,-761.8234"/>
<text text-anchor="middle" x="567" y="-776.8" font-family="Times,serif" font-size="14.00" fill="#000000">has_value_set</text>
</g>
<!-- value_set&#45;&gt;concept -->
<g id="edge2" class="edge">
<title>value_set&#45;&gt;concept</title>
<path fill="none" stroke="#000000" d="M550.2909,-616.4932C565.2492,-600.8633 579.4212,-583.4005 590,-565 627.0176,-500.6125 608.6983,-473.8427 631,-403 638.9873,-377.6279 649.1902,-350.0407 658.294,-326.6782"/>
<polygon fill="#000000" stroke="#000000" points="661.5876,-327.8665 661.9857,-317.2791 655.0721,-325.3074 661.5876,-327.8665"/>
<text text-anchor="middle" x="676" y="-480.3" font-family="Times,serif" font-size="14.00" fill="#000000">has_concept</text>
</g>
<!-- value_set&#45;&gt;tag -->
<g id="edge7" class="edge">
<title>value_set&#45;&gt;tag</title>
<path fill="none" stroke="#000000" d="M366.8395,-658.3593C320.825,-640.1462 271.0085,-610.8449 246,-565 173.9283,-432.8801 175.3324,-251.5203 183.6346,-148.8458"/>
<polygon fill="#000000" stroke="#000000" points="187.1241,-149.1159 184.4844,-138.8552 180.1493,-148.5225 187.1241,-149.1159"/>
<text text-anchor="middle" x="217" y="-373.8" font-family="Times,serif" font-size="14.00" fill="#000000">has_tag</text>
</g>
<!-- value_set&#45;&gt;origin -->
<g id="edge6" class="edge">
<title>value_set&#45;&gt;origin</title>
<path fill="none" stroke="#000000" d="M366.8314,-649.1153C329.5426,-630.1181 291.1726,-602.7701 270,-565 235.1144,-502.767 252.0183,-422.2906 275.046,-361.2727"/>
<polygon fill="#000000" stroke="#000000" points="278.4247,-362.2412 278.7874,-351.6526 271.9007,-359.7039 278.4247,-362.2412"/>
<text text-anchor="middle" x="307.5" y="-480.3" font-family="Times,serif" font-size="14.00" fill="#000000">has_origin</text>
</g>
<!-- term -->
<g id="node7" class="node">
<title>term</title>
<path fill="none" stroke="#000000" d="M365.5,-403.5C365.5,-403.5 568.5,-403.5 568.5,-403.5 574.5,-403.5 580.5,-409.5 580.5,-415.5 580.5,-415.5 580.5,-552.5 580.5,-552.5 580.5,-558.5 574.5,-564.5 568.5,-564.5 568.5,-564.5 365.5,-564.5 365.5,-564.5 359.5,-564.5 353.5,-558.5 353.5,-552.5 353.5,-552.5 353.5,-415.5 353.5,-415.5 353.5,-409.5 359.5,-403.5 365.5,-403.5"/>
<text text-anchor="middle" x="379" y="-480.3" font-family="Times,serif" font-size="14.00" fill="#000000">term</text>
<polyline fill="none" stroke="#000000" points="404.5,-403.5 404.5,-564.5 "/>
<text text-anchor="middle" x="415" y="-480.3" font-family="Times,serif" font-size="14.00" fill="#000000"> </text>
<polyline fill="none" stroke="#000000" points="425.5,-403.5 425.5,-564.5 "/>
<text text-anchor="middle" x="492.5" y="-549.3" font-family="Times,serif" font-size="14.00" fill="#000000">desc</text>
<polyline fill="none" stroke="#000000" points="425.5,-541.5 559.5,-541.5 "/>
<text text-anchor="middle" x="492.5" y="-526.3" font-family="Times,serif" font-size="14.00" fill="#000000">id</text>
<polyline fill="none" stroke="#000000" points="425.5,-518.5 559.5,-518.5 "/>
<text text-anchor="middle" x="492.5" y="-503.3" font-family="Times,serif" font-size="14.00" fill="#000000">nanoid6</text>
<polyline fill="none" stroke="#000000" points="425.5,-495.5 559.5,-495.5 "/>
<text text-anchor="middle" x="492.5" y="-480.3" font-family="Times,serif" font-size="14.00" fill="#000000">nanoid8</text>
<polyline fill="none" stroke="#000000" points="425.5,-472.5 559.5,-472.5 "/>
<text text-anchor="middle" x="492.5" y="-457.3" font-family="Times,serif" font-size="14.00" fill="#000000">origin_definition</text>
<polyline fill="none" stroke="#000000" points="425.5,-449.5 559.5,-449.5 "/>
<text text-anchor="middle" x="492.5" y="-434.3" font-family="Times,serif" font-size="14.00" fill="#000000">origin_id</text>
<polyline fill="none" stroke="#000000" points="425.5,-426.5 559.5,-426.5 "/>
<text text-anchor="middle" x="492.5" y="-411.3" font-family="Times,serif" font-size="14.00" fill="#000000">value</text>
<polyline fill="none" stroke="#000000" points="559.5,-403.5 559.5,-564.5 "/>
<text text-anchor="middle" x="570" y="-480.3" font-family="Times,serif" font-size="14.00" fill="#000000"> </text>
</g>
<!-- value_set&#45;&gt;term -->
<g id="edge20" class="edge">
<title>value_set&#45;&gt;term</title>
<path fill="none" stroke="#000000" d="M467,-616.437C467,-603.0525 467,-588.8373 467,-574.8773"/>
<polygon fill="#000000" stroke="#000000" points="470.5001,-574.7729 467,-564.7729 463.5001,-574.773 470.5001,-574.7729"/>
<text text-anchor="middle" x="500.5" y="-586.8" font-family="Times,serif" font-size="14.00" fill="#000000">has_term</text>
</g>
<!-- term&#45;&gt;concept -->
<g id="edge18" class="edge">
<title>term&#45;&gt;concept</title>
<path fill="none" stroke="#000000" d="M500.9991,-403.4813C507.9555,-391.5478 515.9613,-379.9393 525,-370 541.2173,-352.1667 561.3557,-336.2725 581.7158,-322.7157"/>
<polygon fill="#000000" stroke="#000000" points="583.6554,-325.6294 590.1342,-317.2464 579.8417,-319.7595 583.6554,-325.6294"/>
<text text-anchor="middle" x="564" y="-373.8" font-family="Times,serif" font-size="14.00" fill="#000000">represents</text>
</g>
<!-- term&#45;&gt;tag -->
<g id="edge13" class="edge">
<title>term&#45;&gt;tag</title>
<path fill="none" stroke="#000000" d="M474.8276,-403.4421C476.818,-339.8916 469.8473,-251.9364 426,-190 391.5149,-141.2882 331.2752,-110.8708 280.6873,-92.7829"/>
<polygon fill="#000000" stroke="#000000" points="281.6308,-89.4057 271.0361,-89.4377 279.3383,-96.0197 281.6308,-89.4057"/>
<text text-anchor="middle" x="501" y="-267.3" font-family="Times,serif" font-size="14.00" fill="#000000">has_tag</text>
</g>
<!-- term&#45;&gt;origin -->
<g id="edge5" class="edge">
<title>term&#45;&gt;origin</title>
<path fill="none" stroke="#000000" d="M386.6584,-403.3349C381.8269,-397.2992 377.2213,-391.1578 373,-385 367.7157,-377.2914 362.6926,-368.9849 357.9904,-360.494"/>
<polygon fill="#000000" stroke="#000000" points="361.0256,-358.7481 353.2089,-351.5962 354.8595,-362.0617 361.0256,-358.7481"/>
<text text-anchor="middle" x="410.5" y="-373.8" font-family="Times,serif" font-size="14.00" fill="#000000">has_origin</text>
</g>
<!-- relationship -->
<g id="node8" class="node">
<title>relationship</title>
<path fill="none" stroke="#000000" d="M559.5,-1301.5C559.5,-1301.5 778.5,-1301.5 778.5,-1301.5 784.5,-1301.5 790.5,-1307.5 790.5,-1313.5 790.5,-1313.5 790.5,-1473.5 790.5,-1473.5 790.5,-1479.5 784.5,-1485.5 778.5,-1485.5 778.5,-1485.5 559.5,-1485.5 559.5,-1485.5 553.5,-1485.5 547.5,-1479.5 547.5,-1473.5 547.5,-1473.5 547.5,-1313.5 547.5,-1313.5 547.5,-1307.5 553.5,-1301.5 559.5,-1301.5"/>
<text text-anchor="middle" x="598.5" y="-1389.8" font-family="Times,serif" font-size="14.00" fill="#000000">relationship</text>
<polyline fill="none" stroke="#000000" points="649.5,-1301.5 649.5,-1485.5 "/>
<text text-anchor="middle" x="660" y="-1389.8" font-family="Times,serif" font-size="14.00" fill="#000000"> </text>
<polyline fill="none" stroke="#000000" points="670.5,-1301.5 670.5,-1485.5 "/>
<text text-anchor="middle" x="720" y="-1470.3" font-family="Times,serif" font-size="14.00" fill="#000000">desc</text>
<polyline fill="none" stroke="#000000" points="670.5,-1462.5 769.5,-1462.5 "/>
<text text-anchor="middle" x="720" y="-1447.3" font-family="Times,serif" font-size="14.00" fill="#000000">handle</text>
<polyline fill="none" stroke="#000000" points="670.5,-1439.5 769.5,-1439.5 "/>
<text text-anchor="middle" x="720" y="-1424.3" font-family="Times,serif" font-size="14.00" fill="#000000">id</text>
<polyline fill="none" stroke="#000000" points="670.5,-1416.5 769.5,-1416.5 "/>
<text text-anchor="middle" x="720" y="-1401.3" font-family="Times,serif" font-size="14.00" fill="#000000">is_required</text>
<polyline fill="none" stroke="#000000" points="670.5,-1393.5 769.5,-1393.5 "/>
<text text-anchor="middle" x="720" y="-1378.3" font-family="Times,serif" font-size="14.00" fill="#000000">model</text>
<polyline fill="none" stroke="#000000" points="670.5,-1370.5 769.5,-1370.5 "/>
<text text-anchor="middle" x="720" y="-1355.3" font-family="Times,serif" font-size="14.00" fill="#000000">multiplicity</text>
<polyline fill="none" stroke="#000000" points="670.5,-1347.5 769.5,-1347.5 "/>
<text text-anchor="middle" x="720" y="-1332.3" font-family="Times,serif" font-size="14.00" fill="#000000">nanoid6</text>
<polyline fill="none" stroke="#000000" points="670.5,-1324.5 769.5,-1324.5 "/>
<text text-anchor="middle" x="720" y="-1309.3" font-family="Times,serif" font-size="14.00" fill="#000000">nanoid8</text>
<polyline fill="none" stroke="#000000" points="769.5,-1301.5 769.5,-1485.5 "/>
<text text-anchor="middle" x="780" y="-1389.8" font-family="Times,serif" font-size="14.00" fill="#000000"> </text>
</g>
<!-- relationship&#45;&gt;concept -->
<g id="edge3" class="edge">
<title>relationship&#45;&gt;concept</title>
<path fill="none" stroke="#000000" d="M790.6823,-1308.1812C829.222,-1270.8852 862,-1223.2256 862,-1169 862,-1169 862,-1169 862,-484 862,-417.5758 810.2539,-361.2893 762.0976,-323.2896"/>
<polygon fill="#000000" stroke="#000000" points="764.1526,-320.4544 754.0979,-317.1146 759.8753,-325.9956 764.1526,-320.4544"/>
<text text-anchor="middle" x="907" y="-776.8" font-family="Times,serif" font-size="14.00" fill="#000000">has_concept</text>
</g>
<!-- relationship&#45;&gt;node -->
<g id="edge17" class="edge">
<title>relationship&#45;&gt;node</title>
<path fill="none" stroke="#000000" d="M599.1438,-1301.1935C596.3759,-1295.2113 593.9535,-1289.1262 592,-1283 589.6324,-1275.5751 587.9694,-1267.7373 586.8503,-1259.7893"/>
<polygon fill="#000000" stroke="#000000" points="590.3096,-1259.2307 585.7117,-1249.6857 583.3537,-1260.0147 590.3096,-1259.2307"/>
<text text-anchor="middle" x="619.5" y="-1271.8" font-family="Times,serif" font-size="14.00" fill="#000000">has_dst</text>
</g>
<!-- relationship&#45;&gt;node -->
<g id="edge19" class="edge">
<title>relationship&#45;&gt;node</title>
<path fill="none" stroke="#000000" d="M656.5941,-1301.388C653.9694,-1289.9892 650.8064,-1278.6199 647,-1268 645.9007,-1264.9329 644.7104,-1261.8498 643.4455,-1258.7657"/>
<polygon fill="#000000" stroke="#000000" points="646.6293,-1257.31 639.4432,-1249.5248 640.2059,-1260.0921 646.6293,-1257.31"/>
<text text-anchor="middle" x="678.5" y="-1271.8" font-family="Times,serif" font-size="14.00" fill="#000000">has_src</text>
</g>
<!-- relationship&#45;&gt;tag -->
<g id="edge8" class="edge">
<title>relationship&#45;&gt;tag</title>
<path fill="none" stroke="#000000" d="M547.4613,-1378.0486C354.5859,-1350.0899 0,-1283.165 0,-1169 0,-1169 0,-1169 0,-271 0,-204.8092 54.9861,-151.8709 106.2592,-116.8957"/>
<polygon fill="#000000" stroke="#000000" points="108.3948,-119.6786 114.7777,-111.2223 104.5146,-113.8525 108.3948,-119.6786"/>
<text text-anchor="middle" x="28" y="-681.8" font-family="Times,serif" font-size="14.00" fill="#000000">has_tag</text>
</g>
<!-- relationship&#45;&gt;property -->
<g id="edge14" class="edge">
<title>relationship&#45;&gt;property</title>
<path fill="none" stroke="#000000" d="M705.9065,-1301.3234C707.5216,-1295.1854 708.9152,-1289.042 710,-1283 716.0941,-1249.0573 763.2715,-1246.259 690,-1055 688.8129,-1051.9013 687.5327,-1048.8117 686.1701,-1045.7364"/>
<polygon fill="#000000" stroke="#000000" points="689.2746,-1044.1137 681.846,-1036.5595 682.9423,-1047.0975 689.2746,-1044.1137"/>
<text text-anchor="middle" x="777.5" y="-1165.3" font-family="Times,serif" font-size="14.00" fill="#000000">has_property</text>
</g>
</g>
</svg>
