<?xml version="1.0" encoding="UTF-8" standalone="no"?>
<!DOCTYPE svg PUBLIC "-//W3C//DTD SVG 1.1//EN"
 "http://www.w3.org/Graphics/SVG/1.1/DTD/svg11.dtd">
<!-- Generated by graphviz version 2.40.1 (20161225.0304)
 -->
<!-- Title: Perl Pages: 1 -->
<svg width="825pt" height="1129pt"
 viewBox="0.00 0.00 825.38 1129.00" xmlns="http://www.w3.org/2000/svg" xmlns:xlink="http://www.w3.org/1999/xlink">
<g id="graph0" class="graph" transform="scale(1 1) rotate(0) translate(4 1125)">
<title>Perl</title>
<polygon fill="#ffffff" stroke="transparent" points="-4,4 -4,-1125 821.3823,-1125 821.3823,4 -4,4"/>
<!-- value_set -->
<g id="node1" class="node">
<title>value_set</title>
<path fill="none" stroke="#000000" d="M165.0234,-461.5C165.0234,-461.5 302.21,-461.5 302.21,-461.5 308.21,-461.5 314.21,-467.5 314.21,-473.5 314.21,-473.5 314.21,-537.5 314.21,-537.5 314.21,-543.5 308.21,-549.5 302.21,-549.5 302.21,-549.5 165.0234,-549.5 165.0234,-549.5 159.0234,-549.5 153.0234,-543.5 153.0234,-537.5 153.0234,-537.5 153.0234,-473.5 153.0234,-473.5 153.0234,-467.5 159.0234,-461.5 165.0234,-461.5"/>
<text text-anchor="middle" x="187.458" y="-501.3" font-family="Times,serif" font-size="14.00" fill="#000000">value_set</text>
<polyline fill="none" stroke="#000000" points="221.8926,-461.5 221.8926,-549.5 "/>
<text text-anchor="middle" x="231.6426" y="-501.3" font-family="Times,serif" font-size="14.00" fill="#000000"> </text>
<polyline fill="none" stroke="#000000" points="241.3926,-461.5 241.3926,-549.5 "/>
<text text-anchor="middle" x="268.0513" y="-534.3" font-family="Times,serif" font-size="14.00" fill="#000000">desc</text>
<polyline fill="none" stroke="#000000" points="241.3926,-527.5 294.71,-527.5 "/>
<text text-anchor="middle" x="268.0513" y="-512.3" font-family="Times,serif" font-size="14.00" fill="#000000">handle</text>
<polyline fill="none" stroke="#000000" points="241.3926,-505.5 294.71,-505.5 "/>
<text text-anchor="middle" x="268.0513" y="-490.3" font-family="Times,serif" font-size="14.00" fill="#000000">id</text>
<polyline fill="none" stroke="#000000" points="241.3926,-483.5 294.71,-483.5 "/>
<text text-anchor="middle" x="268.0513" y="-468.3" font-family="Times,serif" font-size="14.00" fill="#000000">url</text>
<polyline fill="none" stroke="#000000" points="294.71,-461.5 294.71,-549.5 "/>
<text text-anchor="middle" x="304.46" y="-501.3" font-family="Times,serif" font-size="14.00" fill="#000000"> </text>
</g>
<!-- origin -->
<g id="node3" class="node">
<title>origin</title>
<path fill="none" stroke="#000000" d="M69.6855,-139.5C69.6855,-139.5 211.5478,-139.5 211.5478,-139.5 217.5478,-139.5 223.5478,-145.5 223.5478,-151.5 223.5478,-151.5 223.5478,-237.5 223.5478,-237.5 223.5478,-243.5 217.5478,-249.5 211.5478,-249.5 211.5478,-249.5 69.6855,-249.5 69.6855,-249.5 63.6855,-249.5 57.6855,-243.5 57.6855,-237.5 57.6855,-237.5 57.6855,-151.5 57.6855,-151.5 57.6855,-145.5 63.6855,-139.5 69.6855,-139.5"/>
<text text-anchor="middle" x="82.4062" y="-190.3" font-family="Times,serif" font-size="14.00" fill="#000000">origin</text>
<polyline fill="none" stroke="#000000" points="107.1269,-139.5 107.1269,-249.5 "/>
<text text-anchor="middle" x="116.8769" y="-190.3" font-family="Times,serif" font-size="14.00" fill="#000000"> </text>
<polyline fill="none" stroke="#000000" points="126.6269,-139.5 126.6269,-249.5 "/>
<text text-anchor="middle" x="165.3374" y="-234.3" font-family="Times,serif" font-size="14.00" fill="#000000">desc</text>
<polyline fill="none" stroke="#000000" points="126.6269,-227.5 204.0478,-227.5 "/>
<text text-anchor="middle" x="165.3374" y="-212.3" font-family="Times,serif" font-size="14.00" fill="#000000">id</text>
<polyline fill="none" stroke="#000000" points="126.6269,-205.5 204.0478,-205.5 "/>
<text text-anchor="middle" x="165.3374" y="-190.3" font-family="Times,serif" font-size="14.00" fill="#000000">is_external</text>
<polyline fill="none" stroke="#000000" points="126.6269,-183.5 204.0478,-183.5 "/>
<text text-anchor="middle" x="165.3374" y="-168.3" font-family="Times,serif" font-size="14.00" fill="#000000">name</text>
<polyline fill="none" stroke="#000000" points="126.6269,-161.5 204.0478,-161.5 "/>
<text text-anchor="middle" x="165.3374" y="-146.3" font-family="Times,serif" font-size="14.00" fill="#000000">url</text>
<polyline fill="none" stroke="#000000" points="204.0478,-139.5 204.0478,-249.5 "/>
<text text-anchor="middle" x="213.7978" y="-190.3" font-family="Times,serif" font-size="14.00" fill="#000000"> </text>
</g>
<!-- value_set&#45;&gt;origin -->
<g id="edge12" class="edge">
<title>value_set&#45;&gt;origin</title>
<path fill="none" stroke="#000000" d="M152.9439,-478.9834C121.4276,-464.2214 88.5704,-442.3312 70.5132,-411 45.8791,-368.2573 56.2528,-347.2273 70.5132,-300 74.8673,-285.5801 81.9101,-271.3239 89.8911,-258.1762"/>
<polygon fill="#000000" stroke="#000000" points="92.8616,-260.0273 95.2525,-249.7057 86.9468,-256.2835 92.8616,-260.0273"/>
<text text-anchor="middle" x="100.1685" y="-351.3" font-family="Times,serif" font-size="14.00" fill="#000000">has_origin</text>
</g>
<!-- tag -->
<g id="node4" class="node">
<title>tag</title>
<path fill="none" stroke="#000000" d="M414.4062,-.5C414.4062,-.5 508.8271,-.5 508.8271,-.5 514.8271,-.5 520.8271,-6.5 520.8271,-12.5 520.8271,-12.5 520.8271,-76.5 520.8271,-76.5 520.8271,-82.5 514.8271,-88.5 508.8271,-88.5 508.8271,-88.5 414.4062,-88.5 414.4062,-88.5 408.4062,-88.5 402.4062,-82.5 402.4062,-76.5 402.4062,-76.5 402.4062,-12.5 402.4062,-12.5 402.4062,-6.5 408.4062,-.5 414.4062,-.5"/>
<text text-anchor="middle" x="418.958" y="-40.3" font-family="Times,serif" font-size="14.00" fill="#000000">tag</text>
<polyline fill="none" stroke="#000000" points="435.5098,-.5 435.5098,-88.5 "/>
<text text-anchor="middle" x="445.2598" y="-40.3" font-family="Times,serif" font-size="14.00" fill="#000000"> </text>
<polyline fill="none" stroke="#000000" points="455.0098,-.5 455.0098,-88.5 "/>
<text text-anchor="middle" x="478.1685" y="-73.3" font-family="Times,serif" font-size="14.00" fill="#000000">desc</text>
<polyline fill="none" stroke="#000000" points="455.0098,-66.5 501.3271,-66.5 "/>
<text text-anchor="middle" x="478.1685" y="-51.3" font-family="Times,serif" font-size="14.00" fill="#000000">id</text>
<polyline fill="none" stroke="#000000" points="455.0098,-44.5 501.3271,-44.5 "/>
<text text-anchor="middle" x="478.1685" y="-29.3" font-family="Times,serif" font-size="14.00" fill="#000000">key</text>
<polyline fill="none" stroke="#000000" points="455.0098,-22.5 501.3271,-22.5 "/>
<text text-anchor="middle" x="478.1685" y="-7.3" font-family="Times,serif" font-size="14.00" fill="#000000">value</text>
<polyline fill="none" stroke="#000000" points="501.3271,-.5 501.3271,-88.5 "/>
<text text-anchor="middle" x="511.0771" y="-40.3" font-family="Times,serif" font-size="14.00" fill="#000000"> </text>
</g>
<!-- value_set&#45;&gt;tag -->
<g id="edge14" class="edge">
<title>value_set&#45;&gt;tag</title>
<path fill="none" stroke="#000000" d="M153.0205,-487.7366C113.6423,-474.1814 70.8761,-450.7895 52.6167,-411 2.191,-301.1158 -32.2621,-228.866 48.6167,-139 93.7956,-88.8008 286.6695,-61.9945 392.101,-50.8506"/>
<polygon fill="#000000" stroke="#000000" points="392.7484,-54.3023 402.3339,-49.7892 392.0262,-47.3397 392.7484,-54.3023"/>
<text text-anchor="middle" x="24.9995" y="-270.8" font-family="Times,serif" font-size="14.00" fill="#000000">has_tag</text>
</g>
<!-- concept -->
<g id="node7" class="node">
<title>concept</title>
<path fill="none" stroke="#000000" d="M403.9131,-172.5C403.9131,-172.5 519.3203,-172.5 519.3203,-172.5 525.3203,-172.5 531.3203,-178.5 531.3203,-184.5 531.3203,-184.5 531.3203,-204.5 531.3203,-204.5 531.3203,-210.5 525.3203,-216.5 519.3203,-216.5 519.3203,-216.5 403.9131,-216.5 403.9131,-216.5 397.9131,-216.5 391.9131,-210.5 391.9131,-204.5 391.9131,-204.5 391.9131,-184.5 391.9131,-184.5 391.9131,-178.5 397.9131,-172.5 403.9131,-172.5"/>
<text text-anchor="middle" x="421.6787" y="-190.3" font-family="Times,serif" font-size="14.00" fill="#000000">concept</text>
<polyline fill="none" stroke="#000000" points="451.4443,-172.5 451.4443,-216.5 "/>
<text text-anchor="middle" x="461.1943" y="-190.3" font-family="Times,serif" font-size="14.00" fill="#000000"> </text>
<polyline fill="none" stroke="#000000" points="470.9443,-172.5 470.9443,-216.5 "/>
<text text-anchor="middle" x="491.3823" y="-201.3" font-family="Times,serif" font-size="14.00" fill="#000000">desc</text>
<polyline fill="none" stroke="#000000" points="470.9443,-194.5 511.8203,-194.5 "/>
<text text-anchor="middle" x="491.3823" y="-179.3" font-family="Times,serif" font-size="14.00" fill="#000000">id</text>
<polyline fill="none" stroke="#000000" points="511.8203,-172.5 511.8203,-216.5 "/>
<text text-anchor="middle" x="521.5703" y="-190.3" font-family="Times,serif" font-size="14.00" fill="#000000"> </text>
</g>
<!-- value_set&#45;&gt;concept -->
<g id="edge2" class="edge">
<title>value_set&#45;&gt;concept</title>
<path fill="none" stroke="#000000" d="M292.0791,-461.2809C308.4882,-446.6765 325.2144,-429.4131 337.6167,-411 366.9801,-367.4053 352.7636,-345.8724 378.4233,-300 393.8041,-272.5035 416.114,-244.6531 433.7594,-224.4768"/>
<polygon fill="#000000" stroke="#000000" points="436.4932,-226.6692 440.5126,-216.8664 431.2574,-222.0231 436.4932,-226.6692"/>
<text text-anchor="middle" x="412.2134" y="-351.3" font-family="Times,serif" font-size="14.00" fill="#000000">has_concept</text>
</g>
<!-- term -->
<g id="node8" class="node">
<title>term</title>
<path fill="none" stroke="#000000" d="M150.2339,-300.5C150.2339,-300.5 316.9995,-300.5 316.9995,-300.5 322.9995,-300.5 328.9995,-306.5 328.9995,-312.5 328.9995,-312.5 328.9995,-398.5 328.9995,-398.5 328.9995,-404.5 322.9995,-410.5 316.9995,-410.5 316.9995,-410.5 150.2339,-410.5 150.2339,-410.5 144.2339,-410.5 138.2339,-404.5 138.2339,-398.5 138.2339,-398.5 138.2339,-312.5 138.2339,-312.5 138.2339,-306.5 144.2339,-300.5 150.2339,-300.5"/>
<text text-anchor="middle" x="159.0615" y="-351.3" font-family="Times,serif" font-size="14.00" fill="#000000">term</text>
<polyline fill="none" stroke="#000000" points="179.8892,-300.5 179.8892,-410.5 "/>
<text text-anchor="middle" x="189.6392" y="-351.3" font-family="Times,serif" font-size="14.00" fill="#000000"> </text>
<polyline fill="none" stroke="#000000" points="199.3892,-300.5 199.3892,-410.5 "/>
<text text-anchor="middle" x="254.4443" y="-395.3" font-family="Times,serif" font-size="14.00" fill="#000000">desc</text>
<polyline fill="none" stroke="#000000" points="199.3892,-388.5 309.4995,-388.5 "/>
<text text-anchor="middle" x="254.4443" y="-373.3" font-family="Times,serif" font-size="14.00" fill="#000000">id</text>
<polyline fill="none" stroke="#000000" points="199.3892,-366.5 309.4995,-366.5 "/>
<text text-anchor="middle" x="254.4443" y="-351.3" font-family="Times,serif" font-size="14.00" fill="#000000">origin_definition</text>
<polyline fill="none" stroke="#000000" points="199.3892,-344.5 309.4995,-344.5 "/>
<text text-anchor="middle" x="254.4443" y="-329.3" font-family="Times,serif" font-size="14.00" fill="#000000">origin_id</text>
<polyline fill="none" stroke="#000000" points="199.3892,-322.5 309.4995,-322.5 "/>
<text text-anchor="middle" x="254.4443" y="-307.3" font-family="Times,serif" font-size="14.00" fill="#000000">value</text>
<polyline fill="none" stroke="#000000" points="309.4995,-300.5 309.4995,-410.5 "/>
<text text-anchor="middle" x="319.2495" y="-351.3" font-family="Times,serif" font-size="14.00" fill="#000000"> </text>
</g>
<!-- value_set&#45;&gt;term -->
<g id="edge10" class="edge">
<title>value_set&#45;&gt;term</title>
<path fill="none" stroke="#000000" d="M233.6167,-461.3064C233.6167,-448.6352 233.6167,-434.5442 233.6167,-420.8857"/>
<polygon fill="#000000" stroke="#000000" points="237.1168,-420.5558 233.6167,-410.5559 230.1168,-420.5559 237.1168,-420.5558"/>
<text text-anchor="middle" x="259.2754" y="-431.8" font-family="Times,serif" font-size="14.00" fill="#000000">has_term</text>
</g>
<!-- property -->
<g id="node2" class="node">
<title>property</title>
<path fill="none" stroke="#000000" d="M295.7476,-600.5C295.7476,-600.5 469.4858,-600.5 469.4858,-600.5 475.4858,-600.5 481.4858,-606.5 481.4858,-612.5 481.4858,-612.5 481.4858,-764.5 481.4858,-764.5 481.4858,-770.5 475.4858,-776.5 469.4858,-776.5 469.4858,-776.5 295.7476,-776.5 295.7476,-776.5 289.7476,-776.5 283.7476,-770.5 283.7476,-764.5 283.7476,-764.5 283.7476,-612.5 283.7476,-612.5 283.7476,-606.5 289.7476,-600.5 295.7476,-600.5"/>
<text text-anchor="middle" x="315.4614" y="-684.3" font-family="Times,serif" font-size="14.00" fill="#000000">property</text>
<polyline fill="none" stroke="#000000" points="347.1753,-600.5 347.1753,-776.5 "/>
<text text-anchor="middle" x="356.9253" y="-684.3" font-family="Times,serif" font-size="14.00" fill="#000000"> </text>
<polyline fill="none" stroke="#000000" points="366.6753,-600.5 366.6753,-776.5 "/>
<text text-anchor="middle" x="414.3306" y="-761.3" font-family="Times,serif" font-size="14.00" fill="#000000">desc</text>
<polyline fill="none" stroke="#000000" points="366.6753,-754.5 461.9858,-754.5 "/>
<text text-anchor="middle" x="414.3306" y="-739.3" font-family="Times,serif" font-size="14.00" fill="#000000">handle</text>
<polyline fill="none" stroke="#000000" points="366.6753,-732.5 461.9858,-732.5 "/>
<text text-anchor="middle" x="414.3306" y="-717.3" font-family="Times,serif" font-size="14.00" fill="#000000">id</text>
<polyline fill="none" stroke="#000000" points="366.6753,-710.5 461.9858,-710.5 "/>
<text text-anchor="middle" x="414.3306" y="-695.3" font-family="Times,serif" font-size="14.00" fill="#000000">is_required</text>
<polyline fill="none" stroke="#000000" points="366.6753,-688.5 461.9858,-688.5 "/>
<text text-anchor="middle" x="414.3306" y="-673.3" font-family="Times,serif" font-size="14.00" fill="#000000">model</text>
<polyline fill="none" stroke="#000000" points="366.6753,-666.5 461.9858,-666.5 "/>
<text text-anchor="middle" x="414.3306" y="-651.3" font-family="Times,serif" font-size="14.00" fill="#000000">pattern</text>
<polyline fill="none" stroke="#000000" points="366.6753,-644.5 461.9858,-644.5 "/>
<text text-anchor="middle" x="414.3306" y="-629.3" font-family="Times,serif" font-size="14.00" fill="#000000">units</text>
<polyline fill="none" stroke="#000000" points="366.6753,-622.5 461.9858,-622.5 "/>
<text text-anchor="middle" x="414.3306" y="-607.3" font-family="Times,serif" font-size="14.00" fill="#000000">value_domain</text>
<polyline fill="none" stroke="#000000" points="461.9858,-600.5 461.9858,-776.5 "/>
<text text-anchor="middle" x="471.7358" y="-684.3" font-family="Times,serif" font-size="14.00" fill="#000000"> </text>
</g>
<!-- property&#45;&gt;value_set -->
<g id="edge20" class="edge">
<title>property&#45;&gt;value_set</title>
<path fill="none" stroke="#000000" d="M310.9535,-600.4841C299.0995,-585.9252 287.1497,-571.2486 276.3067,-557.9314"/>
<polygon fill="#000000" stroke="#000000" points="278.7373,-555.3732 269.7092,-549.8284 273.309,-559.7929 278.7373,-555.3732"/>
<text text-anchor="middle" x="333.8823" y="-570.8" font-family="Times,serif" font-size="14.00" fill="#000000">has_value_set</text>
</g>
<!-- property&#45;&gt;tag -->
<g id="edge15" class="edge">
<title>property&#45;&gt;tag</title>
<path fill="none" stroke="#000000" d="M481.6408,-640.4387C516.3407,-618.117 551.4174,-587.9909 570.6167,-550 579.8781,-531.6738 563.352,-193.5945 540.6167,-139 534.3535,-123.9601 524.8212,-109.5023 514.5203,-96.6122"/>
<polygon fill="#000000" stroke="#000000" points="517.1115,-94.254 508.0296,-88.7977 511.7267,-98.7266 517.1115,-94.254"/>
<text text-anchor="middle" x="590.9995" y="-351.3" font-family="Times,serif" font-size="14.00" fill="#000000">has_tag</text>
</g>
<!-- property&#45;&gt;concept -->
<g id="edge3" class="edge">
<title>property&#45;&gt;concept</title>
<path fill="none" stroke="#000000" d="M385.8398,-600.2297C389.6926,-536.2855 398.1074,-456.4451 416.4233,-429 425.3085,-415.6862 439.1687,-424.5953 447.6167,-411 482.9525,-354.1344 475.9679,-271.8613 468.3966,-226.8784"/>
<polygon fill="#000000" stroke="#000000" points="471.8009,-226.0335 466.5858,-216.811 464.9114,-227.2727 471.8009,-226.0335"/>
<text text-anchor="middle" x="450.2134" y="-431.8" font-family="Times,serif" font-size="14.00" fill="#000000">has_concept</text>
</g>
<!-- origin&#45;&gt;tag -->
<g id="edge19" class="edge">
<title>origin&#45;&gt;tag</title>
<path fill="none" stroke="#000000" d="M170.9018,-139.143C179.7892,-127.0347 190.4989,-115.3562 202.8511,-107 233.4361,-86.3094 326.6622,-67.0971 392.4105,-55.5793"/>
<polygon fill="#000000" stroke="#000000" points="393.0496,-59.0208 402.3066,-53.8672 391.8563,-52.1233 393.0496,-59.0208"/>
<text text-anchor="middle" x="223.9995" y="-109.8" font-family="Times,serif" font-size="14.00" fill="#000000">has_tag</text>
</g>
<!-- relationship -->
<g id="node5" class="node">
<title>relationship</title>
<path fill="none" stroke="#000000" d="M540.4028,-988.5C540.4028,-988.5 718.8306,-988.5 718.8306,-988.5 724.8306,-988.5 730.8306,-994.5 730.8306,-1000.5 730.8306,-1000.5 730.8306,-1108.5 730.8306,-1108.5 730.8306,-1114.5 724.8306,-1120.5 718.8306,-1120.5 718.8306,-1120.5 540.4028,-1120.5 540.4028,-1120.5 534.4028,-1120.5 528.4028,-1114.5 528.4028,-1108.5 528.4028,-1108.5 528.4028,-1000.5 528.4028,-1000.5 528.4028,-994.5 534.4028,-988.5 540.4028,-988.5"/>
<text text-anchor="middle" x="569.4512" y="-1050.3" font-family="Times,serif" font-size="14.00" fill="#000000">relationship</text>
<polyline fill="none" stroke="#000000" points="610.4995,-988.5 610.4995,-1120.5 "/>
<text text-anchor="middle" x="620.2495" y="-1050.3" font-family="Times,serif" font-size="14.00" fill="#000000"> </text>
<polyline fill="none" stroke="#000000" points="629.9995,-988.5 629.9995,-1120.5 "/>
<text text-anchor="middle" x="670.665" y="-1105.3" font-family="Times,serif" font-size="14.00" fill="#000000">desc</text>
<polyline fill="none" stroke="#000000" points="629.9995,-1098.5 711.3306,-1098.5 "/>
<text text-anchor="middle" x="670.665" y="-1083.3" font-family="Times,serif" font-size="14.00" fill="#000000">handle</text>
<polyline fill="none" stroke="#000000" points="629.9995,-1076.5 711.3306,-1076.5 "/>
<text text-anchor="middle" x="670.665" y="-1061.3" font-family="Times,serif" font-size="14.00" fill="#000000">id</text>
<polyline fill="none" stroke="#000000" points="629.9995,-1054.5 711.3306,-1054.5 "/>
<text text-anchor="middle" x="670.665" y="-1039.3" font-family="Times,serif" font-size="14.00" fill="#000000">is_required</text>
<polyline fill="none" stroke="#000000" points="629.9995,-1032.5 711.3306,-1032.5 "/>
<text text-anchor="middle" x="670.665" y="-1017.3" font-family="Times,serif" font-size="14.00" fill="#000000">model</text>
<polyline fill="none" stroke="#000000" points="629.9995,-1010.5 711.3306,-1010.5 "/>
<text text-anchor="middle" x="670.665" y="-995.3" font-family="Times,serif" font-size="14.00" fill="#000000">multiplicity</text>
<polyline fill="none" stroke="#000000" points="711.3306,-988.5 711.3306,-1120.5 "/>
<text text-anchor="middle" x="721.0806" y="-1050.3" font-family="Times,serif" font-size="14.00" fill="#000000"> </text>
</g>
<!-- relationship&#45;&gt;property -->
<g id="edge7" class="edge">
<title>relationship&#45;&gt;property</title>
<path fill="none" stroke="#000000" d="M528.2525,-1024.8601C484.6698,-1006.8434 437.423,-979.1542 409.5268,-938 379.8536,-894.2242 372.2703,-835.866 372.4997,-786.5969"/>
<polygon fill="#000000" stroke="#000000" points="375.9999,-786.6036 372.6537,-776.5511 369.0008,-786.4962 375.9999,-786.6036"/>
<text text-anchor="middle" x="445.1616" y="-878.3" font-family="Times,serif" font-size="14.00" fill="#000000">has_property</text>
</g>
<!-- relationship&#45;&gt;tag -->
<g id="edge13" class="edge">
<title>relationship&#45;&gt;tag</title>
<path fill="none" stroke="#000000" d="M721.4474,-988.373C750.2236,-959.8132 774.6167,-923.5091 774.6167,-882.5 774.6167,-882.5 774.6167,-882.5 774.6167,-194.5 774.6167,-140.7935 622.8602,-89.1528 530.6858,-62.7404"/>
<polygon fill="#000000" stroke="#000000" points="531.433,-59.3143 520.8576,-59.9548 529.5242,-66.0491 531.433,-59.3143"/>
<text text-anchor="middle" x="795.9995" y="-501.3" font-family="Times,serif" font-size="14.00" fill="#000000">has_tag</text>
</g>
<!-- node -->
<g id="node6" class="node">
<title>node</title>
<path fill="none" stroke="#000000" d="M503.4131,-827.5C503.4131,-827.5 625.8203,-827.5 625.8203,-827.5 631.8203,-827.5 637.8203,-833.5 637.8203,-839.5 637.8203,-839.5 637.8203,-925.5 637.8203,-925.5 637.8203,-931.5 631.8203,-937.5 625.8203,-937.5 625.8203,-937.5 503.4131,-937.5 503.4131,-937.5 497.4131,-937.5 491.4131,-931.5 491.4131,-925.5 491.4131,-925.5 491.4131,-839.5 491.4131,-839.5 491.4131,-833.5 497.4131,-827.5 503.4131,-827.5"/>
<text text-anchor="middle" x="513.02" y="-878.3" font-family="Times,serif" font-size="14.00" fill="#000000">node</text>
<polyline fill="none" stroke="#000000" points="534.6269,-827.5 534.6269,-937.5 "/>
<text text-anchor="middle" x="544.3769" y="-878.3" font-family="Times,serif" font-size="14.00" fill="#000000"> </text>
<polyline fill="none" stroke="#000000" points="554.1269,-827.5 554.1269,-937.5 "/>
<text text-anchor="middle" x="586.2236" y="-922.3" font-family="Times,serif" font-size="14.00" fill="#000000">category</text>
<polyline fill="none" stroke="#000000" points="554.1269,-915.5 618.3203,-915.5 "/>
<text text-anchor="middle" x="586.2236" y="-900.3" font-family="Times,serif" font-size="14.00" fill="#000000">desc</text>
<polyline fill="none" stroke="#000000" points="554.1269,-893.5 618.3203,-893.5 "/>
<text text-anchor="middle" x="586.2236" y="-878.3" font-family="Times,serif" font-size="14.00" fill="#000000">handle</text>
<polyline fill="none" stroke="#000000" points="554.1269,-871.5 618.3203,-871.5 "/>
<text text-anchor="middle" x="586.2236" y="-856.3" font-family="Times,serif" font-size="14.00" fill="#000000">id</text>
<polyline fill="none" stroke="#000000" points="554.1269,-849.5 618.3203,-849.5 "/>
<text text-anchor="middle" x="586.2236" y="-834.3" font-family="Times,serif" font-size="14.00" fill="#000000">model</text>
<polyline fill="none" stroke="#000000" points="618.3203,-827.5 618.3203,-937.5 "/>
<text text-anchor="middle" x="628.0703" y="-878.3" font-family="Times,serif" font-size="14.00" fill="#000000"> </text>
</g>
<!-- relationship&#45;&gt;node -->
<g id="edge5" class="edge">
<title>relationship&#45;&gt;node</title>
<path fill="none" stroke="#000000" d="M617.8442,-988.4778C615.0384,-977.4561 611.6552,-966.2736 607.6167,-956 606.4268,-952.9731 605.1239,-949.9235 603.7361,-946.8777"/>
<polygon fill="#000000" stroke="#000000" points="606.8435,-945.2638 599.3465,-937.7775 600.5387,-948.305 606.8435,-945.2638"/>
<text text-anchor="middle" x="632.6099" y="-958.8" font-family="Times,serif" font-size="14.00" fill="#000000">has_src</text>
</g>
<!-- relationship&#45;&gt;node -->
<g id="edge6" class="edge">
<title>relationship&#45;&gt;node</title>
<path fill="none" stroke="#000000" d="M570.1219,-988.4564C566.7517,-982.4859 563.8385,-976.3048 561.6167,-970 559.1227,-962.9228 557.7022,-955.3213 557.0338,-947.6608"/>
<polygon fill="#000000" stroke="#000000" points="560.5265,-947.4203 556.5614,-937.5954 553.5342,-947.7485 560.5265,-947.4203"/>
<text text-anchor="middle" x="582.6167" y="-958.8" font-family="Times,serif" font-size="14.00" fill="#000000">has_dst</text>
</g>
<!-- relationship&#45;&gt;concept -->
<g id="edge4" class="edge">
<title>relationship&#45;&gt;concept</title>
<path fill="none" stroke="#000000" d="M664.924,-988.195C678.4139,-957.0117 690.6167,-918.7775 690.6167,-882.5 690.6167,-882.5 690.6167,-882.5 690.6167,-355.5 690.6167,-280.4596 607.309,-237.3703 541.1875,-214.9884"/>
<polygon fill="#000000" stroke="#000000" points="542.1613,-211.6244 531.5686,-211.8351 539.9807,-218.2761 542.1613,-211.6244"/>
<text text-anchor="middle" x="725.2134" y="-570.8" font-family="Times,serif" font-size="14.00" fill="#000000">has_concept</text>
</g>
<!-- node&#45;&gt;property -->
<g id="edge8" class="edge">
<title>node&#45;&gt;property</title>
<path fill="none" stroke="#000000" d="M491.1481,-841.6614C481.6067,-836.6125 471.9191,-831.6108 462.6167,-827 445.1171,-818.3262 435.6142,-823.498 422.5268,-809 416.225,-802.0189 410.9151,-794.0167 406.4416,-785.5278"/>
<polygon fill="#000000" stroke="#000000" points="409.5894,-783.9975 402.0759,-776.5277 403.2912,-787.0526 409.5894,-783.9975"/>
<text text-anchor="middle" x="458.1616" y="-797.8" font-family="Times,serif" font-size="14.00" fill="#000000">has_property</text>
</g>
<!-- node&#45;&gt;tag -->
<g id="edge17" class="edge">
<title>node&#45;&gt;tag</title>
<path fill="none" stroke="#000000" d="M595.0367,-827.4091C613.142,-789.517 632.6167,-737.3948 632.6167,-688.5 632.6167,-688.5 632.6167,-688.5 632.6167,-194.5 632.6167,-137.181 577.647,-96.6398 530.0404,-72.277"/>
<polygon fill="#000000" stroke="#000000" points="531.4584,-69.0735 520.9443,-67.768 528.3494,-75.3452 531.4584,-69.0735"/>
<text text-anchor="middle" x="653.9995" y="-431.8" font-family="Times,serif" font-size="14.00" fill="#000000">has_tag</text>
</g>
<!-- node&#45;&gt;concept -->
<g id="edge1" class="edge">
<title>node&#45;&gt;concept</title>
<path fill="none" stroke="#000000" d="M561.005,-827.2292C553.1576,-718.8561 531.4493,-471.2991 485.6167,-268 482.4953,-254.1543 477.8581,-239.2075 473.4898,-226.4311"/>
<polygon fill="#000000" stroke="#000000" points="476.693,-224.9887 470.0783,-216.7125 470.0881,-227.3073 476.693,-224.9887"/>
<text text-anchor="middle" x="567.2134" y="-501.3" font-family="Times,serif" font-size="14.00" fill="#000000">has_concept</text>
</g>
<!-- concept&#45;&gt;tag -->
<g id="edge16" class="edge">
<title>concept&#45;&gt;tag</title>
<path fill="none" stroke="#000000" d="M461.6167,-172.367C461.6167,-153.0997 461.6167,-124.3613 461.6167,-99.0071"/>
<polygon fill="#000000" stroke="#000000" points="465.1168,-98.7537 461.6167,-88.7537 458.1168,-98.7538 465.1168,-98.7537"/>
<text text-anchor="middle" x="482.9995" y="-109.8" font-family="Times,serif" font-size="14.00" fill="#000000">has_tag</text>
</g>
<!-- term&#45;&gt;origin -->
<g id="edge11" class="edge">
<title>term&#45;&gt;origin</title>
<path fill="none" stroke="#000000" d="M197.6016,-300.4346C193.7818,-294.2621 190.0166,-288.0276 186.5132,-282 182.1291,-274.4572 177.6754,-266.4578 173.3529,-258.481"/>
<polygon fill="#000000" stroke="#000000" points="176.3515,-256.6667 168.5391,-249.5101 170.1834,-259.9766 176.3515,-256.6667"/>
<text text-anchor="middle" x="215.1685" y="-270.8" font-family="Times,serif" font-size="14.00" fill="#000000">has_origin</text>
</g>
<!-- term&#45;&gt;tag -->
<g id="edge18" class="edge">
<title>term&#45;&gt;tag</title>
<path fill="none" stroke="#000000" d="M252.5985,-300.3914C270.3376,-254.0948 300.0591,-187.8573 339.8511,-139 355.2288,-120.1189 375.06,-102.7203 394.2354,-88.136"/>
<polygon fill="#000000" stroke="#000000" points="396.4652,-90.8394 402.3984,-82.0617 392.2863,-85.2236 396.4652,-90.8394"/>
<text text-anchor="middle" x="360.9995" y="-190.3" font-family="Times,serif" font-size="14.00" fill="#000000">has_tag</text>
</g>
<!-- term&#45;&gt;concept -->
<g id="edge9" class="edge">
<title>term&#45;&gt;concept</title>
<path fill="none" stroke="#000000" d="M264.7318,-300.2512C273.1018,-288.5635 282.9151,-277.044 293.8647,-268 319.6359,-246.7138 352.5287,-230.5157 382.3487,-218.8162"/>
<polygon fill="#000000" stroke="#000000" points="383.8101,-222.005 391.9096,-215.175 381.3187,-215.4633 383.8101,-222.005"/>
<text text-anchor="middle" x="321.9927" y="-270.8" font-family="Times,serif" font-size="14.00" fill="#000000">represents</text>
</g>
</g>
</svg>
