<?xml version="1.0" encoding="UTF-8" standalone="no"?>
<!DOCTYPE svg PUBLIC "-//W3C//DTD SVG 1.1//EN"
 "http://www.w3.org/Graphics/SVG/1.1/DTD/svg11.dtd">
<!-- Generated by graphviz version 2.40.1 (20161225.0304)
 -->
<!-- Title: Perl Pages: 1 -->
<svg width="937pt" height="1494pt"
 viewBox="0.00 0.00 937.00 1494.00" xmlns="http://www.w3.org/2000/svg" xmlns:xlink="http://www.w3.org/1999/xlink">
<g id="graph0" class="graph" transform="scale(1 1) rotate(0) translate(4 1490)">
<title>Perl</title>
<polygon fill="#ffffff" stroke="transparent" points="-4,4 -4,-1490 933,-1490 933,4 -4,4"/>
<!-- term -->
<g id="node1" class="node">
<title>term</title>
<path fill="none" stroke="#000000" d="M363.5,-403.5C363.5,-403.5 566.5,-403.5 566.5,-403.5 572.5,-403.5 578.5,-409.5 578.5,-415.5 578.5,-415.5 578.5,-552.5 578.5,-552.5 578.5,-558.5 572.5,-564.5 566.5,-564.5 566.5,-564.5 363.5,-564.5 363.5,-564.5 357.5,-564.5 351.5,-558.5 351.5,-552.5 351.5,-552.5 351.5,-415.5 351.5,-415.5 351.5,-409.5 357.5,-403.5 363.5,-403.5"/>
<text text-anchor="middle" x="377" y="-480.3" font-family="Times,serif" font-size="14.00" fill="#000000">term</text>
<polyline fill="none" stroke="#000000" points="402.5,-403.5 402.5,-564.5 "/>
<text text-anchor="middle" x="413" y="-480.3" font-family="Times,serif" font-size="14.00" fill="#000000"> </text>
<polyline fill="none" stroke="#000000" points="423.5,-403.5 423.5,-564.5 "/>
<text text-anchor="middle" x="490.5" y="-549.3" font-family="Times,serif" font-size="14.00" fill="#000000">desc</text>
<polyline fill="none" stroke="#000000" points="423.5,-541.5 557.5,-541.5 "/>
<text text-anchor="middle" x="490.5" y="-526.3" font-family="Times,serif" font-size="14.00" fill="#000000">id</text>
<polyline fill="none" stroke="#000000" points="423.5,-518.5 557.5,-518.5 "/>
<text text-anchor="middle" x="490.5" y="-503.3" font-family="Times,serif" font-size="14.00" fill="#000000">nanoid6</text>
<polyline fill="none" stroke="#000000" points="423.5,-495.5 557.5,-495.5 "/>
<text text-anchor="middle" x="490.5" y="-480.3" font-family="Times,serif" font-size="14.00" fill="#000000">nanoid8</text>
<polyline fill="none" stroke="#000000" points="423.5,-472.5 557.5,-472.5 "/>
<text text-anchor="middle" x="490.5" y="-457.3" font-family="Times,serif" font-size="14.00" fill="#000000">origin_definition</text>
<polyline fill="none" stroke="#000000" points="423.5,-449.5 557.5,-449.5 "/>
<text text-anchor="middle" x="490.5" y="-434.3" font-family="Times,serif" font-size="14.00" fill="#000000">origin_id</text>
<polyline fill="none" stroke="#000000" points="423.5,-426.5 557.5,-426.5 "/>
<text text-anchor="middle" x="490.5" y="-411.3" font-family="Times,serif" font-size="14.00" fill="#000000">value</text>
<polyline fill="none" stroke="#000000" points="557.5,-403.5 557.5,-564.5 "/>
<text text-anchor="middle" x="568" y="-480.3" font-family="Times,serif" font-size="14.00" fill="#000000"> </text>
</g>
<!-- tag -->
<g id="node3" class="node">
<title>tag</title>
<path fill="none" stroke="#000000" d="M526,-.5C526,-.5 658,-.5 658,-.5 664,-.5 670,-6.5 670,-12.5 670,-12.5 670,-126.5 670,-126.5 670,-132.5 664,-138.5 658,-138.5 658,-138.5 526,-138.5 526,-138.5 520,-138.5 514,-132.5 514,-126.5 514,-126.5 514,-12.5 514,-12.5 514,-6.5 520,-.5 526,-.5"/>
<text text-anchor="middle" x="534" y="-65.8" font-family="Times,serif" font-size="14.00" fill="#000000">tag</text>
<polyline fill="none" stroke="#000000" points="554,-.5 554,-138.5 "/>
<text text-anchor="middle" x="564.5" y="-65.8" font-family="Times,serif" font-size="14.00" fill="#000000"> </text>
<polyline fill="none" stroke="#000000" points="575,-.5 575,-138.5 "/>
<text text-anchor="middle" x="612" y="-123.3" font-family="Times,serif" font-size="14.00" fill="#000000">desc</text>
<polyline fill="none" stroke="#000000" points="575,-115.5 649,-115.5 "/>
<text text-anchor="middle" x="612" y="-100.3" font-family="Times,serif" font-size="14.00" fill="#000000">id</text>
<polyline fill="none" stroke="#000000" points="575,-92.5 649,-92.5 "/>
<text text-anchor="middle" x="612" y="-77.3" font-family="Times,serif" font-size="14.00" fill="#000000">key</text>
<polyline fill="none" stroke="#000000" points="575,-69.5 649,-69.5 "/>
<text text-anchor="middle" x="612" y="-54.3" font-family="Times,serif" font-size="14.00" fill="#000000">nanoid6</text>
<polyline fill="none" stroke="#000000" points="575,-46.5 649,-46.5 "/>
<text text-anchor="middle" x="612" y="-31.3" font-family="Times,serif" font-size="14.00" fill="#000000">nanoid8</text>
<polyline fill="none" stroke="#000000" points="575,-23.5 649,-23.5 "/>
<text text-anchor="middle" x="612" y="-8.3" font-family="Times,serif" font-size="14.00" fill="#000000">value</text>
<polyline fill="none" stroke="#000000" points="649,-.5 649,-138.5 "/>
<text text-anchor="middle" x="659.5" y="-65.8" font-family="Times,serif" font-size="14.00" fill="#000000"> </text>
</g>
<!-- term&#45;&gt;tag -->
<g id="edge13" class="edge">
<title>term&#45;&gt;tag</title>
<path fill="none" stroke="#000000" d="M431.5233,-403.3435C411.3778,-341.7589 395.4821,-256.461 429,-190 445.4424,-157.3972 475.3326,-131.4278 505.0688,-112.0705"/>
<polygon fill="#000000" stroke="#000000" points="507.2636,-114.8244 513.8572,-106.5313 503.5311,-108.9025 507.2636,-114.8244"/>
<text text-anchor="middle" x="457" y="-267.3" font-family="Times,serif" font-size="14.00" fill="#000000">has_tag</text>
</g>
<!-- origin -->
<g id="node7" class="node">
<title>origin</title>
<path fill="none" stroke="#000000" d="M506,-190.5C506,-190.5 678,-190.5 678,-190.5 684,-190.5 690,-196.5 690,-202.5 690,-202.5 690,-339.5 690,-339.5 690,-345.5 684,-351.5 678,-351.5 678,-351.5 506,-351.5 506,-351.5 500,-351.5 494,-345.5 494,-339.5 494,-339.5 494,-202.5 494,-202.5 494,-196.5 500,-190.5 506,-190.5"/>
<text text-anchor="middle" x="523.5" y="-267.3" font-family="Times,serif" font-size="14.00" fill="#000000">origin</text>
<polyline fill="none" stroke="#000000" points="553,-190.5 553,-351.5 "/>
<text text-anchor="middle" x="563.5" y="-267.3" font-family="Times,serif" font-size="14.00" fill="#000000"> </text>
<polyline fill="none" stroke="#000000" points="574,-190.5 574,-351.5 "/>
<text text-anchor="middle" x="621.5" y="-336.3" font-family="Times,serif" font-size="14.00" fill="#000000">desc</text>
<polyline fill="none" stroke="#000000" points="574,-328.5 669,-328.5 "/>
<text text-anchor="middle" x="621.5" y="-313.3" font-family="Times,serif" font-size="14.00" fill="#000000">id</text>
<polyline fill="none" stroke="#000000" points="574,-305.5 669,-305.5 "/>
<text text-anchor="middle" x="621.5" y="-290.3" font-family="Times,serif" font-size="14.00" fill="#000000">is_external</text>
<polyline fill="none" stroke="#000000" points="574,-282.5 669,-282.5 "/>
<text text-anchor="middle" x="621.5" y="-267.3" font-family="Times,serif" font-size="14.00" fill="#000000">name</text>
<polyline fill="none" stroke="#000000" points="574,-259.5 669,-259.5 "/>
<text text-anchor="middle" x="621.5" y="-244.3" font-family="Times,serif" font-size="14.00" fill="#000000">nanoid6</text>
<polyline fill="none" stroke="#000000" points="574,-236.5 669,-236.5 "/>
<text text-anchor="middle" x="621.5" y="-221.3" font-family="Times,serif" font-size="14.00" fill="#000000">nanoid8</text>
<polyline fill="none" stroke="#000000" points="574,-213.5 669,-213.5 "/>
<text text-anchor="middle" x="621.5" y="-198.3" font-family="Times,serif" font-size="14.00" fill="#000000">url</text>
<polyline fill="none" stroke="#000000" points="669,-190.5 669,-351.5 "/>
<text text-anchor="middle" x="679.5" y="-267.3" font-family="Times,serif" font-size="14.00" fill="#000000"> </text>
</g>
<!-- term&#45;&gt;origin -->
<g id="edge20" class="edge">
<title>term&#45;&gt;origin</title>
<path fill="none" stroke="#000000" d="M506.8618,-403.4185C513.1056,-392.0991 519.5985,-380.6875 526,-370 527.9172,-366.7991 529.8925,-363.5571 531.908,-360.2956"/>
<polygon fill="#000000" stroke="#000000" points="534.9911,-361.9665 537.3252,-351.632 529.0558,-358.2553 534.9911,-361.9665"/>
<text text-anchor="middle" x="563.5" y="-373.8" font-family="Times,serif" font-size="14.00" fill="#000000">has_origin</text>
</g>
<!-- concept -->
<g id="node8" class="node">
<title>concept</title>
<path fill="none" stroke="#000000" d="M137,-225C137,-225 303,-225 303,-225 309,-225 315,-231 315,-237 315,-237 315,-305 315,-305 315,-311 309,-317 303,-317 303,-317 137,-317 137,-317 131,-317 125,-311 125,-305 125,-305 125,-237 125,-237 125,-231 131,-225 137,-225"/>
<text text-anchor="middle" x="162" y="-267.3" font-family="Times,serif" font-size="14.00" fill="#000000">concept</text>
<polyline fill="none" stroke="#000000" points="199,-225 199,-317 "/>
<text text-anchor="middle" x="209.5" y="-267.3" font-family="Times,serif" font-size="14.00" fill="#000000"> </text>
<polyline fill="none" stroke="#000000" points="220,-225 220,-317 "/>
<text text-anchor="middle" x="257" y="-301.8" font-family="Times,serif" font-size="14.00" fill="#000000">desc</text>
<polyline fill="none" stroke="#000000" points="220,-294 294,-294 "/>
<text text-anchor="middle" x="257" y="-278.8" font-family="Times,serif" font-size="14.00" fill="#000000">id</text>
<polyline fill="none" stroke="#000000" points="220,-271 294,-271 "/>
<text text-anchor="middle" x="257" y="-255.8" font-family="Times,serif" font-size="14.00" fill="#000000">nanoid6</text>
<polyline fill="none" stroke="#000000" points="220,-248 294,-248 "/>
<text text-anchor="middle" x="257" y="-232.8" font-family="Times,serif" font-size="14.00" fill="#000000">nanoid8</text>
<polyline fill="none" stroke="#000000" points="294,-225 294,-317 "/>
<text text-anchor="middle" x="304.5" y="-267.3" font-family="Times,serif" font-size="14.00" fill="#000000"> </text>
</g>
<!-- term&#45;&gt;concept -->
<g id="edge1" class="edge">
<title>term&#45;&gt;concept</title>
<path fill="none" stroke="#000000" d="M351.1863,-404.3167C343.2034,-397.9513 335.3966,-391.4753 328,-385 306.8096,-366.4488 285.1349,-344.3064 266.8173,-324.4918"/>
<polygon fill="#000000" stroke="#000000" points="269.3076,-322.0288 259.9693,-317.024 264.1483,-326.7599 269.3076,-322.0288"/>
<text text-anchor="middle" x="367" y="-373.8" font-family="Times,serif" font-size="14.00" fill="#000000">represents</text>
</g>
<!-- property -->
<g id="node2" class="node">
<title>property</title>
<path fill="none" stroke="#000000" d="M308,-806.5C308,-806.5 520,-806.5 520,-806.5 526,-806.5 532,-812.5 532,-818.5 532,-818.5 532,-1024.5 532,-1024.5 532,-1030.5 526,-1036.5 520,-1036.5 520,-1036.5 308,-1036.5 308,-1036.5 302,-1036.5 296,-1030.5 296,-1024.5 296,-1024.5 296,-818.5 296,-818.5 296,-812.5 302,-806.5 308,-806.5"/>
<text text-anchor="middle" x="335.5" y="-917.8" font-family="Times,serif" font-size="14.00" fill="#000000">property</text>
<polyline fill="none" stroke="#000000" points="375,-806.5 375,-1036.5 "/>
<text text-anchor="middle" x="385.5" y="-917.8" font-family="Times,serif" font-size="14.00" fill="#000000"> </text>
<polyline fill="none" stroke="#000000" points="396,-806.5 396,-1036.5 "/>
<text text-anchor="middle" x="453.5" y="-1021.3" font-family="Times,serif" font-size="14.00" fill="#000000">desc</text>
<polyline fill="none" stroke="#000000" points="396,-1013.5 511,-1013.5 "/>
<text text-anchor="middle" x="453.5" y="-998.3" font-family="Times,serif" font-size="14.00" fill="#000000">handle</text>
<polyline fill="none" stroke="#000000" points="396,-990.5 511,-990.5 "/>
<text text-anchor="middle" x="453.5" y="-975.3" font-family="Times,serif" font-size="14.00" fill="#000000">id</text>
<polyline fill="none" stroke="#000000" points="396,-967.5 511,-967.5 "/>
<text text-anchor="middle" x="453.5" y="-952.3" font-family="Times,serif" font-size="14.00" fill="#000000">is_required</text>
<polyline fill="none" stroke="#000000" points="396,-944.5 511,-944.5 "/>
<text text-anchor="middle" x="453.5" y="-929.3" font-family="Times,serif" font-size="14.00" fill="#000000">model</text>
<polyline fill="none" stroke="#000000" points="396,-921.5 511,-921.5 "/>
<text text-anchor="middle" x="453.5" y="-906.3" font-family="Times,serif" font-size="14.00" fill="#000000">nanoid6</text>
<polyline fill="none" stroke="#000000" points="396,-898.5 511,-898.5 "/>
<text text-anchor="middle" x="453.5" y="-883.3" font-family="Times,serif" font-size="14.00" fill="#000000">nanoid8</text>
<polyline fill="none" stroke="#000000" points="396,-875.5 511,-875.5 "/>
<text text-anchor="middle" x="453.5" y="-860.3" font-family="Times,serif" font-size="14.00" fill="#000000">pattern</text>
<polyline fill="none" stroke="#000000" points="396,-852.5 511,-852.5 "/>
<text text-anchor="middle" x="453.5" y="-837.3" font-family="Times,serif" font-size="14.00" fill="#000000">units</text>
<polyline fill="none" stroke="#000000" points="396,-829.5 511,-829.5 "/>
<text text-anchor="middle" x="453.5" y="-814.3" font-family="Times,serif" font-size="14.00" fill="#000000">value_domain</text>
<polyline fill="none" stroke="#000000" points="511,-806.5 511,-1036.5 "/>
<text text-anchor="middle" x="521.5" y="-917.8" font-family="Times,serif" font-size="14.00" fill="#000000"> </text>
</g>
<!-- property&#45;&gt;tag -->
<g id="edge12" class="edge">
<title>property&#45;&gt;tag</title>
<path fill="none" stroke="#000000" d="M532.1376,-898.8863C642.0575,-870.1879 789,-808.7704 789,-685.5 789,-685.5 789,-685.5 789,-271 789,-203.3148 731.4645,-149.9373 678.5806,-115.1711"/>
<polygon fill="#000000" stroke="#000000" points="680.4481,-112.2108 670.1426,-109.7518 676.6653,-118.1007 680.4481,-112.2108"/>
<text text-anchor="middle" x="817" y="-480.3" font-family="Times,serif" font-size="14.00" fill="#000000">has_tag</text>
</g>
<!-- value_set -->
<g id="node4" class="node">
<title>value_set</title>
<path fill="none" stroke="#000000" d="M377,-616.5C377,-616.5 553,-616.5 553,-616.5 559,-616.5 565,-622.5 565,-628.5 565,-628.5 565,-742.5 565,-742.5 565,-748.5 559,-754.5 553,-754.5 553,-754.5 377,-754.5 377,-754.5 371,-754.5 365,-748.5 365,-742.5 365,-742.5 365,-628.5 365,-628.5 365,-622.5 371,-616.5 377,-616.5"/>
<text text-anchor="middle" x="407" y="-681.8" font-family="Times,serif" font-size="14.00" fill="#000000">value_set</text>
<polyline fill="none" stroke="#000000" points="449,-616.5 449,-754.5 "/>
<text text-anchor="middle" x="459.5" y="-681.8" font-family="Times,serif" font-size="14.00" fill="#000000"> </text>
<polyline fill="none" stroke="#000000" points="470,-616.5 470,-754.5 "/>
<text text-anchor="middle" x="507" y="-739.3" font-family="Times,serif" font-size="14.00" fill="#000000">desc</text>
<polyline fill="none" stroke="#000000" points="470,-731.5 544,-731.5 "/>
<text text-anchor="middle" x="507" y="-716.3" font-family="Times,serif" font-size="14.00" fill="#000000">handle</text>
<polyline fill="none" stroke="#000000" points="470,-708.5 544,-708.5 "/>
<text text-anchor="middle" x="507" y="-693.3" font-family="Times,serif" font-size="14.00" fill="#000000">id</text>
<polyline fill="none" stroke="#000000" points="470,-685.5 544,-685.5 "/>
<text text-anchor="middle" x="507" y="-670.3" font-family="Times,serif" font-size="14.00" fill="#000000">nanoid6</text>
<polyline fill="none" stroke="#000000" points="470,-662.5 544,-662.5 "/>
<text text-anchor="middle" x="507" y="-647.3" font-family="Times,serif" font-size="14.00" fill="#000000">nanoid8</text>
<polyline fill="none" stroke="#000000" points="470,-639.5 544,-639.5 "/>
<text text-anchor="middle" x="507" y="-624.3" font-family="Times,serif" font-size="14.00" fill="#000000">url</text>
<polyline fill="none" stroke="#000000" points="544,-616.5 544,-754.5 "/>
<text text-anchor="middle" x="554.5" y="-681.8" font-family="Times,serif" font-size="14.00" fill="#000000"> </text>
</g>
<!-- property&#45;&gt;value_set -->
<g id="edge14" class="edge">
<title>property&#45;&gt;value_set</title>
<path fill="none" stroke="#000000" d="M438.9024,-806.2654C441.9449,-792.1862 444.9988,-778.0546 447.8906,-764.6727"/>
<polygon fill="#000000" stroke="#000000" points="451.3763,-765.1126 450.0676,-754.5989 444.5342,-763.634 451.3763,-765.1126"/>
<text text-anchor="middle" x="495" y="-776.8" font-family="Times,serif" font-size="14.00" fill="#000000">has_value_set</text>
</g>
<!-- property&#45;&gt;concept -->
<g id="edge6" class="edge">
<title>property&#45;&gt;concept</title>
<path fill="none" stroke="#000000" d="M378.1518,-806.1789C352.7029,-741.8757 312.3698,-665.0946 253,-616 231.8725,-598.5291 210.3138,-620.0333 194,-598 163.2168,-556.4246 189.2187,-409.1756 206.9126,-327.1755"/>
<polygon fill="#000000" stroke="#000000" points="210.3619,-327.7847 209.0785,-317.2679 203.5234,-326.2897 210.3619,-327.7847"/>
<text text-anchor="middle" x="239" y="-586.8" font-family="Times,serif" font-size="14.00" fill="#000000">has_concept</text>
</g>
<!-- value_set&#45;&gt;term -->
<g id="edge17" class="edge">
<title>value_set&#45;&gt;term</title>
<path fill="none" stroke="#000000" d="M465,-616.437C465,-603.0525 465,-588.8373 465,-574.8773"/>
<polygon fill="#000000" stroke="#000000" points="468.5001,-574.7729 465,-564.7729 461.5001,-574.773 468.5001,-574.7729"/>
<text text-anchor="middle" x="498.5" y="-586.8" font-family="Times,serif" font-size="14.00" fill="#000000">has_term</text>
</g>
<!-- value_set&#45;&gt;tag -->
<g id="edge9" class="edge">
<title>value_set&#45;&gt;tag</title>
<path fill="none" stroke="#000000" d="M565.1305,-658.0697C612.0091,-639.7416 663.6584,-610.4255 692,-565 714.0595,-529.6433 713.8001,-228.9573 699,-190 693.1992,-174.7308 684.4791,-160.1588 674.4729,-146.7603"/>
<polygon fill="#000000" stroke="#000000" points="676.9996,-144.3086 668.0911,-138.5737 671.4788,-148.6123 676.9996,-144.3086"/>
<text text-anchor="middle" x="737" y="-373.8" font-family="Times,serif" font-size="14.00" fill="#000000">has_tag</text>
</g>
<!-- value_set&#45;&gt;origin -->
<g id="edge19" class="edge">
<title>value_set&#45;&gt;origin</title>
<path fill="none" stroke="#000000" d="M552.4392,-616.1669C566.5832,-600.8444 579.3914,-583.58 588,-565 617.3134,-501.7328 616.4833,-422.2769 609.332,-361.9214"/>
<polygon fill="#000000" stroke="#000000" points="612.7595,-361.1267 608.032,-351.6451 605.8148,-362.0053 612.7595,-361.1267"/>
<text text-anchor="middle" x="650.5" y="-480.3" font-family="Times,serif" font-size="14.00" fill="#000000">has_origin</text>
</g>
<!-- value_set&#45;&gt;concept -->
<g id="edge5" class="edge">
<title>value_set&#45;&gt;concept</title>
<path fill="none" stroke="#000000" d="M364.8689,-626.3527C339.898,-611.9241 313.0866,-596.7036 288,-583 272.6488,-574.6144 262.9313,-579.3994 253,-565 227.2375,-527.6469 221.3171,-401.8037 220.1214,-327.4147"/>
<polygon fill="#000000" stroke="#000000" points="223.6193,-327.2253 219.9825,-317.2742 216.6199,-327.3212 223.6193,-327.2253"/>
<text text-anchor="middle" x="298" y="-480.3" font-family="Times,serif" font-size="14.00" fill="#000000">has_concept</text>
</g>
<!-- node -->
<g id="node5" class="node">
<title>node</title>
<path fill="none" stroke="#000000" d="M339.5,-1088.5C339.5,-1088.5 488.5,-1088.5 488.5,-1088.5 494.5,-1088.5 500.5,-1094.5 500.5,-1100.5 500.5,-1100.5 500.5,-1237.5 500.5,-1237.5 500.5,-1243.5 494.5,-1249.5 488.5,-1249.5 488.5,-1249.5 339.5,-1249.5 339.5,-1249.5 333.5,-1249.5 327.5,-1243.5 327.5,-1237.5 327.5,-1237.5 327.5,-1100.5 327.5,-1100.5 327.5,-1094.5 333.5,-1088.5 339.5,-1088.5"/>
<text text-anchor="middle" x="353" y="-1165.3" font-family="Times,serif" font-size="14.00" fill="#000000">node</text>
<polyline fill="none" stroke="#000000" points="378.5,-1088.5 378.5,-1249.5 "/>
<text text-anchor="middle" x="389" y="-1165.3" font-family="Times,serif" font-size="14.00" fill="#000000"> </text>
<polyline fill="none" stroke="#000000" points="399.5,-1088.5 399.5,-1249.5 "/>
<text text-anchor="middle" x="439.5" y="-1234.3" font-family="Times,serif" font-size="14.00" fill="#000000">category</text>
<polyline fill="none" stroke="#000000" points="399.5,-1226.5 479.5,-1226.5 "/>
<text text-anchor="middle" x="439.5" y="-1211.3" font-family="Times,serif" font-size="14.00" fill="#000000">desc</text>
<polyline fill="none" stroke="#000000" points="399.5,-1203.5 479.5,-1203.5 "/>
<text text-anchor="middle" x="439.5" y="-1188.3" font-family="Times,serif" font-size="14.00" fill="#000000">handle</text>
<polyline fill="none" stroke="#000000" points="399.5,-1180.5 479.5,-1180.5 "/>
<text text-anchor="middle" x="439.5" y="-1165.3" font-family="Times,serif" font-size="14.00" fill="#000000">id</text>
<polyline fill="none" stroke="#000000" points="399.5,-1157.5 479.5,-1157.5 "/>
<text text-anchor="middle" x="439.5" y="-1142.3" font-family="Times,serif" font-size="14.00" fill="#000000">model</text>
<polyline fill="none" stroke="#000000" points="399.5,-1134.5 479.5,-1134.5 "/>
<text text-anchor="middle" x="439.5" y="-1119.3" font-family="Times,serif" font-size="14.00" fill="#000000">nanoid6</text>
<polyline fill="none" stroke="#000000" points="399.5,-1111.5 479.5,-1111.5 "/>
<text text-anchor="middle" x="439.5" y="-1096.3" font-family="Times,serif" font-size="14.00" fill="#000000">nanoid8</text>
<polyline fill="none" stroke="#000000" points="479.5,-1088.5 479.5,-1249.5 "/>
<text text-anchor="middle" x="490" y="-1165.3" font-family="Times,serif" font-size="14.00" fill="#000000"> </text>
</g>
<!-- node&#45;&gt;property -->
<g id="edge16" class="edge">
<title>node&#45;&gt;property</title>
<path fill="none" stroke="#000000" d="M414,-1088.3017C414,-1075.0207 414,-1060.9838 414,-1046.9183"/>
<polygon fill="#000000" stroke="#000000" points="417.5001,-1046.6816 414,-1036.6817 410.5001,-1046.6817 417.5001,-1046.6816"/>
<text text-anchor="middle" x="461.5" y="-1058.8" font-family="Times,serif" font-size="14.00" fill="#000000">has_property</text>
</g>
<!-- node&#45;&gt;tag -->
<g id="edge10" class="edge">
<title>node&#45;&gt;tag</title>
<path fill="none" stroke="#000000" d="M500.6041,-1161.061C633.6193,-1143.582 873,-1088.8748 873,-921.5 873,-921.5 873,-921.5 873,-271 873,-174.5662 762.355,-119.815 679.9241,-92.4061"/>
<polygon fill="#000000" stroke="#000000" points="680.8661,-89.0323 670.2742,-89.2782 678.7077,-95.6912 680.8661,-89.0323"/>
<text text-anchor="middle" x="901" y="-586.8" font-family="Times,serif" font-size="14.00" fill="#000000">has_tag</text>
</g>
<!-- node&#45;&gt;concept -->
<g id="edge4" class="edge">
<title>node&#45;&gt;concept</title>
<path fill="none" stroke="#000000" d="M327.7438,-1088.4646C313.0366,-1072.294 298.7418,-1054.7795 287,-1037 216.7613,-930.6446 243.1271,-880.7202 175,-773 169.2787,-763.9537 162.8039,-765.0049 159,-755 102.9689,-607.627 160.6864,-418.6466 196.3476,-326.5048"/>
<polygon fill="#000000" stroke="#000000" points="199.6464,-327.6797 200.0448,-317.0923 193.131,-325.1204 199.6464,-327.6797"/>
<text text-anchor="middle" x="204" y="-681.8" font-family="Times,serif" font-size="14.00" fill="#000000">has_concept</text>
</g>
<!-- relationship -->
<g id="node6" class="node">
<title>relationship</title>
<path fill="none" stroke="#000000" d="M104.5,-1301.5C104.5,-1301.5 323.5,-1301.5 323.5,-1301.5 329.5,-1301.5 335.5,-1307.5 335.5,-1313.5 335.5,-1313.5 335.5,-1473.5 335.5,-1473.5 335.5,-1479.5 329.5,-1485.5 323.5,-1485.5 323.5,-1485.5 104.5,-1485.5 104.5,-1485.5 98.5,-1485.5 92.5,-1479.5 92.5,-1473.5 92.5,-1473.5 92.5,-1313.5 92.5,-1313.5 92.5,-1307.5 98.5,-1301.5 104.5,-1301.5"/>
<text text-anchor="middle" x="143.5" y="-1389.8" font-family="Times,serif" font-size="14.00" fill="#000000">relationship</text>
<polyline fill="none" stroke="#000000" points="194.5,-1301.5 194.5,-1485.5 "/>
<text text-anchor="middle" x="205" y="-1389.8" font-family="Times,serif" font-size="14.00" fill="#000000"> </text>
<polyline fill="none" stroke="#000000" points="215.5,-1301.5 215.5,-1485.5 "/>
<text text-anchor="middle" x="265" y="-1470.3" font-family="Times,serif" font-size="14.00" fill="#000000">desc</text>
<polyline fill="none" stroke="#000000" points="215.5,-1462.5 314.5,-1462.5 "/>
<text text-anchor="middle" x="265" y="-1447.3" font-family="Times,serif" font-size="14.00" fill="#000000">handle</text>
<polyline fill="none" stroke="#000000" points="215.5,-1439.5 314.5,-1439.5 "/>
<text text-anchor="middle" x="265" y="-1424.3" font-family="Times,serif" font-size="14.00" fill="#000000">id</text>
<polyline fill="none" stroke="#000000" points="215.5,-1416.5 314.5,-1416.5 "/>
<text text-anchor="middle" x="265" y="-1401.3" font-family="Times,serif" font-size="14.00" fill="#000000">is_required</text>
<polyline fill="none" stroke="#000000" points="215.5,-1393.5 314.5,-1393.5 "/>
<text text-anchor="middle" x="265" y="-1378.3" font-family="Times,serif" font-size="14.00" fill="#000000">model</text>
<polyline fill="none" stroke="#000000" points="215.5,-1370.5 314.5,-1370.5 "/>
<text text-anchor="middle" x="265" y="-1355.3" font-family="Times,serif" font-size="14.00" fill="#000000">multiplicity</text>
<polyline fill="none" stroke="#000000" points="215.5,-1347.5 314.5,-1347.5 "/>
<text text-anchor="middle" x="265" y="-1332.3" font-family="Times,serif" font-size="14.00" fill="#000000">nanoid6</text>
<polyline fill="none" stroke="#000000" points="215.5,-1324.5 314.5,-1324.5 "/>
<text text-anchor="middle" x="265" y="-1309.3" font-family="Times,serif" font-size="14.00" fill="#000000">nanoid8</text>
<polyline fill="none" stroke="#000000" points="314.5,-1301.5 314.5,-1485.5 "/>
<text text-anchor="middle" x="325" y="-1389.8" font-family="Times,serif" font-size="14.00" fill="#000000"> </text>
</g>
<!-- relationship&#45;&gt;property -->
<g id="edge15" class="edge">
<title>relationship&#45;&gt;property</title>
<path fill="none" stroke="#000000" d="M198.5183,-1301.4901C192.2154,-1238.4044 192.5636,-1154.4349 224,-1088 238.7692,-1056.7881 262.424,-1029.0265 288.1022,-1005.5451"/>
<polygon fill="#000000" stroke="#000000" points="290.6249,-1007.985 295.7591,-998.7172 285.966,-1002.7605 290.6249,-1007.985"/>
<text text-anchor="middle" x="271.5" y="-1165.3" font-family="Times,serif" font-size="14.00" fill="#000000">has_property</text>
</g>
<!-- relationship&#45;&gt;tag -->
<g id="edge8" class="edge">
<title>relationship&#45;&gt;tag</title>
<path fill="none" stroke="#000000" d="M92.308,-1321.7993C44.1286,-1283.6363 0,-1231.5964 0,-1169 0,-1169 0,-1169 0,-271 0,-165.8546 338.904,-104.466 503.8693,-80.8126"/>
<polygon fill="#000000" stroke="#000000" points="504.588,-84.2458 513.9976,-79.3765 503.6052,-77.3151 504.588,-84.2458"/>
<text text-anchor="middle" x="28" y="-681.8" font-family="Times,serif" font-size="14.00" fill="#000000">has_tag</text>
</g>
<!-- relationship&#45;&gt;node -->
<g id="edge2" class="edge">
<title>relationship&#45;&gt;node</title>
<path fill="none" stroke="#000000" d="M285.4146,-1301.2965C294.8291,-1289.9131 304.508,-1278.5723 314,-1268 317.2463,-1264.3842 320.5919,-1260.7327 324.0016,-1257.0727"/>
<polygon fill="#000000" stroke="#000000" points="326.7715,-1259.2366 331.0795,-1249.5572 321.6756,-1254.4374 326.7715,-1259.2366"/>
<text text-anchor="middle" x="341.5" y="-1271.8" font-family="Times,serif" font-size="14.00" fill="#000000">has_src</text>
</g>
<!-- relationship&#45;&gt;node -->
<g id="edge18" class="edge">
<title>relationship&#45;&gt;node</title>
<path fill="none" stroke="#000000" d="M335.7271,-1317.6079C347.9114,-1306.9461 359.3295,-1295.3653 369,-1283 374.7886,-1275.5984 379.9191,-1267.3582 384.4464,-1258.7888"/>
<polygon fill="#000000" stroke="#000000" points="387.6178,-1260.2719 388.9482,-1249.7609 381.3535,-1257.1481 387.6178,-1260.2719"/>
<text text-anchor="middle" x="405.5" y="-1271.8" font-family="Times,serif" font-size="14.00" fill="#000000">has_dst</text>
</g>
<!-- relationship&#45;&gt;concept -->
<g id="edge3" class="edge">
<title>relationship&#45;&gt;concept</title>
<path fill="none" stroke="#000000" d="M132.2225,-1301.4959C106.1832,-1263.2163 84,-1216.6284 84,-1169 84,-1169 84,-1169 84,-484 84,-422.7133 124.4925,-364.8909 161.2876,-324.9997"/>
<polygon fill="#000000" stroke="#000000" points="164.2682,-326.9407 168.5842,-317.2648 159.1762,-322.1373 164.2682,-326.9407"/>
<text text-anchor="middle" x="129" y="-776.8" font-family="Times,serif" font-size="14.00" fill="#000000">has_concept</text>
</g>
<!-- origin&#45;&gt;tag -->
<g id="edge11" class="edge">
<title>origin&#45;&gt;tag</title>
<path fill="none" stroke="#000000" d="M592,-190.4932C592,-176.7786 592,-162.5421 592,-148.8576"/>
<polygon fill="#000000" stroke="#000000" points="595.5001,-148.5183 592,-138.5184 588.5001,-148.5184 595.5001,-148.5183"/>
<text text-anchor="middle" x="620" y="-160.8" font-family="Times,serif" font-size="14.00" fill="#000000">has_tag</text>
</g>
<!-- concept&#45;&gt;tag -->
<g id="edge7" class="edge">
<title>concept&#45;&gt;tag</title>
<path fill="none" stroke="#000000" d="M264.2342,-224.7374C287.9714,-201.9475 318.7243,-175.4694 350,-157 397.956,-128.6803 456.5921,-107.1928 504.1349,-92.599"/>
<polygon fill="#000000" stroke="#000000" points="505.2352,-95.9229 513.796,-89.6809 503.2111,-89.2219 505.2352,-95.9229"/>
<text text-anchor="middle" x="378" y="-160.8" font-family="Times,serif" font-size="14.00" fill="#000000">has_tag</text>
</g>
</g>
</svg>
