<?xml version="1.0" encoding="UTF-8" standalone="no"?>
<!DOCTYPE svg PUBLIC "-//W3C//DTD SVG 1.1//EN"
 "http://www.w3.org/Graphics/SVG/1.1/DTD/svg11.dtd">
<!-- Generated by graphviz version 2.40.1 (20161225.0304)
 -->
<!-- Title: Perl Pages: 1 -->
<svg width="938pt" height="1494pt"
 viewBox="0.00 0.00 938.00 1494.00" xmlns="http://www.w3.org/2000/svg" xmlns:xlink="http://www.w3.org/1999/xlink">
<g id="graph0" class="graph" transform="scale(1 1) rotate(0) translate(4 1490)">
<title>Perl</title>
<polygon fill="#ffffff" stroke="transparent" points="-4,4 -4,-1490 934,-1490 934,4 -4,4"/>
<!-- property -->
<g id="node1" class="node">
<title>property</title>
<path fill="none" stroke="#000000" d="M387,-806.5C387,-806.5 599,-806.5 599,-806.5 605,-806.5 611,-812.5 611,-818.5 611,-818.5 611,-1024.5 611,-1024.5 611,-1030.5 605,-1036.5 599,-1036.5 599,-1036.5 387,-1036.5 387,-1036.5 381,-1036.5 375,-1030.5 375,-1024.5 375,-1024.5 375,-818.5 375,-818.5 375,-812.5 381,-806.5 387,-806.5"/>
<text text-anchor="middle" x="414.5" y="-917.8" font-family="Times,serif" font-size="14.00" fill="#000000">property</text>
<polyline fill="none" stroke="#000000" points="454,-806.5 454,-1036.5 "/>
<text text-anchor="middle" x="464.5" y="-917.8" font-family="Times,serif" font-size="14.00" fill="#000000"> </text>
<polyline fill="none" stroke="#000000" points="475,-806.5 475,-1036.5 "/>
<text text-anchor="middle" x="532.5" y="-1021.3" font-family="Times,serif" font-size="14.00" fill="#000000">desc</text>
<polyline fill="none" stroke="#000000" points="475,-1013.5 590,-1013.5 "/>
<text text-anchor="middle" x="532.5" y="-998.3" font-family="Times,serif" font-size="14.00" fill="#000000">handle</text>
<polyline fill="none" stroke="#000000" points="475,-990.5 590,-990.5 "/>
<text text-anchor="middle" x="532.5" y="-975.3" font-family="Times,serif" font-size="14.00" fill="#000000">id</text>
<polyline fill="none" stroke="#000000" points="475,-967.5 590,-967.5 "/>
<text text-anchor="middle" x="532.5" y="-952.3" font-family="Times,serif" font-size="14.00" fill="#000000">is_required</text>
<polyline fill="none" stroke="#000000" points="475,-944.5 590,-944.5 "/>
<text text-anchor="middle" x="532.5" y="-929.3" font-family="Times,serif" font-size="14.00" fill="#000000">model</text>
<polyline fill="none" stroke="#000000" points="475,-921.5 590,-921.5 "/>
<text text-anchor="middle" x="532.5" y="-906.3" font-family="Times,serif" font-size="14.00" fill="#000000">nanoid6</text>
<polyline fill="none" stroke="#000000" points="475,-898.5 590,-898.5 "/>
<text text-anchor="middle" x="532.5" y="-883.3" font-family="Times,serif" font-size="14.00" fill="#000000">nanoid8</text>
<polyline fill="none" stroke="#000000" points="475,-875.5 590,-875.5 "/>
<text text-anchor="middle" x="532.5" y="-860.3" font-family="Times,serif" font-size="14.00" fill="#000000">pattern</text>
<polyline fill="none" stroke="#000000" points="475,-852.5 590,-852.5 "/>
<text text-anchor="middle" x="532.5" y="-837.3" font-family="Times,serif" font-size="14.00" fill="#000000">units</text>
<polyline fill="none" stroke="#000000" points="475,-829.5 590,-829.5 "/>
<text text-anchor="middle" x="532.5" y="-814.3" font-family="Times,serif" font-size="14.00" fill="#000000">value_domain</text>
<polyline fill="none" stroke="#000000" points="590,-806.5 590,-1036.5 "/>
<text text-anchor="middle" x="600.5" y="-917.8" font-family="Times,serif" font-size="14.00" fill="#000000"> </text>
</g>
<!-- tag -->
<g id="node6" class="node">
<title>tag</title>
<path fill="none" stroke="#000000" d="M375,-.5C375,-.5 507,-.5 507,-.5 513,-.5 519,-6.5 519,-12.5 519,-12.5 519,-126.5 519,-126.5 519,-132.5 513,-138.5 507,-138.5 507,-138.5 375,-138.5 375,-138.5 369,-138.5 363,-132.5 363,-126.5 363,-126.5 363,-12.5 363,-12.5 363,-6.5 369,-.5 375,-.5"/>
<text text-anchor="middle" x="383" y="-65.8" font-family="Times,serif" font-size="14.00" fill="#000000">tag</text>
<polyline fill="none" stroke="#000000" points="403,-.5 403,-138.5 "/>
<text text-anchor="middle" x="413.5" y="-65.8" font-family="Times,serif" font-size="14.00" fill="#000000"> </text>
<polyline fill="none" stroke="#000000" points="424,-.5 424,-138.5 "/>
<text text-anchor="middle" x="461" y="-123.3" font-family="Times,serif" font-size="14.00" fill="#000000">desc</text>
<polyline fill="none" stroke="#000000" points="424,-115.5 498,-115.5 "/>
<text text-anchor="middle" x="461" y="-100.3" font-family="Times,serif" font-size="14.00" fill="#000000">id</text>
<polyline fill="none" stroke="#000000" points="424,-92.5 498,-92.5 "/>
<text text-anchor="middle" x="461" y="-77.3" font-family="Times,serif" font-size="14.00" fill="#000000">key</text>
<polyline fill="none" stroke="#000000" points="424,-69.5 498,-69.5 "/>
<text text-anchor="middle" x="461" y="-54.3" font-family="Times,serif" font-size="14.00" fill="#000000">nanoid6</text>
<polyline fill="none" stroke="#000000" points="424,-46.5 498,-46.5 "/>
<text text-anchor="middle" x="461" y="-31.3" font-family="Times,serif" font-size="14.00" fill="#000000">nanoid8</text>
<polyline fill="none" stroke="#000000" points="424,-23.5 498,-23.5 "/>
<text text-anchor="middle" x="461" y="-8.3" font-family="Times,serif" font-size="14.00" fill="#000000">value</text>
<polyline fill="none" stroke="#000000" points="498,-.5 498,-138.5 "/>
<text text-anchor="middle" x="508.5" y="-65.8" font-family="Times,serif" font-size="14.00" fill="#000000"> </text>
</g>
<!-- property&#45;&gt;tag -->
<g id="edge14" class="edge">
<title>property&#45;&gt;tag</title>
<path fill="none" stroke="#000000" d="M374.9142,-890.146C229.0645,-847.8694 0,-768.2929 0,-685.5 0,-685.5 0,-685.5 0,-271 0,-194.14 224.4105,-124.3993 353.0653,-90.7323"/>
<polygon fill="#000000" stroke="#000000" points="354.1196,-94.0747 362.9198,-88.175 352.3613,-87.2992 354.1196,-94.0747"/>
<text text-anchor="middle" x="28" y="-480.3" font-family="Times,serif" font-size="14.00" fill="#000000">has_tag</text>
</g>
<!-- concept -->
<g id="node7" class="node">
<title>concept</title>
<path fill="none" stroke="#000000" d="M502,-225C502,-225 668,-225 668,-225 674,-225 680,-231 680,-237 680,-237 680,-305 680,-305 680,-311 674,-317 668,-317 668,-317 502,-317 502,-317 496,-317 490,-311 490,-305 490,-305 490,-237 490,-237 490,-231 496,-225 502,-225"/>
<text text-anchor="middle" x="527" y="-267.3" font-family="Times,serif" font-size="14.00" fill="#000000">concept</text>
<polyline fill="none" stroke="#000000" points="564,-225 564,-317 "/>
<text text-anchor="middle" x="574.5" y="-267.3" font-family="Times,serif" font-size="14.00" fill="#000000"> </text>
<polyline fill="none" stroke="#000000" points="585,-225 585,-317 "/>
<text text-anchor="middle" x="622" y="-301.8" font-family="Times,serif" font-size="14.00" fill="#000000">desc</text>
<polyline fill="none" stroke="#000000" points="585,-294 659,-294 "/>
<text text-anchor="middle" x="622" y="-278.8" font-family="Times,serif" font-size="14.00" fill="#000000">id</text>
<polyline fill="none" stroke="#000000" points="585,-271 659,-271 "/>
<text text-anchor="middle" x="622" y="-255.8" font-family="Times,serif" font-size="14.00" fill="#000000">nanoid6</text>
<polyline fill="none" stroke="#000000" points="585,-248 659,-248 "/>
<text text-anchor="middle" x="622" y="-232.8" font-family="Times,serif" font-size="14.00" fill="#000000">nanoid8</text>
<polyline fill="none" stroke="#000000" points="659,-225 659,-317 "/>
<text text-anchor="middle" x="669.5" y="-267.3" font-family="Times,serif" font-size="14.00" fill="#000000"> </text>
</g>
<!-- property&#45;&gt;concept -->
<g id="edge5" class="edge">
<title>property&#45;&gt;concept</title>
<path fill="none" stroke="#000000" d="M520.9245,-806.2995C522.0531,-800.127 523.0897,-793.9987 524,-788 530.8532,-742.8397 511.1645,-619.2161 539,-583 553.9037,-563.6092 576.8143,-584.922 591,-565 632.7628,-506.3496 592.6351,-474.9814 591,-403 590.435,-378.1274 589.2719,-350.6388 588.1189,-327.2146"/>
<polygon fill="#000000" stroke="#000000" points="591.6083,-326.9154 587.6096,-317.1042 584.6172,-327.2676 591.6083,-326.9154"/>
<text text-anchor="middle" x="584" y="-586.8" font-family="Times,serif" font-size="14.00" fill="#000000">has_concept</text>
</g>
<!-- value_set -->
<g id="node8" class="node">
<title>value_set</title>
<path fill="none" stroke="#000000" d="M322,-616.5C322,-616.5 498,-616.5 498,-616.5 504,-616.5 510,-622.5 510,-628.5 510,-628.5 510,-742.5 510,-742.5 510,-748.5 504,-754.5 498,-754.5 498,-754.5 322,-754.5 322,-754.5 316,-754.5 310,-748.5 310,-742.5 310,-742.5 310,-628.5 310,-628.5 310,-622.5 316,-616.5 322,-616.5"/>
<text text-anchor="middle" x="352" y="-681.8" font-family="Times,serif" font-size="14.00" fill="#000000">value_set</text>
<polyline fill="none" stroke="#000000" points="394,-616.5 394,-754.5 "/>
<text text-anchor="middle" x="404.5" y="-681.8" font-family="Times,serif" font-size="14.00" fill="#000000"> </text>
<polyline fill="none" stroke="#000000" points="415,-616.5 415,-754.5 "/>
<text text-anchor="middle" x="452" y="-739.3" font-family="Times,serif" font-size="14.00" fill="#000000">desc</text>
<polyline fill="none" stroke="#000000" points="415,-731.5 489,-731.5 "/>
<text text-anchor="middle" x="452" y="-716.3" font-family="Times,serif" font-size="14.00" fill="#000000">handle</text>
<polyline fill="none" stroke="#000000" points="415,-708.5 489,-708.5 "/>
<text text-anchor="middle" x="452" y="-693.3" font-family="Times,serif" font-size="14.00" fill="#000000">id</text>
<polyline fill="none" stroke="#000000" points="415,-685.5 489,-685.5 "/>
<text text-anchor="middle" x="452" y="-670.3" font-family="Times,serif" font-size="14.00" fill="#000000">nanoid6</text>
<polyline fill="none" stroke="#000000" points="415,-662.5 489,-662.5 "/>
<text text-anchor="middle" x="452" y="-647.3" font-family="Times,serif" font-size="14.00" fill="#000000">nanoid8</text>
<polyline fill="none" stroke="#000000" points="415,-639.5 489,-639.5 "/>
<text text-anchor="middle" x="452" y="-624.3" font-family="Times,serif" font-size="14.00" fill="#000000">url</text>
<polyline fill="none" stroke="#000000" points="489,-616.5 489,-754.5 "/>
<text text-anchor="middle" x="499.5" y="-681.8" font-family="Times,serif" font-size="14.00" fill="#000000"> </text>
</g>
<!-- property&#45;&gt;value_set -->
<g id="edge1" class="edge">
<title>property&#45;&gt;value_set</title>
<path fill="none" stroke="#000000" d="M430.5048,-806.3851C428.1189,-800.2449 425.928,-794.0943 424,-788 421.6384,-780.535 419.6752,-772.6402 418.0431,-764.6783"/>
<polygon fill="#000000" stroke="#000000" points="421.4332,-763.767 416.1478,-754.5847 414.5534,-765.0589 421.4332,-763.767"/>
<text text-anchor="middle" x="474" y="-776.8" font-family="Times,serif" font-size="14.00" fill="#000000">has_value_set</text>
</g>
<!-- origin -->
<g id="node2" class="node">
<title>origin</title>
<path fill="none" stroke="#000000" d="M229,-190.5C229,-190.5 401,-190.5 401,-190.5 407,-190.5 413,-196.5 413,-202.5 413,-202.5 413,-339.5 413,-339.5 413,-345.5 407,-351.5 401,-351.5 401,-351.5 229,-351.5 229,-351.5 223,-351.5 217,-345.5 217,-339.5 217,-339.5 217,-202.5 217,-202.5 217,-196.5 223,-190.5 229,-190.5"/>
<text text-anchor="middle" x="246.5" y="-267.3" font-family="Times,serif" font-size="14.00" fill="#000000">origin</text>
<polyline fill="none" stroke="#000000" points="276,-190.5 276,-351.5 "/>
<text text-anchor="middle" x="286.5" y="-267.3" font-family="Times,serif" font-size="14.00" fill="#000000"> </text>
<polyline fill="none" stroke="#000000" points="297,-190.5 297,-351.5 "/>
<text text-anchor="middle" x="344.5" y="-336.3" font-family="Times,serif" font-size="14.00" fill="#000000">desc</text>
<polyline fill="none" stroke="#000000" points="297,-328.5 392,-328.5 "/>
<text text-anchor="middle" x="344.5" y="-313.3" font-family="Times,serif" font-size="14.00" fill="#000000">id</text>
<polyline fill="none" stroke="#000000" points="297,-305.5 392,-305.5 "/>
<text text-anchor="middle" x="344.5" y="-290.3" font-family="Times,serif" font-size="14.00" fill="#000000">is_external</text>
<polyline fill="none" stroke="#000000" points="297,-282.5 392,-282.5 "/>
<text text-anchor="middle" x="344.5" y="-267.3" font-family="Times,serif" font-size="14.00" fill="#000000">name</text>
<polyline fill="none" stroke="#000000" points="297,-259.5 392,-259.5 "/>
<text text-anchor="middle" x="344.5" y="-244.3" font-family="Times,serif" font-size="14.00" fill="#000000">nanoid6</text>
<polyline fill="none" stroke="#000000" points="297,-236.5 392,-236.5 "/>
<text text-anchor="middle" x="344.5" y="-221.3" font-family="Times,serif" font-size="14.00" fill="#000000">nanoid8</text>
<polyline fill="none" stroke="#000000" points="297,-213.5 392,-213.5 "/>
<text text-anchor="middle" x="344.5" y="-198.3" font-family="Times,serif" font-size="14.00" fill="#000000">url</text>
<polyline fill="none" stroke="#000000" points="392,-190.5 392,-351.5 "/>
<text text-anchor="middle" x="402.5" y="-267.3" font-family="Times,serif" font-size="14.00" fill="#000000"> </text>
</g>
<!-- origin&#45;&gt;tag -->
<g id="edge11" class="edge">
<title>origin&#45;&gt;tag</title>
<path fill="none" stroke="#000000" d="M351.8547,-190.3704C357.8645,-178.9461 364.3224,-167.5179 371,-157 373.1098,-153.6768 375.3235,-150.3323 377.6113,-146.9906"/>
<polygon fill="#000000" stroke="#000000" points="380.5487,-148.898 383.4342,-138.7036 374.8212,-144.8735 380.5487,-148.898"/>
<text text-anchor="middle" x="399" y="-160.8" font-family="Times,serif" font-size="14.00" fill="#000000">has_tag</text>
</g>
<!-- node -->
<g id="node3" class="node">
<title>node</title>
<path fill="none" stroke="#000000" d="M673.5,-1088.5C673.5,-1088.5 822.5,-1088.5 822.5,-1088.5 828.5,-1088.5 834.5,-1094.5 834.5,-1100.5 834.5,-1100.5 834.5,-1237.5 834.5,-1237.5 834.5,-1243.5 828.5,-1249.5 822.5,-1249.5 822.5,-1249.5 673.5,-1249.5 673.5,-1249.5 667.5,-1249.5 661.5,-1243.5 661.5,-1237.5 661.5,-1237.5 661.5,-1100.5 661.5,-1100.5 661.5,-1094.5 667.5,-1088.5 673.5,-1088.5"/>
<text text-anchor="middle" x="687" y="-1165.3" font-family="Times,serif" font-size="14.00" fill="#000000">node</text>
<polyline fill="none" stroke="#000000" points="712.5,-1088.5 712.5,-1249.5 "/>
<text text-anchor="middle" x="723" y="-1165.3" font-family="Times,serif" font-size="14.00" fill="#000000"> </text>
<polyline fill="none" stroke="#000000" points="733.5,-1088.5 733.5,-1249.5 "/>
<text text-anchor="middle" x="773.5" y="-1234.3" font-family="Times,serif" font-size="14.00" fill="#000000">category</text>
<polyline fill="none" stroke="#000000" points="733.5,-1226.5 813.5,-1226.5 "/>
<text text-anchor="middle" x="773.5" y="-1211.3" font-family="Times,serif" font-size="14.00" fill="#000000">desc</text>
<polyline fill="none" stroke="#000000" points="733.5,-1203.5 813.5,-1203.5 "/>
<text text-anchor="middle" x="773.5" y="-1188.3" font-family="Times,serif" font-size="14.00" fill="#000000">handle</text>
<polyline fill="none" stroke="#000000" points="733.5,-1180.5 813.5,-1180.5 "/>
<text text-anchor="middle" x="773.5" y="-1165.3" font-family="Times,serif" font-size="14.00" fill="#000000">id</text>
<polyline fill="none" stroke="#000000" points="733.5,-1157.5 813.5,-1157.5 "/>
<text text-anchor="middle" x="773.5" y="-1142.3" font-family="Times,serif" font-size="14.00" fill="#000000">model</text>
<polyline fill="none" stroke="#000000" points="733.5,-1134.5 813.5,-1134.5 "/>
<text text-anchor="middle" x="773.5" y="-1119.3" font-family="Times,serif" font-size="14.00" fill="#000000">nanoid6</text>
<polyline fill="none" stroke="#000000" points="733.5,-1111.5 813.5,-1111.5 "/>
<text text-anchor="middle" x="773.5" y="-1096.3" font-family="Times,serif" font-size="14.00" fill="#000000">nanoid8</text>
<polyline fill="none" stroke="#000000" points="813.5,-1088.5 813.5,-1249.5 "/>
<text text-anchor="middle" x="824" y="-1165.3" font-family="Times,serif" font-size="14.00" fill="#000000"> </text>
</g>
<!-- node&#45;&gt;property -->
<g id="edge16" class="edge">
<title>node&#45;&gt;property</title>
<path fill="none" stroke="#000000" d="M664.8563,-1088.3017C649.984,-1073.8668 634.1918,-1058.5391 618.4415,-1043.252"/>
<polygon fill="#000000" stroke="#000000" points="620.8248,-1040.6877 611.2113,-1036.2345 615.9494,-1045.7108 620.8248,-1040.6877"/>
<text text-anchor="middle" x="690.5" y="-1058.8" font-family="Times,serif" font-size="14.00" fill="#000000">has_property</text>
</g>
<!-- node&#45;&gt;tag -->
<g id="edge13" class="edge">
<title>node&#45;&gt;tag</title>
<path fill="none" stroke="#000000" d="M779.8816,-1088.4488C781.7844,-1082.2583 783.5223,-1076.061 785,-1070 800.7479,-1005.4089 803,-987.9831 803,-921.5 803,-921.5 803,-921.5 803,-271 803,-146.0991 636.4401,-97.9301 529.2802,-79.8645"/>
<polygon fill="#000000" stroke="#000000" points="529.5352,-76.3601 519.1029,-78.2086 528.411,-83.2692 529.5352,-76.3601"/>
<text text-anchor="middle" x="831" y="-586.8" font-family="Times,serif" font-size="14.00" fill="#000000">has_tag</text>
</g>
<!-- node&#45;&gt;concept -->
<g id="edge4" class="edge">
<title>node&#45;&gt;concept</title>
<path fill="none" stroke="#000000" d="M767.0465,-1088.1759C782.3907,-1002.9508 792.7437,-868.1069 733,-773 723.905,-758.5215 708.6018,-769.1475 699,-755 602.3395,-612.5774 719.0395,-530.557 657,-370 651.0055,-354.4863 641.9476,-339.206 632.2595,-325.4662"/>
<polygon fill="#000000" stroke="#000000" points="634.8909,-323.1348 626.1675,-317.122 629.2373,-327.2624 634.8909,-323.1348"/>
<text text-anchor="middle" x="744" y="-681.8" font-family="Times,serif" font-size="14.00" fill="#000000">has_concept</text>
</g>
<!-- term -->
<g id="node4" class="node">
<title>term</title>
<path fill="none" stroke="#000000" d="M197.5,-403.5C197.5,-403.5 400.5,-403.5 400.5,-403.5 406.5,-403.5 412.5,-409.5 412.5,-415.5 412.5,-415.5 412.5,-552.5 412.5,-552.5 412.5,-558.5 406.5,-564.5 400.5,-564.5 400.5,-564.5 197.5,-564.5 197.5,-564.5 191.5,-564.5 185.5,-558.5 185.5,-552.5 185.5,-552.5 185.5,-415.5 185.5,-415.5 185.5,-409.5 191.5,-403.5 197.5,-403.5"/>
<text text-anchor="middle" x="211" y="-480.3" font-family="Times,serif" font-size="14.00" fill="#000000">term</text>
<polyline fill="none" stroke="#000000" points="236.5,-403.5 236.5,-564.5 "/>
<text text-anchor="middle" x="247" y="-480.3" font-family="Times,serif" font-size="14.00" fill="#000000"> </text>
<polyline fill="none" stroke="#000000" points="257.5,-403.5 257.5,-564.5 "/>
<text text-anchor="middle" x="324.5" y="-549.3" font-family="Times,serif" font-size="14.00" fill="#000000">desc</text>
<polyline fill="none" stroke="#000000" points="257.5,-541.5 391.5,-541.5 "/>
<text text-anchor="middle" x="324.5" y="-526.3" font-family="Times,serif" font-size="14.00" fill="#000000">id</text>
<polyline fill="none" stroke="#000000" points="257.5,-518.5 391.5,-518.5 "/>
<text text-anchor="middle" x="324.5" y="-503.3" font-family="Times,serif" font-size="14.00" fill="#000000">nanoid6</text>
<polyline fill="none" stroke="#000000" points="257.5,-495.5 391.5,-495.5 "/>
<text text-anchor="middle" x="324.5" y="-480.3" font-family="Times,serif" font-size="14.00" fill="#000000">nanoid8</text>
<polyline fill="none" stroke="#000000" points="257.5,-472.5 391.5,-472.5 "/>
<text text-anchor="middle" x="324.5" y="-457.3" font-family="Times,serif" font-size="14.00" fill="#000000">origin_definition</text>
<polyline fill="none" stroke="#000000" points="257.5,-449.5 391.5,-449.5 "/>
<text text-anchor="middle" x="324.5" y="-434.3" font-family="Times,serif" font-size="14.00" fill="#000000">origin_id</text>
<polyline fill="none" stroke="#000000" points="257.5,-426.5 391.5,-426.5 "/>
<text text-anchor="middle" x="324.5" y="-411.3" font-family="Times,serif" font-size="14.00" fill="#000000">value</text>
<polyline fill="none" stroke="#000000" points="391.5,-403.5 391.5,-564.5 "/>
<text text-anchor="middle" x="402" y="-480.3" font-family="Times,serif" font-size="14.00" fill="#000000"> </text>
</g>
<!-- term&#45;&gt;origin -->
<g id="edge19" class="edge">
<title>term&#45;&gt;origin</title>
<path fill="none" stroke="#000000" d="M242.313,-403.2871C239.6636,-392.2973 239.42,-381.0091 243,-370 243.9709,-367.0142 245.0696,-364.0433 246.278,-361.0956"/>
<polygon fill="#000000" stroke="#000000" points="249.5632,-362.3247 250.4885,-351.7704 243.1833,-359.4441 249.5632,-362.3247"/>
<text text-anchor="middle" x="280.5" y="-373.8" font-family="Times,serif" font-size="14.00" fill="#000000">has_origin</text>
</g>
<!-- term&#45;&gt;tag -->
<g id="edge9" class="edge">
<title>term&#45;&gt;tag</title>
<path fill="none" stroke="#000000" d="M187.1822,-403.406C172.9119,-388.0309 160.3833,-370.7951 152,-352 122.6705,-286.2445 112.0689,-249.9125 152,-190 196.3045,-123.5256 284.9774,-93.6617 352.48,-80.2813"/>
<polygon fill="#000000" stroke="#000000" points="353.5242,-83.6459 362.6995,-78.3483 352.2232,-76.7679 353.5242,-83.6459"/>
<text text-anchor="middle" x="180" y="-267.3" font-family="Times,serif" font-size="14.00" fill="#000000">has_tag</text>
</g>
<!-- term&#45;&gt;concept -->
<g id="edge2" class="edge">
<title>term&#45;&gt;concept</title>
<path fill="none" stroke="#000000" d="M317.0127,-403.3824C322.8883,-390.8118 330.6769,-379.0219 341,-370 368.768,-345.732 387.2321,-364.296 422,-352 445.6706,-343.6287 470.3492,-332.6513 493.1302,-321.4919"/>
<polygon fill="#000000" stroke="#000000" points="494.6927,-324.6238 502.0951,-317.0439 491.5815,-318.3532 494.6927,-324.6238"/>
<text text-anchor="middle" x="380" y="-373.8" font-family="Times,serif" font-size="14.00" fill="#000000">represents</text>
</g>
<!-- relationship -->
<g id="node5" class="node">
<title>relationship</title>
<path fill="none" stroke="#000000" d="M560.5,-1301.5C560.5,-1301.5 779.5,-1301.5 779.5,-1301.5 785.5,-1301.5 791.5,-1307.5 791.5,-1313.5 791.5,-1313.5 791.5,-1473.5 791.5,-1473.5 791.5,-1479.5 785.5,-1485.5 779.5,-1485.5 779.5,-1485.5 560.5,-1485.5 560.5,-1485.5 554.5,-1485.5 548.5,-1479.5 548.5,-1473.5 548.5,-1473.5 548.5,-1313.5 548.5,-1313.5 548.5,-1307.5 554.5,-1301.5 560.5,-1301.5"/>
<text text-anchor="middle" x="599.5" y="-1389.8" font-family="Times,serif" font-size="14.00" fill="#000000">relationship</text>
<polyline fill="none" stroke="#000000" points="650.5,-1301.5 650.5,-1485.5 "/>
<text text-anchor="middle" x="661" y="-1389.8" font-family="Times,serif" font-size="14.00" fill="#000000"> </text>
<polyline fill="none" stroke="#000000" points="671.5,-1301.5 671.5,-1485.5 "/>
<text text-anchor="middle" x="721" y="-1470.3" font-family="Times,serif" font-size="14.00" fill="#000000">desc</text>
<polyline fill="none" stroke="#000000" points="671.5,-1462.5 770.5,-1462.5 "/>
<text text-anchor="middle" x="721" y="-1447.3" font-family="Times,serif" font-size="14.00" fill="#000000">handle</text>
<polyline fill="none" stroke="#000000" points="671.5,-1439.5 770.5,-1439.5 "/>
<text text-anchor="middle" x="721" y="-1424.3" font-family="Times,serif" font-size="14.00" fill="#000000">id</text>
<polyline fill="none" stroke="#000000" points="671.5,-1416.5 770.5,-1416.5 "/>
<text text-anchor="middle" x="721" y="-1401.3" font-family="Times,serif" font-size="14.00" fill="#000000">is_required</text>
<polyline fill="none" stroke="#000000" points="671.5,-1393.5 770.5,-1393.5 "/>
<text text-anchor="middle" x="721" y="-1378.3" font-family="Times,serif" font-size="14.00" fill="#000000">model</text>
<polyline fill="none" stroke="#000000" points="671.5,-1370.5 770.5,-1370.5 "/>
<text text-anchor="middle" x="721" y="-1355.3" font-family="Times,serif" font-size="14.00" fill="#000000">multiplicity</text>
<polyline fill="none" stroke="#000000" points="671.5,-1347.5 770.5,-1347.5 "/>
<text text-anchor="middle" x="721" y="-1332.3" font-family="Times,serif" font-size="14.00" fill="#000000">nanoid6</text>
<polyline fill="none" stroke="#000000" points="671.5,-1324.5 770.5,-1324.5 "/>
<text text-anchor="middle" x="721" y="-1309.3" font-family="Times,serif" font-size="14.00" fill="#000000">nanoid8</text>
<polyline fill="none" stroke="#000000" points="770.5,-1301.5 770.5,-1485.5 "/>
<text text-anchor="middle" x="781" y="-1389.8" font-family="Times,serif" font-size="14.00" fill="#000000"> </text>
</g>
<!-- relationship&#45;&gt;property -->
<g id="edge17" class="edge">
<title>relationship&#45;&gt;property</title>
<path fill="none" stroke="#000000" d="M552.6585,-1301.1834C538.9441,-1285.528 526.7492,-1268.3433 518,-1250 488.141,-1187.3988 480.9599,-1110.3965 481.6722,-1046.6825"/>
<polygon fill="#000000" stroke="#000000" points="485.1735,-1046.6358 481.852,-1036.5751 478.1746,-1046.5112 485.1735,-1046.6358"/>
<text text-anchor="middle" x="565.5" y="-1165.3" font-family="Times,serif" font-size="14.00" fill="#000000">has_property</text>
</g>
<!-- relationship&#45;&gt;node -->
<g id="edge3" class="edge">
<title>relationship&#45;&gt;node</title>
<path fill="none" stroke="#000000" d="M718.9869,-1301.469C721.5411,-1295.2953 723.9102,-1289.1043 726,-1283 728.5761,-1275.4755 730.8807,-1267.5623 732.9363,-1259.559"/>
<polygon fill="#000000" stroke="#000000" points="736.3541,-1260.3165 735.3218,-1249.7721 729.5532,-1258.6588 736.3541,-1260.3165"/>
<text text-anchor="middle" x="756.5" y="-1271.8" font-family="Times,serif" font-size="14.00" fill="#000000">has_dst</text>
</g>
<!-- relationship&#45;&gt;node -->
<g id="edge18" class="edge">
<title>relationship&#45;&gt;node</title>
<path fill="none" stroke="#000000" d="M660.0917,-1301.4301C661.0928,-1289.9676 663.2266,-1278.5708 667,-1268 668.1199,-1264.8628 669.3866,-1261.7533 670.7791,-1258.6791"/>
<polygon fill="#000000" stroke="#000000" points="673.9905,-1260.0819 675.3131,-1249.5699 667.7238,-1256.9627 673.9905,-1260.0819"/>
<text text-anchor="middle" x="694.5" y="-1271.8" font-family="Times,serif" font-size="14.00" fill="#000000">has_src</text>
</g>
<!-- relationship&#45;&gt;tag -->
<g id="edge10" class="edge">
<title>relationship&#45;&gt;tag</title>
<path fill="none" stroke="#000000" d="M791.6134,-1315.7913C835.301,-1277.8771 874,-1227.7198 874,-1169 874,-1169 874,-1169 874,-271 874,-226.9798 849.4721,-219.721 817,-190 737.1905,-116.9521 612.8671,-88.1735 529.2561,-76.8436"/>
<polygon fill="#000000" stroke="#000000" points="529.6347,-73.3635 519.2672,-75.5466 528.7333,-80.3052 529.6347,-73.3635"/>
<text text-anchor="middle" x="902" y="-681.8" font-family="Times,serif" font-size="14.00" fill="#000000">has_tag</text>
</g>
<!-- relationship&#45;&gt;concept -->
<g id="edge7" class="edge">
<title>relationship&#45;&gt;concept</title>
<path fill="none" stroke="#000000" d="M658.3715,-1301.3265C656.4222,-1284.277 654.5367,-1266.6122 653,-1250 625.6762,-954.6248 644.9775,-879.2057 629,-583 624.6761,-502.8392 625.9728,-482.3795 614,-403 610.2032,-377.8271 604.4155,-350.281 599.0065,-326.8952"/>
<polygon fill="#000000" stroke="#000000" points="602.4109,-326.0821 596.7185,-317.1464 595.5961,-327.6816 602.4109,-326.0821"/>
<text text-anchor="middle" x="680" y="-776.8" font-family="Times,serif" font-size="14.00" fill="#000000">has_concept</text>
</g>
<!-- concept&#45;&gt;tag -->
<g id="edge12" class="edge">
<title>concept&#45;&gt;tag</title>
<path fill="none" stroke="#000000" d="M551.9635,-224.7718C535.5547,-201.811 515.2824,-173.4437 496.5732,-147.2639"/>
<polygon fill="#000000" stroke="#000000" points="499.2225,-144.9513 490.5606,-138.8504 493.5273,-149.0214 499.2225,-144.9513"/>
<text text-anchor="middle" x="541" y="-160.8" font-family="Times,serif" font-size="14.00" fill="#000000">has_tag</text>
</g>
<!-- value_set&#45;&gt;origin -->
<g id="edge20" class="edge">
<title>value_set&#45;&gt;origin</title>
<path fill="none" stroke="#000000" d="M309.8719,-659.6577C229.3105,-636.6021 125.6096,-601.0116 101,-565 60.3764,-505.5549 63.1474,-464.2469 101,-403 127.6463,-359.8854 159.6557,-378.2709 203,-352 204.7315,-350.9505 206.4705,-349.8823 208.2147,-348.7976"/>
<polygon fill="#000000" stroke="#000000" points="210.3961,-351.5588 216.9676,-343.2481 206.6478,-345.6468 210.3961,-351.5588"/>
<text text-anchor="middle" x="138.5" y="-480.3" font-family="Times,serif" font-size="14.00" fill="#000000">has_origin</text>
</g>
<!-- value_set&#45;&gt;term -->
<g id="edge15" class="edge">
<title>value_set&#45;&gt;term</title>
<path fill="none" stroke="#000000" d="M370.2468,-616.3444C366.7595,-610.1535 363.3027,-603.971 360,-598 355.6516,-590.1384 351.1719,-581.9486 346.7082,-573.7252"/>
<polygon fill="#000000" stroke="#000000" points="349.7167,-571.9306 341.8779,-564.8029 343.5608,-575.2632 349.7167,-571.9306"/>
<text text-anchor="middle" x="393.5" y="-586.8" font-family="Times,serif" font-size="14.00" fill="#000000">has_term</text>
</g>
<!-- value_set&#45;&gt;tag -->
<g id="edge8" class="edge">
<title>value_set&#45;&gt;tag</title>
<path fill="none" stroke="#000000" d="M424.5189,-616.4054C425.4905,-610.2015 426.3423,-603.9993 427,-598 444.3994,-439.283 444.6168,-252.235 442.9691,-148.6463"/>
<polygon fill="#000000" stroke="#000000" points="446.4675,-148.519 442.7988,-138.5796 439.4685,-148.6374 446.4675,-148.519"/>
<text text-anchor="middle" x="469" y="-373.8" font-family="Times,serif" font-size="14.00" fill="#000000">has_tag</text>
</g>
<!-- value_set&#45;&gt;concept -->
<g id="edge6" class="edge">
<title>value_set&#45;&gt;concept</title>
<path fill="none" stroke="#000000" d="M447.4333,-616.4606C450.183,-610.3004 452.7538,-604.0902 455,-598 485.8124,-514.4555 466.3901,-485.0441 501,-403 512.3278,-376.1471 528.9154,-348.6165 544.3641,-325.693"/>
<polygon fill="#000000" stroke="#000000" points="547.4556,-327.373 550.2159,-317.144 541.6792,-323.419 547.4556,-327.373"/>
<text text-anchor="middle" x="546" y="-480.3" font-family="Times,serif" font-size="14.00" fill="#000000">has_concept</text>
</g>
</g>
</svg>
