<?xml version="1.0" encoding="UTF-8" standalone="no"?>
<!DOCTYPE svg PUBLIC "-//W3C//DTD SVG 1.1//EN"
 "http://www.w3.org/Graphics/SVG/1.1/DTD/svg11.dtd">
<!-- Generated by graphviz version 2.48.0 (20210717.1556)
 -->
<!-- Title: Perl Pages: 1 -->
<svg width="842pt" height="1149pt"
 viewBox="0.00 0.00 842.00 1149.00" xmlns="http://www.w3.org/2000/svg" xmlns:xlink="http://www.w3.org/1999/xlink">
<g id="graph0" class="graph" transform="scale(1 1) rotate(0) translate(4 1145)">
<title>Perl</title>
<polygon fill="white" stroke="transparent" points="-4,4 -4,-1145 838,-1145 838,4 -4,4"/>
<!-- relationship -->
<g id="node1" class="node">
<title>relationship</title>
<path fill="none" stroke="black" d="M452.5,-1002.5C452.5,-1002.5 633.5,-1002.5 633.5,-1002.5 639.5,-1002.5 645.5,-1008.5 645.5,-1014.5 645.5,-1014.5 645.5,-1128.5 645.5,-1128.5 645.5,-1134.5 639.5,-1140.5 633.5,-1140.5 633.5,-1140.5 452.5,-1140.5 452.5,-1140.5 446.5,-1140.5 440.5,-1134.5 440.5,-1128.5 440.5,-1128.5 440.5,-1014.5 440.5,-1014.5 440.5,-1008.5 446.5,-1002.5 452.5,-1002.5"/>
<text text-anchor="middle" x="482" y="-1067.8" font-family="Times,serif" font-size="14.00">relationship</text>
<polyline fill="none" stroke="black" points="523.5,-1002.5 523.5,-1140.5 "/>
<text text-anchor="middle" x="533.5" y="-1067.8" font-family="Times,serif" font-size="14.00"> </text>
<polyline fill="none" stroke="black" points="543.5,-1002.5 543.5,-1140.5 "/>
<text text-anchor="middle" x="584.5" y="-1125.3" font-family="Times,serif" font-size="14.00">desc</text>
<polyline fill="none" stroke="black" points="543.5,-1117.5 625.5,-1117.5 "/>
<text text-anchor="middle" x="584.5" y="-1102.3" font-family="Times,serif" font-size="14.00">handle</text>
<polyline fill="none" stroke="black" points="543.5,-1094.5 625.5,-1094.5 "/>
<text text-anchor="middle" x="584.5" y="-1079.3" font-family="Times,serif" font-size="14.00">is_required</text>
<polyline fill="none" stroke="black" points="543.5,-1071.5 625.5,-1071.5 "/>
<text text-anchor="middle" x="584.5" y="-1056.3" font-family="Times,serif" font-size="14.00">model</text>
<polyline fill="none" stroke="black" points="543.5,-1048.5 625.5,-1048.5 "/>
<text text-anchor="middle" x="584.5" y="-1033.3" font-family="Times,serif" font-size="14.00">multiplicity</text>
<polyline fill="none" stroke="black" points="543.5,-1025.5 625.5,-1025.5 "/>
<text text-anchor="middle" x="584.5" y="-1010.3" font-family="Times,serif" font-size="14.00">nanoid</text>
<polyline fill="none" stroke="black" points="625.5,-1002.5 625.5,-1140.5 "/>
<text text-anchor="middle" x="635.5" y="-1067.8" font-family="Times,serif" font-size="14.00"> </text>
</g>
<!-- concept -->
<g id="node2" class="node">
<title>concept</title>
<path fill="none" stroke="black" d="M515.5,-179C515.5,-179 646.5,-179 646.5,-179 652.5,-179 658.5,-185 658.5,-191 658.5,-191 658.5,-213 658.5,-213 658.5,-219 652.5,-225 646.5,-225 646.5,-225 515.5,-225 515.5,-225 509.5,-225 503.5,-219 503.5,-213 503.5,-213 503.5,-191 503.5,-191 503.5,-185 509.5,-179 515.5,-179"/>
<text text-anchor="middle" x="533.5" y="-198.3" font-family="Times,serif" font-size="14.00">concept</text>
<polyline fill="none" stroke="black" points="563.5,-179 563.5,-225 "/>
<text text-anchor="middle" x="573.5" y="-198.3" font-family="Times,serif" font-size="14.00"> </text>
<polyline fill="none" stroke="black" points="583.5,-179 583.5,-225 "/>
<text text-anchor="middle" x="611" y="-209.8" font-family="Times,serif" font-size="14.00">desc</text>
<polyline fill="none" stroke="black" points="583.5,-202 638.5,-202 "/>
<text text-anchor="middle" x="611" y="-186.8" font-family="Times,serif" font-size="14.00">nanoid</text>
<polyline fill="none" stroke="black" points="638.5,-179 638.5,-225 "/>
<text text-anchor="middle" x="648.5" y="-198.3" font-family="Times,serif" font-size="14.00"> </text>
</g>
<!-- relationship&#45;&gt;concept -->
<g id="edge15" class="edge">
<title>relationship&#45;&gt;concept</title>
<path fill="none" stroke="black" d="M645.74,-1004.73C703.45,-966 764,-921.54 764,-905.5 764,-905.5 764,-905.5 764,-368 764,-302.29 698.11,-256.03 645.4,-229.53"/>
<polygon fill="black" stroke="black" points="646.92,-226.38 636.4,-225.13 643.85,-232.67 646.92,-226.38"/>
<text text-anchor="middle" x="799" y="-592.8" font-family="Times,serif" font-size="14.00">has_concept</text>
</g>
<!-- node -->
<g id="node3" class="node">
<title>node</title>
<path fill="none" stroke="black" d="M550.5,-858.5C550.5,-858.5 665.5,-858.5 665.5,-858.5 671.5,-858.5 677.5,-864.5 677.5,-870.5 677.5,-870.5 677.5,-938.5 677.5,-938.5 677.5,-944.5 671.5,-950.5 665.5,-950.5 665.5,-950.5 550.5,-950.5 550.5,-950.5 544.5,-950.5 538.5,-944.5 538.5,-938.5 538.5,-938.5 538.5,-870.5 538.5,-870.5 538.5,-864.5 544.5,-858.5 550.5,-858.5"/>
<text text-anchor="middle" x="560.5" y="-900.8" font-family="Times,serif" font-size="14.00">node</text>
<polyline fill="none" stroke="black" points="582.5,-858.5 582.5,-950.5 "/>
<text text-anchor="middle" x="592.5" y="-900.8" font-family="Times,serif" font-size="14.00"> </text>
<polyline fill="none" stroke="black" points="602.5,-858.5 602.5,-950.5 "/>
<text text-anchor="middle" x="630" y="-935.3" font-family="Times,serif" font-size="14.00">desc</text>
<polyline fill="none" stroke="black" points="602.5,-927.5 657.5,-927.5 "/>
<text text-anchor="middle" x="630" y="-912.3" font-family="Times,serif" font-size="14.00">handle</text>
<polyline fill="none" stroke="black" points="602.5,-904.5 657.5,-904.5 "/>
<text text-anchor="middle" x="630" y="-889.3" font-family="Times,serif" font-size="14.00">model</text>
<polyline fill="none" stroke="black" points="602.5,-881.5 657.5,-881.5 "/>
<text text-anchor="middle" x="630" y="-866.3" font-family="Times,serif" font-size="14.00">nanoid</text>
<polyline fill="none" stroke="black" points="657.5,-858.5 657.5,-950.5 "/>
<text text-anchor="middle" x="667.5" y="-900.8" font-family="Times,serif" font-size="14.00"> </text>
</g>
<!-- relationship&#45;&gt;node -->
<g id="edge2" class="edge">
<title>relationship&#45;&gt;node</title>
<path fill="none" stroke="black" d="M536.44,-1002.39C537.36,-990.93 539.61,-979.39 544,-969 545.46,-965.55 547.2,-962.2 549.16,-958.94"/>
<polygon fill="black" stroke="black" points="552.11,-960.82 554.82,-950.58 546.32,-956.9 552.11,-960.82"/>
<text text-anchor="middle" x="565" y="-972.8" font-family="Times,serif" font-size="14.00">has_dst</text>
</g>
<!-- relationship&#45;&gt;node -->
<g id="edge18" class="edge">
<title>relationship&#45;&gt;node</title>
<path fill="none" stroke="black" d="M578.46,-1002.09C581.16,-996.04 583.71,-989.95 586,-984 588.89,-976.49 591.58,-968.44 594.02,-960.46"/>
<polygon fill="black" stroke="black" points="597.4,-961.39 596.87,-950.81 590.68,-959.41 597.4,-961.39"/>
<text text-anchor="middle" x="612" y="-972.8" font-family="Times,serif" font-size="14.00">has_src</text>
</g>
<!-- tag -->
<g id="node5" class="node">
<title>tag</title>
<path fill="none" stroke="black" d="M273.5,-0.5C273.5,-0.5 378.5,-0.5 378.5,-0.5 384.5,-0.5 390.5,-6.5 390.5,-12.5 390.5,-12.5 390.5,-80.5 390.5,-80.5 390.5,-86.5 384.5,-92.5 378.5,-92.5 378.5,-92.5 273.5,-92.5 273.5,-92.5 267.5,-92.5 261.5,-86.5 261.5,-80.5 261.5,-80.5 261.5,-12.5 261.5,-12.5 261.5,-6.5 267.5,-0.5 273.5,-0.5"/>
<text text-anchor="middle" x="278.5" y="-42.8" font-family="Times,serif" font-size="14.00">tag</text>
<polyline fill="none" stroke="black" points="295.5,-0.5 295.5,-92.5 "/>
<text text-anchor="middle" x="305.5" y="-42.8" font-family="Times,serif" font-size="14.00"> </text>
<polyline fill="none" stroke="black" points="315.5,-0.5 315.5,-92.5 "/>
<text text-anchor="middle" x="343" y="-77.3" font-family="Times,serif" font-size="14.00">desc</text>
<polyline fill="none" stroke="black" points="315.5,-69.5 370.5,-69.5 "/>
<text text-anchor="middle" x="343" y="-54.3" font-family="Times,serif" font-size="14.00">key</text>
<polyline fill="none" stroke="black" points="315.5,-46.5 370.5,-46.5 "/>
<text text-anchor="middle" x="343" y="-31.3" font-family="Times,serif" font-size="14.00">nanoid</text>
<polyline fill="none" stroke="black" points="315.5,-23.5 370.5,-23.5 "/>
<text text-anchor="middle" x="343" y="-8.3" font-family="Times,serif" font-size="14.00">value</text>
<polyline fill="none" stroke="black" points="370.5,-0.5 370.5,-92.5 "/>
<text text-anchor="middle" x="380.5" y="-42.8" font-family="Times,serif" font-size="14.00"> </text>
</g>
<!-- relationship&#45;&gt;tag -->
<g id="edge7" class="edge">
<title>relationship&#45;&gt;tag</title>
<path fill="none" stroke="black" d="M440.23,-1060.42C282.81,-1042.1 0,-996.51 0,-905.5 0,-905.5 0,-905.5 0,-201 0,-90.58 154.97,-59.46 251.22,-50.77"/>
<polygon fill="black" stroke="black" points="251.53,-54.26 261.2,-49.93 250.94,-47.28 251.53,-54.26"/>
<text text-anchor="middle" x="21.5" y="-520.8" font-family="Times,serif" font-size="14.00">has_tag</text>
</g>
<!-- property -->
<g id="node9" class="node">
<title>property</title>
<path fill="none" stroke="black" d="M358,-622.5C358,-622.5 534,-622.5 534,-622.5 540,-622.5 546,-628.5 546,-634.5 546,-634.5 546,-794.5 546,-794.5 546,-800.5 540,-806.5 534,-806.5 534,-806.5 358,-806.5 358,-806.5 352,-806.5 346,-800.5 346,-794.5 346,-794.5 346,-634.5 346,-634.5 346,-628.5 352,-622.5 358,-622.5"/>
<text text-anchor="middle" x="378" y="-710.8" font-family="Times,serif" font-size="14.00">property</text>
<polyline fill="none" stroke="black" points="410,-622.5 410,-806.5 "/>
<text text-anchor="middle" x="420" y="-710.8" font-family="Times,serif" font-size="14.00"> </text>
<polyline fill="none" stroke="black" points="430,-622.5 430,-806.5 "/>
<text text-anchor="middle" x="478" y="-791.3" font-family="Times,serif" font-size="14.00">desc</text>
<polyline fill="none" stroke="black" points="430,-783.5 526,-783.5 "/>
<text text-anchor="middle" x="478" y="-768.3" font-family="Times,serif" font-size="14.00">handle</text>
<polyline fill="none" stroke="black" points="430,-760.5 526,-760.5 "/>
<text text-anchor="middle" x="478" y="-745.3" font-family="Times,serif" font-size="14.00">is_required</text>
<polyline fill="none" stroke="black" points="430,-737.5 526,-737.5 "/>
<text text-anchor="middle" x="478" y="-722.3" font-family="Times,serif" font-size="14.00">model</text>
<polyline fill="none" stroke="black" points="430,-714.5 526,-714.5 "/>
<text text-anchor="middle" x="478" y="-699.3" font-family="Times,serif" font-size="14.00">nanoid</text>
<polyline fill="none" stroke="black" points="430,-691.5 526,-691.5 "/>
<text text-anchor="middle" x="478" y="-676.3" font-family="Times,serif" font-size="14.00">pattern</text>
<polyline fill="none" stroke="black" points="430,-668.5 526,-668.5 "/>
<text text-anchor="middle" x="478" y="-653.3" font-family="Times,serif" font-size="14.00">units</text>
<polyline fill="none" stroke="black" points="430,-645.5 526,-645.5 "/>
<text text-anchor="middle" x="478" y="-630.3" font-family="Times,serif" font-size="14.00">value_domain</text>
<polyline fill="none" stroke="black" points="526,-622.5 526,-806.5 "/>
<text text-anchor="middle" x="536" y="-710.8" font-family="Times,serif" font-size="14.00"> </text>
</g>
<!-- relationship&#45;&gt;property -->
<g id="edge19" class="edge">
<title>relationship&#45;&gt;property</title>
<path fill="none" stroke="black" d="M482.35,-1002.47C471.3,-986.57 461.29,-969 455,-951 440.18,-908.63 436.41,-859.33 436.94,-816.81"/>
<polygon fill="black" stroke="black" points="440.44,-816.8 437.15,-806.73 433.44,-816.65 440.44,-816.8"/>
<text text-anchor="middle" x="492" y="-900.8" font-family="Times,serif" font-size="14.00">has_property</text>
</g>
<!-- concept&#45;&gt;tag -->
<g id="edge8" class="edge">
<title>concept&#45;&gt;tag</title>
<path fill="none" stroke="black" d="M555.2,-178.95C531.82,-159.6 495.95,-131.45 462,-111 442.55,-99.28 420.58,-88.18 400.06,-78.64"/>
<polygon fill="black" stroke="black" points="401.3,-75.36 390.75,-74.37 398.38,-81.72 401.3,-75.36"/>
<text text-anchor="middle" x="504.5" y="-114.8" font-family="Times,serif" font-size="14.00">has_tag</text>
</g>
<!-- node&#45;&gt;concept -->
<g id="edge13" class="edge">
<title>node&#45;&gt;concept</title>
<path fill="none" stroke="black" d="M609.52,-858.45C613.88,-724.44 625.34,-334.08 613,-278 609.72,-263.09 603.53,-247.44 597.45,-234.31"/>
<polygon fill="black" stroke="black" points="600.58,-232.74 593.1,-225.24 594.27,-235.77 600.58,-232.74"/>
<text text-anchor="middle" x="653" y="-520.8" font-family="Times,serif" font-size="14.00">has_concept</text>
</g>
<!-- node&#45;&gt;tag -->
<g id="edge5" class="edge">
<title>node&#45;&gt;tag</title>
<path fill="none" stroke="black" d="M647.3,-858.22C674.56,-822.1 706,-768.87 706,-715.5 706,-715.5 706,-715.5 706,-201 706,-170.55 692.62,-161.91 668,-144 588.31,-86.03 474.91,-62.83 400.9,-53.58"/>
<polygon fill="black" stroke="black" points="401.07,-50.08 390.73,-52.37 400.24,-57.03 401.07,-50.08"/>
<text text-anchor="middle" x="727.5" y="-448.8" font-family="Times,serif" font-size="14.00">has_tag</text>
</g>
<!-- node&#45;&gt;property -->
<g id="edge20" class="edge">
<title>node&#45;&gt;property</title>
<path fill="none" stroke="black" d="M539.31,-858.32C532.44,-852.54 525.85,-846.39 520,-840 512.99,-832.34 506.32,-823.91 500.05,-815.16"/>
<polygon fill="black" stroke="black" points="502.75,-812.9 494.17,-806.68 497,-816.89 502.75,-812.9"/>
<text text-anchor="middle" x="557" y="-828.8" font-family="Times,serif" font-size="14.00">has_property</text>
</g>
<!-- origin -->
<g id="node4" class="node">
<title>origin</title>
<path fill="none" stroke="black" d="M134,-144.5C134,-144.5 278,-144.5 278,-144.5 284,-144.5 290,-150.5 290,-156.5 290,-156.5 290,-247.5 290,-247.5 290,-253.5 284,-259.5 278,-259.5 278,-259.5 134,-259.5 134,-259.5 128,-259.5 122,-253.5 122,-247.5 122,-247.5 122,-156.5 122,-156.5 122,-150.5 128,-144.5 134,-144.5"/>
<text text-anchor="middle" x="147" y="-198.3" font-family="Times,serif" font-size="14.00">origin</text>
<polyline fill="none" stroke="black" points="172,-144.5 172,-259.5 "/>
<text text-anchor="middle" x="182" y="-198.3" font-family="Times,serif" font-size="14.00"> </text>
<polyline fill="none" stroke="black" points="192,-144.5 192,-259.5 "/>
<text text-anchor="middle" x="231" y="-244.3" font-family="Times,serif" font-size="14.00">desc</text>
<polyline fill="none" stroke="black" points="192,-236.5 270,-236.5 "/>
<text text-anchor="middle" x="231" y="-221.3" font-family="Times,serif" font-size="14.00">is_external</text>
<polyline fill="none" stroke="black" points="192,-213.5 270,-213.5 "/>
<text text-anchor="middle" x="231" y="-198.3" font-family="Times,serif" font-size="14.00">name</text>
<polyline fill="none" stroke="black" points="192,-190.5 270,-190.5 "/>
<text text-anchor="middle" x="231" y="-175.3" font-family="Times,serif" font-size="14.00">nanoid</text>
<polyline fill="none" stroke="black" points="192,-167.5 270,-167.5 "/>
<text text-anchor="middle" x="231" y="-152.3" font-family="Times,serif" font-size="14.00">url</text>
<polyline fill="none" stroke="black" points="270,-144.5 270,-259.5 "/>
<text text-anchor="middle" x="280" y="-198.3" font-family="Times,serif" font-size="14.00"> </text>
</g>
<!-- origin&#45;&gt;tag -->
<g id="edge4" class="edge">
<title>origin&#45;&gt;tag</title>
<path fill="none" stroke="black" d="M244.3,-144.07C252.23,-132.92 260.7,-121.46 269,-111 271.77,-107.51 274.67,-103.97 277.65,-100.43"/>
<polygon fill="black" stroke="black" points="280.4,-102.59 284.23,-92.71 275.07,-98.05 280.4,-102.59"/>
<text text-anchor="middle" x="290.5" y="-114.8" font-family="Times,serif" font-size="14.00">has_tag</text>
</g>
<!-- model -->
<g id="node6" class="node">
<title>model</title>
<path fill="none" stroke="black" d="M676,-1014C676,-1014 816,-1014 816,-1014 822,-1014 828,-1020 828,-1026 828,-1026 828,-1117 828,-1117 828,-1123 822,-1129 816,-1129 816,-1129 676,-1129 676,-1129 670,-1129 664,-1123 664,-1117 664,-1117 664,-1026 664,-1026 664,-1020 670,-1014 676,-1014"/>
<text text-anchor="middle" x="689.5" y="-1067.8" font-family="Times,serif" font-size="14.00">model</text>
<polyline fill="none" stroke="black" points="715,-1014 715,-1129 "/>
<text text-anchor="middle" x="725" y="-1067.8" font-family="Times,serif" font-size="14.00"> </text>
<polyline fill="none" stroke="black" points="735,-1014 735,-1129 "/>
<text text-anchor="middle" x="771.5" y="-1113.8" font-family="Times,serif" font-size="14.00">desc</text>
<polyline fill="none" stroke="black" points="735,-1106 808,-1106 "/>
<text text-anchor="middle" x="771.5" y="-1090.8" font-family="Times,serif" font-size="14.00">handle</text>
<polyline fill="none" stroke="black" points="735,-1083 808,-1083 "/>
<text text-anchor="middle" x="771.5" y="-1067.8" font-family="Times,serif" font-size="14.00">name</text>
<polyline fill="none" stroke="black" points="735,-1060 808,-1060 "/>
<text text-anchor="middle" x="771.5" y="-1044.8" font-family="Times,serif" font-size="14.00">nanoid</text>
<polyline fill="none" stroke="black" points="735,-1037 808,-1037 "/>
<text text-anchor="middle" x="771.5" y="-1021.8" font-family="Times,serif" font-size="14.00">repository</text>
<polyline fill="none" stroke="black" points="808,-1014 808,-1129 "/>
<text text-anchor="middle" x="818" y="-1067.8" font-family="Times,serif" font-size="14.00"> </text>
</g>
<!-- value_set -->
<g id="node7" class="node">
<title>value_set</title>
<path fill="none" stroke="black" d="M367,-478.5C367,-478.5 507,-478.5 507,-478.5 513,-478.5 519,-484.5 519,-490.5 519,-490.5 519,-558.5 519,-558.5 519,-564.5 513,-570.5 507,-570.5 507,-570.5 367,-570.5 367,-570.5 361,-570.5 355,-564.5 355,-558.5 355,-558.5 355,-490.5 355,-490.5 355,-484.5 361,-478.5 367,-478.5"/>
<text text-anchor="middle" x="389.5" y="-520.8" font-family="Times,serif" font-size="14.00">value_set</text>
<polyline fill="none" stroke="black" points="424,-478.5 424,-570.5 "/>
<text text-anchor="middle" x="434" y="-520.8" font-family="Times,serif" font-size="14.00"> </text>
<polyline fill="none" stroke="black" points="444,-478.5 444,-570.5 "/>
<text text-anchor="middle" x="471.5" y="-555.3" font-family="Times,serif" font-size="14.00">desc</text>
<polyline fill="none" stroke="black" points="444,-547.5 499,-547.5 "/>
<text text-anchor="middle" x="471.5" y="-532.3" font-family="Times,serif" font-size="14.00">handle</text>
<polyline fill="none" stroke="black" points="444,-524.5 499,-524.5 "/>
<text text-anchor="middle" x="471.5" y="-509.3" font-family="Times,serif" font-size="14.00">nanoid</text>
<polyline fill="none" stroke="black" points="444,-501.5 499,-501.5 "/>
<text text-anchor="middle" x="471.5" y="-486.3" font-family="Times,serif" font-size="14.00">url</text>
<polyline fill="none" stroke="black" points="499,-478.5 499,-570.5 "/>
<text text-anchor="middle" x="509" y="-520.8" font-family="Times,serif" font-size="14.00"> </text>
</g>
<!-- value_set&#45;&gt;concept -->
<g id="edge16" class="edge">
<title>value_set&#45;&gt;concept</title>
<path fill="none" stroke="black" d="M456.89,-478.29C459.38,-472.18 461.82,-465.96 464,-460 487.81,-394.91 480.45,-373.69 510,-311 523.12,-283.17 542.55,-254.17 557.77,-233.24"/>
<polygon fill="black" stroke="black" points="560.68,-235.2 563.8,-225.07 555.04,-231.04 560.68,-235.2"/>
<text text-anchor="middle" x="545" y="-365.3" font-family="Times,serif" font-size="14.00">has_concept</text>
</g>
<!-- value_set&#45;&gt;origin -->
<g id="edge11" class="edge">
<title>value_set&#45;&gt;origin</title>
<path fill="none" stroke="black" d="M354.7,-519.49C289.77,-511.47 203.05,-488.92 159,-427 126.11,-380.76 144.53,-316.41 167.26,-268.54"/>
<polygon fill="black" stroke="black" points="170.43,-270.02 171.7,-259.5 164.15,-266.94 170.43,-270.02"/>
<text text-anchor="middle" x="189" y="-365.3" font-family="Times,serif" font-size="14.00">has_origin</text>
</g>
<!-- value_set&#45;&gt;tag -->
<g id="edge9" class="edge">
<title>value_set&#45;&gt;tag</title>
<path fill="none" stroke="black" d="M436.67,-478.25C436.52,-467.36 436.31,-455.76 436,-445 433.86,-370.68 444.3,-350.07 426,-278 410.24,-215.92 398.82,-202.61 373,-144 366.96,-130.28 360.07,-115.66 353.47,-102.05"/>
<polygon fill="black" stroke="black" points="356.49,-100.27 348.96,-92.82 350.2,-103.34 356.49,-100.27"/>
<text text-anchor="middle" x="451.5" y="-281.8" font-family="Times,serif" font-size="14.00">has_tag</text>
</g>
<!-- term -->
<g id="node8" class="node">
<title>term</title>
<path fill="none" stroke="black" d="M240.5,-311.5C240.5,-311.5 409.5,-311.5 409.5,-311.5 415.5,-311.5 421.5,-317.5 421.5,-323.5 421.5,-323.5 421.5,-414.5 421.5,-414.5 421.5,-420.5 415.5,-426.5 409.5,-426.5 409.5,-426.5 240.5,-426.5 240.5,-426.5 234.5,-426.5 228.5,-420.5 228.5,-414.5 228.5,-414.5 228.5,-323.5 228.5,-323.5 228.5,-317.5 234.5,-311.5 240.5,-311.5"/>
<text text-anchor="middle" x="249.5" y="-365.3" font-family="Times,serif" font-size="14.00">term</text>
<polyline fill="none" stroke="black" points="270.5,-311.5 270.5,-426.5 "/>
<text text-anchor="middle" x="280.5" y="-365.3" font-family="Times,serif" font-size="14.00"> </text>
<polyline fill="none" stroke="black" points="290.5,-311.5 290.5,-426.5 "/>
<text text-anchor="middle" x="346" y="-411.3" font-family="Times,serif" font-size="14.00">desc</text>
<polyline fill="none" stroke="black" points="290.5,-403.5 401.5,-403.5 "/>
<text text-anchor="middle" x="346" y="-388.3" font-family="Times,serif" font-size="14.00">nanoid</text>
<polyline fill="none" stroke="black" points="290.5,-380.5 401.5,-380.5 "/>
<text text-anchor="middle" x="346" y="-365.3" font-family="Times,serif" font-size="14.00">origin_definition</text>
<polyline fill="none" stroke="black" points="290.5,-357.5 401.5,-357.5 "/>
<text text-anchor="middle" x="346" y="-342.3" font-family="Times,serif" font-size="14.00">origin_id</text>
<polyline fill="none" stroke="black" points="290.5,-334.5 401.5,-334.5 "/>
<text text-anchor="middle" x="346" y="-319.3" font-family="Times,serif" font-size="14.00">value</text>
<polyline fill="none" stroke="black" points="401.5,-311.5 401.5,-426.5 "/>
<text text-anchor="middle" x="411.5" y="-365.3" font-family="Times,serif" font-size="14.00"> </text>
</g>
<!-- value_set&#45;&gt;term -->
<g id="edge12" class="edge">
<title>value_set&#45;&gt;term</title>
<path fill="none" stroke="black" d="M398.14,-478.22C393.27,-472.18 388.45,-466 384,-460 378.16,-452.12 372.23,-443.69 366.5,-435.26"/>
<polygon fill="black" stroke="black" points="369.33,-433.2 360.84,-426.85 363.52,-437.1 369.33,-433.2"/>
<text text-anchor="middle" x="410" y="-448.8" font-family="Times,serif" font-size="14.00">has_term</text>
</g>
<!-- term&#45;&gt;concept -->
<g id="edge17" class="edge">
<title>term&#45;&gt;concept</title>
<path fill="none" stroke="black" d="M344.55,-311.07C350.83,-298.91 358.87,-287.03 369,-278 403.67,-247.1 451.9,-228.72 493.6,-217.9"/>
<polygon fill="black" stroke="black" points="494.63,-221.25 503.49,-215.44 492.94,-214.45 494.63,-221.25"/>
<text text-anchor="middle" x="397.5" y="-281.8" font-family="Times,serif" font-size="14.00">represents</text>
</g>
<!-- term&#45;&gt;origin -->
<g id="edge10" class="edge">
<title>term&#45;&gt;origin</title>
<path fill="none" stroke="black" d="M266.57,-311.39C261.4,-305.39 256.45,-299.2 252,-293 246.53,-285.38 241.35,-277.02 236.56,-268.56"/>
<polygon fill="black" stroke="black" points="239.6,-266.82 231.72,-259.74 233.46,-270.19 239.6,-266.82"/>
<text text-anchor="middle" x="282" y="-281.8" font-family="Times,serif" font-size="14.00">has_origin</text>
</g>
<!-- term&#45;&gt;tag -->
<g id="edge3" class="edge">
<title>term&#45;&gt;tag</title>
<path fill="none" stroke="black" d="M325.18,-311.44C325.36,-252.61 325.65,-161.12 325.83,-102.77"/>
<polygon fill="black" stroke="black" points="329.33,-102.65 325.86,-92.64 322.33,-102.63 329.33,-102.65"/>
<text text-anchor="middle" x="347.5" y="-198.3" font-family="Times,serif" font-size="14.00">has_tag</text>
</g>
<!-- property&#45;&gt;concept -->
<g id="edge14" class="edge">
<title>property&#45;&gt;concept</title>
<path fill="none" stroke="black" d="M515.41,-622.38C518.6,-616.32 521.51,-610.17 524,-604 550.8,-537.75 507.4,-503.82 548,-445 557.27,-431.57 571.73,-441.07 580,-427 615.36,-366.84 601.64,-280.97 590.28,-234.99"/>
<polygon fill="black" stroke="black" points="593.65,-234.07 587.76,-225.26 586.88,-235.82 593.65,-234.07"/>
<text text-anchor="middle" x="583" y="-448.8" font-family="Times,serif" font-size="14.00">has_concept</text>
</g>
<!-- property&#45;&gt;tag -->
<g id="edge6" class="edge">
<title>property&#45;&gt;tag</title>
<path fill="none" stroke="black" d="M346,-705.83C234.91,-691.21 71,-648.76 71,-525.5 71,-525.5 71,-525.5 71,-201 71,-116.07 176.12,-76.92 251.38,-59.77"/>
<polygon fill="black" stroke="black" points="252.3,-63.16 261.32,-57.6 250.81,-56.32 252.3,-63.16"/>
<text text-anchor="middle" x="92.5" y="-365.3" font-family="Times,serif" font-size="14.00">has_tag</text>
</g>
<!-- property&#45;&gt;value_set -->
<g id="edge1" class="edge">
<title>property&#45;&gt;value_set</title>
<path fill="none" stroke="black" d="M441.63,-622.25C440.95,-608.08 440.27,-593.82 439.65,-580.77"/>
<polygon fill="black" stroke="black" points="443.13,-580.41 439.16,-570.59 436.14,-580.75 443.13,-580.41"/>
<text text-anchor="middle" x="480.5" y="-592.8" font-family="Times,serif" font-size="14.00">has_value_set</text>
</g>
</g>
</svg>
