<?xml version="1.0" encoding="UTF-8" standalone="no"?>
<!DOCTYPE svg PUBLIC "-//W3C//DTD SVG 1.1//EN"
 "http://www.w3.org/Graphics/SVG/1.1/DTD/svg11.dtd">
<!-- Generated by graphviz version 2.40.1 (20161225.0304)
 -->
<!-- Title: Perl Pages: 1 -->
<svg width="954pt" height="1494pt"
 viewBox="0.00 0.00 954.00 1494.00" xmlns="http://www.w3.org/2000/svg" xmlns:xlink="http://www.w3.org/1999/xlink">
<g id="graph0" class="graph" transform="scale(1 1) rotate(0) translate(4 1490)">
<title>Perl</title>
<polygon fill="#ffffff" stroke="transparent" points="-4,4 -4,-1490 950,-1490 950,4 -4,4"/>
<!-- tag -->
<g id="node1" class="node">
<title>tag</title>
<path fill="none" stroke="#000000" d="M543,-.5C543,-.5 675,-.5 675,-.5 681,-.5 687,-6.5 687,-12.5 687,-12.5 687,-126.5 687,-126.5 687,-132.5 681,-138.5 675,-138.5 675,-138.5 543,-138.5 543,-138.5 537,-138.5 531,-132.5 531,-126.5 531,-126.5 531,-12.5 531,-12.5 531,-6.5 537,-.5 543,-.5"/>
<text text-anchor="middle" x="551" y="-65.8" font-family="Times,serif" font-size="14.00" fill="#000000">tag</text>
<polyline fill="none" stroke="#000000" points="571,-.5 571,-138.5 "/>
<text text-anchor="middle" x="581.5" y="-65.8" font-family="Times,serif" font-size="14.00" fill="#000000"> </text>
<polyline fill="none" stroke="#000000" points="592,-.5 592,-138.5 "/>
<text text-anchor="middle" x="629" y="-123.3" font-family="Times,serif" font-size="14.00" fill="#000000">desc</text>
<polyline fill="none" stroke="#000000" points="592,-115.5 666,-115.5 "/>
<text text-anchor="middle" x="629" y="-100.3" font-family="Times,serif" font-size="14.00" fill="#000000">id</text>
<polyline fill="none" stroke="#000000" points="592,-92.5 666,-92.5 "/>
<text text-anchor="middle" x="629" y="-77.3" font-family="Times,serif" font-size="14.00" fill="#000000">key</text>
<polyline fill="none" stroke="#000000" points="592,-69.5 666,-69.5 "/>
<text text-anchor="middle" x="629" y="-54.3" font-family="Times,serif" font-size="14.00" fill="#000000">nanoid6</text>
<polyline fill="none" stroke="#000000" points="592,-46.5 666,-46.5 "/>
<text text-anchor="middle" x="629" y="-31.3" font-family="Times,serif" font-size="14.00" fill="#000000">nanoid8</text>
<polyline fill="none" stroke="#000000" points="592,-23.5 666,-23.5 "/>
<text text-anchor="middle" x="629" y="-8.3" font-family="Times,serif" font-size="14.00" fill="#000000">value</text>
<polyline fill="none" stroke="#000000" points="666,-.5 666,-138.5 "/>
<text text-anchor="middle" x="676.5" y="-65.8" font-family="Times,serif" font-size="14.00" fill="#000000"> </text>
</g>
<!-- node -->
<g id="node2" class="node">
<title>node</title>
<path fill="none" stroke="#000000" d="M101.5,-1088.5C101.5,-1088.5 250.5,-1088.5 250.5,-1088.5 256.5,-1088.5 262.5,-1094.5 262.5,-1100.5 262.5,-1100.5 262.5,-1237.5 262.5,-1237.5 262.5,-1243.5 256.5,-1249.5 250.5,-1249.5 250.5,-1249.5 101.5,-1249.5 101.5,-1249.5 95.5,-1249.5 89.5,-1243.5 89.5,-1237.5 89.5,-1237.5 89.5,-1100.5 89.5,-1100.5 89.5,-1094.5 95.5,-1088.5 101.5,-1088.5"/>
<text text-anchor="middle" x="115" y="-1165.3" font-family="Times,serif" font-size="14.00" fill="#000000">node</text>
<polyline fill="none" stroke="#000000" points="140.5,-1088.5 140.5,-1249.5 "/>
<text text-anchor="middle" x="151" y="-1165.3" font-family="Times,serif" font-size="14.00" fill="#000000"> </text>
<polyline fill="none" stroke="#000000" points="161.5,-1088.5 161.5,-1249.5 "/>
<text text-anchor="middle" x="201.5" y="-1234.3" font-family="Times,serif" font-size="14.00" fill="#000000">category</text>
<polyline fill="none" stroke="#000000" points="161.5,-1226.5 241.5,-1226.5 "/>
<text text-anchor="middle" x="201.5" y="-1211.3" font-family="Times,serif" font-size="14.00" fill="#000000">desc</text>
<polyline fill="none" stroke="#000000" points="161.5,-1203.5 241.5,-1203.5 "/>
<text text-anchor="middle" x="201.5" y="-1188.3" font-family="Times,serif" font-size="14.00" fill="#000000">handle</text>
<polyline fill="none" stroke="#000000" points="161.5,-1180.5 241.5,-1180.5 "/>
<text text-anchor="middle" x="201.5" y="-1165.3" font-family="Times,serif" font-size="14.00" fill="#000000">id</text>
<polyline fill="none" stroke="#000000" points="161.5,-1157.5 241.5,-1157.5 "/>
<text text-anchor="middle" x="201.5" y="-1142.3" font-family="Times,serif" font-size="14.00" fill="#000000">model</text>
<polyline fill="none" stroke="#000000" points="161.5,-1134.5 241.5,-1134.5 "/>
<text text-anchor="middle" x="201.5" y="-1119.3" font-family="Times,serif" font-size="14.00" fill="#000000">nanoid6</text>
<polyline fill="none" stroke="#000000" points="161.5,-1111.5 241.5,-1111.5 "/>
<text text-anchor="middle" x="201.5" y="-1096.3" font-family="Times,serif" font-size="14.00" fill="#000000">nanoid8</text>
<polyline fill="none" stroke="#000000" points="241.5,-1088.5 241.5,-1249.5 "/>
<text text-anchor="middle" x="252" y="-1165.3" font-family="Times,serif" font-size="14.00" fill="#000000"> </text>
</g>
<!-- node&#45;&gt;tag -->
<g id="edge7" class="edge">
<title>node&#45;&gt;tag</title>
<path fill="none" stroke="#000000" d="M140.604,-1088.4423C122.8194,-1040.8351 105,-978.8301 105,-921.5 105,-921.5 105,-921.5 105,-271 105,-231.783 110.1881,-215.4799 140,-190 196.8187,-141.4378 400.9824,-102.2007 520.3865,-82.764"/>
<polygon fill="#000000" stroke="#000000" points="521.2904,-86.1636 530.6051,-81.1153 520.1753,-79.2529 521.2904,-86.1636"/>
<text text-anchor="middle" x="133" y="-586.8" font-family="Times,serif" font-size="14.00" fill="#000000">has_tag</text>
</g>
<!-- property -->
<g id="node5" class="node">
<title>property</title>
<path fill="none" stroke="#000000" d="M217,-806.5C217,-806.5 429,-806.5 429,-806.5 435,-806.5 441,-812.5 441,-818.5 441,-818.5 441,-1024.5 441,-1024.5 441,-1030.5 435,-1036.5 429,-1036.5 429,-1036.5 217,-1036.5 217,-1036.5 211,-1036.5 205,-1030.5 205,-1024.5 205,-1024.5 205,-818.5 205,-818.5 205,-812.5 211,-806.5 217,-806.5"/>
<text text-anchor="middle" x="244.5" y="-917.8" font-family="Times,serif" font-size="14.00" fill="#000000">property</text>
<polyline fill="none" stroke="#000000" points="284,-806.5 284,-1036.5 "/>
<text text-anchor="middle" x="294.5" y="-917.8" font-family="Times,serif" font-size="14.00" fill="#000000"> </text>
<polyline fill="none" stroke="#000000" points="305,-806.5 305,-1036.5 "/>
<text text-anchor="middle" x="362.5" y="-1021.3" font-family="Times,serif" font-size="14.00" fill="#000000">desc</text>
<polyline fill="none" stroke="#000000" points="305,-1013.5 420,-1013.5 "/>
<text text-anchor="middle" x="362.5" y="-998.3" font-family="Times,serif" font-size="14.00" fill="#000000">handle</text>
<polyline fill="none" stroke="#000000" points="305,-990.5 420,-990.5 "/>
<text text-anchor="middle" x="362.5" y="-975.3" font-family="Times,serif" font-size="14.00" fill="#000000">id</text>
<polyline fill="none" stroke="#000000" points="305,-967.5 420,-967.5 "/>
<text text-anchor="middle" x="362.5" y="-952.3" font-family="Times,serif" font-size="14.00" fill="#000000">is_required</text>
<polyline fill="none" stroke="#000000" points="305,-944.5 420,-944.5 "/>
<text text-anchor="middle" x="362.5" y="-929.3" font-family="Times,serif" font-size="14.00" fill="#000000">model</text>
<polyline fill="none" stroke="#000000" points="305,-921.5 420,-921.5 "/>
<text text-anchor="middle" x="362.5" y="-906.3" font-family="Times,serif" font-size="14.00" fill="#000000">nanoid6</text>
<polyline fill="none" stroke="#000000" points="305,-898.5 420,-898.5 "/>
<text text-anchor="middle" x="362.5" y="-883.3" font-family="Times,serif" font-size="14.00" fill="#000000">nanoid8</text>
<polyline fill="none" stroke="#000000" points="305,-875.5 420,-875.5 "/>
<text text-anchor="middle" x="362.5" y="-860.3" font-family="Times,serif" font-size="14.00" fill="#000000">pattern</text>
<polyline fill="none" stroke="#000000" points="305,-852.5 420,-852.5 "/>
<text text-anchor="middle" x="362.5" y="-837.3" font-family="Times,serif" font-size="14.00" fill="#000000">units</text>
<polyline fill="none" stroke="#000000" points="305,-829.5 420,-829.5 "/>
<text text-anchor="middle" x="362.5" y="-814.3" font-family="Times,serif" font-size="14.00" fill="#000000">value_domain</text>
<polyline fill="none" stroke="#000000" points="420,-806.5 420,-1036.5 "/>
<text text-anchor="middle" x="430.5" y="-917.8" font-family="Times,serif" font-size="14.00" fill="#000000"> </text>
</g>
<!-- node&#45;&gt;property -->
<g id="edge19" class="edge">
<title>node&#45;&gt;property</title>
<path fill="none" stroke="#000000" d="M198.7914,-1088.3225C203.2004,-1076.8473 208.2652,-1065.4173 214,-1055 215.8015,-1051.7276 217.6864,-1048.4569 219.6425,-1045.1955"/>
<polygon fill="#000000" stroke="#000000" points="222.6835,-1046.9327 224.9779,-1036.5893 216.7341,-1043.2443 222.6835,-1046.9327"/>
<text text-anchor="middle" x="261.5" y="-1058.8" font-family="Times,serif" font-size="14.00" fill="#000000">has_property</text>
</g>
<!-- concept -->
<g id="node7" class="node">
<title>concept</title>
<path fill="none" stroke="#000000" d="M161,-225C161,-225 327,-225 327,-225 333,-225 339,-231 339,-237 339,-237 339,-305 339,-305 339,-311 333,-317 327,-317 327,-317 161,-317 161,-317 155,-317 149,-311 149,-305 149,-305 149,-237 149,-237 149,-231 155,-225 161,-225"/>
<text text-anchor="middle" x="186" y="-267.3" font-family="Times,serif" font-size="14.00" fill="#000000">concept</text>
<polyline fill="none" stroke="#000000" points="223,-225 223,-317 "/>
<text text-anchor="middle" x="233.5" y="-267.3" font-family="Times,serif" font-size="14.00" fill="#000000"> </text>
<polyline fill="none" stroke="#000000" points="244,-225 244,-317 "/>
<text text-anchor="middle" x="281" y="-301.8" font-family="Times,serif" font-size="14.00" fill="#000000">desc</text>
<polyline fill="none" stroke="#000000" points="244,-294 318,-294 "/>
<text text-anchor="middle" x="281" y="-278.8" font-family="Times,serif" font-size="14.00" fill="#000000">id</text>
<polyline fill="none" stroke="#000000" points="244,-271 318,-271 "/>
<text text-anchor="middle" x="281" y="-255.8" font-family="Times,serif" font-size="14.00" fill="#000000">nanoid6</text>
<polyline fill="none" stroke="#000000" points="244,-248 318,-248 "/>
<text text-anchor="middle" x="281" y="-232.8" font-family="Times,serif" font-size="14.00" fill="#000000">nanoid8</text>
<polyline fill="none" stroke="#000000" points="318,-225 318,-317 "/>
<text text-anchor="middle" x="328.5" y="-267.3" font-family="Times,serif" font-size="14.00" fill="#000000"> </text>
</g>
<!-- node&#45;&gt;concept -->
<g id="edge13" class="edge">
<title>node&#45;&gt;concept</title>
<path fill="none" stroke="#000000" d="M176,-1088.4661C176,-1040.0682 176,-977.252 176,-921.5 176,-921.5 176,-921.5 176,-484 176,-428.4237 197.2689,-368.3895 216.0167,-326.2668"/>
<polygon fill="#000000" stroke="#000000" points="219.265,-327.5786 220.2169,-317.0266 212.8925,-324.6819 219.265,-327.5786"/>
<text text-anchor="middle" x="221" y="-681.8" font-family="Times,serif" font-size="14.00" fill="#000000">has_concept</text>
</g>
<!-- relationship -->
<g id="node3" class="node">
<title>relationship</title>
<path fill="none" stroke="#000000" d="M143.5,-1301.5C143.5,-1301.5 362.5,-1301.5 362.5,-1301.5 368.5,-1301.5 374.5,-1307.5 374.5,-1313.5 374.5,-1313.5 374.5,-1473.5 374.5,-1473.5 374.5,-1479.5 368.5,-1485.5 362.5,-1485.5 362.5,-1485.5 143.5,-1485.5 143.5,-1485.5 137.5,-1485.5 131.5,-1479.5 131.5,-1473.5 131.5,-1473.5 131.5,-1313.5 131.5,-1313.5 131.5,-1307.5 137.5,-1301.5 143.5,-1301.5"/>
<text text-anchor="middle" x="182.5" y="-1389.8" font-family="Times,serif" font-size="14.00" fill="#000000">relationship</text>
<polyline fill="none" stroke="#000000" points="233.5,-1301.5 233.5,-1485.5 "/>
<text text-anchor="middle" x="244" y="-1389.8" font-family="Times,serif" font-size="14.00" fill="#000000"> </text>
<polyline fill="none" stroke="#000000" points="254.5,-1301.5 254.5,-1485.5 "/>
<text text-anchor="middle" x="304" y="-1470.3" font-family="Times,serif" font-size="14.00" fill="#000000">desc</text>
<polyline fill="none" stroke="#000000" points="254.5,-1462.5 353.5,-1462.5 "/>
<text text-anchor="middle" x="304" y="-1447.3" font-family="Times,serif" font-size="14.00" fill="#000000">handle</text>
<polyline fill="none" stroke="#000000" points="254.5,-1439.5 353.5,-1439.5 "/>
<text text-anchor="middle" x="304" y="-1424.3" font-family="Times,serif" font-size="14.00" fill="#000000">id</text>
<polyline fill="none" stroke="#000000" points="254.5,-1416.5 353.5,-1416.5 "/>
<text text-anchor="middle" x="304" y="-1401.3" font-family="Times,serif" font-size="14.00" fill="#000000">is_required</text>
<polyline fill="none" stroke="#000000" points="254.5,-1393.5 353.5,-1393.5 "/>
<text text-anchor="middle" x="304" y="-1378.3" font-family="Times,serif" font-size="14.00" fill="#000000">model</text>
<polyline fill="none" stroke="#000000" points="254.5,-1370.5 353.5,-1370.5 "/>
<text text-anchor="middle" x="304" y="-1355.3" font-family="Times,serif" font-size="14.00" fill="#000000">multiplicity</text>
<polyline fill="none" stroke="#000000" points="254.5,-1347.5 353.5,-1347.5 "/>
<text text-anchor="middle" x="304" y="-1332.3" font-family="Times,serif" font-size="14.00" fill="#000000">nanoid6</text>
<polyline fill="none" stroke="#000000" points="254.5,-1324.5 353.5,-1324.5 "/>
<text text-anchor="middle" x="304" y="-1309.3" font-family="Times,serif" font-size="14.00" fill="#000000">nanoid8</text>
<polyline fill="none" stroke="#000000" points="353.5,-1301.5 353.5,-1485.5 "/>
<text text-anchor="middle" x="364" y="-1389.8" font-family="Times,serif" font-size="14.00" fill="#000000"> </text>
</g>
<!-- relationship&#45;&gt;tag -->
<g id="edge8" class="edge">
<title>relationship&#45;&gt;tag</title>
<path fill="none" stroke="#000000" d="M374.6901,-1375.9977C559.5821,-1345.938 890,-1277.0967 890,-1169 890,-1169 890,-1169 890,-271 890,-174.5662 779.355,-119.815 696.9241,-92.4061"/>
<polygon fill="#000000" stroke="#000000" points="697.8661,-89.0323 687.2742,-89.2782 695.7077,-95.6912 697.8661,-89.0323"/>
<text text-anchor="middle" x="918" y="-681.8" font-family="Times,serif" font-size="14.00" fill="#000000">has_tag</text>
</g>
<!-- relationship&#45;&gt;node -->
<g id="edge3" class="edge">
<title>relationship&#45;&gt;node</title>
<path fill="none" stroke="#000000" d="M240.5156,-1301.416C237.904,-1290.0125 234.7656,-1278.6344 231,-1268 229.9171,-1264.9419 228.7454,-1261.8667 227.5007,-1258.7893"/>
<polygon fill="#000000" stroke="#000000" points="230.7085,-1257.389 223.5637,-1249.5658 224.2705,-1260.137 230.7085,-1257.389"/>
<text text-anchor="middle" x="263.5" y="-1271.8" font-family="Times,serif" font-size="14.00" fill="#000000">has_dst</text>
</g>
<!-- relationship&#45;&gt;node -->
<g id="edge16" class="edge">
<title>relationship&#45;&gt;node</title>
<path fill="none" stroke="#000000" d="M179.4659,-1301.41C176.5666,-1295.373 174.0345,-1289.2167 172,-1283 169.5747,-1275.589 167.99,-1267.7608 167.0449,-1259.8192"/>
<polygon fill="#000000" stroke="#000000" points="170.5205,-1259.3843 166.1745,-1249.7219 163.5463,-1259.9856 170.5205,-1259.3843"/>
<text text-anchor="middle" x="199.5" y="-1271.8" font-family="Times,serif" font-size="14.00" fill="#000000">has_src</text>
</g>
<!-- relationship&#45;&gt;property -->
<g id="edge20" class="edge">
<title>relationship&#45;&gt;property</title>
<path fill="none" stroke="#000000" d="M290.2597,-1301.2443C292.0481,-1295.1256 293.6548,-1289.0082 295,-1283 312.3035,-1205.7165 319.362,-1117.0833 322.0661,-1046.9223"/>
<polygon fill="#000000" stroke="#000000" points="325.5717,-1046.8279 322.4342,-1036.7083 318.5762,-1046.5757 325.5717,-1046.8279"/>
<text text-anchor="middle" x="367.5" y="-1165.3" font-family="Times,serif" font-size="14.00" fill="#000000">has_property</text>
</g>
<!-- relationship&#45;&gt;concept -->
<g id="edge12" class="edge">
<title>relationship&#45;&gt;concept</title>
<path fill="none" stroke="#000000" d="M131.3168,-1340.4315C66.5027,-1303.1282 0,-1246.0739 0,-1169 0,-1169 0,-1169 0,-484 0,-405.0537 73.3875,-348.6357 139.6677,-313.7805"/>
<polygon fill="#000000" stroke="#000000" points="141.6685,-316.6876 148.9646,-309.0053 138.4702,-310.4609 141.6685,-316.6876"/>
<text text-anchor="middle" x="45" y="-776.8" font-family="Times,serif" font-size="14.00" fill="#000000">has_concept</text>
</g>
<!-- term -->
<g id="node4" class="node">
<title>term</title>
<path fill="none" stroke="#000000" d="M380.5,-403.5C380.5,-403.5 583.5,-403.5 583.5,-403.5 589.5,-403.5 595.5,-409.5 595.5,-415.5 595.5,-415.5 595.5,-552.5 595.5,-552.5 595.5,-558.5 589.5,-564.5 583.5,-564.5 583.5,-564.5 380.5,-564.5 380.5,-564.5 374.5,-564.5 368.5,-558.5 368.5,-552.5 368.5,-552.5 368.5,-415.5 368.5,-415.5 368.5,-409.5 374.5,-403.5 380.5,-403.5"/>
<text text-anchor="middle" x="394" y="-480.3" font-family="Times,serif" font-size="14.00" fill="#000000">term</text>
<polyline fill="none" stroke="#000000" points="419.5,-403.5 419.5,-564.5 "/>
<text text-anchor="middle" x="430" y="-480.3" font-family="Times,serif" font-size="14.00" fill="#000000"> </text>
<polyline fill="none" stroke="#000000" points="440.5,-403.5 440.5,-564.5 "/>
<text text-anchor="middle" x="507.5" y="-549.3" font-family="Times,serif" font-size="14.00" fill="#000000">desc</text>
<polyline fill="none" stroke="#000000" points="440.5,-541.5 574.5,-541.5 "/>
<text text-anchor="middle" x="507.5" y="-526.3" font-family="Times,serif" font-size="14.00" fill="#000000">id</text>
<polyline fill="none" stroke="#000000" points="440.5,-518.5 574.5,-518.5 "/>
<text text-anchor="middle" x="507.5" y="-503.3" font-family="Times,serif" font-size="14.00" fill="#000000">nanoid6</text>
<polyline fill="none" stroke="#000000" points="440.5,-495.5 574.5,-495.5 "/>
<text text-anchor="middle" x="507.5" y="-480.3" font-family="Times,serif" font-size="14.00" fill="#000000">nanoid8</text>
<polyline fill="none" stroke="#000000" points="440.5,-472.5 574.5,-472.5 "/>
<text text-anchor="middle" x="507.5" y="-457.3" font-family="Times,serif" font-size="14.00" fill="#000000">origin_definition</text>
<polyline fill="none" stroke="#000000" points="440.5,-449.5 574.5,-449.5 "/>
<text text-anchor="middle" x="507.5" y="-434.3" font-family="Times,serif" font-size="14.00" fill="#000000">origin_id</text>
<polyline fill="none" stroke="#000000" points="440.5,-426.5 574.5,-426.5 "/>
<text text-anchor="middle" x="507.5" y="-411.3" font-family="Times,serif" font-size="14.00" fill="#000000">value</text>
<polyline fill="none" stroke="#000000" points="574.5,-403.5 574.5,-564.5 "/>
<text text-anchor="middle" x="585" y="-480.3" font-family="Times,serif" font-size="14.00" fill="#000000"> </text>
</g>
<!-- term&#45;&gt;tag -->
<g id="edge5" class="edge">
<title>term&#45;&gt;tag</title>
<path fill="none" stroke="#000000" d="M448.5233,-403.3435C428.3778,-341.7589 412.4821,-256.461 446,-190 462.4424,-157.3972 492.3326,-131.4278 522.0688,-112.0705"/>
<polygon fill="#000000" stroke="#000000" points="524.2636,-114.8244 530.8572,-106.5313 520.5311,-108.9025 524.2636,-114.8244"/>
<text text-anchor="middle" x="474" y="-267.3" font-family="Times,serif" font-size="14.00" fill="#000000">has_tag</text>
</g>
<!-- term&#45;&gt;concept -->
<g id="edge18" class="edge">
<title>term&#45;&gt;concept</title>
<path fill="none" stroke="#000000" d="M368.2941,-404.8822C360.2445,-398.3602 352.3963,-391.6963 345,-385 324.84,-366.7479 304.5769,-344.7615 287.5474,-324.9872"/>
<polygon fill="#000000" stroke="#000000" points="290.0961,-322.5818 280.9445,-317.2433 284.7695,-327.1236 290.0961,-322.5818"/>
<text text-anchor="middle" x="384" y="-373.8" font-family="Times,serif" font-size="14.00" fill="#000000">represents</text>
</g>
<!-- origin -->
<g id="node8" class="node">
<title>origin</title>
<path fill="none" stroke="#000000" d="M523,-190.5C523,-190.5 695,-190.5 695,-190.5 701,-190.5 707,-196.5 707,-202.5 707,-202.5 707,-339.5 707,-339.5 707,-345.5 701,-351.5 695,-351.5 695,-351.5 523,-351.5 523,-351.5 517,-351.5 511,-345.5 511,-339.5 511,-339.5 511,-202.5 511,-202.5 511,-196.5 517,-190.5 523,-190.5"/>
<text text-anchor="middle" x="540.5" y="-267.3" font-family="Times,serif" font-size="14.00" fill="#000000">origin</text>
<polyline fill="none" stroke="#000000" points="570,-190.5 570,-351.5 "/>
<text text-anchor="middle" x="580.5" y="-267.3" font-family="Times,serif" font-size="14.00" fill="#000000"> </text>
<polyline fill="none" stroke="#000000" points="591,-190.5 591,-351.5 "/>
<text text-anchor="middle" x="638.5" y="-336.3" font-family="Times,serif" font-size="14.00" fill="#000000">desc</text>
<polyline fill="none" stroke="#000000" points="591,-328.5 686,-328.5 "/>
<text text-anchor="middle" x="638.5" y="-313.3" font-family="Times,serif" font-size="14.00" fill="#000000">id</text>
<polyline fill="none" stroke="#000000" points="591,-305.5 686,-305.5 "/>
<text text-anchor="middle" x="638.5" y="-290.3" font-family="Times,serif" font-size="14.00" fill="#000000">is_external</text>
<polyline fill="none" stroke="#000000" points="591,-282.5 686,-282.5 "/>
<text text-anchor="middle" x="638.5" y="-267.3" font-family="Times,serif" font-size="14.00" fill="#000000">name</text>
<polyline fill="none" stroke="#000000" points="591,-259.5 686,-259.5 "/>
<text text-anchor="middle" x="638.5" y="-244.3" font-family="Times,serif" font-size="14.00" fill="#000000">nanoid6</text>
<polyline fill="none" stroke="#000000" points="591,-236.5 686,-236.5 "/>
<text text-anchor="middle" x="638.5" y="-221.3" font-family="Times,serif" font-size="14.00" fill="#000000">nanoid8</text>
<polyline fill="none" stroke="#000000" points="591,-213.5 686,-213.5 "/>
<text text-anchor="middle" x="638.5" y="-198.3" font-family="Times,serif" font-size="14.00" fill="#000000">url</text>
<polyline fill="none" stroke="#000000" points="686,-190.5 686,-351.5 "/>
<text text-anchor="middle" x="696.5" y="-267.3" font-family="Times,serif" font-size="14.00" fill="#000000"> </text>
</g>
<!-- term&#45;&gt;origin -->
<g id="edge2" class="edge">
<title>term&#45;&gt;origin</title>
<path fill="none" stroke="#000000" d="M523.8618,-403.4185C530.1056,-392.0991 536.5985,-380.6875 543,-370 544.9172,-366.7991 546.8925,-363.5571 548.908,-360.2956"/>
<polygon fill="#000000" stroke="#000000" points="551.9911,-361.9665 554.3252,-351.632 546.0558,-358.2553 551.9911,-361.9665"/>
<text text-anchor="middle" x="580.5" y="-373.8" font-family="Times,serif" font-size="14.00" fill="#000000">has_origin</text>
</g>
<!-- property&#45;&gt;tag -->
<g id="edge11" class="edge">
<title>property&#45;&gt;tag</title>
<path fill="none" stroke="#000000" d="M441.1551,-888.9931C584.1466,-846.0834 806,-766.4626 806,-685.5 806,-685.5 806,-685.5 806,-271 806,-203.3148 748.4645,-149.9373 695.5806,-115.1711"/>
<polygon fill="#000000" stroke="#000000" points="697.4481,-112.2108 687.1426,-109.7518 693.6653,-118.1007 697.4481,-112.2108"/>
<text text-anchor="middle" x="834" y="-480.3" font-family="Times,serif" font-size="14.00" fill="#000000">has_tag</text>
</g>
<!-- value_set -->
<g id="node6" class="node">
<title>value_set</title>
<path fill="none" stroke="#000000" d="M394,-616.5C394,-616.5 570,-616.5 570,-616.5 576,-616.5 582,-622.5 582,-628.5 582,-628.5 582,-742.5 582,-742.5 582,-748.5 576,-754.5 570,-754.5 570,-754.5 394,-754.5 394,-754.5 388,-754.5 382,-748.5 382,-742.5 382,-742.5 382,-628.5 382,-628.5 382,-622.5 388,-616.5 394,-616.5"/>
<text text-anchor="middle" x="424" y="-681.8" font-family="Times,serif" font-size="14.00" fill="#000000">value_set</text>
<polyline fill="none" stroke="#000000" points="466,-616.5 466,-754.5 "/>
<text text-anchor="middle" x="476.5" y="-681.8" font-family="Times,serif" font-size="14.00" fill="#000000"> </text>
<polyline fill="none" stroke="#000000" points="487,-616.5 487,-754.5 "/>
<text text-anchor="middle" x="524" y="-739.3" font-family="Times,serif" font-size="14.00" fill="#000000">desc</text>
<polyline fill="none" stroke="#000000" points="487,-731.5 561,-731.5 "/>
<text text-anchor="middle" x="524" y="-716.3" font-family="Times,serif" font-size="14.00" fill="#000000">handle</text>
<polyline fill="none" stroke="#000000" points="487,-708.5 561,-708.5 "/>
<text text-anchor="middle" x="524" y="-693.3" font-family="Times,serif" font-size="14.00" fill="#000000">id</text>
<polyline fill="none" stroke="#000000" points="487,-685.5 561,-685.5 "/>
<text text-anchor="middle" x="524" y="-670.3" font-family="Times,serif" font-size="14.00" fill="#000000">nanoid6</text>
<polyline fill="none" stroke="#000000" points="487,-662.5 561,-662.5 "/>
<text text-anchor="middle" x="524" y="-647.3" font-family="Times,serif" font-size="14.00" fill="#000000">nanoid8</text>
<polyline fill="none" stroke="#000000" points="487,-639.5 561,-639.5 "/>
<text text-anchor="middle" x="524" y="-624.3" font-family="Times,serif" font-size="14.00" fill="#000000">url</text>
<polyline fill="none" stroke="#000000" points="561,-616.5 561,-754.5 "/>
<text text-anchor="middle" x="571.5" y="-681.8" font-family="Times,serif" font-size="14.00" fill="#000000"> </text>
</g>
<!-- property&#45;&gt;value_set -->
<g id="edge17" class="edge">
<title>property&#45;&gt;value_set</title>
<path fill="none" stroke="#000000" d="M400.6369,-806.2654C410.4944,-791.6341 420.3901,-776.9461 429.7174,-763.1019"/>
<polygon fill="#000000" stroke="#000000" points="432.7612,-764.8479 435.4461,-754.5989 426.9558,-760.9367 432.7612,-764.8479"/>
<text text-anchor="middle" x="472" y="-776.8" font-family="Times,serif" font-size="14.00" fill="#000000">has_value_set</text>
</g>
<!-- property&#45;&gt;concept -->
<g id="edge15" class="edge">
<title>property&#45;&gt;concept</title>
<path fill="none" stroke="#000000" d="M330.6667,-806.3742C328.6942,-743.1355 315.3334,-667.352 270,-616 251.8562,-595.4474 227.3138,-620.0333 211,-598 207.0329,-592.6421 210.7346,-589.6614 211,-583 214.7808,-488.1076 216.6371,-464.2855 228,-370 229.6763,-356.0906 231.8796,-341.1439 234.1131,-327.1864"/>
<polygon fill="#000000" stroke="#000000" points="237.582,-327.6599 235.7375,-317.2269 230.6733,-326.533 237.582,-327.6599"/>
<text text-anchor="middle" x="256" y="-586.8" font-family="Times,serif" font-size="14.00" fill="#000000">has_concept</text>
</g>
<!-- value_set&#45;&gt;tag -->
<g id="edge10" class="edge">
<title>value_set&#45;&gt;tag</title>
<path fill="none" stroke="#000000" d="M582.1948,-657.6732C628.6917,-639.2884 679.809,-610.0406 708,-565 730.1112,-529.673 730.8009,-228.9594 716,-190 710.1992,-174.7308 701.4791,-160.1588 691.4729,-146.7603"/>
<polygon fill="#000000" stroke="#000000" points="693.9996,-144.3086 685.0911,-138.5737 688.4788,-148.6123 693.9996,-144.3086"/>
<text text-anchor="middle" x="753" y="-373.8" font-family="Times,serif" font-size="14.00" fill="#000000">has_tag</text>
</g>
<!-- value_set&#45;&gt;term -->
<g id="edge4" class="edge">
<title>value_set&#45;&gt;term</title>
<path fill="none" stroke="#000000" d="M482,-616.437C482,-603.0525 482,-588.8373 482,-574.8773"/>
<polygon fill="#000000" stroke="#000000" points="485.5001,-574.7729 482,-564.7729 478.5001,-574.773 485.5001,-574.7729"/>
<text text-anchor="middle" x="515.5" y="-586.8" font-family="Times,serif" font-size="14.00" fill="#000000">has_term</text>
</g>
<!-- value_set&#45;&gt;concept -->
<g id="edge14" class="edge">
<title>value_set&#45;&gt;concept</title>
<path fill="none" stroke="#000000" d="M381.9781,-626.1514C357.0042,-611.7284 330.1641,-596.5608 305,-583 289.2525,-574.5138 279.0413,-579.8044 269,-565 220.9928,-494.2205 224.9701,-390.7157 233.5452,-327.2749"/>
<polygon fill="#000000" stroke="#000000" points="237.0544,-327.4608 235.0119,-317.0647 230.1255,-326.4654 237.0544,-327.4608"/>
<text text-anchor="middle" x="314" y="-480.3" font-family="Times,serif" font-size="14.00" fill="#000000">has_concept</text>
</g>
<!-- value_set&#45;&gt;origin -->
<g id="edge1" class="edge">
<title>value_set&#45;&gt;origin</title>
<path fill="none" stroke="#000000" d="M568.3439,-616.3681C582.5014,-600.974 595.351,-583.6319 604,-565 633.3606,-501.7506 632.812,-422.2936 625.9131,-361.933"/>
<polygon fill="#000000" stroke="#000000" points="629.3444,-361.1571 624.6566,-351.6558 622.3961,-362.0067 629.3444,-361.1571"/>
<text text-anchor="middle" x="666.5" y="-480.3" font-family="Times,serif" font-size="14.00" fill="#000000">has_origin</text>
</g>
<!-- concept&#45;&gt;tag -->
<g id="edge9" class="edge">
<title>concept&#45;&gt;tag</title>
<path fill="none" stroke="#000000" d="M285.1634,-224.9036C307.5496,-202.0191 336.7899,-175.4055 367,-157 414.651,-127.9686 473.4075,-106.4378 521.0916,-91.9988"/>
<polygon fill="#000000" stroke="#000000" points="522.1956,-95.3221 530.7821,-89.1154 520.1992,-88.6128 522.1956,-95.3221"/>
<text text-anchor="middle" x="395" y="-160.8" font-family="Times,serif" font-size="14.00" fill="#000000">has_tag</text>
</g>
<!-- origin&#45;&gt;tag -->
<g id="edge6" class="edge">
<title>origin&#45;&gt;tag</title>
<path fill="none" stroke="#000000" d="M609,-190.4932C609,-176.7786 609,-162.5421 609,-148.8576"/>
<polygon fill="#000000" stroke="#000000" points="612.5001,-148.5183 609,-138.5184 605.5001,-148.5184 612.5001,-148.5183"/>
<text text-anchor="middle" x="637" y="-160.8" font-family="Times,serif" font-size="14.00" fill="#000000">has_tag</text>
</g>
</g>
</svg>
