<?xml version="1.0" encoding="UTF-8" standalone="no"?>
<!DOCTYPE svg PUBLIC "-//W3C//DTD SVG 1.1//EN"
 "http://www.w3.org/Graphics/SVG/1.1/DTD/svg11.dtd">
<!-- Generated by graphviz version 2.40.1 (20161225.0304)
 -->
<!-- Title: Perl Pages: 1 -->
<svg width="927pt" height="1494pt"
 viewBox="0.00 0.00 927.00 1494.00" xmlns="http://www.w3.org/2000/svg" xmlns:xlink="http://www.w3.org/1999/xlink">
<g id="graph0" class="graph" transform="scale(1 1) rotate(0) translate(4 1490)">
<title>Perl</title>
<polygon fill="#ffffff" stroke="transparent" points="-4,4 -4,-1490 923,-1490 923,4 -4,4"/>
<!-- property -->
<g id="node1" class="node">
<title>property</title>
<path fill="none" stroke="#000000" d="M330,-806.5C330,-806.5 542,-806.5 542,-806.5 548,-806.5 554,-812.5 554,-818.5 554,-818.5 554,-1024.5 554,-1024.5 554,-1030.5 548,-1036.5 542,-1036.5 542,-1036.5 330,-1036.5 330,-1036.5 324,-1036.5 318,-1030.5 318,-1024.5 318,-1024.5 318,-818.5 318,-818.5 318,-812.5 324,-806.5 330,-806.5"/>
<text text-anchor="middle" x="357.5" y="-917.8" font-family="Times,serif" font-size="14.00" fill="#000000">property</text>
<polyline fill="none" stroke="#000000" points="397,-806.5 397,-1036.5 "/>
<text text-anchor="middle" x="407.5" y="-917.8" font-family="Times,serif" font-size="14.00" fill="#000000"> </text>
<polyline fill="none" stroke="#000000" points="418,-806.5 418,-1036.5 "/>
<text text-anchor="middle" x="475.5" y="-1021.3" font-family="Times,serif" font-size="14.00" fill="#000000">desc</text>
<polyline fill="none" stroke="#000000" points="418,-1013.5 533,-1013.5 "/>
<text text-anchor="middle" x="475.5" y="-998.3" font-family="Times,serif" font-size="14.00" fill="#000000">handle</text>
<polyline fill="none" stroke="#000000" points="418,-990.5 533,-990.5 "/>
<text text-anchor="middle" x="475.5" y="-975.3" font-family="Times,serif" font-size="14.00" fill="#000000">id</text>
<polyline fill="none" stroke="#000000" points="418,-967.5 533,-967.5 "/>
<text text-anchor="middle" x="475.5" y="-952.3" font-family="Times,serif" font-size="14.00" fill="#000000">is_required</text>
<polyline fill="none" stroke="#000000" points="418,-944.5 533,-944.5 "/>
<text text-anchor="middle" x="475.5" y="-929.3" font-family="Times,serif" font-size="14.00" fill="#000000">model</text>
<polyline fill="none" stroke="#000000" points="418,-921.5 533,-921.5 "/>
<text text-anchor="middle" x="475.5" y="-906.3" font-family="Times,serif" font-size="14.00" fill="#000000">nanoid6</text>
<polyline fill="none" stroke="#000000" points="418,-898.5 533,-898.5 "/>
<text text-anchor="middle" x="475.5" y="-883.3" font-family="Times,serif" font-size="14.00" fill="#000000">nanoid8</text>
<polyline fill="none" stroke="#000000" points="418,-875.5 533,-875.5 "/>
<text text-anchor="middle" x="475.5" y="-860.3" font-family="Times,serif" font-size="14.00" fill="#000000">pattern</text>
<polyline fill="none" stroke="#000000" points="418,-852.5 533,-852.5 "/>
<text text-anchor="middle" x="475.5" y="-837.3" font-family="Times,serif" font-size="14.00" fill="#000000">units</text>
<polyline fill="none" stroke="#000000" points="418,-829.5 533,-829.5 "/>
<text text-anchor="middle" x="475.5" y="-814.3" font-family="Times,serif" font-size="14.00" fill="#000000">value_domain</text>
<polyline fill="none" stroke="#000000" points="533,-806.5 533,-1036.5 "/>
<text text-anchor="middle" x="543.5" y="-917.8" font-family="Times,serif" font-size="14.00" fill="#000000"> </text>
</g>
<!-- concept -->
<g id="node5" class="node">
<title>concept</title>
<path fill="none" stroke="#000000" d="M475,-225C475,-225 641,-225 641,-225 647,-225 653,-231 653,-237 653,-237 653,-305 653,-305 653,-311 647,-317 641,-317 641,-317 475,-317 475,-317 469,-317 463,-311 463,-305 463,-305 463,-237 463,-237 463,-231 469,-225 475,-225"/>
<text text-anchor="middle" x="500" y="-267.3" font-family="Times,serif" font-size="14.00" fill="#000000">concept</text>
<polyline fill="none" stroke="#000000" points="537,-225 537,-317 "/>
<text text-anchor="middle" x="547.5" y="-267.3" font-family="Times,serif" font-size="14.00" fill="#000000"> </text>
<polyline fill="none" stroke="#000000" points="558,-225 558,-317 "/>
<text text-anchor="middle" x="595" y="-301.8" font-family="Times,serif" font-size="14.00" fill="#000000">desc</text>
<polyline fill="none" stroke="#000000" points="558,-294 632,-294 "/>
<text text-anchor="middle" x="595" y="-278.8" font-family="Times,serif" font-size="14.00" fill="#000000">id</text>
<polyline fill="none" stroke="#000000" points="558,-271 632,-271 "/>
<text text-anchor="middle" x="595" y="-255.8" font-family="Times,serif" font-size="14.00" fill="#000000">nanoid6</text>
<polyline fill="none" stroke="#000000" points="558,-248 632,-248 "/>
<text text-anchor="middle" x="595" y="-232.8" font-family="Times,serif" font-size="14.00" fill="#000000">nanoid8</text>
<polyline fill="none" stroke="#000000" points="632,-225 632,-317 "/>
<text text-anchor="middle" x="642.5" y="-267.3" font-family="Times,serif" font-size="14.00" fill="#000000"> </text>
</g>
<!-- property&#45;&gt;concept -->
<g id="edge10" class="edge">
<title>property&#45;&gt;concept</title>
<path fill="none" stroke="#000000" d="M497.3314,-806.2736C499.7505,-800.1627 501.9948,-794.0489 504,-788 533.0845,-700.2657 479.2204,-653.4955 539,-583 554.8175,-564.3471 576.8143,-584.922 591,-565 641.0154,-494.7598 611.2399,-390.2078 584.8158,-326.554"/>
<polygon fill="#000000" stroke="#000000" points="587.9217,-324.9143 580.7841,-317.0846 581.4811,-327.6564 587.9217,-324.9143"/>
<text text-anchor="middle" x="584" y="-586.8" font-family="Times,serif" font-size="14.00" fill="#000000">has_concept</text>
</g>
<!-- tag -->
<g id="node6" class="node">
<title>tag</title>
<path fill="none" stroke="#000000" d="M274,-.5C274,-.5 406,-.5 406,-.5 412,-.5 418,-6.5 418,-12.5 418,-12.5 418,-126.5 418,-126.5 418,-132.5 412,-138.5 406,-138.5 406,-138.5 274,-138.5 274,-138.5 268,-138.5 262,-132.5 262,-126.5 262,-126.5 262,-12.5 262,-12.5 262,-6.5 268,-.5 274,-.5"/>
<text text-anchor="middle" x="282" y="-65.8" font-family="Times,serif" font-size="14.00" fill="#000000">tag</text>
<polyline fill="none" stroke="#000000" points="302,-.5 302,-138.5 "/>
<text text-anchor="middle" x="312.5" y="-65.8" font-family="Times,serif" font-size="14.00" fill="#000000"> </text>
<polyline fill="none" stroke="#000000" points="323,-.5 323,-138.5 "/>
<text text-anchor="middle" x="360" y="-123.3" font-family="Times,serif" font-size="14.00" fill="#000000">desc</text>
<polyline fill="none" stroke="#000000" points="323,-115.5 397,-115.5 "/>
<text text-anchor="middle" x="360" y="-100.3" font-family="Times,serif" font-size="14.00" fill="#000000">id</text>
<polyline fill="none" stroke="#000000" points="323,-92.5 397,-92.5 "/>
<text text-anchor="middle" x="360" y="-77.3" font-family="Times,serif" font-size="14.00" fill="#000000">key</text>
<polyline fill="none" stroke="#000000" points="323,-69.5 397,-69.5 "/>
<text text-anchor="middle" x="360" y="-54.3" font-family="Times,serif" font-size="14.00" fill="#000000">nanoid6</text>
<polyline fill="none" stroke="#000000" points="323,-46.5 397,-46.5 "/>
<text text-anchor="middle" x="360" y="-31.3" font-family="Times,serif" font-size="14.00" fill="#000000">nanoid8</text>
<polyline fill="none" stroke="#000000" points="323,-23.5 397,-23.5 "/>
<text text-anchor="middle" x="360" y="-8.3" font-family="Times,serif" font-size="14.00" fill="#000000">value</text>
<polyline fill="none" stroke="#000000" points="397,-.5 397,-138.5 "/>
<text text-anchor="middle" x="407.5" y="-65.8" font-family="Times,serif" font-size="14.00" fill="#000000"> </text>
</g>
<!-- property&#45;&gt;tag -->
<g id="edge3" class="edge">
<title>property&#45;&gt;tag</title>
<path fill="none" stroke="#000000" d="M317.7247,-908.4168C188.6087,-886.8013 0,-830.4236 0,-685.5 0,-685.5 0,-685.5 0,-271 0,-153.7968 151.3686,-103.2894 252.1091,-82.6535"/>
<polygon fill="#000000" stroke="#000000" points="252.8704,-86.0708 261.9971,-80.69 251.5069,-79.2048 252.8704,-86.0708"/>
<text text-anchor="middle" x="28" y="-480.3" font-family="Times,serif" font-size="14.00" fill="#000000">has_tag</text>
</g>
<!-- value_set -->
<g id="node7" class="node">
<title>value_set</title>
<path fill="none" stroke="#000000" d="M288,-616.5C288,-616.5 464,-616.5 464,-616.5 470,-616.5 476,-622.5 476,-628.5 476,-628.5 476,-742.5 476,-742.5 476,-748.5 470,-754.5 464,-754.5 464,-754.5 288,-754.5 288,-754.5 282,-754.5 276,-748.5 276,-742.5 276,-742.5 276,-628.5 276,-628.5 276,-622.5 282,-616.5 288,-616.5"/>
<text text-anchor="middle" x="318" y="-681.8" font-family="Times,serif" font-size="14.00" fill="#000000">value_set</text>
<polyline fill="none" stroke="#000000" points="360,-616.5 360,-754.5 "/>
<text text-anchor="middle" x="370.5" y="-681.8" font-family="Times,serif" font-size="14.00" fill="#000000"> </text>
<polyline fill="none" stroke="#000000" points="381,-616.5 381,-754.5 "/>
<text text-anchor="middle" x="418" y="-739.3" font-family="Times,serif" font-size="14.00" fill="#000000">desc</text>
<polyline fill="none" stroke="#000000" points="381,-731.5 455,-731.5 "/>
<text text-anchor="middle" x="418" y="-716.3" font-family="Times,serif" font-size="14.00" fill="#000000">handle</text>
<polyline fill="none" stroke="#000000" points="381,-708.5 455,-708.5 "/>
<text text-anchor="middle" x="418" y="-693.3" font-family="Times,serif" font-size="14.00" fill="#000000">id</text>
<polyline fill="none" stroke="#000000" points="381,-685.5 455,-685.5 "/>
<text text-anchor="middle" x="418" y="-670.3" font-family="Times,serif" font-size="14.00" fill="#000000">nanoid6</text>
<polyline fill="none" stroke="#000000" points="381,-662.5 455,-662.5 "/>
<text text-anchor="middle" x="418" y="-647.3" font-family="Times,serif" font-size="14.00" fill="#000000">nanoid8</text>
<polyline fill="none" stroke="#000000" points="381,-639.5 455,-639.5 "/>
<text text-anchor="middle" x="418" y="-624.3" font-family="Times,serif" font-size="14.00" fill="#000000">url</text>
<polyline fill="none" stroke="#000000" points="455,-616.5 455,-754.5 "/>
<text text-anchor="middle" x="465.5" y="-681.8" font-family="Times,serif" font-size="14.00" fill="#000000"> </text>
</g>
<!-- property&#45;&gt;value_set -->
<g id="edge1" class="edge">
<title>property&#45;&gt;value_set</title>
<path fill="none" stroke="#000000" d="M406.7031,-806.2654C403.1236,-792.1862 399.5308,-778.0546 396.1286,-764.6727"/>
<polygon fill="#000000" stroke="#000000" points="399.4237,-763.4282 393.5675,-754.5989 392.6395,-765.153 399.4237,-763.4282"/>
<text text-anchor="middle" x="450" y="-776.8" font-family="Times,serif" font-size="14.00" fill="#000000">has_value_set</text>
</g>
<!-- relationship -->
<g id="node2" class="node">
<title>relationship</title>
<path fill="none" stroke="#000000" d="M578.5,-1301.5C578.5,-1301.5 797.5,-1301.5 797.5,-1301.5 803.5,-1301.5 809.5,-1307.5 809.5,-1313.5 809.5,-1313.5 809.5,-1473.5 809.5,-1473.5 809.5,-1479.5 803.5,-1485.5 797.5,-1485.5 797.5,-1485.5 578.5,-1485.5 578.5,-1485.5 572.5,-1485.5 566.5,-1479.5 566.5,-1473.5 566.5,-1473.5 566.5,-1313.5 566.5,-1313.5 566.5,-1307.5 572.5,-1301.5 578.5,-1301.5"/>
<text text-anchor="middle" x="617.5" y="-1389.8" font-family="Times,serif" font-size="14.00" fill="#000000">relationship</text>
<polyline fill="none" stroke="#000000" points="668.5,-1301.5 668.5,-1485.5 "/>
<text text-anchor="middle" x="679" y="-1389.8" font-family="Times,serif" font-size="14.00" fill="#000000"> </text>
<polyline fill="none" stroke="#000000" points="689.5,-1301.5 689.5,-1485.5 "/>
<text text-anchor="middle" x="739" y="-1470.3" font-family="Times,serif" font-size="14.00" fill="#000000">desc</text>
<polyline fill="none" stroke="#000000" points="689.5,-1462.5 788.5,-1462.5 "/>
<text text-anchor="middle" x="739" y="-1447.3" font-family="Times,serif" font-size="14.00" fill="#000000">handle</text>
<polyline fill="none" stroke="#000000" points="689.5,-1439.5 788.5,-1439.5 "/>
<text text-anchor="middle" x="739" y="-1424.3" font-family="Times,serif" font-size="14.00" fill="#000000">id</text>
<polyline fill="none" stroke="#000000" points="689.5,-1416.5 788.5,-1416.5 "/>
<text text-anchor="middle" x="739" y="-1401.3" font-family="Times,serif" font-size="14.00" fill="#000000">is_required</text>
<polyline fill="none" stroke="#000000" points="689.5,-1393.5 788.5,-1393.5 "/>
<text text-anchor="middle" x="739" y="-1378.3" font-family="Times,serif" font-size="14.00" fill="#000000">model</text>
<polyline fill="none" stroke="#000000" points="689.5,-1370.5 788.5,-1370.5 "/>
<text text-anchor="middle" x="739" y="-1355.3" font-family="Times,serif" font-size="14.00" fill="#000000">multiplicity</text>
<polyline fill="none" stroke="#000000" points="689.5,-1347.5 788.5,-1347.5 "/>
<text text-anchor="middle" x="739" y="-1332.3" font-family="Times,serif" font-size="14.00" fill="#000000">nanoid6</text>
<polyline fill="none" stroke="#000000" points="689.5,-1324.5 788.5,-1324.5 "/>
<text text-anchor="middle" x="739" y="-1309.3" font-family="Times,serif" font-size="14.00" fill="#000000">nanoid8</text>
<polyline fill="none" stroke="#000000" points="788.5,-1301.5 788.5,-1485.5 "/>
<text text-anchor="middle" x="799" y="-1389.8" font-family="Times,serif" font-size="14.00" fill="#000000"> </text>
</g>
<!-- relationship&#45;&gt;property -->
<g id="edge15" class="edge">
<title>relationship&#45;&gt;property</title>
<path fill="none" stroke="#000000" d="M566.3822,-1350.9403C520.5014,-1328.3764 472.9285,-1295.6456 446,-1250 410.4309,-1189.708 406.6576,-1111.7569 412.3736,-1046.9204"/>
<polygon fill="#000000" stroke="#000000" points="415.8896,-1046.9224 413.369,-1036.6318 408.9222,-1046.2483 415.8896,-1046.9224"/>
<text text-anchor="middle" x="493.5" y="-1165.3" font-family="Times,serif" font-size="14.00" fill="#000000">has_property</text>
</g>
<!-- node -->
<g id="node4" class="node">
<title>node</title>
<path fill="none" stroke="#000000" d="M561.5,-1088.5C561.5,-1088.5 710.5,-1088.5 710.5,-1088.5 716.5,-1088.5 722.5,-1094.5 722.5,-1100.5 722.5,-1100.5 722.5,-1237.5 722.5,-1237.5 722.5,-1243.5 716.5,-1249.5 710.5,-1249.5 710.5,-1249.5 561.5,-1249.5 561.5,-1249.5 555.5,-1249.5 549.5,-1243.5 549.5,-1237.5 549.5,-1237.5 549.5,-1100.5 549.5,-1100.5 549.5,-1094.5 555.5,-1088.5 561.5,-1088.5"/>
<text text-anchor="middle" x="575" y="-1165.3" font-family="Times,serif" font-size="14.00" fill="#000000">node</text>
<polyline fill="none" stroke="#000000" points="600.5,-1088.5 600.5,-1249.5 "/>
<text text-anchor="middle" x="611" y="-1165.3" font-family="Times,serif" font-size="14.00" fill="#000000"> </text>
<polyline fill="none" stroke="#000000" points="621.5,-1088.5 621.5,-1249.5 "/>
<text text-anchor="middle" x="661.5" y="-1234.3" font-family="Times,serif" font-size="14.00" fill="#000000">category</text>
<polyline fill="none" stroke="#000000" points="621.5,-1226.5 701.5,-1226.5 "/>
<text text-anchor="middle" x="661.5" y="-1211.3" font-family="Times,serif" font-size="14.00" fill="#000000">desc</text>
<polyline fill="none" stroke="#000000" points="621.5,-1203.5 701.5,-1203.5 "/>
<text text-anchor="middle" x="661.5" y="-1188.3" font-family="Times,serif" font-size="14.00" fill="#000000">handle</text>
<polyline fill="none" stroke="#000000" points="621.5,-1180.5 701.5,-1180.5 "/>
<text text-anchor="middle" x="661.5" y="-1165.3" font-family="Times,serif" font-size="14.00" fill="#000000">id</text>
<polyline fill="none" stroke="#000000" points="621.5,-1157.5 701.5,-1157.5 "/>
<text text-anchor="middle" x="661.5" y="-1142.3" font-family="Times,serif" font-size="14.00" fill="#000000">model</text>
<polyline fill="none" stroke="#000000" points="621.5,-1134.5 701.5,-1134.5 "/>
<text text-anchor="middle" x="661.5" y="-1119.3" font-family="Times,serif" font-size="14.00" fill="#000000">nanoid6</text>
<polyline fill="none" stroke="#000000" points="621.5,-1111.5 701.5,-1111.5 "/>
<text text-anchor="middle" x="661.5" y="-1096.3" font-family="Times,serif" font-size="14.00" fill="#000000">nanoid8</text>
<polyline fill="none" stroke="#000000" points="701.5,-1088.5 701.5,-1249.5 "/>
<text text-anchor="middle" x="712" y="-1165.3" font-family="Times,serif" font-size="14.00" fill="#000000"> </text>
</g>
<!-- relationship&#45;&gt;node -->
<g id="edge2" class="edge">
<title>relationship&#45;&gt;node</title>
<path fill="none" stroke="#000000" d="M673.1693,-1301.3925C670.9645,-1290.1028 668.5633,-1278.7591 666,-1268 665.3269,-1265.1747 664.6191,-1262.3113 663.8837,-1259.4259"/>
<polygon fill="#000000" stroke="#000000" points="667.2158,-1258.3348 661.2873,-1249.554 660.4461,-1260.1154 667.2158,-1258.3348"/>
<text text-anchor="middle" x="696.5" y="-1271.8" font-family="Times,serif" font-size="14.00" fill="#000000">has_dst</text>
</g>
<!-- relationship&#45;&gt;node -->
<g id="edge20" class="edge">
<title>relationship&#45;&gt;node</title>
<path fill="none" stroke="#000000" d="M614.4659,-1301.41C611.5666,-1295.373 609.0345,-1289.2167 607,-1283 604.5436,-1275.4941 603.4911,-1267.6545 603.4745,-1259.7533"/>
<polygon fill="#000000" stroke="#000000" points="606.9716,-1259.8961 603.9796,-1249.7326 599.9805,-1259.5437 606.9716,-1259.8961"/>
<text text-anchor="middle" x="634.5" y="-1271.8" font-family="Times,serif" font-size="14.00" fill="#000000">has_src</text>
</g>
<!-- relationship&#45;&gt;concept -->
<g id="edge11" class="edge">
<title>relationship&#45;&gt;concept</title>
<path fill="none" stroke="#000000" d="M730.4346,-1301.2772C745.1345,-1261.457 758,-1213.807 758,-1169 758,-1169 758,-1169 758,-484 758,-415.507 702.36,-360.0102 649.7742,-322.8548"/>
<polygon fill="#000000" stroke="#000000" points="651.587,-319.8531 641.3698,-317.0498 647.6088,-325.6129 651.587,-319.8531"/>
<text text-anchor="middle" x="803" y="-776.8" font-family="Times,serif" font-size="14.00" fill="#000000">has_concept</text>
</g>
<!-- relationship&#45;&gt;tag -->
<g id="edge6" class="edge">
<title>relationship&#45;&gt;tag</title>
<path fill="none" stroke="#000000" d="M802.5299,-1301.4256C835.6254,-1264.6105 863,-1219.036 863,-1169 863,-1169 863,-1169 863,-271 863,-178.9129 577.1009,-112.8463 428.067,-84.6628"/>
<polygon fill="#000000" stroke="#000000" points="428.4893,-81.1811 418.0158,-82.7802 427.2005,-88.0615 428.4893,-81.1811"/>
<text text-anchor="middle" x="891" y="-681.8" font-family="Times,serif" font-size="14.00" fill="#000000">has_tag</text>
</g>
<!-- origin -->
<g id="node3" class="node">
<title>origin</title>
<path fill="none" stroke="#000000" d="M254,-190.5C254,-190.5 426,-190.5 426,-190.5 432,-190.5 438,-196.5 438,-202.5 438,-202.5 438,-339.5 438,-339.5 438,-345.5 432,-351.5 426,-351.5 426,-351.5 254,-351.5 254,-351.5 248,-351.5 242,-345.5 242,-339.5 242,-339.5 242,-202.5 242,-202.5 242,-196.5 248,-190.5 254,-190.5"/>
<text text-anchor="middle" x="271.5" y="-267.3" font-family="Times,serif" font-size="14.00" fill="#000000">origin</text>
<polyline fill="none" stroke="#000000" points="301,-190.5 301,-351.5 "/>
<text text-anchor="middle" x="311.5" y="-267.3" font-family="Times,serif" font-size="14.00" fill="#000000"> </text>
<polyline fill="none" stroke="#000000" points="322,-190.5 322,-351.5 "/>
<text text-anchor="middle" x="369.5" y="-336.3" font-family="Times,serif" font-size="14.00" fill="#000000">desc</text>
<polyline fill="none" stroke="#000000" points="322,-328.5 417,-328.5 "/>
<text text-anchor="middle" x="369.5" y="-313.3" font-family="Times,serif" font-size="14.00" fill="#000000">id</text>
<polyline fill="none" stroke="#000000" points="322,-305.5 417,-305.5 "/>
<text text-anchor="middle" x="369.5" y="-290.3" font-family="Times,serif" font-size="14.00" fill="#000000">is_external</text>
<polyline fill="none" stroke="#000000" points="322,-282.5 417,-282.5 "/>
<text text-anchor="middle" x="369.5" y="-267.3" font-family="Times,serif" font-size="14.00" fill="#000000">name</text>
<polyline fill="none" stroke="#000000" points="322,-259.5 417,-259.5 "/>
<text text-anchor="middle" x="369.5" y="-244.3" font-family="Times,serif" font-size="14.00" fill="#000000">nanoid6</text>
<polyline fill="none" stroke="#000000" points="322,-236.5 417,-236.5 "/>
<text text-anchor="middle" x="369.5" y="-221.3" font-family="Times,serif" font-size="14.00" fill="#000000">nanoid8</text>
<polyline fill="none" stroke="#000000" points="322,-213.5 417,-213.5 "/>
<text text-anchor="middle" x="369.5" y="-198.3" font-family="Times,serif" font-size="14.00" fill="#000000">url</text>
<polyline fill="none" stroke="#000000" points="417,-190.5 417,-351.5 "/>
<text text-anchor="middle" x="427.5" y="-267.3" font-family="Times,serif" font-size="14.00" fill="#000000"> </text>
</g>
<!-- origin&#45;&gt;tag -->
<g id="edge4" class="edge">
<title>origin&#45;&gt;tag</title>
<path fill="none" stroke="#000000" d="M340,-190.4932C340,-176.7786 340,-162.5421 340,-148.8576"/>
<polygon fill="#000000" stroke="#000000" points="343.5001,-148.5183 340,-138.5184 336.5001,-148.5184 343.5001,-148.5183"/>
<text text-anchor="middle" x="368" y="-160.8" font-family="Times,serif" font-size="14.00" fill="#000000">has_tag</text>
</g>
<!-- node&#45;&gt;property -->
<g id="edge14" class="edge">
<title>node&#45;&gt;property</title>
<path fill="none" stroke="#000000" d="M549.4616,-1096.547C544.671,-1093.5068 539.8358,-1090.6346 535,-1088 512.7848,-1075.897 498.6407,-1088.133 481,-1070 474.0261,-1062.8315 468.1286,-1054.6192 463.1418,-1045.8164"/>
<polygon fill="#000000" stroke="#000000" points="466.183,-1044.0787 458.4525,-1036.8336 459.9776,-1047.3181 466.183,-1044.0787"/>
<text text-anchor="middle" x="528.5" y="-1058.8" font-family="Times,serif" font-size="14.00" fill="#000000">has_property</text>
</g>
<!-- node&#45;&gt;concept -->
<g id="edge13" class="edge">
<title>node&#45;&gt;concept</title>
<path fill="none" stroke="#000000" d="M627.8994,-1088.1912C619.9784,-1004.8237 608.4756,-870.9776 604,-755 601.6178,-693.2682 575.8353,-670.984 604,-616 610.242,-603.8142 622.758,-610.1858 629,-598 633.6992,-588.826 679.7414,-575.1041 617,-370 612.3909,-354.9327 605.0344,-339.7671 597.057,-325.9895"/>
<polygon fill="#000000" stroke="#000000" points="599.8974,-323.921 591.7476,-317.1511 593.8968,-327.5256 599.8974,-323.921"/>
<text text-anchor="middle" x="649" y="-681.8" font-family="Times,serif" font-size="14.00" fill="#000000">has_concept</text>
</g>
<!-- node&#45;&gt;tag -->
<g id="edge7" class="edge">
<title>node&#45;&gt;tag</title>
<path fill="none" stroke="#000000" d="M650.6767,-1088.4343C665.029,-1005.2604 685.8744,-871.566 694,-755 698.296,-693.3718 703.8957,-676.9801 694,-616 692.6492,-607.6761 689.6149,-606.2767 688,-598 653.2034,-419.6618 770.2446,-335.9397 662,-190 633.3249,-151.3391 512.973,-113.5633 427.8417,-90.9026"/>
<polygon fill="#000000" stroke="#000000" points="428.725,-87.516 418.1631,-88.3508 426.9404,-94.2846 428.725,-87.516"/>
<text text-anchor="middle" x="716" y="-586.8" font-family="Times,serif" font-size="14.00" fill="#000000">has_tag</text>
</g>
<!-- concept&#45;&gt;tag -->
<g id="edge8" class="edge">
<title>concept&#45;&gt;tag</title>
<path fill="none" stroke="#000000" d="M507.9864,-224.7718C482.7152,-201.4134 451.3906,-172.4597 422.6624,-145.9059"/>
<polygon fill="#000000" stroke="#000000" points="424.7484,-143.0679 415.0292,-138.8504 419.997,-148.2083 424.7484,-143.0679"/>
<text text-anchor="middle" x="477" y="-160.8" font-family="Times,serif" font-size="14.00" fill="#000000">has_tag</text>
</g>
<!-- value_set&#45;&gt;origin -->
<g id="edge16" class="edge">
<title>value_set&#45;&gt;origin</title>
<path fill="none" stroke="#000000" d="M377.7933,-616.198C378.4596,-552.026 376.9472,-454.1075 365,-370 364.6159,-367.2961 364.1875,-364.559 363.7215,-361.8027"/>
<polygon fill="#000000" stroke="#000000" points="367.1269,-360.968 361.8819,-351.7626 360.2416,-362.2296 367.1269,-360.968"/>
<text text-anchor="middle" x="414.5" y="-480.3" font-family="Times,serif" font-size="14.00" fill="#000000">has_origin</text>
</g>
<!-- value_set&#45;&gt;concept -->
<g id="edge12" class="edge">
<title>value_set&#45;&gt;concept</title>
<path fill="none" stroke="#000000" d="M427.2728,-616.3006C437.7978,-600.0309 448.0701,-582.3587 456,-565 487.0503,-497.0303 476.1299,-473.4661 501,-403 510.0177,-377.4497 521.6357,-349.8354 532.0278,-326.5008"/>
<polygon fill="#000000" stroke="#000000" points="535.3384,-327.6722 536.2433,-317.1161 528.953,-324.8039 535.3384,-327.6722"/>
<text text-anchor="middle" x="546" y="-480.3" font-family="Times,serif" font-size="14.00" fill="#000000">has_concept</text>
</g>
<!-- value_set&#45;&gt;tag -->
<g id="edge5" class="edge">
<title>value_set&#45;&gt;tag</title>
<path fill="none" stroke="#000000" d="M275.9384,-669.3723C214.7435,-653.7888 141.1154,-623.4871 103,-565 10.9938,-423.8189 85.2906,-341.5393 159,-190 177.8756,-151.1936 215.984,-123.0172 252.3853,-103.7152"/>
<polygon fill="#000000" stroke="#000000" points="254.2871,-106.6734 261.5904,-98.998 251.0947,-100.4438 254.2871,-106.6734"/>
<text text-anchor="middle" x="101" y="-373.8" font-family="Times,serif" font-size="14.00" fill="#000000">has_tag</text>
</g>
<!-- term -->
<g id="node8" class="node">
<title>term</title>
<path fill="none" stroke="#000000" d="M124.5,-403.5C124.5,-403.5 327.5,-403.5 327.5,-403.5 333.5,-403.5 339.5,-409.5 339.5,-415.5 339.5,-415.5 339.5,-552.5 339.5,-552.5 339.5,-558.5 333.5,-564.5 327.5,-564.5 327.5,-564.5 124.5,-564.5 124.5,-564.5 118.5,-564.5 112.5,-558.5 112.5,-552.5 112.5,-552.5 112.5,-415.5 112.5,-415.5 112.5,-409.5 118.5,-403.5 124.5,-403.5"/>
<text text-anchor="middle" x="138" y="-480.3" font-family="Times,serif" font-size="14.00" fill="#000000">term</text>
<polyline fill="none" stroke="#000000" points="163.5,-403.5 163.5,-564.5 "/>
<text text-anchor="middle" x="174" y="-480.3" font-family="Times,serif" font-size="14.00" fill="#000000"> </text>
<polyline fill="none" stroke="#000000" points="184.5,-403.5 184.5,-564.5 "/>
<text text-anchor="middle" x="251.5" y="-549.3" font-family="Times,serif" font-size="14.00" fill="#000000">desc</text>
<polyline fill="none" stroke="#000000" points="184.5,-541.5 318.5,-541.5 "/>
<text text-anchor="middle" x="251.5" y="-526.3" font-family="Times,serif" font-size="14.00" fill="#000000">id</text>
<polyline fill="none" stroke="#000000" points="184.5,-518.5 318.5,-518.5 "/>
<text text-anchor="middle" x="251.5" y="-503.3" font-family="Times,serif" font-size="14.00" fill="#000000">nanoid6</text>
<polyline fill="none" stroke="#000000" points="184.5,-495.5 318.5,-495.5 "/>
<text text-anchor="middle" x="251.5" y="-480.3" font-family="Times,serif" font-size="14.00" fill="#000000">nanoid8</text>
<polyline fill="none" stroke="#000000" points="184.5,-472.5 318.5,-472.5 "/>
<text text-anchor="middle" x="251.5" y="-457.3" font-family="Times,serif" font-size="14.00" fill="#000000">origin_definition</text>
<polyline fill="none" stroke="#000000" points="184.5,-449.5 318.5,-449.5 "/>
<text text-anchor="middle" x="251.5" y="-434.3" font-family="Times,serif" font-size="14.00" fill="#000000">origin_id</text>
<polyline fill="none" stroke="#000000" points="184.5,-426.5 318.5,-426.5 "/>
<text text-anchor="middle" x="251.5" y="-411.3" font-family="Times,serif" font-size="14.00" fill="#000000">value</text>
<polyline fill="none" stroke="#000000" points="318.5,-403.5 318.5,-564.5 "/>
<text text-anchor="middle" x="329" y="-480.3" font-family="Times,serif" font-size="14.00" fill="#000000"> </text>
</g>
<!-- value_set&#45;&gt;term -->
<g id="edge19" class="edge">
<title>value_set&#45;&gt;term</title>
<path fill="none" stroke="#000000" d="M309.7041,-616.3869C304.5763,-610.2952 299.6082,-604.1179 295,-598 289.1019,-590.1695 283.2658,-581.8078 277.6328,-573.3053"/>
<polygon fill="#000000" stroke="#000000" points="280.4639,-571.2388 272.0728,-564.7704 274.5986,-575.0597 280.4639,-571.2388"/>
<text text-anchor="middle" x="328.5" y="-586.8" font-family="Times,serif" font-size="14.00" fill="#000000">has_term</text>
</g>
<!-- term&#45;&gt;origin -->
<g id="edge17" class="edge">
<title>term&#45;&gt;origin</title>
<path fill="none" stroke="#000000" d="M183.4681,-403.3557C182.0711,-391.8757 183.3634,-380.4356 189,-370 189.4245,-369.214 208.707,-356.4259 233.3586,-340.286"/>
<polygon fill="#000000" stroke="#000000" points="235.4517,-343.0992 241.905,-334.6965 231.6202,-337.2409 235.4517,-343.0992"/>
<text text-anchor="middle" x="226.5" y="-373.8" font-family="Times,serif" font-size="14.00" fill="#000000">has_origin</text>
</g>
<!-- term&#45;&gt;concept -->
<g id="edge18" class="edge">
<title>term&#45;&gt;concept</title>
<path fill="none" stroke="#000000" d="M336.7076,-403.423C355.66,-391.3613 375.5291,-379.7281 395,-370 416.8779,-359.0693 425.3278,-363.3331 447,-352 462.6396,-343.8216 478.5099,-333.6055 493.1715,-323.2125"/>
<polygon fill="#000000" stroke="#000000" points="495.5957,-325.7791 501.6534,-317.0868 491.4973,-320.1042 495.5957,-325.7791"/>
<text text-anchor="middle" x="434" y="-373.8" font-family="Times,serif" font-size="14.00" fill="#000000">represents</text>
</g>
<!-- term&#45;&gt;tag -->
<g id="edge9" class="edge">
<title>term&#45;&gt;tag</title>
<path fill="none" stroke="#000000" d="M185.7949,-403.2595C183.5952,-397.167 181.6248,-391.0395 180,-385 164.321,-326.7218 151.7712,-240.0249 177,-190 193.4424,-157.3972 223.3326,-131.4278 253.0688,-112.0705"/>
<polygon fill="#000000" stroke="#000000" points="255.2636,-114.8244 261.8572,-106.5313 251.5311,-108.9025 255.2636,-114.8244"/>
<text text-anchor="middle" x="205" y="-267.3" font-family="Times,serif" font-size="14.00" fill="#000000">has_tag</text>
</g>
</g>
</svg>
