<?xml version="1.0" encoding="UTF-8" standalone="no"?>
<!DOCTYPE svg PUBLIC "-//W3C//DTD SVG 1.1//EN"
 "http://www.w3.org/Graphics/SVG/1.1/DTD/svg11.dtd">
<!-- Generated by graphviz version 2.48.0 (20210717.1556)
 -->
<!-- Title: Perl Pages: 1 -->
<svg width="976pt" height="982pt"
 viewBox="0.00 0.00 975.61 982.00" xmlns="http://www.w3.org/2000/svg" xmlns:xlink="http://www.w3.org/1999/xlink">
<g id="graph0" class="graph" transform="scale(1 1) rotate(0) translate(4 978)">
<title>Perl</title>
<polygon fill="white" stroke="transparent" points="-4,4 -4,-978 971.61,-978 971.61,4 -4,4"/>
<!-- predicate -->
<g id="node1" class="node">
<title>predicate</title>
<path fill="none" stroke="black" d="M18.11,-133C18.11,-133 157.11,-133 157.11,-133 163.11,-133 169.11,-139 169.11,-145 169.11,-145 169.11,-190 169.11,-190 169.11,-196 163.11,-202 157.11,-202 157.11,-202 18.11,-202 18.11,-202 12.11,-202 6.11,-196 6.11,-190 6.11,-190 6.11,-145 6.11,-145 6.11,-139 12.11,-133 18.11,-133"/>
<text text-anchor="middle" x="40.11" y="-163.8" font-family="Times,serif" font-size="14.00">predicate</text>
<polyline fill="none" stroke="black" points="74.11,-133 74.11,-202 "/>
<text text-anchor="middle" x="84.11" y="-163.8" font-family="Times,serif" font-size="14.00"> </text>
<polyline fill="none" stroke="black" points="94.11,-133 94.11,-202 "/>
<text text-anchor="middle" x="121.61" y="-186.8" font-family="Times,serif" font-size="14.00">desc</text>
<polyline fill="none" stroke="black" points="94.11,-179 149.11,-179 "/>
<text text-anchor="middle" x="121.61" y="-163.8" font-family="Times,serif" font-size="14.00">handle</text>
<polyline fill="none" stroke="black" points="94.11,-156 149.11,-156 "/>
<text text-anchor="middle" x="121.61" y="-140.8" font-family="Times,serif" font-size="14.00">nanoid</text>
<polyline fill="none" stroke="black" points="149.11,-133 149.11,-202 "/>
<text text-anchor="middle" x="159.11" y="-163.8" font-family="Times,serif" font-size="14.00"> </text>
</g>
<!-- concept -->
<g id="node5" class="node">
<title>concept</title>
<path fill="none" stroke="black" d="M198.11,-0.5C198.11,-0.5 329.11,-0.5 329.11,-0.5 335.11,-0.5 341.11,-6.5 341.11,-12.5 341.11,-12.5 341.11,-34.5 341.11,-34.5 341.11,-40.5 335.11,-46.5 329.11,-46.5 329.11,-46.5 198.11,-46.5 198.11,-46.5 192.11,-46.5 186.11,-40.5 186.11,-34.5 186.11,-34.5 186.11,-12.5 186.11,-12.5 186.11,-6.5 192.11,-0.5 198.11,-0.5"/>
<text text-anchor="middle" x="216.11" y="-19.8" font-family="Times,serif" font-size="14.00">concept</text>
<polyline fill="none" stroke="black" points="246.11,-0.5 246.11,-46.5 "/>
<text text-anchor="middle" x="256.11" y="-19.8" font-family="Times,serif" font-size="14.00"> </text>
<polyline fill="none" stroke="black" points="266.11,-0.5 266.11,-46.5 "/>
<text text-anchor="middle" x="293.61" y="-31.3" font-family="Times,serif" font-size="14.00">desc</text>
<polyline fill="none" stroke="black" points="266.11,-23.5 321.11,-23.5 "/>
<text text-anchor="middle" x="293.61" y="-8.3" font-family="Times,serif" font-size="14.00">nanoid</text>
<polyline fill="none" stroke="black" points="321.11,-0.5 321.11,-46.5 "/>
<text text-anchor="middle" x="331.11" y="-19.8" font-family="Times,serif" font-size="14.00"> </text>
</g>
<!-- predicate&#45;&gt;concept -->
<g id="edge3" class="edge">
<title>predicate&#45;&gt;concept</title>
<path fill="none" stroke="black" d="M78.17,-132.82C74.26,-111.16 73.6,-83.69 88.61,-65 100.12,-50.66 138.18,-40.94 175.88,-34.62"/>
<polygon fill="black" stroke="black" points="176.64,-38.04 185.96,-33.01 175.53,-31.13 176.64,-38.04"/>
<text text-anchor="middle" x="118.61" y="-68.8" font-family="Times,serif" font-size="14.00">has_object</text>
</g>
<!-- predicate&#45;&gt;concept -->
<g id="edge6" class="edge">
<title>predicate&#45;&gt;concept</title>
<path fill="none" stroke="black" d="M109.32,-132.86C124.63,-111.23 146.79,-83.75 171.61,-65 178.31,-59.93 185.75,-55.34 193.41,-51.22"/>
<polygon fill="black" stroke="black" points="195.15,-54.26 202.47,-46.6 191.97,-48.03 195.15,-54.26"/>
<text text-anchor="middle" x="204.61" y="-68.8" font-family="Times,serif" font-size="14.00">has_subject</text>
</g>
<!-- predicate&#45;&gt;concept -->
<g id="edge8" class="edge">
<title>predicate&#45;&gt;concept</title>
<path fill="none" stroke="black" d="M34.49,-132.83C9.43,-112.81 -11.26,-87.09 7.61,-65 29.11,-39.83 110.45,-30.21 175.75,-26.59"/>
<polygon fill="black" stroke="black" points="176.28,-30.07 186.08,-26.06 175.92,-23.08 176.28,-30.07"/>
<text text-anchor="middle" x="42.61" y="-68.8" font-family="Times,serif" font-size="14.00">has_concept</text>
</g>
<!-- model -->
<g id="node2" class="node">
<title>model</title>
<path fill="none" stroke="black" d="M481.61,-847C481.61,-847 621.61,-847 621.61,-847 627.61,-847 633.61,-853 633.61,-859 633.61,-859 633.61,-950 633.61,-950 633.61,-956 627.61,-962 621.61,-962 621.61,-962 481.61,-962 481.61,-962 475.61,-962 469.61,-956 469.61,-950 469.61,-950 469.61,-859 469.61,-859 469.61,-853 475.61,-847 481.61,-847"/>
<text text-anchor="middle" x="495.11" y="-900.8" font-family="Times,serif" font-size="14.00">model</text>
<polyline fill="none" stroke="black" points="520.61,-847 520.61,-962 "/>
<text text-anchor="middle" x="530.61" y="-900.8" font-family="Times,serif" font-size="14.00"> </text>
<polyline fill="none" stroke="black" points="540.61,-847 540.61,-962 "/>
<text text-anchor="middle" x="577.11" y="-946.8" font-family="Times,serif" font-size="14.00">desc</text>
<polyline fill="none" stroke="black" points="540.61,-939 613.61,-939 "/>
<text text-anchor="middle" x="577.11" y="-923.8" font-family="Times,serif" font-size="14.00">handle</text>
<polyline fill="none" stroke="black" points="540.61,-916 613.61,-916 "/>
<text text-anchor="middle" x="577.11" y="-900.8" font-family="Times,serif" font-size="14.00">name</text>
<polyline fill="none" stroke="black" points="540.61,-893 613.61,-893 "/>
<text text-anchor="middle" x="577.11" y="-877.8" font-family="Times,serif" font-size="14.00">nanoid</text>
<polyline fill="none" stroke="black" points="540.61,-870 613.61,-870 "/>
<text text-anchor="middle" x="577.11" y="-854.8" font-family="Times,serif" font-size="14.00">repository</text>
<polyline fill="none" stroke="black" points="613.61,-847 613.61,-962 "/>
<text text-anchor="middle" x="623.61" y="-900.8" font-family="Times,serif" font-size="14.00"> </text>
</g>
<!-- tag -->
<g id="node3" class="node">
<title>tag</title>
<path fill="none" stroke="black" d="M664.11,-858.5C664.11,-858.5 769.11,-858.5 769.11,-858.5 775.11,-858.5 781.11,-864.5 781.11,-870.5 781.11,-870.5 781.11,-938.5 781.11,-938.5 781.11,-944.5 775.11,-950.5 769.11,-950.5 769.11,-950.5 664.11,-950.5 664.11,-950.5 658.11,-950.5 652.11,-944.5 652.11,-938.5 652.11,-938.5 652.11,-870.5 652.11,-870.5 652.11,-864.5 658.11,-858.5 664.11,-858.5"/>
<text text-anchor="middle" x="669.11" y="-900.8" font-family="Times,serif" font-size="14.00">tag</text>
<polyline fill="none" stroke="black" points="686.11,-858.5 686.11,-950.5 "/>
<text text-anchor="middle" x="696.11" y="-900.8" font-family="Times,serif" font-size="14.00"> </text>
<polyline fill="none" stroke="black" points="706.11,-858.5 706.11,-950.5 "/>
<text text-anchor="middle" x="733.61" y="-935.3" font-family="Times,serif" font-size="14.00">desc</text>
<polyline fill="none" stroke="black" points="706.11,-927.5 761.11,-927.5 "/>
<text text-anchor="middle" x="733.61" y="-912.3" font-family="Times,serif" font-size="14.00">key</text>
<polyline fill="none" stroke="black" points="706.11,-904.5 761.11,-904.5 "/>
<text text-anchor="middle" x="733.61" y="-889.3" font-family="Times,serif" font-size="14.00">nanoid</text>
<polyline fill="none" stroke="black" points="706.11,-881.5 761.11,-881.5 "/>
<text text-anchor="middle" x="733.61" y="-866.3" font-family="Times,serif" font-size="14.00">value</text>
<polyline fill="none" stroke="black" points="761.11,-858.5 761.11,-950.5 "/>
<text text-anchor="middle" x="771.11" y="-900.8" font-family="Times,serif" font-size="14.00"> </text>
</g>
<!-- property -->
<g id="node4" class="node">
<title>property</title>
<path fill="none" stroke="black" d="M293.61,-455.5C293.61,-455.5 469.61,-455.5 469.61,-455.5 475.61,-455.5 481.61,-461.5 481.61,-467.5 481.61,-467.5 481.61,-627.5 481.61,-627.5 481.61,-633.5 475.61,-639.5 469.61,-639.5 469.61,-639.5 293.61,-639.5 293.61,-639.5 287.61,-639.5 281.61,-633.5 281.61,-627.5 281.61,-627.5 281.61,-467.5 281.61,-467.5 281.61,-461.5 287.61,-455.5 293.61,-455.5"/>
<text text-anchor="middle" x="313.61" y="-543.8" font-family="Times,serif" font-size="14.00">property</text>
<polyline fill="none" stroke="black" points="345.61,-455.5 345.61,-639.5 "/>
<text text-anchor="middle" x="355.61" y="-543.8" font-family="Times,serif" font-size="14.00"> </text>
<polyline fill="none" stroke="black" points="365.61,-455.5 365.61,-639.5 "/>
<text text-anchor="middle" x="413.61" y="-624.3" font-family="Times,serif" font-size="14.00">desc</text>
<polyline fill="none" stroke="black" points="365.61,-616.5 461.61,-616.5 "/>
<text text-anchor="middle" x="413.61" y="-601.3" font-family="Times,serif" font-size="14.00">handle</text>
<polyline fill="none" stroke="black" points="365.61,-593.5 461.61,-593.5 "/>
<text text-anchor="middle" x="413.61" y="-578.3" font-family="Times,serif" font-size="14.00">is_required</text>
<polyline fill="none" stroke="black" points="365.61,-570.5 461.61,-570.5 "/>
<text text-anchor="middle" x="413.61" y="-555.3" font-family="Times,serif" font-size="14.00">model</text>
<polyline fill="none" stroke="black" points="365.61,-547.5 461.61,-547.5 "/>
<text text-anchor="middle" x="413.61" y="-532.3" font-family="Times,serif" font-size="14.00">nanoid</text>
<polyline fill="none" stroke="black" points="365.61,-524.5 461.61,-524.5 "/>
<text text-anchor="middle" x="413.61" y="-509.3" font-family="Times,serif" font-size="14.00">pattern</text>
<polyline fill="none" stroke="black" points="365.61,-501.5 461.61,-501.5 "/>
<text text-anchor="middle" x="413.61" y="-486.3" font-family="Times,serif" font-size="14.00">units</text>
<polyline fill="none" stroke="black" points="365.61,-478.5 461.61,-478.5 "/>
<text text-anchor="middle" x="413.61" y="-463.3" font-family="Times,serif" font-size="14.00">value_domain</text>
<polyline fill="none" stroke="black" points="461.61,-455.5 461.61,-639.5 "/>
<text text-anchor="middle" x="471.61" y="-543.8" font-family="Times,serif" font-size="14.00"> </text>
</g>
<!-- property&#45;&gt;concept -->
<g id="edge10" class="edge">
<title>property&#45;&gt;concept</title>
<path fill="none" stroke="black" d="M335.65,-455.34C329.21,-443.94 322.45,-432.58 315.61,-422 310.1,-413.49 305.37,-413.41 301.61,-404 288.86,-372.13 271.83,-142.85 265.82,-56.92"/>
<polygon fill="black" stroke="black" points="269.3,-56.44 265.11,-46.7 262.31,-56.92 269.3,-56.44"/>
<text text-anchor="middle" x="318.61" y="-258.8" font-family="Times,serif" font-size="14.00">has_concept</text>
</g>
<!-- value_set -->
<g id="node7" class="node">
<title>value_set</title>
<path fill="none" stroke="black" d="M322.61,-288.5C322.61,-288.5 494.61,-288.5 494.61,-288.5 500.61,-288.5 506.61,-294.5 506.61,-300.5 506.61,-300.5 506.61,-391.5 506.61,-391.5 506.61,-397.5 500.61,-403.5 494.61,-403.5 494.61,-403.5 322.61,-403.5 322.61,-403.5 316.61,-403.5 310.61,-397.5 310.61,-391.5 310.61,-391.5 310.61,-300.5 310.61,-300.5 310.61,-294.5 316.61,-288.5 322.61,-288.5"/>
<text text-anchor="middle" x="345.11" y="-342.3" font-family="Times,serif" font-size="14.00">value_set</text>
<polyline fill="none" stroke="black" points="379.61,-288.5 379.61,-403.5 "/>
<text text-anchor="middle" x="389.61" y="-342.3" font-family="Times,serif" font-size="14.00"> </text>
<polyline fill="none" stroke="black" points="399.61,-288.5 399.61,-403.5 "/>
<text text-anchor="middle" x="443.11" y="-388.3" font-family="Times,serif" font-size="14.00">desc</text>
<polyline fill="none" stroke="black" points="399.61,-380.5 486.61,-380.5 "/>
<text text-anchor="middle" x="443.11" y="-365.3" font-family="Times,serif" font-size="14.00">handle</text>
<polyline fill="none" stroke="black" points="399.61,-357.5 486.61,-357.5 "/>
<text text-anchor="middle" x="443.11" y="-342.3" font-family="Times,serif" font-size="14.00">nanoid</text>
<polyline fill="none" stroke="black" points="399.61,-334.5 486.61,-334.5 "/>
<text text-anchor="middle" x="443.11" y="-319.3" font-family="Times,serif" font-size="14.00">origin_name</text>
<polyline fill="none" stroke="black" points="399.61,-311.5 486.61,-311.5 "/>
<text text-anchor="middle" x="443.11" y="-296.3" font-family="Times,serif" font-size="14.00">url</text>
<polyline fill="none" stroke="black" points="486.61,-288.5 486.61,-403.5 "/>
<text text-anchor="middle" x="496.61" y="-342.3" font-family="Times,serif" font-size="14.00"> </text>
</g>
<!-- property&#45;&gt;value_set -->
<g id="edge13" class="edge">
<title>property&#45;&gt;value_set</title>
<path fill="none" stroke="black" d="M393.96,-455.22C395.85,-441.24 397.78,-427.03 399.58,-413.71"/>
<polygon fill="black" stroke="black" points="403.06,-414.1 400.93,-403.72 396.12,-413.16 403.06,-414.1"/>
<text text-anchor="middle" x="437.11" y="-425.8" font-family="Times,serif" font-size="14.00">has_value_set</text>
</g>
<!-- origin -->
<g id="node6" class="node">
<title>origin</title>
<path fill="none" stroke="black" d="M811.61,-847C811.61,-847 955.61,-847 955.61,-847 961.61,-847 967.61,-853 967.61,-859 967.61,-859 967.61,-950 967.61,-950 967.61,-956 961.61,-962 955.61,-962 955.61,-962 811.61,-962 811.61,-962 805.61,-962 799.61,-956 799.61,-950 799.61,-950 799.61,-859 799.61,-859 799.61,-853 805.61,-847 811.61,-847"/>
<text text-anchor="middle" x="824.61" y="-900.8" font-family="Times,serif" font-size="14.00">origin</text>
<polyline fill="none" stroke="black" points="849.61,-847 849.61,-962 "/>
<text text-anchor="middle" x="859.61" y="-900.8" font-family="Times,serif" font-size="14.00"> </text>
<polyline fill="none" stroke="black" points="869.61,-847 869.61,-962 "/>
<text text-anchor="middle" x="908.61" y="-946.8" font-family="Times,serif" font-size="14.00">desc</text>
<polyline fill="none" stroke="black" points="869.61,-939 947.61,-939 "/>
<text text-anchor="middle" x="908.61" y="-923.8" font-family="Times,serif" font-size="14.00">is_external</text>
<polyline fill="none" stroke="black" points="869.61,-916 947.61,-916 "/>
<text text-anchor="middle" x="908.61" y="-900.8" font-family="Times,serif" font-size="14.00">name</text>
<polyline fill="none" stroke="black" points="869.61,-893 947.61,-893 "/>
<text text-anchor="middle" x="908.61" y="-877.8" font-family="Times,serif" font-size="14.00">nanoid</text>
<polyline fill="none" stroke="black" points="869.61,-870 947.61,-870 "/>
<text text-anchor="middle" x="908.61" y="-854.8" font-family="Times,serif" font-size="14.00">url</text>
<polyline fill="none" stroke="black" points="947.61,-847 947.61,-962 "/>
<text text-anchor="middle" x="957.61" y="-900.8" font-family="Times,serif" font-size="14.00"> </text>
</g>
<!-- value_set&#45;&gt;concept -->
<g id="edge7" class="edge">
<title>value_set&#45;&gt;concept</title>
<path fill="none" stroke="black" d="M479.18,-288.38C493.19,-273.31 505.94,-255.9 513.61,-237 536.85,-179.76 550.62,-147.46 513.61,-98 493.83,-71.57 415.35,-51.39 351.53,-38.92"/>
<polygon fill="black" stroke="black" points="351.9,-35.43 341.42,-36.98 350.59,-42.3 351.9,-35.43"/>
<text text-anchor="middle" x="570.61" y="-163.8" font-family="Times,serif" font-size="14.00">has_concept</text>
</g>
<!-- term -->
<g id="node8" class="node">
<title>term</title>
<path fill="none" stroke="black" d="M323.11,-98.5C323.11,-98.5 492.11,-98.5 492.11,-98.5 498.11,-98.5 504.11,-104.5 504.11,-110.5 504.11,-110.5 504.11,-224.5 504.11,-224.5 504.11,-230.5 498.11,-236.5 492.11,-236.5 492.11,-236.5 323.11,-236.5 323.11,-236.5 317.11,-236.5 311.11,-230.5 311.11,-224.5 311.11,-224.5 311.11,-110.5 311.11,-110.5 311.11,-104.5 317.11,-98.5 323.11,-98.5"/>
<text text-anchor="middle" x="332.11" y="-163.8" font-family="Times,serif" font-size="14.00">term</text>
<polyline fill="none" stroke="black" points="353.11,-98.5 353.11,-236.5 "/>
<text text-anchor="middle" x="363.11" y="-163.8" font-family="Times,serif" font-size="14.00"> </text>
<polyline fill="none" stroke="black" points="373.11,-98.5 373.11,-236.5 "/>
<text text-anchor="middle" x="428.61" y="-221.3" font-family="Times,serif" font-size="14.00">desc</text>
<polyline fill="none" stroke="black" points="373.11,-213.5 484.11,-213.5 "/>
<text text-anchor="middle" x="428.61" y="-198.3" font-family="Times,serif" font-size="14.00">nanoid</text>
<polyline fill="none" stroke="black" points="373.11,-190.5 484.11,-190.5 "/>
<text text-anchor="middle" x="428.61" y="-175.3" font-family="Times,serif" font-size="14.00">origin_definition</text>
<polyline fill="none" stroke="black" points="373.11,-167.5 484.11,-167.5 "/>
<text text-anchor="middle" x="428.61" y="-152.3" font-family="Times,serif" font-size="14.00">origin_id</text>
<polyline fill="none" stroke="black" points="373.11,-144.5 484.11,-144.5 "/>
<text text-anchor="middle" x="428.61" y="-129.3" font-family="Times,serif" font-size="14.00">origin_name</text>
<polyline fill="none" stroke="black" points="373.11,-121.5 484.11,-121.5 "/>
<text text-anchor="middle" x="428.61" y="-106.3" font-family="Times,serif" font-size="14.00">value</text>
<polyline fill="none" stroke="black" points="484.11,-98.5 484.11,-236.5 "/>
<text text-anchor="middle" x="494.11" y="-163.8" font-family="Times,serif" font-size="14.00"> </text>
</g>
<!-- value_set&#45;&gt;term -->
<g id="edge5" class="edge">
<title>value_set&#45;&gt;term</title>
<path fill="none" stroke="black" d="M408.29,-288.18C408.21,-274.96 408.13,-260.66 408.05,-246.7"/>
<polygon fill="black" stroke="black" points="411.55,-246.6 407.99,-236.62 404.55,-246.64 411.55,-246.6"/>
<text text-anchor="middle" x="433.61" y="-258.8" font-family="Times,serif" font-size="14.00">has_term</text>
</g>
<!-- term&#45;&gt;concept -->
<g id="edge14" class="edge">
<title>term&#45;&gt;concept</title>
<path fill="none" stroke="black" d="M338.56,-98.41C322.75,-82.82 306.75,-67.05 293.62,-54.09"/>
<polygon fill="black" stroke="black" points="295.82,-51.35 286.24,-46.82 290.9,-56.33 295.82,-51.35"/>
<text text-anchor="middle" x="347.11" y="-68.8" font-family="Times,serif" font-size="14.00">represents</text>
</g>
<!-- node -->
<g id="node9" class="node">
<title>node</title>
<path fill="none" stroke="black" d="M437.11,-691.5C437.11,-691.5 552.11,-691.5 552.11,-691.5 558.11,-691.5 564.11,-697.5 564.11,-703.5 564.11,-703.5 564.11,-771.5 564.11,-771.5 564.11,-777.5 558.11,-783.5 552.11,-783.5 552.11,-783.5 437.11,-783.5 437.11,-783.5 431.11,-783.5 425.11,-777.5 425.11,-771.5 425.11,-771.5 425.11,-703.5 425.11,-703.5 425.11,-697.5 431.11,-691.5 437.11,-691.5"/>
<text text-anchor="middle" x="447.11" y="-733.8" font-family="Times,serif" font-size="14.00">node</text>
<polyline fill="none" stroke="black" points="469.11,-691.5 469.11,-783.5 "/>
<text text-anchor="middle" x="479.11" y="-733.8" font-family="Times,serif" font-size="14.00"> </text>
<polyline fill="none" stroke="black" points="489.11,-691.5 489.11,-783.5 "/>
<text text-anchor="middle" x="516.61" y="-768.3" font-family="Times,serif" font-size="14.00">desc</text>
<polyline fill="none" stroke="black" points="489.11,-760.5 544.11,-760.5 "/>
<text text-anchor="middle" x="516.61" y="-745.3" font-family="Times,serif" font-size="14.00">handle</text>
<polyline fill="none" stroke="black" points="489.11,-737.5 544.11,-737.5 "/>
<text text-anchor="middle" x="516.61" y="-722.3" font-family="Times,serif" font-size="14.00">model</text>
<polyline fill="none" stroke="black" points="489.11,-714.5 544.11,-714.5 "/>
<text text-anchor="middle" x="516.61" y="-699.3" font-family="Times,serif" font-size="14.00">nanoid</text>
<polyline fill="none" stroke="black" points="544.11,-691.5 544.11,-783.5 "/>
<text text-anchor="middle" x="554.11" y="-733.8" font-family="Times,serif" font-size="14.00"> </text>
</g>
<!-- node&#45;&gt;property -->
<g id="edge1" class="edge">
<title>node&#45;&gt;property</title>
<path fill="none" stroke="black" d="M467.54,-691.47C459.68,-678.39 450.77,-663.56 441.73,-648.53"/>
<polygon fill="black" stroke="black" points="444.55,-646.43 436.4,-639.66 438.55,-650.03 444.55,-646.43"/>
<text text-anchor="middle" x="491.61" y="-661.8" font-family="Times,serif" font-size="14.00">has_property</text>
</g>
<!-- node&#45;&gt;concept -->
<g id="edge9" class="edge">
<title>node&#45;&gt;concept</title>
<path fill="none" stroke="black" d="M556.51,-691.13C595.54,-656.89 638.61,-606.06 638.61,-548.5 638.61,-548.5 638.61,-548.5 638.61,-166.5 638.61,-133.44 634.57,-119.68 609.61,-98 571.66,-65.04 440.78,-44.18 351.32,-33.42"/>
<polygon fill="black" stroke="black" points="351.52,-29.92 341.17,-32.22 350.69,-36.87 351.52,-29.92"/>
<text text-anchor="middle" x="673.61" y="-342.3" font-family="Times,serif" font-size="14.00">has_concept</text>
</g>
<!-- relationship -->
<g id="node10" class="node">
<title>relationship</title>
<path fill="none" stroke="black" d="M258.11,-835.5C258.11,-835.5 439.11,-835.5 439.11,-835.5 445.11,-835.5 451.11,-841.5 451.11,-847.5 451.11,-847.5 451.11,-961.5 451.11,-961.5 451.11,-967.5 445.11,-973.5 439.11,-973.5 439.11,-973.5 258.11,-973.5 258.11,-973.5 252.11,-973.5 246.11,-967.5 246.11,-961.5 246.11,-961.5 246.11,-847.5 246.11,-847.5 246.11,-841.5 252.11,-835.5 258.11,-835.5"/>
<text text-anchor="middle" x="287.61" y="-900.8" font-family="Times,serif" font-size="14.00">relationship</text>
<polyline fill="none" stroke="black" points="329.11,-835.5 329.11,-973.5 "/>
<text text-anchor="middle" x="339.11" y="-900.8" font-family="Times,serif" font-size="14.00"> </text>
<polyline fill="none" stroke="black" points="349.11,-835.5 349.11,-973.5 "/>
<text text-anchor="middle" x="390.11" y="-958.3" font-family="Times,serif" font-size="14.00">desc</text>
<polyline fill="none" stroke="black" points="349.11,-950.5 431.11,-950.5 "/>
<text text-anchor="middle" x="390.11" y="-935.3" font-family="Times,serif" font-size="14.00">handle</text>
<polyline fill="none" stroke="black" points="349.11,-927.5 431.11,-927.5 "/>
<text text-anchor="middle" x="390.11" y="-912.3" font-family="Times,serif" font-size="14.00">is_required</text>
<polyline fill="none" stroke="black" points="349.11,-904.5 431.11,-904.5 "/>
<text text-anchor="middle" x="390.11" y="-889.3" font-family="Times,serif" font-size="14.00">model</text>
<polyline fill="none" stroke="black" points="349.11,-881.5 431.11,-881.5 "/>
<text text-anchor="middle" x="390.11" y="-866.3" font-family="Times,serif" font-size="14.00">multiplicity</text>
<polyline fill="none" stroke="black" points="349.11,-858.5 431.11,-858.5 "/>
<text text-anchor="middle" x="390.11" y="-843.3" font-family="Times,serif" font-size="14.00">nanoid</text>
<polyline fill="none" stroke="black" points="431.11,-835.5 431.11,-973.5 "/>
<text text-anchor="middle" x="441.11" y="-900.8" font-family="Times,serif" font-size="14.00"> </text>
</g>
<!-- relationship&#45;&gt;property -->
<g id="edge2" class="edge">
<title>relationship&#45;&gt;property</title>
<path fill="none" stroke="black" d="M344.59,-835.27C343.77,-818.51 343.03,-800.61 342.61,-784 341.57,-742.68 337.1,-731.97 342.61,-691 344.42,-677.5 347.16,-663.47 350.37,-649.7"/>
<polygon fill="black" stroke="black" points="353.83,-650.29 352.77,-639.74 347.02,-648.64 353.83,-650.29"/>
<text text-anchor="middle" x="379.61" y="-733.8" font-family="Times,serif" font-size="14.00">has_property</text>
</g>
<!-- relationship&#45;&gt;concept -->
<g id="edge11" class="edge">
<title>relationship&#45;&gt;concept</title>
<path fill="none" stroke="black" d="M282.15,-835.31C261.77,-807.55 244.61,-773.72 244.61,-738.5 244.61,-738.5 244.61,-738.5 244.61,-261.5 244.61,-188.13 253.77,-102.39 259.37,-56.83"/>
<polygon fill="black" stroke="black" points="262.87,-57.03 260.64,-46.67 255.92,-56.16 262.87,-57.03"/>
<text text-anchor="middle" x="279.61" y="-425.8" font-family="Times,serif" font-size="14.00">has_concept</text>
</g>
<!-- relationship&#45;&gt;node -->
<g id="edge4" class="edge">
<title>relationship&#45;&gt;node</title>
<path fill="none" stroke="black" d="M388.47,-835.45C396.5,-823.8 405.34,-812.18 414.61,-802 418.1,-798.16 421.84,-794.37 425.72,-790.67"/>
<polygon fill="black" stroke="black" points="428.34,-793.02 433.34,-783.67 423.6,-787.86 428.34,-793.02"/>
<text text-anchor="middle" x="435.61" y="-805.8" font-family="Times,serif" font-size="14.00">has_src</text>
</g>
<!-- relationship&#45;&gt;node -->
<g id="edge12" class="edge">
<title>relationship&#45;&gt;node</title>
<path fill="none" stroke="black" d="M440.17,-835.32C446.04,-829.42 451.59,-823.29 456.61,-817 462.49,-809.62 467.77,-801.18 472.37,-792.63"/>
<polygon fill="black" stroke="black" points="475.49,-794.22 476.94,-783.72 469.26,-791.03 475.49,-794.22"/>
<text text-anchor="middle" x="486.61" y="-805.8" font-family="Times,serif" font-size="14.00">has_dst</text>
</g>
</g>
</svg>
