<?xml version="1.0" encoding="UTF-8" standalone="no"?>
<!DOCTYPE svg PUBLIC "-//W3C//DTD SVG 1.1//EN"
 "http://www.w3.org/Graphics/SVG/1.1/DTD/svg11.dtd">
<!-- Generated by graphviz version 2.40.1 (20161225.0304)
 -->
<!-- Title: Perl Pages: 1 -->
<svg width="965pt" height="1494pt"
 viewBox="0.00 0.00 965.00 1494.00" xmlns="http://www.w3.org/2000/svg" xmlns:xlink="http://www.w3.org/1999/xlink">
<g id="graph0" class="graph" transform="scale(1 1) rotate(0) translate(4 1490)">
<title>Perl</title>
<polygon fill="#ffffff" stroke="transparent" points="-4,4 -4,-1490 961,-1490 961,4 -4,4"/>
<!-- relationship -->
<g id="node1" class="node">
<title>relationship</title>
<path fill="none" stroke="#000000" d="M530.5,-1301.5C530.5,-1301.5 749.5,-1301.5 749.5,-1301.5 755.5,-1301.5 761.5,-1307.5 761.5,-1313.5 761.5,-1313.5 761.5,-1473.5 761.5,-1473.5 761.5,-1479.5 755.5,-1485.5 749.5,-1485.5 749.5,-1485.5 530.5,-1485.5 530.5,-1485.5 524.5,-1485.5 518.5,-1479.5 518.5,-1473.5 518.5,-1473.5 518.5,-1313.5 518.5,-1313.5 518.5,-1307.5 524.5,-1301.5 530.5,-1301.5"/>
<text text-anchor="middle" x="569.5" y="-1389.8" font-family="Times,serif" font-size="14.00" fill="#000000">relationship</text>
<polyline fill="none" stroke="#000000" points="620.5,-1301.5 620.5,-1485.5 "/>
<text text-anchor="middle" x="631" y="-1389.8" font-family="Times,serif" font-size="14.00" fill="#000000"> </text>
<polyline fill="none" stroke="#000000" points="641.5,-1301.5 641.5,-1485.5 "/>
<text text-anchor="middle" x="691" y="-1470.3" font-family="Times,serif" font-size="14.00" fill="#000000">desc</text>
<polyline fill="none" stroke="#000000" points="641.5,-1462.5 740.5,-1462.5 "/>
<text text-anchor="middle" x="691" y="-1447.3" font-family="Times,serif" font-size="14.00" fill="#000000">handle</text>
<polyline fill="none" stroke="#000000" points="641.5,-1439.5 740.5,-1439.5 "/>
<text text-anchor="middle" x="691" y="-1424.3" font-family="Times,serif" font-size="14.00" fill="#000000">id</text>
<polyline fill="none" stroke="#000000" points="641.5,-1416.5 740.5,-1416.5 "/>
<text text-anchor="middle" x="691" y="-1401.3" font-family="Times,serif" font-size="14.00" fill="#000000">is_required</text>
<polyline fill="none" stroke="#000000" points="641.5,-1393.5 740.5,-1393.5 "/>
<text text-anchor="middle" x="691" y="-1378.3" font-family="Times,serif" font-size="14.00" fill="#000000">model</text>
<polyline fill="none" stroke="#000000" points="641.5,-1370.5 740.5,-1370.5 "/>
<text text-anchor="middle" x="691" y="-1355.3" font-family="Times,serif" font-size="14.00" fill="#000000">multiplicity</text>
<polyline fill="none" stroke="#000000" points="641.5,-1347.5 740.5,-1347.5 "/>
<text text-anchor="middle" x="691" y="-1332.3" font-family="Times,serif" font-size="14.00" fill="#000000">nanoid6</text>
<polyline fill="none" stroke="#000000" points="641.5,-1324.5 740.5,-1324.5 "/>
<text text-anchor="middle" x="691" y="-1309.3" font-family="Times,serif" font-size="14.00" fill="#000000">nanoid8</text>
<polyline fill="none" stroke="#000000" points="740.5,-1301.5 740.5,-1485.5 "/>
<text text-anchor="middle" x="751" y="-1389.8" font-family="Times,serif" font-size="14.00" fill="#000000"> </text>
</g>
<!-- tag -->
<g id="node2" class="node">
<title>tag</title>
<path fill="none" stroke="#000000" d="M320,-.5C320,-.5 452,-.5 452,-.5 458,-.5 464,-6.5 464,-12.5 464,-12.5 464,-126.5 464,-126.5 464,-132.5 458,-138.5 452,-138.5 452,-138.5 320,-138.5 320,-138.5 314,-138.5 308,-132.5 308,-126.5 308,-126.5 308,-12.5 308,-12.5 308,-6.5 314,-.5 320,-.5"/>
<text text-anchor="middle" x="328" y="-65.8" font-family="Times,serif" font-size="14.00" fill="#000000">tag</text>
<polyline fill="none" stroke="#000000" points="348,-.5 348,-138.5 "/>
<text text-anchor="middle" x="358.5" y="-65.8" font-family="Times,serif" font-size="14.00" fill="#000000"> </text>
<polyline fill="none" stroke="#000000" points="369,-.5 369,-138.5 "/>
<text text-anchor="middle" x="406" y="-123.3" font-family="Times,serif" font-size="14.00" fill="#000000">desc</text>
<polyline fill="none" stroke="#000000" points="369,-115.5 443,-115.5 "/>
<text text-anchor="middle" x="406" y="-100.3" font-family="Times,serif" font-size="14.00" fill="#000000">id</text>
<polyline fill="none" stroke="#000000" points="369,-92.5 443,-92.5 "/>
<text text-anchor="middle" x="406" y="-77.3" font-family="Times,serif" font-size="14.00" fill="#000000">key</text>
<polyline fill="none" stroke="#000000" points="369,-69.5 443,-69.5 "/>
<text text-anchor="middle" x="406" y="-54.3" font-family="Times,serif" font-size="14.00" fill="#000000">nanoid6</text>
<polyline fill="none" stroke="#000000" points="369,-46.5 443,-46.5 "/>
<text text-anchor="middle" x="406" y="-31.3" font-family="Times,serif" font-size="14.00" fill="#000000">nanoid8</text>
<polyline fill="none" stroke="#000000" points="369,-23.5 443,-23.5 "/>
<text text-anchor="middle" x="406" y="-8.3" font-family="Times,serif" font-size="14.00" fill="#000000">value</text>
<polyline fill="none" stroke="#000000" points="443,-.5 443,-138.5 "/>
<text text-anchor="middle" x="453.5" y="-65.8" font-family="Times,serif" font-size="14.00" fill="#000000"> </text>
</g>
<!-- relationship&#45;&gt;tag -->
<g id="edge17" class="edge">
<title>relationship&#45;&gt;tag</title>
<path fill="none" stroke="#000000" d="M518.4917,-1376.2256C332.8749,-1346.3775 0,-1277.6969 0,-1169 0,-1169 0,-1169 0,-271 0,-137.4474 183.8328,-92.262 297.769,-77.0823"/>
<polygon fill="#000000" stroke="#000000" points="298.412,-80.5287 307.8871,-75.7883 297.5239,-73.5853 298.412,-80.5287"/>
<text text-anchor="middle" x="28" y="-681.8" font-family="Times,serif" font-size="14.00" fill="#000000">has_tag</text>
</g>
<!-- property -->
<g id="node3" class="node">
<title>property</title>
<path fill="none" stroke="#000000" d="M411,-806.5C411,-806.5 623,-806.5 623,-806.5 629,-806.5 635,-812.5 635,-818.5 635,-818.5 635,-1024.5 635,-1024.5 635,-1030.5 629,-1036.5 623,-1036.5 623,-1036.5 411,-1036.5 411,-1036.5 405,-1036.5 399,-1030.5 399,-1024.5 399,-1024.5 399,-818.5 399,-818.5 399,-812.5 405,-806.5 411,-806.5"/>
<text text-anchor="middle" x="438.5" y="-917.8" font-family="Times,serif" font-size="14.00" fill="#000000">property</text>
<polyline fill="none" stroke="#000000" points="478,-806.5 478,-1036.5 "/>
<text text-anchor="middle" x="488.5" y="-917.8" font-family="Times,serif" font-size="14.00" fill="#000000"> </text>
<polyline fill="none" stroke="#000000" points="499,-806.5 499,-1036.5 "/>
<text text-anchor="middle" x="556.5" y="-1021.3" font-family="Times,serif" font-size="14.00" fill="#000000">desc</text>
<polyline fill="none" stroke="#000000" points="499,-1013.5 614,-1013.5 "/>
<text text-anchor="middle" x="556.5" y="-998.3" font-family="Times,serif" font-size="14.00" fill="#000000">handle</text>
<polyline fill="none" stroke="#000000" points="499,-990.5 614,-990.5 "/>
<text text-anchor="middle" x="556.5" y="-975.3" font-family="Times,serif" font-size="14.00" fill="#000000">id</text>
<polyline fill="none" stroke="#000000" points="499,-967.5 614,-967.5 "/>
<text text-anchor="middle" x="556.5" y="-952.3" font-family="Times,serif" font-size="14.00" fill="#000000">is_required</text>
<polyline fill="none" stroke="#000000" points="499,-944.5 614,-944.5 "/>
<text text-anchor="middle" x="556.5" y="-929.3" font-family="Times,serif" font-size="14.00" fill="#000000">model</text>
<polyline fill="none" stroke="#000000" points="499,-921.5 614,-921.5 "/>
<text text-anchor="middle" x="556.5" y="-906.3" font-family="Times,serif" font-size="14.00" fill="#000000">nanoid6</text>
<polyline fill="none" stroke="#000000" points="499,-898.5 614,-898.5 "/>
<text text-anchor="middle" x="556.5" y="-883.3" font-family="Times,serif" font-size="14.00" fill="#000000">nanoid8</text>
<polyline fill="none" stroke="#000000" points="499,-875.5 614,-875.5 "/>
<text text-anchor="middle" x="556.5" y="-860.3" font-family="Times,serif" font-size="14.00" fill="#000000">pattern</text>
<polyline fill="none" stroke="#000000" points="499,-852.5 614,-852.5 "/>
<text text-anchor="middle" x="556.5" y="-837.3" font-family="Times,serif" font-size="14.00" fill="#000000">units</text>
<polyline fill="none" stroke="#000000" points="499,-829.5 614,-829.5 "/>
<text text-anchor="middle" x="556.5" y="-814.3" font-family="Times,serif" font-size="14.00" fill="#000000">value_domain</text>
<polyline fill="none" stroke="#000000" points="614,-806.5 614,-1036.5 "/>
<text text-anchor="middle" x="624.5" y="-917.8" font-family="Times,serif" font-size="14.00" fill="#000000"> </text>
</g>
<!-- relationship&#45;&gt;property -->
<g id="edge6" class="edge">
<title>relationship&#45;&gt;property</title>
<path fill="none" stroke="#000000" d="M557.6196,-1301.4075C546.8946,-1285.2094 537.4208,-1267.8053 531,-1250 507.8418,-1185.7811 503.2653,-1109.8724 504.9634,-1047.2106"/>
<polygon fill="#000000" stroke="#000000" points="508.4727,-1046.9825 505.3032,-1036.8729 501.4765,-1046.7525 508.4727,-1046.9825"/>
<text text-anchor="middle" x="578.5" y="-1165.3" font-family="Times,serif" font-size="14.00" fill="#000000">has_property</text>
</g>
<!-- node -->
<g id="node6" class="node">
<title>node</title>
<path fill="none" stroke="#000000" d="M680.5,-1088.5C680.5,-1088.5 829.5,-1088.5 829.5,-1088.5 835.5,-1088.5 841.5,-1094.5 841.5,-1100.5 841.5,-1100.5 841.5,-1237.5 841.5,-1237.5 841.5,-1243.5 835.5,-1249.5 829.5,-1249.5 829.5,-1249.5 680.5,-1249.5 680.5,-1249.5 674.5,-1249.5 668.5,-1243.5 668.5,-1237.5 668.5,-1237.5 668.5,-1100.5 668.5,-1100.5 668.5,-1094.5 674.5,-1088.5 680.5,-1088.5"/>
<text text-anchor="middle" x="694" y="-1165.3" font-family="Times,serif" font-size="14.00" fill="#000000">node</text>
<polyline fill="none" stroke="#000000" points="719.5,-1088.5 719.5,-1249.5 "/>
<text text-anchor="middle" x="730" y="-1165.3" font-family="Times,serif" font-size="14.00" fill="#000000"> </text>
<polyline fill="none" stroke="#000000" points="740.5,-1088.5 740.5,-1249.5 "/>
<text text-anchor="middle" x="780.5" y="-1234.3" font-family="Times,serif" font-size="14.00" fill="#000000">category</text>
<polyline fill="none" stroke="#000000" points="740.5,-1226.5 820.5,-1226.5 "/>
<text text-anchor="middle" x="780.5" y="-1211.3" font-family="Times,serif" font-size="14.00" fill="#000000">desc</text>
<polyline fill="none" stroke="#000000" points="740.5,-1203.5 820.5,-1203.5 "/>
<text text-anchor="middle" x="780.5" y="-1188.3" font-family="Times,serif" font-size="14.00" fill="#000000">handle</text>
<polyline fill="none" stroke="#000000" points="740.5,-1180.5 820.5,-1180.5 "/>
<text text-anchor="middle" x="780.5" y="-1165.3" font-family="Times,serif" font-size="14.00" fill="#000000">id</text>
<polyline fill="none" stroke="#000000" points="740.5,-1157.5 820.5,-1157.5 "/>
<text text-anchor="middle" x="780.5" y="-1142.3" font-family="Times,serif" font-size="14.00" fill="#000000">model</text>
<polyline fill="none" stroke="#000000" points="740.5,-1134.5 820.5,-1134.5 "/>
<text text-anchor="middle" x="780.5" y="-1119.3" font-family="Times,serif" font-size="14.00" fill="#000000">nanoid6</text>
<polyline fill="none" stroke="#000000" points="740.5,-1111.5 820.5,-1111.5 "/>
<text text-anchor="middle" x="780.5" y="-1096.3" font-family="Times,serif" font-size="14.00" fill="#000000">nanoid8</text>
<polyline fill="none" stroke="#000000" points="820.5,-1088.5 820.5,-1249.5 "/>
<text text-anchor="middle" x="831" y="-1165.3" font-family="Times,serif" font-size="14.00" fill="#000000"> </text>
</g>
<!-- relationship&#45;&gt;node -->
<g id="edge18" class="edge">
<title>relationship&#45;&gt;node</title>
<path fill="none" stroke="#000000" d="M662.7092,-1301.4211C666.8303,-1289.9021 671.5769,-1278.4935 677,-1268 678.6317,-1264.8427 680.3703,-1261.6876 682.1958,-1258.547"/>
<polygon fill="#000000" stroke="#000000" points="685.3436,-1260.1069 687.5532,-1249.7451 679.3641,-1256.4674 685.3436,-1260.1069"/>
<text text-anchor="middle" x="704.5" y="-1271.8" font-family="Times,serif" font-size="14.00" fill="#000000">has_src</text>
</g>
<!-- relationship&#45;&gt;node -->
<g id="edge20" class="edge">
<title>relationship&#45;&gt;node</title>
<path fill="none" stroke="#000000" d="M721.9555,-1301.3489C725.6446,-1295.3274 729.0346,-1289.1912 732,-1283 735.5732,-1275.5398 738.5919,-1267.5478 741.1418,-1259.3851"/>
<polygon fill="#000000" stroke="#000000" points="744.5135,-1260.3247 743.9252,-1249.7462 737.7882,-1258.3826 744.5135,-1260.3247"/>
<text text-anchor="middle" x="765.5" y="-1271.8" font-family="Times,serif" font-size="14.00" fill="#000000">has_dst</text>
</g>
<!-- concept -->
<g id="node8" class="node">
<title>concept</title>
<path fill="none" stroke="#000000" d="M586,-225C586,-225 752,-225 752,-225 758,-225 764,-231 764,-237 764,-237 764,-305 764,-305 764,-311 758,-317 752,-317 752,-317 586,-317 586,-317 580,-317 574,-311 574,-305 574,-305 574,-237 574,-237 574,-231 580,-225 586,-225"/>
<text text-anchor="middle" x="611" y="-267.3" font-family="Times,serif" font-size="14.00" fill="#000000">concept</text>
<polyline fill="none" stroke="#000000" points="648,-225 648,-317 "/>
<text text-anchor="middle" x="658.5" y="-267.3" font-family="Times,serif" font-size="14.00" fill="#000000"> </text>
<polyline fill="none" stroke="#000000" points="669,-225 669,-317 "/>
<text text-anchor="middle" x="706" y="-301.8" font-family="Times,serif" font-size="14.00" fill="#000000">desc</text>
<polyline fill="none" stroke="#000000" points="669,-294 743,-294 "/>
<text text-anchor="middle" x="706" y="-278.8" font-family="Times,serif" font-size="14.00" fill="#000000">id</text>
<polyline fill="none" stroke="#000000" points="669,-271 743,-271 "/>
<text text-anchor="middle" x="706" y="-255.8" font-family="Times,serif" font-size="14.00" fill="#000000">nanoid6</text>
<polyline fill="none" stroke="#000000" points="669,-248 743,-248 "/>
<text text-anchor="middle" x="706" y="-232.8" font-family="Times,serif" font-size="14.00" fill="#000000">nanoid8</text>
<polyline fill="none" stroke="#000000" points="743,-225 743,-317 "/>
<text text-anchor="middle" x="753.5" y="-267.3" font-family="Times,serif" font-size="14.00" fill="#000000"> </text>
</g>
<!-- relationship&#45;&gt;concept -->
<g id="edge1" class="edge">
<title>relationship&#45;&gt;concept</title>
<path fill="none" stroke="#000000" d="M642.6348,-1301.4898C644.8699,-1233.3785 648.5851,-1138.3453 654,-1055 662.1576,-929.4398 661.4223,-897.591 679,-773 690.9843,-688.0554 716.5651,-668.7117 713,-583 709.6638,-502.7921 709.9728,-482.3795 698,-403 694.2032,-377.8271 688.4155,-350.281 683.0065,-326.8952"/>
<polygon fill="#000000" stroke="#000000" points="686.4109,-326.0821 680.7185,-317.1464 679.5961,-327.6816 686.4109,-326.0821"/>
<text text-anchor="middle" x="724" y="-776.8" font-family="Times,serif" font-size="14.00" fill="#000000">has_concept</text>
</g>
<!-- property&#45;&gt;tag -->
<g id="edge16" class="edge">
<title>property&#45;&gt;tag</title>
<path fill="none" stroke="#000000" d="M398.9669,-908.0482C270.7551,-886.1055 84,-829.4389 84,-685.5 84,-685.5 84,-685.5 84,-271 84,-167.2655 208.8196,-113.6291 297.9678,-88.5501"/>
<polygon fill="#000000" stroke="#000000" points="299.1138,-91.8652 307.8347,-85.8489 297.2655,-85.1136 299.1138,-91.8652"/>
<text text-anchor="middle" x="112" y="-480.3" font-family="Times,serif" font-size="14.00" fill="#000000">has_tag</text>
</g>
<!-- value_set -->
<g id="node7" class="node">
<title>value_set</title>
<path fill="none" stroke="#000000" d="M406,-616.5C406,-616.5 582,-616.5 582,-616.5 588,-616.5 594,-622.5 594,-628.5 594,-628.5 594,-742.5 594,-742.5 594,-748.5 588,-754.5 582,-754.5 582,-754.5 406,-754.5 406,-754.5 400,-754.5 394,-748.5 394,-742.5 394,-742.5 394,-628.5 394,-628.5 394,-622.5 400,-616.5 406,-616.5"/>
<text text-anchor="middle" x="436" y="-681.8" font-family="Times,serif" font-size="14.00" fill="#000000">value_set</text>
<polyline fill="none" stroke="#000000" points="478,-616.5 478,-754.5 "/>
<text text-anchor="middle" x="488.5" y="-681.8" font-family="Times,serif" font-size="14.00" fill="#000000"> </text>
<polyline fill="none" stroke="#000000" points="499,-616.5 499,-754.5 "/>
<text text-anchor="middle" x="536" y="-739.3" font-family="Times,serif" font-size="14.00" fill="#000000">desc</text>
<polyline fill="none" stroke="#000000" points="499,-731.5 573,-731.5 "/>
<text text-anchor="middle" x="536" y="-716.3" font-family="Times,serif" font-size="14.00" fill="#000000">handle</text>
<polyline fill="none" stroke="#000000" points="499,-708.5 573,-708.5 "/>
<text text-anchor="middle" x="536" y="-693.3" font-family="Times,serif" font-size="14.00" fill="#000000">id</text>
<polyline fill="none" stroke="#000000" points="499,-685.5 573,-685.5 "/>
<text text-anchor="middle" x="536" y="-670.3" font-family="Times,serif" font-size="14.00" fill="#000000">nanoid6</text>
<polyline fill="none" stroke="#000000" points="499,-662.5 573,-662.5 "/>
<text text-anchor="middle" x="536" y="-647.3" font-family="Times,serif" font-size="14.00" fill="#000000">nanoid8</text>
<polyline fill="none" stroke="#000000" points="499,-639.5 573,-639.5 "/>
<text text-anchor="middle" x="536" y="-624.3" font-family="Times,serif" font-size="14.00" fill="#000000">url</text>
<polyline fill="none" stroke="#000000" points="573,-616.5 573,-754.5 "/>
<text text-anchor="middle" x="583.5" y="-681.8" font-family="Times,serif" font-size="14.00" fill="#000000"> </text>
</g>
<!-- property&#45;&gt;value_set -->
<g id="edge19" class="edge">
<title>property&#45;&gt;value_set</title>
<path fill="none" stroke="#000000" d="M505.7695,-806.2654C504.3974,-792.1862 503.0201,-778.0546 501.716,-764.6727"/>
<polygon fill="#000000" stroke="#000000" points="505.1878,-764.2122 500.7342,-754.5989 498.2208,-764.8913 505.1878,-764.2122"/>
<text text-anchor="middle" x="554" y="-776.8" font-family="Times,serif" font-size="14.00" fill="#000000">has_value_set</text>
</g>
<!-- property&#45;&gt;concept -->
<g id="edge2" class="edge">
<title>property&#45;&gt;concept</title>
<path fill="none" stroke="#000000" d="M600.6471,-806.177C603.3971,-800.1657 605.8749,-794.0913 608,-788 623.0463,-744.8719 595.1645,-619.2161 623,-583 637.9037,-563.6092 660.8143,-584.922 675,-565 716.7628,-506.3496 676.6351,-474.9814 675,-403 674.435,-378.1274 673.2719,-350.6388 672.1189,-327.2146"/>
<polygon fill="#000000" stroke="#000000" points="675.6083,-326.9154 671.6096,-317.1042 668.6172,-327.2676 675.6083,-326.9154"/>
<text text-anchor="middle" x="668" y="-586.8" font-family="Times,serif" font-size="14.00" fill="#000000">has_concept</text>
</g>
<!-- term -->
<g id="node4" class="node">
<title>term</title>
<path fill="none" stroke="#000000" d="M281.5,-403.5C281.5,-403.5 484.5,-403.5 484.5,-403.5 490.5,-403.5 496.5,-409.5 496.5,-415.5 496.5,-415.5 496.5,-552.5 496.5,-552.5 496.5,-558.5 490.5,-564.5 484.5,-564.5 484.5,-564.5 281.5,-564.5 281.5,-564.5 275.5,-564.5 269.5,-558.5 269.5,-552.5 269.5,-552.5 269.5,-415.5 269.5,-415.5 269.5,-409.5 275.5,-403.5 281.5,-403.5"/>
<text text-anchor="middle" x="295" y="-480.3" font-family="Times,serif" font-size="14.00" fill="#000000">term</text>
<polyline fill="none" stroke="#000000" points="320.5,-403.5 320.5,-564.5 "/>
<text text-anchor="middle" x="331" y="-480.3" font-family="Times,serif" font-size="14.00" fill="#000000"> </text>
<polyline fill="none" stroke="#000000" points="341.5,-403.5 341.5,-564.5 "/>
<text text-anchor="middle" x="408.5" y="-549.3" font-family="Times,serif" font-size="14.00" fill="#000000">desc</text>
<polyline fill="none" stroke="#000000" points="341.5,-541.5 475.5,-541.5 "/>
<text text-anchor="middle" x="408.5" y="-526.3" font-family="Times,serif" font-size="14.00" fill="#000000">id</text>
<polyline fill="none" stroke="#000000" points="341.5,-518.5 475.5,-518.5 "/>
<text text-anchor="middle" x="408.5" y="-503.3" font-family="Times,serif" font-size="14.00" fill="#000000">nanoid6</text>
<polyline fill="none" stroke="#000000" points="341.5,-495.5 475.5,-495.5 "/>
<text text-anchor="middle" x="408.5" y="-480.3" font-family="Times,serif" font-size="14.00" fill="#000000">nanoid8</text>
<polyline fill="none" stroke="#000000" points="341.5,-472.5 475.5,-472.5 "/>
<text text-anchor="middle" x="408.5" y="-457.3" font-family="Times,serif" font-size="14.00" fill="#000000">origin_definition</text>
<polyline fill="none" stroke="#000000" points="341.5,-449.5 475.5,-449.5 "/>
<text text-anchor="middle" x="408.5" y="-434.3" font-family="Times,serif" font-size="14.00" fill="#000000">origin_id</text>
<polyline fill="none" stroke="#000000" points="341.5,-426.5 475.5,-426.5 "/>
<text text-anchor="middle" x="408.5" y="-411.3" font-family="Times,serif" font-size="14.00" fill="#000000">value</text>
<polyline fill="none" stroke="#000000" points="475.5,-403.5 475.5,-564.5 "/>
<text text-anchor="middle" x="486" y="-480.3" font-family="Times,serif" font-size="14.00" fill="#000000"> </text>
</g>
<!-- term&#45;&gt;tag -->
<g id="edge14" class="edge">
<title>term&#45;&gt;tag</title>
<path fill="none" stroke="#000000" d="M269.3683,-412.3207C250.5815,-395.0024 233.7483,-374.8012 223,-352 192.2999,-286.8732 190.5784,-254.2872 223,-190 239.4424,-157.3972 269.3326,-131.4278 299.0688,-112.0705"/>
<polygon fill="#000000" stroke="#000000" points="301.2636,-114.8244 307.8572,-106.5313 297.5311,-108.9025 301.2636,-114.8244"/>
<text text-anchor="middle" x="251" y="-267.3" font-family="Times,serif" font-size="14.00" fill="#000000">has_tag</text>
</g>
<!-- origin -->
<g id="node5" class="node">
<title>origin</title>
<path fill="none" stroke="#000000" d="M300,-190.5C300,-190.5 472,-190.5 472,-190.5 478,-190.5 484,-196.5 484,-202.5 484,-202.5 484,-339.5 484,-339.5 484,-345.5 478,-351.5 472,-351.5 472,-351.5 300,-351.5 300,-351.5 294,-351.5 288,-345.5 288,-339.5 288,-339.5 288,-202.5 288,-202.5 288,-196.5 294,-190.5 300,-190.5"/>
<text text-anchor="middle" x="317.5" y="-267.3" font-family="Times,serif" font-size="14.00" fill="#000000">origin</text>
<polyline fill="none" stroke="#000000" points="347,-190.5 347,-351.5 "/>
<text text-anchor="middle" x="357.5" y="-267.3" font-family="Times,serif" font-size="14.00" fill="#000000"> </text>
<polyline fill="none" stroke="#000000" points="368,-190.5 368,-351.5 "/>
<text text-anchor="middle" x="415.5" y="-336.3" font-family="Times,serif" font-size="14.00" fill="#000000">desc</text>
<polyline fill="none" stroke="#000000" points="368,-328.5 463,-328.5 "/>
<text text-anchor="middle" x="415.5" y="-313.3" font-family="Times,serif" font-size="14.00" fill="#000000">id</text>
<polyline fill="none" stroke="#000000" points="368,-305.5 463,-305.5 "/>
<text text-anchor="middle" x="415.5" y="-290.3" font-family="Times,serif" font-size="14.00" fill="#000000">is_external</text>
<polyline fill="none" stroke="#000000" points="368,-282.5 463,-282.5 "/>
<text text-anchor="middle" x="415.5" y="-267.3" font-family="Times,serif" font-size="14.00" fill="#000000">name</text>
<polyline fill="none" stroke="#000000" points="368,-259.5 463,-259.5 "/>
<text text-anchor="middle" x="415.5" y="-244.3" font-family="Times,serif" font-size="14.00" fill="#000000">nanoid6</text>
<polyline fill="none" stroke="#000000" points="368,-236.5 463,-236.5 "/>
<text text-anchor="middle" x="415.5" y="-221.3" font-family="Times,serif" font-size="14.00" fill="#000000">nanoid8</text>
<polyline fill="none" stroke="#000000" points="368,-213.5 463,-213.5 "/>
<text text-anchor="middle" x="415.5" y="-198.3" font-family="Times,serif" font-size="14.00" fill="#000000">url</text>
<polyline fill="none" stroke="#000000" points="463,-190.5 463,-351.5 "/>
<text text-anchor="middle" x="473.5" y="-267.3" font-family="Times,serif" font-size="14.00" fill="#000000"> </text>
</g>
<!-- term&#45;&gt;origin -->
<g id="edge8" class="edge">
<title>term&#45;&gt;origin</title>
<path fill="none" stroke="#000000" d="M327.1935,-403.2598C324.4587,-392.3222 323.9557,-381.0548 327,-370 327.8234,-367.01 328.7634,-364.0192 329.8028,-361.0386"/>
<polygon fill="#000000" stroke="#000000" points="333.1221,-362.1579 333.4396,-351.5678 326.5873,-359.6485 333.1221,-362.1579"/>
<text text-anchor="middle" x="364.5" y="-373.8" font-family="Times,serif" font-size="14.00" fill="#000000">has_origin</text>
</g>
<!-- term&#45;&gt;concept -->
<g id="edge10" class="edge">
<title>term&#45;&gt;concept</title>
<path fill="none" stroke="#000000" d="M401.4535,-403.4342C407.2799,-390.9351 414.9379,-379.1561 425,-370 448.1229,-348.9592 463.5796,-362.5745 493,-352 517.5594,-343.1727 543.3987,-332.2557 567.4861,-321.3267"/>
<polygon fill="#000000" stroke="#000000" points="568.9907,-324.4872 576.6257,-317.1417 566.0764,-318.1227 568.9907,-324.4872"/>
<text text-anchor="middle" x="464" y="-373.8" font-family="Times,serif" font-size="14.00" fill="#000000">represents</text>
</g>
<!-- origin&#45;&gt;tag -->
<g id="edge15" class="edge">
<title>origin&#45;&gt;tag</title>
<path fill="none" stroke="#000000" d="M386,-190.4932C386,-176.7786 386,-162.5421 386,-148.8576"/>
<polygon fill="#000000" stroke="#000000" points="389.5001,-148.5183 386,-138.5184 382.5001,-148.5184 389.5001,-148.5183"/>
<text text-anchor="middle" x="414" y="-160.8" font-family="Times,serif" font-size="14.00" fill="#000000">has_tag</text>
</g>
<!-- node&#45;&gt;tag -->
<g id="edge12" class="edge">
<title>node&#45;&gt;tag</title>
<path fill="none" stroke="#000000" d="M831.848,-1088.2416C867.0213,-1042.8784 901,-983.1115 901,-921.5 901,-921.5 901,-921.5 901,-271 901,-180.4315 621.2886,-113.9156 474.1452,-85.1904"/>
<polygon fill="#000000" stroke="#000000" points="474.7001,-81.7329 464.2174,-83.2704 473.3709,-88.6056 474.7001,-81.7329"/>
<text text-anchor="middle" x="929" y="-586.8" font-family="Times,serif" font-size="14.00" fill="#000000">has_tag</text>
</g>
<!-- node&#45;&gt;property -->
<g id="edge5" class="edge">
<title>node&#45;&gt;property</title>
<path fill="none" stroke="#000000" d="M677.3992,-1088.3017C663.76,-1074.1181 649.2919,-1059.0724 634.8464,-1044.0504"/>
<polygon fill="#000000" stroke="#000000" points="637.2148,-1041.4638 627.7606,-1036.6817 632.1691,-1046.3157 637.2148,-1041.4638"/>
<text text-anchor="middle" x="704.5" y="-1058.8" font-family="Times,serif" font-size="14.00" fill="#000000">has_property</text>
</g>
<!-- node&#45;&gt;concept -->
<g id="edge4" class="edge">
<title>node&#45;&gt;concept</title>
<path fill="none" stroke="#000000" d="M768.7539,-1088.4462C775.835,-1040.1769 783,-977.4995 783,-921.5 783,-921.5 783,-921.5 783,-484 783,-424.6252 748.1405,-365.7841 716.9746,-325.0424"/>
<polygon fill="#000000" stroke="#000000" points="719.7163,-322.8667 710.8021,-317.1406 714.1998,-327.1759 719.7163,-322.8667"/>
<text text-anchor="middle" x="828" y="-681.8" font-family="Times,serif" font-size="14.00" fill="#000000">has_concept</text>
</g>
<!-- value_set&#45;&gt;tag -->
<g id="edge13" class="edge">
<title>value_set&#45;&gt;tag</title>
<path fill="none" stroke="#000000" d="M509.7985,-616.2048C528.8729,-517.3679 551.6321,-332.1517 493,-190 486.7277,-174.7929 477.6922,-160.2148 467.4937,-146.7788"/>
<polygon fill="#000000" stroke="#000000" points="469.952,-144.2443 461.0077,-138.5652 464.4583,-148.5824 469.952,-144.2443"/>
<text text-anchor="middle" x="558" y="-373.8" font-family="Times,serif" font-size="14.00" fill="#000000">has_tag</text>
</g>
<!-- value_set&#45;&gt;term -->
<g id="edge9" class="edge">
<title>value_set&#45;&gt;term</title>
<path fill="none" stroke="#000000" d="M454.2468,-616.3444C450.7595,-610.1535 447.3027,-603.971 444,-598 439.6516,-590.1384 435.1719,-581.9486 430.7082,-573.7252"/>
<polygon fill="#000000" stroke="#000000" points="433.7167,-571.9306 425.8779,-564.8029 427.5608,-575.2632 433.7167,-571.9306"/>
<text text-anchor="middle" x="477.5" y="-586.8" font-family="Times,serif" font-size="14.00" fill="#000000">has_term</text>
</g>
<!-- value_set&#45;&gt;origin -->
<g id="edge7" class="edge">
<title>value_set&#45;&gt;origin</title>
<path fill="none" stroke="#000000" d="M393.8719,-659.6577C313.3105,-636.6021 209.6096,-601.0116 185,-565 144.3764,-505.5549 147.6445,-464.5513 185,-403 208.8328,-363.7304 237.7382,-376.6038 279.1495,-354.0028"/>
<polygon fill="#000000" stroke="#000000" points="281.0882,-356.9219 287.8889,-348.7978 277.5063,-350.9078 281.0882,-356.9219"/>
<text text-anchor="middle" x="222.5" y="-480.3" font-family="Times,serif" font-size="14.00" fill="#000000">has_origin</text>
</g>
<!-- value_set&#45;&gt;concept -->
<g id="edge3" class="edge">
<title>value_set&#45;&gt;concept</title>
<path fill="none" stroke="#000000" d="M531.4333,-616.4606C534.183,-610.3004 536.7538,-604.0902 539,-598 569.8124,-514.4555 550.3901,-485.0441 585,-403 596.3278,-376.1471 612.9154,-348.6165 628.3641,-325.693"/>
<polygon fill="#000000" stroke="#000000" points="631.4556,-327.373 634.2159,-317.144 625.6792,-323.419 631.4556,-327.373"/>
<text text-anchor="middle" x="630" y="-480.3" font-family="Times,serif" font-size="14.00" fill="#000000">has_concept</text>
</g>
<!-- concept&#45;&gt;tag -->
<g id="edge11" class="edge">
<title>concept&#45;&gt;tag</title>
<path fill="none" stroke="#000000" d="M621.2322,-224.9903C597.4546,-203.182 567.7126,-177.4855 539,-157 518.329,-142.2519 494.9824,-127.8709 472.8668,-115.1687"/>
<polygon fill="#000000" stroke="#000000" points="474.5568,-112.1034 464.134,-110.2021 471.0962,-118.1882 474.5568,-112.1034"/>
<text text-anchor="middle" x="585" y="-160.8" font-family="Times,serif" font-size="14.00" fill="#000000">has_tag</text>
</g>
</g>
</svg>
