<?xml version="1.0" encoding="UTF-8" standalone="no"?>
<!DOCTYPE svg PUBLIC "-//W3C//DTD SVG 1.1//EN"
 "http://www.w3.org/Graphics/SVG/1.1/DTD/svg11.dtd">
<!-- Generated by graphviz version 2.40.1 (20161225.0304)
 -->
<!-- Title: Perl Pages: 1 -->
<svg width="943pt" height="1494pt"
 viewBox="0.00 0.00 943.00 1494.00" xmlns="http://www.w3.org/2000/svg" xmlns:xlink="http://www.w3.org/1999/xlink">
<g id="graph0" class="graph" transform="scale(1 1) rotate(0) translate(4 1490)">
<title>Perl</title>
<polygon fill="#ffffff" stroke="transparent" points="-4,4 -4,-1490 939,-1490 939,4 -4,4"/>
<!-- term -->
<g id="node1" class="node">
<title>term</title>
<path fill="none" stroke="#000000" d="M124.5,-403.5C124.5,-403.5 327.5,-403.5 327.5,-403.5 333.5,-403.5 339.5,-409.5 339.5,-415.5 339.5,-415.5 339.5,-552.5 339.5,-552.5 339.5,-558.5 333.5,-564.5 327.5,-564.5 327.5,-564.5 124.5,-564.5 124.5,-564.5 118.5,-564.5 112.5,-558.5 112.5,-552.5 112.5,-552.5 112.5,-415.5 112.5,-415.5 112.5,-409.5 118.5,-403.5 124.5,-403.5"/>
<text text-anchor="middle" x="138" y="-480.3" font-family="Times,serif" font-size="14.00" fill="#000000">term</text>
<polyline fill="none" stroke="#000000" points="163.5,-403.5 163.5,-564.5 "/>
<text text-anchor="middle" x="174" y="-480.3" font-family="Times,serif" font-size="14.00" fill="#000000"> </text>
<polyline fill="none" stroke="#000000" points="184.5,-403.5 184.5,-564.5 "/>
<text text-anchor="middle" x="251.5" y="-549.3" font-family="Times,serif" font-size="14.00" fill="#000000">desc</text>
<polyline fill="none" stroke="#000000" points="184.5,-541.5 318.5,-541.5 "/>
<text text-anchor="middle" x="251.5" y="-526.3" font-family="Times,serif" font-size="14.00" fill="#000000">id</text>
<polyline fill="none" stroke="#000000" points="184.5,-518.5 318.5,-518.5 "/>
<text text-anchor="middle" x="251.5" y="-503.3" font-family="Times,serif" font-size="14.00" fill="#000000">nanoid6</text>
<polyline fill="none" stroke="#000000" points="184.5,-495.5 318.5,-495.5 "/>
<text text-anchor="middle" x="251.5" y="-480.3" font-family="Times,serif" font-size="14.00" fill="#000000">nanoid8</text>
<polyline fill="none" stroke="#000000" points="184.5,-472.5 318.5,-472.5 "/>
<text text-anchor="middle" x="251.5" y="-457.3" font-family="Times,serif" font-size="14.00" fill="#000000">origin_definition</text>
<polyline fill="none" stroke="#000000" points="184.5,-449.5 318.5,-449.5 "/>
<text text-anchor="middle" x="251.5" y="-434.3" font-family="Times,serif" font-size="14.00" fill="#000000">origin_id</text>
<polyline fill="none" stroke="#000000" points="184.5,-426.5 318.5,-426.5 "/>
<text text-anchor="middle" x="251.5" y="-411.3" font-family="Times,serif" font-size="14.00" fill="#000000">value</text>
<polyline fill="none" stroke="#000000" points="318.5,-403.5 318.5,-564.5 "/>
<text text-anchor="middle" x="329" y="-480.3" font-family="Times,serif" font-size="14.00" fill="#000000"> </text>
</g>
<!-- tag -->
<g id="node3" class="node">
<title>tag</title>
<path fill="none" stroke="#000000" d="M276,-.5C276,-.5 408,-.5 408,-.5 414,-.5 420,-6.5 420,-12.5 420,-12.5 420,-126.5 420,-126.5 420,-132.5 414,-138.5 408,-138.5 408,-138.5 276,-138.5 276,-138.5 270,-138.5 264,-132.5 264,-126.5 264,-126.5 264,-12.5 264,-12.5 264,-6.5 270,-.5 276,-.5"/>
<text text-anchor="middle" x="284" y="-65.8" font-family="Times,serif" font-size="14.00" fill="#000000">tag</text>
<polyline fill="none" stroke="#000000" points="304,-.5 304,-138.5 "/>
<text text-anchor="middle" x="314.5" y="-65.8" font-family="Times,serif" font-size="14.00" fill="#000000"> </text>
<polyline fill="none" stroke="#000000" points="325,-.5 325,-138.5 "/>
<text text-anchor="middle" x="362" y="-123.3" font-family="Times,serif" font-size="14.00" fill="#000000">desc</text>
<polyline fill="none" stroke="#000000" points="325,-115.5 399,-115.5 "/>
<text text-anchor="middle" x="362" y="-100.3" font-family="Times,serif" font-size="14.00" fill="#000000">id</text>
<polyline fill="none" stroke="#000000" points="325,-92.5 399,-92.5 "/>
<text text-anchor="middle" x="362" y="-77.3" font-family="Times,serif" font-size="14.00" fill="#000000">key</text>
<polyline fill="none" stroke="#000000" points="325,-69.5 399,-69.5 "/>
<text text-anchor="middle" x="362" y="-54.3" font-family="Times,serif" font-size="14.00" fill="#000000">nanoid6</text>
<polyline fill="none" stroke="#000000" points="325,-46.5 399,-46.5 "/>
<text text-anchor="middle" x="362" y="-31.3" font-family="Times,serif" font-size="14.00" fill="#000000">nanoid8</text>
<polyline fill="none" stroke="#000000" points="325,-23.5 399,-23.5 "/>
<text text-anchor="middle" x="362" y="-8.3" font-family="Times,serif" font-size="14.00" fill="#000000">value</text>
<polyline fill="none" stroke="#000000" points="399,-.5 399,-138.5 "/>
<text text-anchor="middle" x="409.5" y="-65.8" font-family="Times,serif" font-size="14.00" fill="#000000"> </text>
</g>
<!-- term&#45;&gt;tag -->
<g id="edge7" class="edge">
<title>term&#45;&gt;tag</title>
<path fill="none" stroke="#000000" d="M185.3783,-403.3648C183.2763,-397.2476 181.4418,-391.0858 180,-385 167.7614,-333.3429 136.1906,-274.8847 179,-190 195.4424,-157.3972 225.3326,-131.4278 255.0688,-112.0705"/>
<polygon fill="#000000" stroke="#000000" points="257.2636,-114.8244 263.8572,-106.5313 253.5311,-108.9025 257.2636,-114.8244"/>
<text text-anchor="middle" x="207" y="-267.3" font-family="Times,serif" font-size="14.00" fill="#000000">has_tag</text>
</g>
<!-- origin -->
<g id="node5" class="node">
<title>origin</title>
<path fill="none" stroke="#000000" d="M256,-190.5C256,-190.5 428,-190.5 428,-190.5 434,-190.5 440,-196.5 440,-202.5 440,-202.5 440,-339.5 440,-339.5 440,-345.5 434,-351.5 428,-351.5 428,-351.5 256,-351.5 256,-351.5 250,-351.5 244,-345.5 244,-339.5 244,-339.5 244,-202.5 244,-202.5 244,-196.5 250,-190.5 256,-190.5"/>
<text text-anchor="middle" x="273.5" y="-267.3" font-family="Times,serif" font-size="14.00" fill="#000000">origin</text>
<polyline fill="none" stroke="#000000" points="303,-190.5 303,-351.5 "/>
<text text-anchor="middle" x="313.5" y="-267.3" font-family="Times,serif" font-size="14.00" fill="#000000"> </text>
<polyline fill="none" stroke="#000000" points="324,-190.5 324,-351.5 "/>
<text text-anchor="middle" x="371.5" y="-336.3" font-family="Times,serif" font-size="14.00" fill="#000000">desc</text>
<polyline fill="none" stroke="#000000" points="324,-328.5 419,-328.5 "/>
<text text-anchor="middle" x="371.5" y="-313.3" font-family="Times,serif" font-size="14.00" fill="#000000">id</text>
<polyline fill="none" stroke="#000000" points="324,-305.5 419,-305.5 "/>
<text text-anchor="middle" x="371.5" y="-290.3" font-family="Times,serif" font-size="14.00" fill="#000000">is_external</text>
<polyline fill="none" stroke="#000000" points="324,-282.5 419,-282.5 "/>
<text text-anchor="middle" x="371.5" y="-267.3" font-family="Times,serif" font-size="14.00" fill="#000000">name</text>
<polyline fill="none" stroke="#000000" points="324,-259.5 419,-259.5 "/>
<text text-anchor="middle" x="371.5" y="-244.3" font-family="Times,serif" font-size="14.00" fill="#000000">nanoid6</text>
<polyline fill="none" stroke="#000000" points="324,-236.5 419,-236.5 "/>
<text text-anchor="middle" x="371.5" y="-221.3" font-family="Times,serif" font-size="14.00" fill="#000000">nanoid8</text>
<polyline fill="none" stroke="#000000" points="324,-213.5 419,-213.5 "/>
<text text-anchor="middle" x="371.5" y="-198.3" font-family="Times,serif" font-size="14.00" fill="#000000">url</text>
<polyline fill="none" stroke="#000000" points="419,-190.5 419,-351.5 "/>
<text text-anchor="middle" x="429.5" y="-267.3" font-family="Times,serif" font-size="14.00" fill="#000000"> </text>
</g>
<!-- term&#45;&gt;origin -->
<g id="edge1" class="edge">
<title>term&#45;&gt;origin</title>
<path fill="none" stroke="#000000" d="M183.4112,-403.3249C182.0224,-391.8493 183.332,-380.4186 189,-370 189.4391,-369.1928 209.7259,-355.9228 235.3909,-339.3457"/>
<polygon fill="#000000" stroke="#000000" points="237.3893,-342.2217 243.8944,-333.859 233.5941,-336.3398 237.3893,-342.2217"/>
<text text-anchor="middle" x="226.5" y="-373.8" font-family="Times,serif" font-size="14.00" fill="#000000">has_origin</text>
</g>
<!-- concept -->
<g id="node6" class="node">
<title>concept</title>
<path fill="none" stroke="#000000" d="M489,-225C489,-225 655,-225 655,-225 661,-225 667,-231 667,-237 667,-237 667,-305 667,-305 667,-311 661,-317 655,-317 655,-317 489,-317 489,-317 483,-317 477,-311 477,-305 477,-305 477,-237 477,-237 477,-231 483,-225 489,-225"/>
<text text-anchor="middle" x="514" y="-267.3" font-family="Times,serif" font-size="14.00" fill="#000000">concept</text>
<polyline fill="none" stroke="#000000" points="551,-225 551,-317 "/>
<text text-anchor="middle" x="561.5" y="-267.3" font-family="Times,serif" font-size="14.00" fill="#000000"> </text>
<polyline fill="none" stroke="#000000" points="572,-225 572,-317 "/>
<text text-anchor="middle" x="609" y="-301.8" font-family="Times,serif" font-size="14.00" fill="#000000">desc</text>
<polyline fill="none" stroke="#000000" points="572,-294 646,-294 "/>
<text text-anchor="middle" x="609" y="-278.8" font-family="Times,serif" font-size="14.00" fill="#000000">id</text>
<polyline fill="none" stroke="#000000" points="572,-271 646,-271 "/>
<text text-anchor="middle" x="609" y="-255.8" font-family="Times,serif" font-size="14.00" fill="#000000">nanoid6</text>
<polyline fill="none" stroke="#000000" points="572,-248 646,-248 "/>
<text text-anchor="middle" x="609" y="-232.8" font-family="Times,serif" font-size="14.00" fill="#000000">nanoid8</text>
<polyline fill="none" stroke="#000000" points="646,-225 646,-317 "/>
<text text-anchor="middle" x="656.5" y="-267.3" font-family="Times,serif" font-size="14.00" fill="#000000"> </text>
</g>
<!-- term&#45;&gt;concept -->
<g id="edge17" class="edge">
<title>term&#45;&gt;concept</title>
<path fill="none" stroke="#000000" d="M336.6114,-403.2289C355.5755,-391.1911 375.4735,-379.616 395,-370 417.6955,-358.8234 426.2429,-363.0506 449,-352 466.2359,-343.6305 483.9206,-333.2202 500.3145,-322.681"/>
<polygon fill="#000000" stroke="#000000" points="502.2996,-325.565 508.7606,-317.1681 498.4735,-319.7031 502.2996,-325.565"/>
<text text-anchor="middle" x="434" y="-373.8" font-family="Times,serif" font-size="14.00" fill="#000000">represents</text>
</g>
<!-- value_set -->
<g id="node2" class="node">
<title>value_set</title>
<path fill="none" stroke="#000000" d="M288,-616.5C288,-616.5 464,-616.5 464,-616.5 470,-616.5 476,-622.5 476,-628.5 476,-628.5 476,-742.5 476,-742.5 476,-748.5 470,-754.5 464,-754.5 464,-754.5 288,-754.5 288,-754.5 282,-754.5 276,-748.5 276,-742.5 276,-742.5 276,-628.5 276,-628.5 276,-622.5 282,-616.5 288,-616.5"/>
<text text-anchor="middle" x="318" y="-681.8" font-family="Times,serif" font-size="14.00" fill="#000000">value_set</text>
<polyline fill="none" stroke="#000000" points="360,-616.5 360,-754.5 "/>
<text text-anchor="middle" x="370.5" y="-681.8" font-family="Times,serif" font-size="14.00" fill="#000000"> </text>
<polyline fill="none" stroke="#000000" points="381,-616.5 381,-754.5 "/>
<text text-anchor="middle" x="418" y="-739.3" font-family="Times,serif" font-size="14.00" fill="#000000">desc</text>
<polyline fill="none" stroke="#000000" points="381,-731.5 455,-731.5 "/>
<text text-anchor="middle" x="418" y="-716.3" font-family="Times,serif" font-size="14.00" fill="#000000">handle</text>
<polyline fill="none" stroke="#000000" points="381,-708.5 455,-708.5 "/>
<text text-anchor="middle" x="418" y="-693.3" font-family="Times,serif" font-size="14.00" fill="#000000">id</text>
<polyline fill="none" stroke="#000000" points="381,-685.5 455,-685.5 "/>
<text text-anchor="middle" x="418" y="-670.3" font-family="Times,serif" font-size="14.00" fill="#000000">nanoid6</text>
<polyline fill="none" stroke="#000000" points="381,-662.5 455,-662.5 "/>
<text text-anchor="middle" x="418" y="-647.3" font-family="Times,serif" font-size="14.00" fill="#000000">nanoid8</text>
<polyline fill="none" stroke="#000000" points="381,-639.5 455,-639.5 "/>
<text text-anchor="middle" x="418" y="-624.3" font-family="Times,serif" font-size="14.00" fill="#000000">url</text>
<polyline fill="none" stroke="#000000" points="455,-616.5 455,-754.5 "/>
<text text-anchor="middle" x="465.5" y="-681.8" font-family="Times,serif" font-size="14.00" fill="#000000"> </text>
</g>
<!-- value_set&#45;&gt;term -->
<g id="edge15" class="edge">
<title>value_set&#45;&gt;term</title>
<path fill="none" stroke="#000000" d="M309.7041,-616.3869C304.5763,-610.2952 299.6082,-604.1179 295,-598 289.1019,-590.1695 283.2658,-581.8078 277.6328,-573.3053"/>
<polygon fill="#000000" stroke="#000000" points="280.4639,-571.2388 272.0728,-564.7704 274.5986,-575.0597 280.4639,-571.2388"/>
<text text-anchor="middle" x="328.5" y="-586.8" font-family="Times,serif" font-size="14.00" fill="#000000">has_term</text>
</g>
<!-- value_set&#45;&gt;tag -->
<g id="edge9" class="edge">
<title>value_set&#45;&gt;tag</title>
<path fill="none" stroke="#000000" d="M275.9384,-669.3723C214.7435,-653.7888 141.1154,-623.4871 103,-565 57.0826,-494.5409 113.4947,-263.7035 154,-190 175.7803,-150.3685 216.7452,-121.8351 254.8894,-102.5144"/>
<polygon fill="#000000" stroke="#000000" points="256.5625,-105.5921 263.9976,-98.0443 253.4784,-99.3081 256.5625,-105.5921"/>
<text text-anchor="middle" x="126" y="-373.8" font-family="Times,serif" font-size="14.00" fill="#000000">has_tag</text>
</g>
<!-- value_set&#45;&gt;origin -->
<g id="edge2" class="edge">
<title>value_set&#45;&gt;origin</title>
<path fill="none" stroke="#000000" d="M377.4184,-616.2495C377.826,-552.1129 376.1442,-454.2176 365,-370 364.6257,-367.1711 364.2068,-364.3045 363.7506,-361.4163"/>
<polygon fill="#000000" stroke="#000000" points="367.1971,-360.8059 362.0659,-351.5366 360.2968,-361.9827 367.1971,-360.8059"/>
<text text-anchor="middle" x="415.5" y="-480.3" font-family="Times,serif" font-size="14.00" fill="#000000">has_origin</text>
</g>
<!-- value_set&#45;&gt;concept -->
<g id="edge12" class="edge">
<title>value_set&#45;&gt;concept</title>
<path fill="none" stroke="#000000" d="M428.0156,-616.3995C438.6669,-600.1247 449.0397,-582.4254 457,-565 488.0013,-497.1374 473.3714,-472.3042 501,-403 511.4209,-376.8599 525.7078,-349.2489 538.7346,-326.0747"/>
<polygon fill="#000000" stroke="#000000" points="541.9408,-327.5169 543.8437,-317.0943 535.8566,-324.0554 541.9408,-327.5169"/>
<text text-anchor="middle" x="546" y="-480.3" font-family="Times,serif" font-size="14.00" fill="#000000">has_concept</text>
</g>
<!-- property -->
<g id="node4" class="node">
<title>property</title>
<path fill="none" stroke="#000000" d="M343,-806.5C343,-806.5 555,-806.5 555,-806.5 561,-806.5 567,-812.5 567,-818.5 567,-818.5 567,-1024.5 567,-1024.5 567,-1030.5 561,-1036.5 555,-1036.5 555,-1036.5 343,-1036.5 343,-1036.5 337,-1036.5 331,-1030.5 331,-1024.5 331,-1024.5 331,-818.5 331,-818.5 331,-812.5 337,-806.5 343,-806.5"/>
<text text-anchor="middle" x="370.5" y="-917.8" font-family="Times,serif" font-size="14.00" fill="#000000">property</text>
<polyline fill="none" stroke="#000000" points="410,-806.5 410,-1036.5 "/>
<text text-anchor="middle" x="420.5" y="-917.8" font-family="Times,serif" font-size="14.00" fill="#000000"> </text>
<polyline fill="none" stroke="#000000" points="431,-806.5 431,-1036.5 "/>
<text text-anchor="middle" x="488.5" y="-1021.3" font-family="Times,serif" font-size="14.00" fill="#000000">desc</text>
<polyline fill="none" stroke="#000000" points="431,-1013.5 546,-1013.5 "/>
<text text-anchor="middle" x="488.5" y="-998.3" font-family="Times,serif" font-size="14.00" fill="#000000">handle</text>
<polyline fill="none" stroke="#000000" points="431,-990.5 546,-990.5 "/>
<text text-anchor="middle" x="488.5" y="-975.3" font-family="Times,serif" font-size="14.00" fill="#000000">id</text>
<polyline fill="none" stroke="#000000" points="431,-967.5 546,-967.5 "/>
<text text-anchor="middle" x="488.5" y="-952.3" font-family="Times,serif" font-size="14.00" fill="#000000">is_required</text>
<polyline fill="none" stroke="#000000" points="431,-944.5 546,-944.5 "/>
<text text-anchor="middle" x="488.5" y="-929.3" font-family="Times,serif" font-size="14.00" fill="#000000">model</text>
<polyline fill="none" stroke="#000000" points="431,-921.5 546,-921.5 "/>
<text text-anchor="middle" x="488.5" y="-906.3" font-family="Times,serif" font-size="14.00" fill="#000000">nanoid6</text>
<polyline fill="none" stroke="#000000" points="431,-898.5 546,-898.5 "/>
<text text-anchor="middle" x="488.5" y="-883.3" font-family="Times,serif" font-size="14.00" fill="#000000">nanoid8</text>
<polyline fill="none" stroke="#000000" points="431,-875.5 546,-875.5 "/>
<text text-anchor="middle" x="488.5" y="-860.3" font-family="Times,serif" font-size="14.00" fill="#000000">pattern</text>
<polyline fill="none" stroke="#000000" points="431,-852.5 546,-852.5 "/>
<text text-anchor="middle" x="488.5" y="-837.3" font-family="Times,serif" font-size="14.00" fill="#000000">units</text>
<polyline fill="none" stroke="#000000" points="431,-829.5 546,-829.5 "/>
<text text-anchor="middle" x="488.5" y="-814.3" font-family="Times,serif" font-size="14.00" fill="#000000">value_domain</text>
<polyline fill="none" stroke="#000000" points="546,-806.5 546,-1036.5 "/>
<text text-anchor="middle" x="556.5" y="-917.8" font-family="Times,serif" font-size="14.00" fill="#000000"> </text>
</g>
<!-- property&#45;&gt;value_set -->
<g id="edge16" class="edge">
<title>property&#45;&gt;value_set</title>
<path fill="none" stroke="#000000" d="M413.3554,-806.2654C408.9577,-792.0482 404.5435,-777.7775 400.3682,-764.2793"/>
<polygon fill="#000000" stroke="#000000" points="403.6727,-763.118 397.3738,-754.5989 396.9853,-765.1866 403.6727,-763.118"/>
<text text-anchor="middle" x="456" y="-776.8" font-family="Times,serif" font-size="14.00" fill="#000000">has_value_set</text>
</g>
<!-- property&#45;&gt;tag -->
<g id="edge3" class="edge">
<title>property&#45;&gt;tag</title>
<path fill="none" stroke="#000000" d="M330.737,-910.1349C197.7085,-890.075 0,-835.0975 0,-685.5 0,-685.5 0,-685.5 0,-271 0,-153.1194 152.6906,-102.8072 254.0224,-82.3971"/>
<polygon fill="#000000" stroke="#000000" points="254.8226,-85.807 263.967,-80.4562 253.4817,-78.9367 254.8226,-85.807"/>
<text text-anchor="middle" x="28" y="-480.3" font-family="Times,serif" font-size="14.00" fill="#000000">has_tag</text>
</g>
<!-- property&#45;&gt;concept -->
<g id="edge13" class="edge">
<title>property&#45;&gt;concept</title>
<path fill="none" stroke="#000000" d="M504.131,-806.1341C506.2714,-800.0599 508.2473,-793.992 510,-788 535.8333,-699.6824 480.495,-654.0248 539,-583 554.5494,-564.1231 576.8143,-584.922 591,-565 640.807,-495.0525 617.1172,-390.4093 594.9074,-326.6581"/>
<polygon fill="#000000" stroke="#000000" points="598.177,-325.4068 591.5088,-317.1736 591.5873,-327.7681 598.177,-325.4068"/>
<text text-anchor="middle" x="584" y="-586.8" font-family="Times,serif" font-size="14.00" fill="#000000">has_concept</text>
</g>
<!-- origin&#45;&gt;tag -->
<g id="edge5" class="edge">
<title>origin&#45;&gt;tag</title>
<path fill="none" stroke="#000000" d="M342,-190.4932C342,-176.7786 342,-162.5421 342,-148.8576"/>
<polygon fill="#000000" stroke="#000000" points="345.5001,-148.5183 342,-138.5184 338.5001,-148.5184 345.5001,-148.5183"/>
<text text-anchor="middle" x="370" y="-160.8" font-family="Times,serif" font-size="14.00" fill="#000000">has_tag</text>
</g>
<!-- concept&#45;&gt;tag -->
<g id="edge6" class="edge">
<title>concept&#45;&gt;tag</title>
<path fill="none" stroke="#000000" d="M519.2334,-224.7718C492.2131,-201.0998 458.6336,-171.6812 427.9933,-144.8376"/>
<polygon fill="#000000" stroke="#000000" points="430.1006,-142.0306 420.2725,-138.0735 425.4878,-147.2958 430.1006,-142.0306"/>
<text text-anchor="middle" x="485" y="-160.8" font-family="Times,serif" font-size="14.00" fill="#000000">has_tag</text>
</g>
<!-- node -->
<g id="node7" class="node">
<title>node</title>
<path fill="none" stroke="#000000" d="M574.5,-1088.5C574.5,-1088.5 723.5,-1088.5 723.5,-1088.5 729.5,-1088.5 735.5,-1094.5 735.5,-1100.5 735.5,-1100.5 735.5,-1237.5 735.5,-1237.5 735.5,-1243.5 729.5,-1249.5 723.5,-1249.5 723.5,-1249.5 574.5,-1249.5 574.5,-1249.5 568.5,-1249.5 562.5,-1243.5 562.5,-1237.5 562.5,-1237.5 562.5,-1100.5 562.5,-1100.5 562.5,-1094.5 568.5,-1088.5 574.5,-1088.5"/>
<text text-anchor="middle" x="588" y="-1165.3" font-family="Times,serif" font-size="14.00" fill="#000000">node</text>
<polyline fill="none" stroke="#000000" points="613.5,-1088.5 613.5,-1249.5 "/>
<text text-anchor="middle" x="624" y="-1165.3" font-family="Times,serif" font-size="14.00" fill="#000000"> </text>
<polyline fill="none" stroke="#000000" points="634.5,-1088.5 634.5,-1249.5 "/>
<text text-anchor="middle" x="674.5" y="-1234.3" font-family="Times,serif" font-size="14.00" fill="#000000">category</text>
<polyline fill="none" stroke="#000000" points="634.5,-1226.5 714.5,-1226.5 "/>
<text text-anchor="middle" x="674.5" y="-1211.3" font-family="Times,serif" font-size="14.00" fill="#000000">desc</text>
<polyline fill="none" stroke="#000000" points="634.5,-1203.5 714.5,-1203.5 "/>
<text text-anchor="middle" x="674.5" y="-1188.3" font-family="Times,serif" font-size="14.00" fill="#000000">handle</text>
<polyline fill="none" stroke="#000000" points="634.5,-1180.5 714.5,-1180.5 "/>
<text text-anchor="middle" x="674.5" y="-1165.3" font-family="Times,serif" font-size="14.00" fill="#000000">id</text>
<polyline fill="none" stroke="#000000" points="634.5,-1157.5 714.5,-1157.5 "/>
<text text-anchor="middle" x="674.5" y="-1142.3" font-family="Times,serif" font-size="14.00" fill="#000000">model</text>
<polyline fill="none" stroke="#000000" points="634.5,-1134.5 714.5,-1134.5 "/>
<text text-anchor="middle" x="674.5" y="-1119.3" font-family="Times,serif" font-size="14.00" fill="#000000">nanoid6</text>
<polyline fill="none" stroke="#000000" points="634.5,-1111.5 714.5,-1111.5 "/>
<text text-anchor="middle" x="674.5" y="-1096.3" font-family="Times,serif" font-size="14.00" fill="#000000">nanoid8</text>
<polyline fill="none" stroke="#000000" points="714.5,-1088.5 714.5,-1249.5 "/>
<text text-anchor="middle" x="725" y="-1165.3" font-family="Times,serif" font-size="14.00" fill="#000000"> </text>
</g>
<!-- node&#45;&gt;tag -->
<g id="edge8" class="edge">
<title>node&#45;&gt;tag</title>
<path fill="none" stroke="#000000" d="M664.4349,-1088.4712C679.5289,-1005.3267 701.452,-871.6554 710,-755 714.5147,-693.3874 719.8957,-676.9801 710,-616 708.6492,-607.6761 705.6351,-606.2727 704,-598 668.7569,-419.6897 785.4967,-335.0762 676,-190 645.709,-149.8664 518.3928,-111.9499 430.0094,-89.7224"/>
<polygon fill="#000000" stroke="#000000" points="430.7904,-86.31 420.2409,-87.2895 429.0986,-93.1025 430.7904,-86.31"/>
<text text-anchor="middle" x="732" y="-586.8" font-family="Times,serif" font-size="14.00" fill="#000000">has_tag</text>
</g>
<!-- node&#45;&gt;property -->
<g id="edge20" class="edge">
<title>node&#45;&gt;property</title>
<path fill="none" stroke="#000000" d="M562.4044,-1096.6508C557.6289,-1093.5833 552.8125,-1090.6769 548,-1088 526.994,-1076.3156 513.7687,-1087.2218 497,-1070 489.9827,-1062.7931 483.9913,-1054.5535 478.8757,-1045.7322"/>
<polygon fill="#000000" stroke="#000000" points="481.8593,-1043.8899 474.0465,-1036.7337 475.6913,-1047.2 481.8593,-1043.8899"/>
<text text-anchor="middle" x="544.5" y="-1058.8" font-family="Times,serif" font-size="14.00" fill="#000000">has_property</text>
</g>
<!-- node&#45;&gt;concept -->
<g id="edge11" class="edge">
<title>node&#45;&gt;concept</title>
<path fill="none" stroke="#000000" d="M641.6586,-1088.1721C634.4801,-1004.7894 624.0554,-870.9314 620,-755 617.8403,-693.26 605.8064,-676.1252 620,-616 622.055,-607.295 626.945,-606.705 629,-598 630.5317,-591.5117 629.0782,-589.6662 629,-583 627.8888,-488.3138 647.7536,-461.6651 624,-370 620.1249,-355.046 613.635,-339.8237 606.5302,-325.9445"/>
<polygon fill="#000000" stroke="#000000" points="609.578,-324.2214 601.7938,-317.0342 603.397,-327.507 609.578,-324.2214"/>
<text text-anchor="middle" x="665" y="-681.8" font-family="Times,serif" font-size="14.00" fill="#000000">has_concept</text>
</g>
<!-- relationship -->
<g id="node8" class="node">
<title>relationship</title>
<path fill="none" stroke="#000000" d="M594.5,-1301.5C594.5,-1301.5 813.5,-1301.5 813.5,-1301.5 819.5,-1301.5 825.5,-1307.5 825.5,-1313.5 825.5,-1313.5 825.5,-1473.5 825.5,-1473.5 825.5,-1479.5 819.5,-1485.5 813.5,-1485.5 813.5,-1485.5 594.5,-1485.5 594.5,-1485.5 588.5,-1485.5 582.5,-1479.5 582.5,-1473.5 582.5,-1473.5 582.5,-1313.5 582.5,-1313.5 582.5,-1307.5 588.5,-1301.5 594.5,-1301.5"/>
<text text-anchor="middle" x="633.5" y="-1389.8" font-family="Times,serif" font-size="14.00" fill="#000000">relationship</text>
<polyline fill="none" stroke="#000000" points="684.5,-1301.5 684.5,-1485.5 "/>
<text text-anchor="middle" x="695" y="-1389.8" font-family="Times,serif" font-size="14.00" fill="#000000"> </text>
<polyline fill="none" stroke="#000000" points="705.5,-1301.5 705.5,-1485.5 "/>
<text text-anchor="middle" x="755" y="-1470.3" font-family="Times,serif" font-size="14.00" fill="#000000">desc</text>
<polyline fill="none" stroke="#000000" points="705.5,-1462.5 804.5,-1462.5 "/>
<text text-anchor="middle" x="755" y="-1447.3" font-family="Times,serif" font-size="14.00" fill="#000000">handle</text>
<polyline fill="none" stroke="#000000" points="705.5,-1439.5 804.5,-1439.5 "/>
<text text-anchor="middle" x="755" y="-1424.3" font-family="Times,serif" font-size="14.00" fill="#000000">id</text>
<polyline fill="none" stroke="#000000" points="705.5,-1416.5 804.5,-1416.5 "/>
<text text-anchor="middle" x="755" y="-1401.3" font-family="Times,serif" font-size="14.00" fill="#000000">is_required</text>
<polyline fill="none" stroke="#000000" points="705.5,-1393.5 804.5,-1393.5 "/>
<text text-anchor="middle" x="755" y="-1378.3" font-family="Times,serif" font-size="14.00" fill="#000000">model</text>
<polyline fill="none" stroke="#000000" points="705.5,-1370.5 804.5,-1370.5 "/>
<text text-anchor="middle" x="755" y="-1355.3" font-family="Times,serif" font-size="14.00" fill="#000000">multiplicity</text>
<polyline fill="none" stroke="#000000" points="705.5,-1347.5 804.5,-1347.5 "/>
<text text-anchor="middle" x="755" y="-1332.3" font-family="Times,serif" font-size="14.00" fill="#000000">nanoid6</text>
<polyline fill="none" stroke="#000000" points="705.5,-1324.5 804.5,-1324.5 "/>
<text text-anchor="middle" x="755" y="-1309.3" font-family="Times,serif" font-size="14.00" fill="#000000">nanoid8</text>
<polyline fill="none" stroke="#000000" points="804.5,-1301.5 804.5,-1485.5 "/>
<text text-anchor="middle" x="815" y="-1389.8" font-family="Times,serif" font-size="14.00" fill="#000000"> </text>
</g>
<!-- relationship&#45;&gt;tag -->
<g id="edge4" class="edge">
<title>relationship&#45;&gt;tag</title>
<path fill="none" stroke="#000000" d="M818.5299,-1301.4256C851.6254,-1264.6105 879,-1219.036 879,-1169 879,-1169 879,-1169 879,-271 879,-176.337 582.7886,-111.1383 430.3585,-83.8541"/>
<polygon fill="#000000" stroke="#000000" points="430.5417,-80.3321 420.0844,-82.0335 429.3203,-87.2247 430.5417,-80.3321"/>
<text text-anchor="middle" x="907" y="-681.8" font-family="Times,serif" font-size="14.00" fill="#000000">has_tag</text>
</g>
<!-- relationship&#45;&gt;property -->
<g id="edge19" class="edge">
<title>relationship&#45;&gt;property</title>
<path fill="none" stroke="#000000" d="M582.2856,-1352.368C535.0509,-1329.8607 485.7318,-1296.7867 458,-1250 422.3098,-1189.7867 418.7612,-1111.8389 424.744,-1046.9844"/>
<polygon fill="#000000" stroke="#000000" points="428.2607,-1046.9937 425.7825,-1036.6928 421.2961,-1046.2908 428.2607,-1046.9937"/>
<text text-anchor="middle" x="505.5" y="-1165.3" font-family="Times,serif" font-size="14.00" fill="#000000">has_property</text>
</g>
<!-- relationship&#45;&gt;concept -->
<g id="edge14" class="edge">
<title>relationship&#45;&gt;concept</title>
<path fill="none" stroke="#000000" d="M746.4346,-1301.2772C761.1345,-1261.457 774,-1213.807 774,-1169 774,-1169 774,-1169 774,-484 774,-415.3062 718.0009,-359.9011 664.972,-322.8348"/>
<polygon fill="#000000" stroke="#000000" points="666.7272,-319.7951 656.4958,-317.0441 662.7785,-325.5751 666.7272,-319.7951"/>
<text text-anchor="middle" x="819" y="-776.8" font-family="Times,serif" font-size="14.00" fill="#000000">has_concept</text>
</g>
<!-- relationship&#45;&gt;node -->
<g id="edge10" class="edge">
<title>relationship&#45;&gt;node</title>
<path fill="none" stroke="#000000" d="M634.0795,-1301.2139C631.3279,-1295.2265 628.9266,-1289.1347 627,-1283 624.6432,-1275.4955 623.5161,-1267.6299 623.2986,-1259.6877"/>
<polygon fill="#000000" stroke="#000000" points="626.7994,-1259.6713 623.4855,-1249.6081 619.8006,-1259.5415 626.7994,-1259.6713"/>
<text text-anchor="middle" x="654.5" y="-1271.8" font-family="Times,serif" font-size="14.00" fill="#000000">has_dst</text>
</g>
<!-- relationship&#45;&gt;node -->
<g id="edge18" class="edge">
<title>relationship&#45;&gt;node</title>
<path fill="none" stroke="#000000" d="M689.4563,-1301.322C687.2024,-1290.0445 684.7111,-1278.7228 682,-1268 681.2922,-1265.2007 680.5447,-1262.3662 679.7651,-1259.5117"/>
<polygon fill="#000000" stroke="#000000" points="683.0938,-1258.4204 677.0019,-1249.7521 676.3585,-1260.3274 683.0938,-1258.4204"/>
<text text-anchor="middle" x="713.5" y="-1271.8" font-family="Times,serif" font-size="14.00" fill="#000000">has_src</text>
</g>
</g>
</svg>
