<?xml version="1.0" encoding="UTF-8" standalone="no"?>
<!DOCTYPE svg PUBLIC "-//W3C//DTD SVG 1.1//EN"
 "http://www.w3.org/Graphics/SVG/1.1/DTD/svg11.dtd">
<!-- Generated by graphviz version 2.40.1 (20161225.0304)
 -->
<!-- Title: Perl Pages: 1 -->
<svg width="960pt" height="1494pt"
 viewBox="0.00 0.00 960.00 1494.00" xmlns="http://www.w3.org/2000/svg" xmlns:xlink="http://www.w3.org/1999/xlink">
<g id="graph0" class="graph" transform="scale(1 1) rotate(0) translate(4 1490)">
<title>Perl</title>
<polygon fill="#ffffff" stroke="transparent" points="-4,4 -4,-1490 956,-1490 956,4 -4,4"/>
<!-- concept -->
<g id="node1" class="node">
<title>concept</title>
<path fill="none" stroke="#000000" d="M611,-225C611,-225 777,-225 777,-225 783,-225 789,-231 789,-237 789,-237 789,-305 789,-305 789,-311 783,-317 777,-317 777,-317 611,-317 611,-317 605,-317 599,-311 599,-305 599,-305 599,-237 599,-237 599,-231 605,-225 611,-225"/>
<text text-anchor="middle" x="636" y="-267.3" font-family="Times,serif" font-size="14.00" fill="#000000">concept</text>
<polyline fill="none" stroke="#000000" points="673,-225 673,-317 "/>
<text text-anchor="middle" x="683.5" y="-267.3" font-family="Times,serif" font-size="14.00" fill="#000000"> </text>
<polyline fill="none" stroke="#000000" points="694,-225 694,-317 "/>
<text text-anchor="middle" x="731" y="-301.8" font-family="Times,serif" font-size="14.00" fill="#000000">desc</text>
<polyline fill="none" stroke="#000000" points="694,-294 768,-294 "/>
<text text-anchor="middle" x="731" y="-278.8" font-family="Times,serif" font-size="14.00" fill="#000000">id</text>
<polyline fill="none" stroke="#000000" points="694,-271 768,-271 "/>
<text text-anchor="middle" x="731" y="-255.8" font-family="Times,serif" font-size="14.00" fill="#000000">nanoid6</text>
<polyline fill="none" stroke="#000000" points="694,-248 768,-248 "/>
<text text-anchor="middle" x="731" y="-232.8" font-family="Times,serif" font-size="14.00" fill="#000000">nanoid8</text>
<polyline fill="none" stroke="#000000" points="768,-225 768,-317 "/>
<text text-anchor="middle" x="778.5" y="-267.3" font-family="Times,serif" font-size="14.00" fill="#000000"> </text>
</g>
<!-- tag -->
<g id="node3" class="node">
<title>tag</title>
<path fill="none" stroke="#000000" d="M123,-.5C123,-.5 255,-.5 255,-.5 261,-.5 267,-6.5 267,-12.5 267,-12.5 267,-126.5 267,-126.5 267,-132.5 261,-138.5 255,-138.5 255,-138.5 123,-138.5 123,-138.5 117,-138.5 111,-132.5 111,-126.5 111,-126.5 111,-12.5 111,-12.5 111,-6.5 117,-.5 123,-.5"/>
<text text-anchor="middle" x="131" y="-65.8" font-family="Times,serif" font-size="14.00" fill="#000000">tag</text>
<polyline fill="none" stroke="#000000" points="151,-.5 151,-138.5 "/>
<text text-anchor="middle" x="161.5" y="-65.8" font-family="Times,serif" font-size="14.00" fill="#000000"> </text>
<polyline fill="none" stroke="#000000" points="172,-.5 172,-138.5 "/>
<text text-anchor="middle" x="209" y="-123.3" font-family="Times,serif" font-size="14.00" fill="#000000">desc</text>
<polyline fill="none" stroke="#000000" points="172,-115.5 246,-115.5 "/>
<text text-anchor="middle" x="209" y="-100.3" font-family="Times,serif" font-size="14.00" fill="#000000">id</text>
<polyline fill="none" stroke="#000000" points="172,-92.5 246,-92.5 "/>
<text text-anchor="middle" x="209" y="-77.3" font-family="Times,serif" font-size="14.00" fill="#000000">key</text>
<polyline fill="none" stroke="#000000" points="172,-69.5 246,-69.5 "/>
<text text-anchor="middle" x="209" y="-54.3" font-family="Times,serif" font-size="14.00" fill="#000000">nanoid6</text>
<polyline fill="none" stroke="#000000" points="172,-46.5 246,-46.5 "/>
<text text-anchor="middle" x="209" y="-31.3" font-family="Times,serif" font-size="14.00" fill="#000000">nanoid8</text>
<polyline fill="none" stroke="#000000" points="172,-23.5 246,-23.5 "/>
<text text-anchor="middle" x="209" y="-8.3" font-family="Times,serif" font-size="14.00" fill="#000000">value</text>
<polyline fill="none" stroke="#000000" points="246,-.5 246,-138.5 "/>
<text text-anchor="middle" x="256.5" y="-65.8" font-family="Times,serif" font-size="14.00" fill="#000000"> </text>
</g>
<!-- concept&#45;&gt;tag -->
<g id="edge11" class="edge">
<title>concept&#45;&gt;tag</title>
<path fill="none" stroke="#000000" d="M616.9165,-224.7948C595.051,-212.6403 570.9435,-200.1135 548,-190 458.0414,-150.3462 350.6853,-115.9031 276.9505,-94.1132"/>
<polygon fill="#000000" stroke="#000000" points="277.8079,-90.7173 267.2268,-91.2555 275.8341,-97.4332 277.8079,-90.7173"/>
<text text-anchor="middle" x="528" y="-160.8" font-family="Times,serif" font-size="14.00" fill="#000000">has_tag</text>
</g>
<!-- node -->
<g id="node2" class="node">
<title>node</title>
<path fill="none" stroke="#000000" d="M516.5,-1088.5C516.5,-1088.5 665.5,-1088.5 665.5,-1088.5 671.5,-1088.5 677.5,-1094.5 677.5,-1100.5 677.5,-1100.5 677.5,-1237.5 677.5,-1237.5 677.5,-1243.5 671.5,-1249.5 665.5,-1249.5 665.5,-1249.5 516.5,-1249.5 516.5,-1249.5 510.5,-1249.5 504.5,-1243.5 504.5,-1237.5 504.5,-1237.5 504.5,-1100.5 504.5,-1100.5 504.5,-1094.5 510.5,-1088.5 516.5,-1088.5"/>
<text text-anchor="middle" x="530" y="-1165.3" font-family="Times,serif" font-size="14.00" fill="#000000">node</text>
<polyline fill="none" stroke="#000000" points="555.5,-1088.5 555.5,-1249.5 "/>
<text text-anchor="middle" x="566" y="-1165.3" font-family="Times,serif" font-size="14.00" fill="#000000"> </text>
<polyline fill="none" stroke="#000000" points="576.5,-1088.5 576.5,-1249.5 "/>
<text text-anchor="middle" x="616.5" y="-1234.3" font-family="Times,serif" font-size="14.00" fill="#000000">category</text>
<polyline fill="none" stroke="#000000" points="576.5,-1226.5 656.5,-1226.5 "/>
<text text-anchor="middle" x="616.5" y="-1211.3" font-family="Times,serif" font-size="14.00" fill="#000000">desc</text>
<polyline fill="none" stroke="#000000" points="576.5,-1203.5 656.5,-1203.5 "/>
<text text-anchor="middle" x="616.5" y="-1188.3" font-family="Times,serif" font-size="14.00" fill="#000000">handle</text>
<polyline fill="none" stroke="#000000" points="576.5,-1180.5 656.5,-1180.5 "/>
<text text-anchor="middle" x="616.5" y="-1165.3" font-family="Times,serif" font-size="14.00" fill="#000000">id</text>
<polyline fill="none" stroke="#000000" points="576.5,-1157.5 656.5,-1157.5 "/>
<text text-anchor="middle" x="616.5" y="-1142.3" font-family="Times,serif" font-size="14.00" fill="#000000">model</text>
<polyline fill="none" stroke="#000000" points="576.5,-1134.5 656.5,-1134.5 "/>
<text text-anchor="middle" x="616.5" y="-1119.3" font-family="Times,serif" font-size="14.00" fill="#000000">nanoid6</text>
<polyline fill="none" stroke="#000000" points="576.5,-1111.5 656.5,-1111.5 "/>
<text text-anchor="middle" x="616.5" y="-1096.3" font-family="Times,serif" font-size="14.00" fill="#000000">nanoid8</text>
<polyline fill="none" stroke="#000000" points="656.5,-1088.5 656.5,-1249.5 "/>
<text text-anchor="middle" x="667" y="-1165.3" font-family="Times,serif" font-size="14.00" fill="#000000"> </text>
</g>
<!-- node&#45;&gt;concept -->
<g id="edge9" class="edge">
<title>node&#45;&gt;concept</title>
<path fill="none" stroke="#000000" d="M677.8103,-1097.3183C694.0164,-1079.4153 708.7479,-1058.9832 718,-1037 727.502,-1014.4231 757.8599,-622.4685 759,-598 759.3103,-591.3406 759.1408,-589.6652 759,-583 756.9996,-488.27 776.049,-461.1001 750,-370 745.7249,-355.0487 738.7807,-339.9277 731.2142,-326.1563"/>
<polygon fill="#000000" stroke="#000000" points="734.1678,-324.2701 726.1739,-317.3168 728.0869,-327.7375 734.1678,-324.2701"/>
<text text-anchor="middle" x="802" y="-681.8" font-family="Times,serif" font-size="14.00" fill="#000000">has_concept</text>
</g>
<!-- node&#45;&gt;tag -->
<g id="edge12" class="edge">
<title>node&#45;&gt;tag</title>
<path fill="none" stroke="#000000" d="M504.4197,-1145.8718C359.6144,-1104.6122 84,-1013.9392 84,-921.5 84,-921.5 84,-921.5 84,-271 84,-226.8113 104.1047,-182.7127 126.7193,-147.0862"/>
<polygon fill="#000000" stroke="#000000" points="129.6669,-148.9737 132.1977,-138.6855 123.8035,-145.15 129.6669,-148.9737"/>
<text text-anchor="middle" x="112" y="-586.8" font-family="Times,serif" font-size="14.00" fill="#000000">has_tag</text>
</g>
<!-- property -->
<g id="node6" class="node">
<title>property</title>
<path fill="none" stroke="#000000" d="M485,-806.5C485,-806.5 697,-806.5 697,-806.5 703,-806.5 709,-812.5 709,-818.5 709,-818.5 709,-1024.5 709,-1024.5 709,-1030.5 703,-1036.5 697,-1036.5 697,-1036.5 485,-1036.5 485,-1036.5 479,-1036.5 473,-1030.5 473,-1024.5 473,-1024.5 473,-818.5 473,-818.5 473,-812.5 479,-806.5 485,-806.5"/>
<text text-anchor="middle" x="512.5" y="-917.8" font-family="Times,serif" font-size="14.00" fill="#000000">property</text>
<polyline fill="none" stroke="#000000" points="552,-806.5 552,-1036.5 "/>
<text text-anchor="middle" x="562.5" y="-917.8" font-family="Times,serif" font-size="14.00" fill="#000000"> </text>
<polyline fill="none" stroke="#000000" points="573,-806.5 573,-1036.5 "/>
<text text-anchor="middle" x="630.5" y="-1021.3" font-family="Times,serif" font-size="14.00" fill="#000000">desc</text>
<polyline fill="none" stroke="#000000" points="573,-1013.5 688,-1013.5 "/>
<text text-anchor="middle" x="630.5" y="-998.3" font-family="Times,serif" font-size="14.00" fill="#000000">handle</text>
<polyline fill="none" stroke="#000000" points="573,-990.5 688,-990.5 "/>
<text text-anchor="middle" x="630.5" y="-975.3" font-family="Times,serif" font-size="14.00" fill="#000000">id</text>
<polyline fill="none" stroke="#000000" points="573,-967.5 688,-967.5 "/>
<text text-anchor="middle" x="630.5" y="-952.3" font-family="Times,serif" font-size="14.00" fill="#000000">is_required</text>
<polyline fill="none" stroke="#000000" points="573,-944.5 688,-944.5 "/>
<text text-anchor="middle" x="630.5" y="-929.3" font-family="Times,serif" font-size="14.00" fill="#000000">model</text>
<polyline fill="none" stroke="#000000" points="573,-921.5 688,-921.5 "/>
<text text-anchor="middle" x="630.5" y="-906.3" font-family="Times,serif" font-size="14.00" fill="#000000">nanoid6</text>
<polyline fill="none" stroke="#000000" points="573,-898.5 688,-898.5 "/>
<text text-anchor="middle" x="630.5" y="-883.3" font-family="Times,serif" font-size="14.00" fill="#000000">nanoid8</text>
<polyline fill="none" stroke="#000000" points="573,-875.5 688,-875.5 "/>
<text text-anchor="middle" x="630.5" y="-860.3" font-family="Times,serif" font-size="14.00" fill="#000000">pattern</text>
<polyline fill="none" stroke="#000000" points="573,-852.5 688,-852.5 "/>
<text text-anchor="middle" x="630.5" y="-837.3" font-family="Times,serif" font-size="14.00" fill="#000000">units</text>
<polyline fill="none" stroke="#000000" points="573,-829.5 688,-829.5 "/>
<text text-anchor="middle" x="630.5" y="-814.3" font-family="Times,serif" font-size="14.00" fill="#000000">value_domain</text>
<polyline fill="none" stroke="#000000" points="688,-806.5 688,-1036.5 "/>
<text text-anchor="middle" x="698.5" y="-917.8" font-family="Times,serif" font-size="14.00" fill="#000000"> </text>
</g>
<!-- node&#45;&gt;property -->
<g id="edge5" class="edge">
<title>node&#45;&gt;property</title>
<path fill="none" stroke="#000000" d="M591,-1088.3017C591,-1075.0207 591,-1060.9838 591,-1046.9183"/>
<polygon fill="#000000" stroke="#000000" points="594.5001,-1046.6816 591,-1036.6817 587.5001,-1046.6817 594.5001,-1046.6816"/>
<text text-anchor="middle" x="638.5" y="-1058.8" font-family="Times,serif" font-size="14.00" fill="#000000">has_property</text>
</g>
<!-- term -->
<g id="node4" class="node">
<title>term</title>
<path fill="none" stroke="#000000" d="M365.5,-403.5C365.5,-403.5 568.5,-403.5 568.5,-403.5 574.5,-403.5 580.5,-409.5 580.5,-415.5 580.5,-415.5 580.5,-552.5 580.5,-552.5 580.5,-558.5 574.5,-564.5 568.5,-564.5 568.5,-564.5 365.5,-564.5 365.5,-564.5 359.5,-564.5 353.5,-558.5 353.5,-552.5 353.5,-552.5 353.5,-415.5 353.5,-415.5 353.5,-409.5 359.5,-403.5 365.5,-403.5"/>
<text text-anchor="middle" x="379" y="-480.3" font-family="Times,serif" font-size="14.00" fill="#000000">term</text>
<polyline fill="none" stroke="#000000" points="404.5,-403.5 404.5,-564.5 "/>
<text text-anchor="middle" x="415" y="-480.3" font-family="Times,serif" font-size="14.00" fill="#000000"> </text>
<polyline fill="none" stroke="#000000" points="425.5,-403.5 425.5,-564.5 "/>
<text text-anchor="middle" x="492.5" y="-549.3" font-family="Times,serif" font-size="14.00" fill="#000000">desc</text>
<polyline fill="none" stroke="#000000" points="425.5,-541.5 559.5,-541.5 "/>
<text text-anchor="middle" x="492.5" y="-526.3" font-family="Times,serif" font-size="14.00" fill="#000000">id</text>
<polyline fill="none" stroke="#000000" points="425.5,-518.5 559.5,-518.5 "/>
<text text-anchor="middle" x="492.5" y="-503.3" font-family="Times,serif" font-size="14.00" fill="#000000">nanoid6</text>
<polyline fill="none" stroke="#000000" points="425.5,-495.5 559.5,-495.5 "/>
<text text-anchor="middle" x="492.5" y="-480.3" font-family="Times,serif" font-size="14.00" fill="#000000">nanoid8</text>
<polyline fill="none" stroke="#000000" points="425.5,-472.5 559.5,-472.5 "/>
<text text-anchor="middle" x="492.5" y="-457.3" font-family="Times,serif" font-size="14.00" fill="#000000">origin_definition</text>
<polyline fill="none" stroke="#000000" points="425.5,-449.5 559.5,-449.5 "/>
<text text-anchor="middle" x="492.5" y="-434.3" font-family="Times,serif" font-size="14.00" fill="#000000">origin_id</text>
<polyline fill="none" stroke="#000000" points="425.5,-426.5 559.5,-426.5 "/>
<text text-anchor="middle" x="492.5" y="-411.3" font-family="Times,serif" font-size="14.00" fill="#000000">value</text>
<polyline fill="none" stroke="#000000" points="559.5,-403.5 559.5,-564.5 "/>
<text text-anchor="middle" x="570" y="-480.3" font-family="Times,serif" font-size="14.00" fill="#000000"> </text>
</g>
<!-- term&#45;&gt;concept -->
<g id="edge2" class="edge">
<title>term&#45;&gt;concept</title>
<path fill="none" stroke="#000000" d="M500.5191,-403.4924C507.5539,-391.4904 515.7098,-379.8578 525,-370 531.6111,-362.985 565.5215,-342.7617 601.2508,-322.407"/>
<polygon fill="#000000" stroke="#000000" points="603.3895,-325.2177 610.3582,-317.2372 599.9338,-319.13 603.3895,-325.2177"/>
<text text-anchor="middle" x="564" y="-373.8" font-family="Times,serif" font-size="14.00" fill="#000000">represents</text>
</g>
<!-- term&#45;&gt;tag -->
<g id="edge10" class="edge">
<title>term&#45;&gt;tag</title>
<path fill="none" stroke="#000000" d="M353.4784,-405.7736C314.275,-378.5659 279.617,-354.2031 278,-352 254.0623,-319.3864 225.9278,-220.1391 207.799,-148.4913"/>
<polygon fill="#000000" stroke="#000000" points="211.1389,-147.421 205.3088,-138.5745 204.3497,-149.1258 211.1389,-147.421"/>
<text text-anchor="middle" x="306" y="-267.3" font-family="Times,serif" font-size="14.00" fill="#000000">has_tag</text>
</g>
<!-- origin -->
<g id="node5" class="node">
<title>origin</title>
<path fill="none" stroke="#000000" d="M355,-190.5C355,-190.5 527,-190.5 527,-190.5 533,-190.5 539,-196.5 539,-202.5 539,-202.5 539,-339.5 539,-339.5 539,-345.5 533,-351.5 527,-351.5 527,-351.5 355,-351.5 355,-351.5 349,-351.5 343,-345.5 343,-339.5 343,-339.5 343,-202.5 343,-202.5 343,-196.5 349,-190.5 355,-190.5"/>
<text text-anchor="middle" x="372.5" y="-267.3" font-family="Times,serif" font-size="14.00" fill="#000000">origin</text>
<polyline fill="none" stroke="#000000" points="402,-190.5 402,-351.5 "/>
<text text-anchor="middle" x="412.5" y="-267.3" font-family="Times,serif" font-size="14.00" fill="#000000"> </text>
<polyline fill="none" stroke="#000000" points="423,-190.5 423,-351.5 "/>
<text text-anchor="middle" x="470.5" y="-336.3" font-family="Times,serif" font-size="14.00" fill="#000000">desc</text>
<polyline fill="none" stroke="#000000" points="423,-328.5 518,-328.5 "/>
<text text-anchor="middle" x="470.5" y="-313.3" font-family="Times,serif" font-size="14.00" fill="#000000">id</text>
<polyline fill="none" stroke="#000000" points="423,-305.5 518,-305.5 "/>
<text text-anchor="middle" x="470.5" y="-290.3" font-family="Times,serif" font-size="14.00" fill="#000000">is_external</text>
<polyline fill="none" stroke="#000000" points="423,-282.5 518,-282.5 "/>
<text text-anchor="middle" x="470.5" y="-267.3" font-family="Times,serif" font-size="14.00" fill="#000000">name</text>
<polyline fill="none" stroke="#000000" points="423,-259.5 518,-259.5 "/>
<text text-anchor="middle" x="470.5" y="-244.3" font-family="Times,serif" font-size="14.00" fill="#000000">nanoid6</text>
<polyline fill="none" stroke="#000000" points="423,-236.5 518,-236.5 "/>
<text text-anchor="middle" x="470.5" y="-221.3" font-family="Times,serif" font-size="14.00" fill="#000000">nanoid8</text>
<polyline fill="none" stroke="#000000" points="423,-213.5 518,-213.5 "/>
<text text-anchor="middle" x="470.5" y="-198.3" font-family="Times,serif" font-size="14.00" fill="#000000">url</text>
<polyline fill="none" stroke="#000000" points="518,-190.5 518,-351.5 "/>
<text text-anchor="middle" x="528.5" y="-267.3" font-family="Times,serif" font-size="14.00" fill="#000000"> </text>
</g>
<!-- term&#45;&gt;origin -->
<g id="edge18" class="edge">
<title>term&#45;&gt;origin</title>
<path fill="none" stroke="#000000" d="M431.561,-403.4569C429.7448,-397.2917 428.185,-391.0959 427,-385 425.5286,-377.4304 424.8212,-369.5463 424.6805,-361.6154"/>
<polygon fill="#000000" stroke="#000000" points="428.1808,-361.6026 424.7907,-351.5649 421.1812,-361.5259 428.1808,-361.6026"/>
<text text-anchor="middle" x="464.5" y="-373.8" font-family="Times,serif" font-size="14.00" fill="#000000">has_origin</text>
</g>
<!-- origin&#45;&gt;tag -->
<g id="edge13" class="edge">
<title>origin&#45;&gt;tag</title>
<path fill="none" stroke="#000000" d="M342.8486,-192.5179C320.4476,-174.6059 296.8104,-155.7055 274.9649,-138.2378"/>
<polygon fill="#000000" stroke="#000000" points="276.9992,-135.3831 267.0032,-131.8716 272.6277,-140.8503 276.9992,-135.3831"/>
<text text-anchor="middle" x="343" y="-160.8" font-family="Times,serif" font-size="14.00" fill="#000000">has_tag</text>
</g>
<!-- property&#45;&gt;concept -->
<g id="edge8" class="edge">
<title>property&#45;&gt;concept</title>
<path fill="none" stroke="#000000" d="M616.8254,-806.4923C638.7742,-709.2052 667.0445,-585.1763 669,-583 685.346,-564.8085 706.8143,-584.922 721,-565 770.9125,-494.9044 743.7493,-390.3074 719.1359,-326.6054"/>
<polygon fill="#000000" stroke="#000000" points="722.3172,-325.1331 715.3762,-317.1285 715.8106,-327.7145 722.3172,-325.1331"/>
<text text-anchor="middle" x="714" y="-586.8" font-family="Times,serif" font-size="14.00" fill="#000000">has_concept</text>
</g>
<!-- property&#45;&gt;tag -->
<g id="edge15" class="edge">
<title>property&#45;&gt;tag</title>
<path fill="none" stroke="#000000" d="M472.8997,-867.6596C363.4934,-810.3227 208.2899,-708.0525 144,-565 82.5998,-428.3775 125.028,-249.4934 158.7965,-148.2872"/>
<polygon fill="#000000" stroke="#000000" points="162.1373,-149.3339 162.0336,-138.7395 155.5079,-147.0862 162.1373,-149.3339"/>
<text text-anchor="middle" x="172" y="-480.3" font-family="Times,serif" font-size="14.00" fill="#000000">has_tag</text>
</g>
<!-- value_set -->
<g id="node8" class="node">
<title>value_set</title>
<path fill="none" stroke="#000000" d="M379,-616.5C379,-616.5 555,-616.5 555,-616.5 561,-616.5 567,-622.5 567,-628.5 567,-628.5 567,-742.5 567,-742.5 567,-748.5 561,-754.5 555,-754.5 555,-754.5 379,-754.5 379,-754.5 373,-754.5 367,-748.5 367,-742.5 367,-742.5 367,-628.5 367,-628.5 367,-622.5 373,-616.5 379,-616.5"/>
<text text-anchor="middle" x="409" y="-681.8" font-family="Times,serif" font-size="14.00" fill="#000000">value_set</text>
<polyline fill="none" stroke="#000000" points="451,-616.5 451,-754.5 "/>
<text text-anchor="middle" x="461.5" y="-681.8" font-family="Times,serif" font-size="14.00" fill="#000000"> </text>
<polyline fill="none" stroke="#000000" points="472,-616.5 472,-754.5 "/>
<text text-anchor="middle" x="509" y="-739.3" font-family="Times,serif" font-size="14.00" fill="#000000">desc</text>
<polyline fill="none" stroke="#000000" points="472,-731.5 546,-731.5 "/>
<text text-anchor="middle" x="509" y="-716.3" font-family="Times,serif" font-size="14.00" fill="#000000">handle</text>
<polyline fill="none" stroke="#000000" points="472,-708.5 546,-708.5 "/>
<text text-anchor="middle" x="509" y="-693.3" font-family="Times,serif" font-size="14.00" fill="#000000">id</text>
<polyline fill="none" stroke="#000000" points="472,-685.5 546,-685.5 "/>
<text text-anchor="middle" x="509" y="-670.3" font-family="Times,serif" font-size="14.00" fill="#000000">nanoid6</text>
<polyline fill="none" stroke="#000000" points="472,-662.5 546,-662.5 "/>
<text text-anchor="middle" x="509" y="-647.3" font-family="Times,serif" font-size="14.00" fill="#000000">nanoid8</text>
<polyline fill="none" stroke="#000000" points="472,-639.5 546,-639.5 "/>
<text text-anchor="middle" x="509" y="-624.3" font-family="Times,serif" font-size="14.00" fill="#000000">url</text>
<polyline fill="none" stroke="#000000" points="546,-616.5 546,-754.5 "/>
<text text-anchor="middle" x="556.5" y="-681.8" font-family="Times,serif" font-size="14.00" fill="#000000"> </text>
</g>
<!-- property&#45;&gt;value_set -->
<g id="edge3" class="edge">
<title>property&#45;&gt;value_set</title>
<path fill="none" stroke="#000000" d="M530.453,-806.2654C522.8379,-791.7722 515.1936,-777.2233 507.9798,-763.4939"/>
<polygon fill="#000000" stroke="#000000" points="511.0559,-761.8234 503.3062,-754.5989 504.8592,-765.0793 511.0559,-761.8234"/>
<text text-anchor="middle" x="567" y="-776.8" font-family="Times,serif" font-size="14.00" fill="#000000">has_value_set</text>
</g>
<!-- relationship -->
<g id="node7" class="node">
<title>relationship</title>
<path fill="none" stroke="#000000" d="M559.5,-1301.5C559.5,-1301.5 778.5,-1301.5 778.5,-1301.5 784.5,-1301.5 790.5,-1307.5 790.5,-1313.5 790.5,-1313.5 790.5,-1473.5 790.5,-1473.5 790.5,-1479.5 784.5,-1485.5 778.5,-1485.5 778.5,-1485.5 559.5,-1485.5 559.5,-1485.5 553.5,-1485.5 547.5,-1479.5 547.5,-1473.5 547.5,-1473.5 547.5,-1313.5 547.5,-1313.5 547.5,-1307.5 553.5,-1301.5 559.5,-1301.5"/>
<text text-anchor="middle" x="598.5" y="-1389.8" font-family="Times,serif" font-size="14.00" fill="#000000">relationship</text>
<polyline fill="none" stroke="#000000" points="649.5,-1301.5 649.5,-1485.5 "/>
<text text-anchor="middle" x="660" y="-1389.8" font-family="Times,serif" font-size="14.00" fill="#000000"> </text>
<polyline fill="none" stroke="#000000" points="670.5,-1301.5 670.5,-1485.5 "/>
<text text-anchor="middle" x="720" y="-1470.3" font-family="Times,serif" font-size="14.00" fill="#000000">desc</text>
<polyline fill="none" stroke="#000000" points="670.5,-1462.5 769.5,-1462.5 "/>
<text text-anchor="middle" x="720" y="-1447.3" font-family="Times,serif" font-size="14.00" fill="#000000">handle</text>
<polyline fill="none" stroke="#000000" points="670.5,-1439.5 769.5,-1439.5 "/>
<text text-anchor="middle" x="720" y="-1424.3" font-family="Times,serif" font-size="14.00" fill="#000000">id</text>
<polyline fill="none" stroke="#000000" points="670.5,-1416.5 769.5,-1416.5 "/>
<text text-anchor="middle" x="720" y="-1401.3" font-family="Times,serif" font-size="14.00" fill="#000000">is_required</text>
<polyline fill="none" stroke="#000000" points="670.5,-1393.5 769.5,-1393.5 "/>
<text text-anchor="middle" x="720" y="-1378.3" font-family="Times,serif" font-size="14.00" fill="#000000">model</text>
<polyline fill="none" stroke="#000000" points="670.5,-1370.5 769.5,-1370.5 "/>
<text text-anchor="middle" x="720" y="-1355.3" font-family="Times,serif" font-size="14.00" fill="#000000">multiplicity</text>
<polyline fill="none" stroke="#000000" points="670.5,-1347.5 769.5,-1347.5 "/>
<text text-anchor="middle" x="720" y="-1332.3" font-family="Times,serif" font-size="14.00" fill="#000000">nanoid6</text>
<polyline fill="none" stroke="#000000" points="670.5,-1324.5 769.5,-1324.5 "/>
<text text-anchor="middle" x="720" y="-1309.3" font-family="Times,serif" font-size="14.00" fill="#000000">nanoid8</text>
<polyline fill="none" stroke="#000000" points="769.5,-1301.5 769.5,-1485.5 "/>
<text text-anchor="middle" x="780" y="-1389.8" font-family="Times,serif" font-size="14.00" fill="#000000"> </text>
</g>
<!-- relationship&#45;&gt;concept -->
<g id="edge6" class="edge">
<title>relationship&#45;&gt;concept</title>
<path fill="none" stroke="#000000" d="M790.6823,-1308.1812C829.222,-1270.8852 862,-1223.2256 862,-1169 862,-1169 862,-1169 862,-484 862,-418.9984 813.1701,-362.1752 768.161,-323.6051"/>
<polygon fill="#000000" stroke="#000000" points="770.3097,-320.8393 760.398,-317.0964 765.8123,-326.2033 770.3097,-320.8393"/>
<text text-anchor="middle" x="907" y="-776.8" font-family="Times,serif" font-size="14.00" fill="#000000">has_concept</text>
</g>
<!-- relationship&#45;&gt;node -->
<g id="edge1" class="edge">
<title>relationship&#45;&gt;node</title>
<path fill="none" stroke="#000000" d="M599.1438,-1301.1935C596.3759,-1295.2113 593.9535,-1289.1262 592,-1283 589.6324,-1275.5751 587.9694,-1267.7373 586.8503,-1259.7893"/>
<polygon fill="#000000" stroke="#000000" points="590.3096,-1259.2307 585.7117,-1249.6857 583.3537,-1260.0147 590.3096,-1259.2307"/>
<text text-anchor="middle" x="619.5" y="-1271.8" font-family="Times,serif" font-size="14.00" fill="#000000">has_src</text>
</g>
<!-- relationship&#45;&gt;node -->
<g id="edge20" class="edge">
<title>relationship&#45;&gt;node</title>
<path fill="none" stroke="#000000" d="M656.5941,-1301.388C653.9694,-1289.9892 650.8064,-1278.6199 647,-1268 645.9007,-1264.9329 644.7104,-1261.8498 643.4455,-1258.7657"/>
<polygon fill="#000000" stroke="#000000" points="646.6293,-1257.31 639.4432,-1249.5248 640.2059,-1260.0921 646.6293,-1257.31"/>
<text text-anchor="middle" x="678.5" y="-1271.8" font-family="Times,serif" font-size="14.00" fill="#000000">has_dst</text>
</g>
<!-- relationship&#45;&gt;tag -->
<g id="edge14" class="edge">
<title>relationship&#45;&gt;tag</title>
<path fill="none" stroke="#000000" d="M547.4613,-1378.0486C354.5859,-1350.0899 0,-1283.165 0,-1169 0,-1169 0,-1169 0,-271 0,-206.1435 52.7324,-153.5829 102.4895,-118.4239"/>
<polygon fill="#000000" stroke="#000000" points="104.5199,-121.2754 110.7622,-112.7147 100.5438,-115.5141 104.5199,-121.2754"/>
<text text-anchor="middle" x="28" y="-681.8" font-family="Times,serif" font-size="14.00" fill="#000000">has_tag</text>
</g>
<!-- relationship&#45;&gt;property -->
<g id="edge4" class="edge">
<title>relationship&#45;&gt;property</title>
<path fill="none" stroke="#000000" d="M705.9065,-1301.3234C707.5216,-1295.1854 708.9152,-1289.042 710,-1283 716.0941,-1249.0573 763.2715,-1246.259 690,-1055 688.8129,-1051.9013 687.5327,-1048.8117 686.1701,-1045.7364"/>
<polygon fill="#000000" stroke="#000000" points="689.2746,-1044.1137 681.846,-1036.5595 682.9423,-1047.0975 689.2746,-1044.1137"/>
<text text-anchor="middle" x="777.5" y="-1165.3" font-family="Times,serif" font-size="14.00" fill="#000000">has_property</text>
</g>
<!-- value_set&#45;&gt;concept -->
<g id="edge7" class="edge">
<title>value_set&#45;&gt;concept</title>
<path fill="none" stroke="#000000" d="M550.2909,-616.4932C565.2492,-600.8633 579.4212,-583.4005 590,-565 627.0176,-500.6125 605.7709,-472.8537 631,-403 640.3664,-377.0664 653.1217,-349.3842 664.7058,-326.1027"/>
<polygon fill="#000000" stroke="#000000" points="667.8783,-327.5844 669.2464,-317.0783 661.6252,-324.4382 667.8783,-327.5844"/>
<text text-anchor="middle" x="676" y="-480.3" font-family="Times,serif" font-size="14.00" fill="#000000">has_concept</text>
</g>
<!-- value_set&#45;&gt;tag -->
<g id="edge16" class="edge">
<title>value_set&#45;&gt;tag</title>
<path fill="none" stroke="#000000" d="M366.7797,-660.3889C318.6245,-642.5126 265.858,-612.9003 240,-565 202.2785,-495.1235 192.432,-270.5059 189.8793,-149.1214"/>
<polygon fill="#000000" stroke="#000000" points="193.3718,-148.706 189.6741,-138.7774 186.3732,-148.8448 193.3718,-148.706"/>
<text text-anchor="middle" x="230" y="-373.8" font-family="Times,serif" font-size="14.00" fill="#000000">has_tag</text>
</g>
<!-- value_set&#45;&gt;term -->
<g id="edge19" class="edge">
<title>value_set&#45;&gt;term</title>
<path fill="none" stroke="#000000" d="M467,-616.437C467,-603.0525 467,-588.8373 467,-574.8773"/>
<polygon fill="#000000" stroke="#000000" points="470.5001,-574.7729 467,-564.7729 463.5001,-574.773 470.5001,-574.7729"/>
<text text-anchor="middle" x="500.5" y="-586.8" font-family="Times,serif" font-size="14.00" fill="#000000">has_term</text>
</g>
<!-- value_set&#45;&gt;origin -->
<g id="edge17" class="edge">
<title>value_set&#45;&gt;origin</title>
<path fill="none" stroke="#000000" d="M366.8314,-649.1153C329.5426,-630.1181 291.1726,-602.7701 270,-565 234.7936,-502.1947 238.2486,-467.6208 270,-403 272.1627,-398.5984 301.1134,-375.7514 334.5973,-350.2692"/>
<polygon fill="#000000" stroke="#000000" points="336.8778,-352.9323 342.7263,-344.0979 332.6451,-347.3569 336.8778,-352.9323"/>
<text text-anchor="middle" x="307.5" y="-480.3" font-family="Times,serif" font-size="14.00" fill="#000000">has_origin</text>
</g>
</g>
</svg>
